<?xml version="1.0" encoding="utf-8" standalone="no"?>
<!DOCTYPE svg PUBLIC "-//W3C//DTD SVG 1.1//EN"
  "http://www.w3.org/Graphics/SVG/1.1/DTD/svg11.dtd">
<!-- Created with matplotlib (https://matplotlib.org/) -->
<svg height="345.6pt" version="1.1" viewBox="0 0 460.8 345.6" width="460.8pt" xmlns="http://www.w3.org/2000/svg" xmlns:xlink="http://www.w3.org/1999/xlink">
 <defs>
  <style type="text/css">
*{stroke-linecap:butt;stroke-linejoin:round;}
  </style>
 </defs>
 <g id="figure_1">
  <g id="patch_1">
   <path d="M 0 345.6 
L 460.8 345.6 
L 460.8 0 
L 0 0 
z
" style="fill:#ffffff;"/>
  </g>
  <g id="axes_1">
   <g id="patch_2">
    <path d="M 73.37 300.04 
L 439.83 300.04 
L 439.83 26.88 
L 73.37 26.88 
z
" style="fill:#ffffff;"/>
   </g>
   <g id="matplotlib.axis_1">
    <g id="xtick_1">
     <g id="line2d_1">
      <path clip-path="url(#p3e02e44cd0)" d="M 115.653846 300.04 
L 115.653846 26.88 
" style="fill:none;stroke:#b0b0b0;stroke-linecap:square;stroke-width:0.8;"/>
     </g>
     <g id="line2d_2">
      <defs>
       <path d="M 0 0 
L 0 3.5 
" id="m9e2d9e5fc8" style="stroke:#000000;stroke-width:0.8;"/>
      </defs>
      <g>
       <use style="stroke:#000000;stroke-width:0.8;" x="115.653846" xlink:href="#m9e2d9e5fc8" y="300.04"/>
      </g>
     </g>
     <g id="text_1">
      <!-- 2 -->
      <defs>
       <path d="M 19.1875 8.296875 
L 53.609375 8.296875 
L 53.609375 0 
L 7.328125 0 
L 7.328125 8.296875 
Q 12.9375 14.109375 22.625 23.890625 
Q 32.328125 33.6875 34.8125 36.53125 
Q 39.546875 41.84375 41.421875 45.53125 
Q 43.3125 49.21875 43.3125 52.78125 
Q 43.3125 58.59375 39.234375 62.25 
Q 35.15625 65.921875 28.609375 65.921875 
Q 23.96875 65.921875 18.8125 64.3125 
Q 13.671875 62.703125 7.8125 59.421875 
L 7.8125 69.390625 
Q 13.765625 71.78125 18.9375 73 
Q 24.125 74.21875 28.421875 74.21875 
Q 39.75 74.21875 46.484375 68.546875 
Q 53.21875 62.890625 53.21875 53.421875 
Q 53.21875 48.921875 51.53125 44.890625 
Q 49.859375 40.875 45.40625 35.40625 
Q 44.1875 33.984375 37.640625 27.21875 
Q 31.109375 20.453125 19.1875 8.296875 
z
" id="DejaVuSans-50"/>
      </defs>
      <g transform="translate(112.472596 314.638437)scale(0.1 -0.1)">
       <use xlink:href="#DejaVuSans-50"/>
      </g>
     </g>
    </g>
    <g id="xtick_2">
     <g id="line2d_3">
      <path clip-path="url(#p3e02e44cd0)" d="M 166.906993 300.04 
L 166.906993 26.88 
" style="fill:none;stroke:#b0b0b0;stroke-linecap:square;stroke-width:0.8;"/>
     </g>
     <g id="line2d_4">
      <g>
       <use style="stroke:#000000;stroke-width:0.8;" x="166.906993" xlink:href="#m9e2d9e5fc8" y="300.04"/>
      </g>
     </g>
     <g id="text_2">
      <!-- 4 -->
      <defs>
       <path d="M 37.796875 64.3125 
L 12.890625 25.390625 
L 37.796875 25.390625 
z
M 35.203125 72.90625 
L 47.609375 72.90625 
L 47.609375 25.390625 
L 58.015625 25.390625 
L 58.015625 17.1875 
L 47.609375 17.1875 
L 47.609375 0 
L 37.796875 0 
L 37.796875 17.1875 
L 4.890625 17.1875 
L 4.890625 26.703125 
z
" id="DejaVuSans-52"/>
      </defs>
      <g transform="translate(163.725743 314.638437)scale(0.1 -0.1)">
       <use xlink:href="#DejaVuSans-52"/>
      </g>
     </g>
    </g>
    <g id="xtick_3">
     <g id="line2d_5">
      <path clip-path="url(#p3e02e44cd0)" d="M 218.16014 300.04 
L 218.16014 26.88 
" style="fill:none;stroke:#b0b0b0;stroke-linecap:square;stroke-width:0.8;"/>
     </g>
     <g id="line2d_6">
      <g>
       <use style="stroke:#000000;stroke-width:0.8;" x="218.16014" xlink:href="#m9e2d9e5fc8" y="300.04"/>
      </g>
     </g>
     <g id="text_3">
      <!-- 6 -->
      <defs>
       <path d="M 33.015625 40.375 
Q 26.375 40.375 22.484375 35.828125 
Q 18.609375 31.296875 18.609375 23.390625 
Q 18.609375 15.53125 22.484375 10.953125 
Q 26.375 6.390625 33.015625 6.390625 
Q 39.65625 6.390625 43.53125 10.953125 
Q 47.40625 15.53125 47.40625 23.390625 
Q 47.40625 31.296875 43.53125 35.828125 
Q 39.65625 40.375 33.015625 40.375 
z
M 52.59375 71.296875 
L 52.59375 62.3125 
Q 48.875 64.0625 45.09375 64.984375 
Q 41.3125 65.921875 37.59375 65.921875 
Q 27.828125 65.921875 22.671875 59.328125 
Q 17.53125 52.734375 16.796875 39.40625 
Q 19.671875 43.65625 24.015625 45.921875 
Q 28.375 48.1875 33.59375 48.1875 
Q 44.578125 48.1875 50.953125 41.515625 
Q 57.328125 34.859375 57.328125 23.390625 
Q 57.328125 12.15625 50.6875 5.359375 
Q 44.046875 -1.421875 33.015625 -1.421875 
Q 20.359375 -1.421875 13.671875 8.265625 
Q 6.984375 17.96875 6.984375 36.375 
Q 6.984375 53.65625 15.1875 63.9375 
Q 23.390625 74.21875 37.203125 74.21875 
Q 40.921875 74.21875 44.703125 73.484375 
Q 48.484375 72.75 52.59375 71.296875 
z
" id="DejaVuSans-54"/>
      </defs>
      <g transform="translate(214.97889 314.638437)scale(0.1 -0.1)">
       <use xlink:href="#DejaVuSans-54"/>
      </g>
     </g>
    </g>
    <g id="xtick_4">
     <g id="line2d_7">
      <path clip-path="url(#p3e02e44cd0)" d="M 269.413287 300.04 
L 269.413287 26.88 
" style="fill:none;stroke:#b0b0b0;stroke-linecap:square;stroke-width:0.8;"/>
     </g>
     <g id="line2d_8">
      <g>
       <use style="stroke:#000000;stroke-width:0.8;" x="269.413287" xlink:href="#m9e2d9e5fc8" y="300.04"/>
      </g>
     </g>
     <g id="text_4">
      <!-- 8 -->
      <defs>
       <path d="M 31.78125 34.625 
Q 24.75 34.625 20.71875 30.859375 
Q 16.703125 27.09375 16.703125 20.515625 
Q 16.703125 13.921875 20.71875 10.15625 
Q 24.75 6.390625 31.78125 6.390625 
Q 38.8125 6.390625 42.859375 10.171875 
Q 46.921875 13.96875 46.921875 20.515625 
Q 46.921875 27.09375 42.890625 30.859375 
Q 38.875 34.625 31.78125 34.625 
z
M 21.921875 38.8125 
Q 15.578125 40.375 12.03125 44.71875 
Q 8.5 49.078125 8.5 55.328125 
Q 8.5 64.0625 14.71875 69.140625 
Q 20.953125 74.21875 31.78125 74.21875 
Q 42.671875 74.21875 48.875 69.140625 
Q 55.078125 64.0625 55.078125 55.328125 
Q 55.078125 49.078125 51.53125 44.71875 
Q 48 40.375 41.703125 38.8125 
Q 48.828125 37.15625 52.796875 32.3125 
Q 56.78125 27.484375 56.78125 20.515625 
Q 56.78125 9.90625 50.3125 4.234375 
Q 43.84375 -1.421875 31.78125 -1.421875 
Q 19.734375 -1.421875 13.25 4.234375 
Q 6.78125 9.90625 6.78125 20.515625 
Q 6.78125 27.484375 10.78125 32.3125 
Q 14.796875 37.15625 21.921875 38.8125 
z
M 18.3125 54.390625 
Q 18.3125 48.734375 21.84375 45.5625 
Q 25.390625 42.390625 31.78125 42.390625 
Q 38.140625 42.390625 41.71875 45.5625 
Q 45.3125 48.734375 45.3125 54.390625 
Q 45.3125 60.0625 41.71875 63.234375 
Q 38.140625 66.40625 31.78125 66.40625 
Q 25.390625 66.40625 21.84375 63.234375 
Q 18.3125 60.0625 18.3125 54.390625 
z
" id="DejaVuSans-56"/>
      </defs>
      <g transform="translate(266.232037 314.638437)scale(0.1 -0.1)">
       <use xlink:href="#DejaVuSans-56"/>
      </g>
     </g>
    </g>
    <g id="xtick_5">
     <g id="line2d_9">
      <path clip-path="url(#p3e02e44cd0)" d="M 320.666434 300.04 
L 320.666434 26.88 
" style="fill:none;stroke:#b0b0b0;stroke-linecap:square;stroke-width:0.8;"/>
     </g>
     <g id="line2d_10">
      <g>
       <use style="stroke:#000000;stroke-width:0.8;" x="320.666434" xlink:href="#m9e2d9e5fc8" y="300.04"/>
      </g>
     </g>
     <g id="text_5">
      <!-- 10 -->
      <defs>
       <path d="M 12.40625 8.296875 
L 28.515625 8.296875 
L 28.515625 63.921875 
L 10.984375 60.40625 
L 10.984375 69.390625 
L 28.421875 72.90625 
L 38.28125 72.90625 
L 38.28125 8.296875 
L 54.390625 8.296875 
L 54.390625 0 
L 12.40625 0 
z
" id="DejaVuSans-49"/>
       <path d="M 31.78125 66.40625 
Q 24.171875 66.40625 20.328125 58.90625 
Q 16.5 51.421875 16.5 36.375 
Q 16.5 21.390625 20.328125 13.890625 
Q 24.171875 6.390625 31.78125 6.390625 
Q 39.453125 6.390625 43.28125 13.890625 
Q 47.125 21.390625 47.125 36.375 
Q 47.125 51.421875 43.28125 58.90625 
Q 39.453125 66.40625 31.78125 66.40625 
z
M 31.78125 74.21875 
Q 44.046875 74.21875 50.515625 64.515625 
Q 56.984375 54.828125 56.984375 36.375 
Q 56.984375 17.96875 50.515625 8.265625 
Q 44.046875 -1.421875 31.78125 -1.421875 
Q 19.53125 -1.421875 13.0625 8.265625 
Q 6.59375 17.96875 6.59375 36.375 
Q 6.59375 54.828125 13.0625 64.515625 
Q 19.53125 74.21875 31.78125 74.21875 
z
" id="DejaVuSans-48"/>
      </defs>
      <g transform="translate(314.303934 314.638437)scale(0.1 -0.1)">
       <use xlink:href="#DejaVuSans-49"/>
       <use x="63.623047" xlink:href="#DejaVuSans-48"/>
      </g>
     </g>
    </g>
    <g id="xtick_6">
     <g id="line2d_11">
      <path clip-path="url(#p3e02e44cd0)" d="M 371.91958 300.04 
L 371.91958 26.88 
" style="fill:none;stroke:#b0b0b0;stroke-linecap:square;stroke-width:0.8;"/>
     </g>
     <g id="line2d_12">
      <g>
       <use style="stroke:#000000;stroke-width:0.8;" x="371.91958" xlink:href="#m9e2d9e5fc8" y="300.04"/>
      </g>
     </g>
     <g id="text_6">
      <!-- 12 -->
      <g transform="translate(365.55708 314.638437)scale(0.1 -0.1)">
       <use xlink:href="#DejaVuSans-49"/>
       <use x="63.623047" xlink:href="#DejaVuSans-50"/>
      </g>
     </g>
    </g>
    <g id="xtick_7">
     <g id="line2d_13">
      <path clip-path="url(#p3e02e44cd0)" d="M 423.172727 300.04 
L 423.172727 26.88 
" style="fill:none;stroke:#b0b0b0;stroke-linecap:square;stroke-width:0.8;"/>
     </g>
     <g id="line2d_14">
      <g>
       <use style="stroke:#000000;stroke-width:0.8;" x="423.172727" xlink:href="#m9e2d9e5fc8" y="300.04"/>
      </g>
     </g>
     <g id="text_7">
      <!-- 14 -->
      <g transform="translate(416.810227 314.638437)scale(0.1 -0.1)">
       <use xlink:href="#DejaVuSans-49"/>
       <use x="63.623047" xlink:href="#DejaVuSans-52"/>
      </g>
     </g>
    </g>
    <g id="xtick_8">
     <g id="line2d_15">
      <defs>
       <path d="M 0 0 
L 0 2 
" id="m8ae6fb9b78" style="stroke:#000000;stroke-width:0.6;"/>
      </defs>
      <g>
       <use style="stroke:#000000;stroke-width:0.6;" x="90.027273" xlink:href="#m8ae6fb9b78" y="300.04"/>
      </g>
     </g>
    </g>
    <g id="xtick_9">
     <g id="line2d_16">
      <g>
       <use style="stroke:#000000;stroke-width:0.6;" x="141.28042" xlink:href="#m8ae6fb9b78" y="300.04"/>
      </g>
     </g>
    </g>
    <g id="xtick_10">
     <g id="line2d_17">
      <g>
       <use style="stroke:#000000;stroke-width:0.6;" x="192.533566" xlink:href="#m8ae6fb9b78" y="300.04"/>
      </g>
     </g>
    </g>
    <g id="xtick_11">
     <g id="line2d_18">
      <g>
       <use style="stroke:#000000;stroke-width:0.6;" x="243.786713" xlink:href="#m8ae6fb9b78" y="300.04"/>
      </g>
     </g>
    </g>
    <g id="xtick_12">
     <g id="line2d_19">
      <g>
       <use style="stroke:#000000;stroke-width:0.6;" x="295.03986" xlink:href="#m8ae6fb9b78" y="300.04"/>
      </g>
     </g>
    </g>
    <g id="xtick_13">
     <g id="line2d_20">
      <g>
       <use style="stroke:#000000;stroke-width:0.6;" x="346.293007" xlink:href="#m8ae6fb9b78" y="300.04"/>
      </g>
     </g>
    </g>
    <g id="xtick_14">
     <g id="line2d_21">
      <g>
       <use style="stroke:#000000;stroke-width:0.6;" x="397.546154" xlink:href="#m8ae6fb9b78" y="300.04"/>
      </g>
     </g>
    </g>
    <g id="text_8">
     <!-- Frame number -->
     <defs>
      <path d="M 9.8125 72.90625 
L 51.703125 72.90625 
L 51.703125 64.59375 
L 19.671875 64.59375 
L 19.671875 43.109375 
L 48.578125 43.109375 
L 48.578125 34.8125 
L 19.671875 34.8125 
L 19.671875 0 
L 9.8125 0 
z
" id="DejaVuSans-70"/>
      <path d="M 41.109375 46.296875 
Q 39.59375 47.171875 37.8125 47.578125 
Q 36.03125 48 33.890625 48 
Q 26.265625 48 22.1875 43.046875 
Q 18.109375 38.09375 18.109375 28.8125 
L 18.109375 0 
L 9.078125 0 
L 9.078125 54.6875 
L 18.109375 54.6875 
L 18.109375 46.1875 
Q 20.953125 51.171875 25.484375 53.578125 
Q 30.03125 56 36.53125 56 
Q 37.453125 56 38.578125 55.875 
Q 39.703125 55.765625 41.0625 55.515625 
z
" id="DejaVuSans-114"/>
      <path d="M 34.28125 27.484375 
Q 23.390625 27.484375 19.1875 25 
Q 14.984375 22.515625 14.984375 16.5 
Q 14.984375 11.71875 18.140625 8.90625 
Q 21.296875 6.109375 26.703125 6.109375 
Q 34.1875 6.109375 38.703125 11.40625 
Q 43.21875 16.703125 43.21875 25.484375 
L 43.21875 27.484375 
z
M 52.203125 31.203125 
L 52.203125 0 
L 43.21875 0 
L 43.21875 8.296875 
Q 40.140625 3.328125 35.546875 0.953125 
Q 30.953125 -1.421875 24.3125 -1.421875 
Q 15.921875 -1.421875 10.953125 3.296875 
Q 6 8.015625 6 15.921875 
Q 6 25.140625 12.171875 29.828125 
Q 18.359375 34.515625 30.609375 34.515625 
L 43.21875 34.515625 
L 43.21875 35.40625 
Q 43.21875 41.609375 39.140625 45 
Q 35.0625 48.390625 27.6875 48.390625 
Q 23 48.390625 18.546875 47.265625 
Q 14.109375 46.140625 10.015625 43.890625 
L 10.015625 52.203125 
Q 14.9375 54.109375 19.578125 55.046875 
Q 24.21875 56 28.609375 56 
Q 40.484375 56 46.34375 49.84375 
Q 52.203125 43.703125 52.203125 31.203125 
z
" id="DejaVuSans-97"/>
      <path d="M 52 44.1875 
Q 55.375 50.25 60.0625 53.125 
Q 64.75 56 71.09375 56 
Q 79.640625 56 84.28125 50.015625 
Q 88.921875 44.046875 88.921875 33.015625 
L 88.921875 0 
L 79.890625 0 
L 79.890625 32.71875 
Q 79.890625 40.578125 77.09375 44.375 
Q 74.3125 48.1875 68.609375 48.1875 
Q 61.625 48.1875 57.5625 43.546875 
Q 53.515625 38.921875 53.515625 30.90625 
L 53.515625 0 
L 44.484375 0 
L 44.484375 32.71875 
Q 44.484375 40.625 41.703125 44.40625 
Q 38.921875 48.1875 33.109375 48.1875 
Q 26.21875 48.1875 22.15625 43.53125 
Q 18.109375 38.875 18.109375 30.90625 
L 18.109375 0 
L 9.078125 0 
L 9.078125 54.6875 
L 18.109375 54.6875 
L 18.109375 46.1875 
Q 21.1875 51.21875 25.484375 53.609375 
Q 29.78125 56 35.6875 56 
Q 41.65625 56 45.828125 52.96875 
Q 50 49.953125 52 44.1875 
z
" id="DejaVuSans-109"/>
      <path d="M 56.203125 29.59375 
L 56.203125 25.203125 
L 14.890625 25.203125 
Q 15.484375 15.921875 20.484375 11.0625 
Q 25.484375 6.203125 34.421875 6.203125 
Q 39.59375 6.203125 44.453125 7.46875 
Q 49.3125 8.734375 54.109375 11.28125 
L 54.109375 2.78125 
Q 49.265625 0.734375 44.1875 -0.34375 
Q 39.109375 -1.421875 33.890625 -1.421875 
Q 20.796875 -1.421875 13.15625 6.1875 
Q 5.515625 13.8125 5.515625 26.8125 
Q 5.515625 40.234375 12.765625 48.109375 
Q 20.015625 56 32.328125 56 
Q 43.359375 56 49.78125 48.890625 
Q 56.203125 41.796875 56.203125 29.59375 
z
M 47.21875 32.234375 
Q 47.125 39.59375 43.09375 43.984375 
Q 39.0625 48.390625 32.421875 48.390625 
Q 24.90625 48.390625 20.390625 44.140625 
Q 15.875 39.890625 15.1875 32.171875 
z
" id="DejaVuSans-101"/>
      <path id="DejaVuSans-32"/>
      <path d="M 54.890625 33.015625 
L 54.890625 0 
L 45.90625 0 
L 45.90625 32.71875 
Q 45.90625 40.484375 42.875 44.328125 
Q 39.84375 48.1875 33.796875 48.1875 
Q 26.515625 48.1875 22.3125 43.546875 
Q 18.109375 38.921875 18.109375 30.90625 
L 18.109375 0 
L 9.078125 0 
L 9.078125 54.6875 
L 18.109375 54.6875 
L 18.109375 46.1875 
Q 21.34375 51.125 25.703125 53.5625 
Q 30.078125 56 35.796875 56 
Q 45.21875 56 50.046875 50.171875 
Q 54.890625 44.34375 54.890625 33.015625 
z
" id="DejaVuSans-110"/>
      <path d="M 8.5 21.578125 
L 8.5 54.6875 
L 17.484375 54.6875 
L 17.484375 21.921875 
Q 17.484375 14.15625 20.5 10.265625 
Q 23.53125 6.390625 29.59375 6.390625 
Q 36.859375 6.390625 41.078125 11.03125 
Q 45.3125 15.671875 45.3125 23.6875 
L 45.3125 54.6875 
L 54.296875 54.6875 
L 54.296875 0 
L 45.3125 0 
L 45.3125 8.40625 
Q 42.046875 3.421875 37.71875 1 
Q 33.40625 -1.421875 27.6875 -1.421875 
Q 18.265625 -1.421875 13.375 4.4375 
Q 8.5 10.296875 8.5 21.578125 
z
M 31.109375 56 
z
" id="DejaVuSans-117"/>
      <path d="M 48.6875 27.296875 
Q 48.6875 37.203125 44.609375 42.84375 
Q 40.53125 48.484375 33.40625 48.484375 
Q 26.265625 48.484375 22.1875 42.84375 
Q 18.109375 37.203125 18.109375 27.296875 
Q 18.109375 17.390625 22.1875 11.75 
Q 26.265625 6.109375 33.40625 6.109375 
Q 40.53125 6.109375 44.609375 11.75 
Q 48.6875 17.390625 48.6875 27.296875 
z
M 18.109375 46.390625 
Q 20.953125 51.265625 25.265625 53.625 
Q 29.59375 56 35.59375 56 
Q 45.5625 56 51.78125 48.09375 
Q 58.015625 40.1875 58.015625 27.296875 
Q 58.015625 14.40625 51.78125 6.484375 
Q 45.5625 -1.421875 35.59375 -1.421875 
Q 29.59375 -1.421875 25.265625 0.953125 
Q 20.953125 3.328125 18.109375 8.203125 
L 18.109375 0 
L 9.078125 0 
L 9.078125 75.984375 
L 18.109375 75.984375 
z
" id="DejaVuSans-98"/>
     </defs>
     <g transform="translate(203.262625 331.659875)scale(0.144 -0.144)">
      <use xlink:href="#DejaVuSans-70"/>
      <use x="57.410156" xlink:href="#DejaVuSans-114"/>
      <use x="98.523438" xlink:href="#DejaVuSans-97"/>
      <use x="159.802734" xlink:href="#DejaVuSans-109"/>
      <use x="257.214844" xlink:href="#DejaVuSans-101"/>
      <use x="318.738281" xlink:href="#DejaVuSans-32"/>
      <use x="350.525391" xlink:href="#DejaVuSans-110"/>
      <use x="413.904297" xlink:href="#DejaVuSans-117"/>
      <use x="477.283203" xlink:href="#DejaVuSans-109"/>
      <use x="574.695312" xlink:href="#DejaVuSans-98"/>
      <use x="638.171875" xlink:href="#DejaVuSans-101"/>
      <use x="699.695312" xlink:href="#DejaVuSans-114"/>
     </g>
    </g>
   </g>
   <g id="matplotlib.axis_2">
    <g id="ytick_1">
     <g id="line2d_22">
      <path clip-path="url(#p3e02e44cd0)" d="M 73.37 300.04 
L 439.83 300.04 
" style="fill:none;stroke:#b0b0b0;stroke-linecap:square;stroke-width:0.8;"/>
     </g>
     <g id="line2d_23">
      <defs>
       <path d="M 0 0 
L -3.5 0 
" id="md79dfb5bcb" style="stroke:#000000;stroke-width:0.8;"/>
      </defs>
      <g>
       <use style="stroke:#000000;stroke-width:0.8;" x="73.37" xlink:href="#md79dfb5bcb" y="300.04"/>
      </g>
     </g>
     <g id="text_9">
      <!-- 0 -->
      <g transform="translate(60.0075 303.839219)scale(0.1 -0.1)">
       <use xlink:href="#DejaVuSans-48"/>
      </g>
     </g>
    </g>
    <g id="ytick_2">
     <g id="line2d_24">
      <path clip-path="url(#p3e02e44cd0)" d="M 73.37 261.513007 
L 439.83 261.513007 
" style="fill:none;stroke:#b0b0b0;stroke-linecap:square;stroke-width:0.8;"/>
     </g>
     <g id="line2d_25">
      <g>
       <use style="stroke:#000000;stroke-width:0.8;" x="73.37" xlink:href="#md79dfb5bcb" y="261.513007"/>
      </g>
     </g>
     <g id="text_10">
      <!-- 20000 -->
      <g transform="translate(34.5575 265.312226)scale(0.1 -0.1)">
       <use xlink:href="#DejaVuSans-50"/>
       <use x="63.623047" xlink:href="#DejaVuSans-48"/>
       <use x="127.246094" xlink:href="#DejaVuSans-48"/>
       <use x="190.869141" xlink:href="#DejaVuSans-48"/>
       <use x="254.492188" xlink:href="#DejaVuSans-48"/>
      </g>
     </g>
    </g>
    <g id="ytick_3">
     <g id="line2d_26">
      <path clip-path="url(#p3e02e44cd0)" d="M 73.37 222.986014 
L 439.83 222.986014 
" style="fill:none;stroke:#b0b0b0;stroke-linecap:square;stroke-width:0.8;"/>
     </g>
     <g id="line2d_27">
      <g>
       <use style="stroke:#000000;stroke-width:0.8;" x="73.37" xlink:href="#md79dfb5bcb" y="222.986014"/>
      </g>
     </g>
     <g id="text_11">
      <!-- 40000 -->
      <g transform="translate(34.5575 226.785233)scale(0.1 -0.1)">
       <use xlink:href="#DejaVuSans-52"/>
       <use x="63.623047" xlink:href="#DejaVuSans-48"/>
       <use x="127.246094" xlink:href="#DejaVuSans-48"/>
       <use x="190.869141" xlink:href="#DejaVuSans-48"/>
       <use x="254.492188" xlink:href="#DejaVuSans-48"/>
      </g>
     </g>
    </g>
    <g id="ytick_4">
     <g id="line2d_28">
      <path clip-path="url(#p3e02e44cd0)" d="M 73.37 184.459021 
L 439.83 184.459021 
" style="fill:none;stroke:#b0b0b0;stroke-linecap:square;stroke-width:0.8;"/>
     </g>
     <g id="line2d_29">
      <g>
       <use style="stroke:#000000;stroke-width:0.8;" x="73.37" xlink:href="#md79dfb5bcb" y="184.459021"/>
      </g>
     </g>
     <g id="text_12">
      <!-- 60000 -->
      <g transform="translate(34.5575 188.258239)scale(0.1 -0.1)">
       <use xlink:href="#DejaVuSans-54"/>
       <use x="63.623047" xlink:href="#DejaVuSans-48"/>
       <use x="127.246094" xlink:href="#DejaVuSans-48"/>
       <use x="190.869141" xlink:href="#DejaVuSans-48"/>
       <use x="254.492188" xlink:href="#DejaVuSans-48"/>
      </g>
     </g>
    </g>
    <g id="ytick_5">
     <g id="line2d_30">
      <path clip-path="url(#p3e02e44cd0)" d="M 73.37 145.932028 
L 439.83 145.932028 
" style="fill:none;stroke:#b0b0b0;stroke-linecap:square;stroke-width:0.8;"/>
     </g>
     <g id="line2d_31">
      <g>
       <use style="stroke:#000000;stroke-width:0.8;" x="73.37" xlink:href="#md79dfb5bcb" y="145.932028"/>
      </g>
     </g>
     <g id="text_13">
      <!-- 80000 -->
      <g transform="translate(34.5575 149.731246)scale(0.1 -0.1)">
       <use xlink:href="#DejaVuSans-56"/>
       <use x="63.623047" xlink:href="#DejaVuSans-48"/>
       <use x="127.246094" xlink:href="#DejaVuSans-48"/>
       <use x="190.869141" xlink:href="#DejaVuSans-48"/>
       <use x="254.492188" xlink:href="#DejaVuSans-48"/>
      </g>
     </g>
    </g>
    <g id="ytick_6">
     <g id="line2d_32">
      <path clip-path="url(#p3e02e44cd0)" d="M 73.37 107.405035 
L 439.83 107.405035 
" style="fill:none;stroke:#b0b0b0;stroke-linecap:square;stroke-width:0.8;"/>
     </g>
     <g id="line2d_33">
      <g>
       <use style="stroke:#000000;stroke-width:0.8;" x="73.37" xlink:href="#md79dfb5bcb" y="107.405035"/>
      </g>
     </g>
     <g id="text_14">
      <!-- 100000 -->
      <g transform="translate(28.195 111.204253)scale(0.1 -0.1)">
       <use xlink:href="#DejaVuSans-49"/>
       <use x="63.623047" xlink:href="#DejaVuSans-48"/>
       <use x="127.246094" xlink:href="#DejaVuSans-48"/>
       <use x="190.869141" xlink:href="#DejaVuSans-48"/>
       <use x="254.492188" xlink:href="#DejaVuSans-48"/>
       <use x="318.115234" xlink:href="#DejaVuSans-48"/>
      </g>
     </g>
    </g>
    <g id="ytick_7">
     <g id="line2d_34">
      <path clip-path="url(#p3e02e44cd0)" d="M 73.37 68.878041 
L 439.83 68.878041 
" style="fill:none;stroke:#b0b0b0;stroke-linecap:square;stroke-width:0.8;"/>
     </g>
     <g id="line2d_35">
      <g>
       <use style="stroke:#000000;stroke-width:0.8;" x="73.37" xlink:href="#md79dfb5bcb" y="68.878041"/>
      </g>
     </g>
     <g id="text_15">
      <!-- 120000 -->
      <g transform="translate(28.195 72.67726)scale(0.1 -0.1)">
       <use xlink:href="#DejaVuSans-49"/>
       <use x="63.623047" xlink:href="#DejaVuSans-50"/>
       <use x="127.246094" xlink:href="#DejaVuSans-48"/>
       <use x="190.869141" xlink:href="#DejaVuSans-48"/>
       <use x="254.492188" xlink:href="#DejaVuSans-48"/>
       <use x="318.115234" xlink:href="#DejaVuSans-48"/>
      </g>
     </g>
    </g>
    <g id="ytick_8">
     <g id="line2d_36">
      <path clip-path="url(#p3e02e44cd0)" d="M 73.37 30.351048 
L 439.83 30.351048 
" style="fill:none;stroke:#b0b0b0;stroke-linecap:square;stroke-width:0.8;"/>
     </g>
     <g id="line2d_37">
      <g>
       <use style="stroke:#000000;stroke-width:0.8;" x="73.37" xlink:href="#md79dfb5bcb" y="30.351048"/>
      </g>
     </g>
     <g id="text_16">
      <!-- 140000 -->
      <g transform="translate(28.195 34.150267)scale(0.1 -0.1)">
       <use xlink:href="#DejaVuSans-49"/>
       <use x="63.623047" xlink:href="#DejaVuSans-52"/>
       <use x="127.246094" xlink:href="#DejaVuSans-48"/>
       <use x="190.869141" xlink:href="#DejaVuSans-48"/>
       <use x="254.492188" xlink:href="#DejaVuSans-48"/>
       <use x="318.115234" xlink:href="#DejaVuSans-48"/>
      </g>
     </g>
    </g>
    <g id="text_17">
     <!-- Peak intensity -->
     <defs>
      <path d="M 19.671875 64.796875 
L 19.671875 37.40625 
L 32.078125 37.40625 
Q 38.96875 37.40625 42.71875 40.96875 
Q 46.484375 44.53125 46.484375 51.125 
Q 46.484375 57.671875 42.71875 61.234375 
Q 38.96875 64.796875 32.078125 64.796875 
z
M 9.8125 72.90625 
L 32.078125 72.90625 
Q 44.34375 72.90625 50.609375 67.359375 
Q 56.890625 61.8125 56.890625 51.125 
Q 56.890625 40.328125 50.609375 34.8125 
Q 44.34375 29.296875 32.078125 29.296875 
L 19.671875 29.296875 
L 19.671875 0 
L 9.8125 0 
z
" id="DejaVuSans-80"/>
      <path d="M 9.078125 75.984375 
L 18.109375 75.984375 
L 18.109375 31.109375 
L 44.921875 54.6875 
L 56.390625 54.6875 
L 27.390625 29.109375 
L 57.625 0 
L 45.90625 0 
L 18.109375 26.703125 
L 18.109375 0 
L 9.078125 0 
z
" id="DejaVuSans-107"/>
      <path d="M 9.421875 54.6875 
L 18.40625 54.6875 
L 18.40625 0 
L 9.421875 0 
z
M 9.421875 75.984375 
L 18.40625 75.984375 
L 18.40625 64.59375 
L 9.421875 64.59375 
z
" id="DejaVuSans-105"/>
      <path d="M 18.3125 70.21875 
L 18.3125 54.6875 
L 36.8125 54.6875 
L 36.8125 47.703125 
L 18.3125 47.703125 
L 18.3125 18.015625 
Q 18.3125 11.328125 20.140625 9.421875 
Q 21.96875 7.515625 27.59375 7.515625 
L 36.8125 7.515625 
L 36.8125 0 
L 27.59375 0 
Q 17.1875 0 13.234375 3.875 
Q 9.28125 7.765625 9.28125 18.015625 
L 9.28125 47.703125 
L 2.6875 47.703125 
L 2.6875 54.6875 
L 9.28125 54.6875 
L 9.28125 70.21875 
z
" id="DejaVuSans-116"/>
      <path d="M 44.28125 53.078125 
L 44.28125 44.578125 
Q 40.484375 46.53125 36.375 47.5 
Q 32.28125 48.484375 27.875 48.484375 
Q 21.1875 48.484375 17.84375 46.4375 
Q 14.5 44.390625 14.5 40.28125 
Q 14.5 37.15625 16.890625 35.375 
Q 19.28125 33.59375 26.515625 31.984375 
L 29.59375 31.296875 
Q 39.15625 29.25 43.1875 25.515625 
Q 47.21875 21.78125 47.21875 15.09375 
Q 47.21875 7.46875 41.1875 3.015625 
Q 35.15625 -1.421875 24.609375 -1.421875 
Q 20.21875 -1.421875 15.453125 -0.5625 
Q 10.6875 0.296875 5.421875 2 
L 5.421875 11.28125 
Q 10.40625 8.6875 15.234375 7.390625 
Q 20.0625 6.109375 24.8125 6.109375 
Q 31.15625 6.109375 34.5625 8.28125 
Q 37.984375 10.453125 37.984375 14.40625 
Q 37.984375 18.0625 35.515625 20.015625 
Q 33.0625 21.96875 24.703125 23.78125 
L 21.578125 24.515625 
Q 13.234375 26.265625 9.515625 29.90625 
Q 5.8125 33.546875 5.8125 39.890625 
Q 5.8125 47.609375 11.28125 51.796875 
Q 16.75 56 26.8125 56 
Q 31.78125 56 36.171875 55.265625 
Q 40.578125 54.546875 44.28125 53.078125 
z
" id="DejaVuSans-115"/>
      <path d="M 32.171875 -5.078125 
Q 28.375 -14.84375 24.75 -17.8125 
Q 21.140625 -20.796875 15.09375 -20.796875 
L 7.90625 -20.796875 
L 7.90625 -13.28125 
L 13.1875 -13.28125 
Q 16.890625 -13.28125 18.9375 -11.515625 
Q 21 -9.765625 23.484375 -3.21875 
L 25.09375 0.875 
L 2.984375 54.6875 
L 12.5 54.6875 
L 29.59375 11.921875 
L 46.6875 54.6875 
L 56.203125 54.6875 
z
" id="DejaVuSans-121"/>
     </defs>
     <g transform="translate(21.20025 214.31225)rotate(-90)scale(0.144 -0.144)">
      <use xlink:href="#DejaVuSans-80"/>
      <use x="60.255859" xlink:href="#DejaVuSans-101"/>
      <use x="121.779297" xlink:href="#DejaVuSans-97"/>
      <use x="183.058594" xlink:href="#DejaVuSans-107"/>
      <use x="240.96875" xlink:href="#DejaVuSans-32"/>
      <use x="272.755859" xlink:href="#DejaVuSans-105"/>
      <use x="300.539062" xlink:href="#DejaVuSans-110"/>
      <use x="363.917969" xlink:href="#DejaVuSans-116"/>
      <use x="403.126953" xlink:href="#DejaVuSans-101"/>
      <use x="464.650391" xlink:href="#DejaVuSans-110"/>
      <use x="528.029297" xlink:href="#DejaVuSans-115"/>
      <use x="580.128906" xlink:href="#DejaVuSans-105"/>
      <use x="607.912109" xlink:href="#DejaVuSans-116"/>
      <use x="647.121094" xlink:href="#DejaVuSans-121"/>
     </g>
    </g>
   </g>
   <g id="line2d_38">
    <path clip-path="url(#p3e02e44cd0)" d="M 90.027273 93.577504 
L 115.653846 93.577504 
L 141.28042 93.577697 
L 166.906993 87.43033 
L 192.533566 87.388528 
L 218.16014 87.310703 
L 243.786713 89.920522 
L 269.413287 89.814187 
L 295.03986 92.038158 
L 320.666434 93.655714 
L 346.293007 99.526264 
L 371.91958 105.980499 
L 397.546154 115.745165 
L 423.172727 121.228327 
" style="fill:none;stroke:#1f77b4;stroke-linecap:square;stroke-width:1.5;"/>
   </g>
   <g id="line2d_39">
    <path clip-path="url(#p3e02e44cd0)" d="M 115.653846 39.884117 
L 141.28042 52.747181 
L 166.906993 66.820259 
L 192.533566 87.849141 
L 218.16014 108.294572 
L 243.786713 131.738884 
L 269.413287 150.889361 
L 295.03986 167.279332 
L 320.666434 180.387 
L 346.293007 190.414928 
L 371.91958 199.316936 
L 397.546154 208.27975 
L 423.172727 215.870089 
" style="fill:none;stroke:#ff7f0e;stroke-linecap:square;stroke-width:1.5;"/>
   </g>
   <g id="line2d_40">
    <path clip-path="url(#p3e02e44cd0)" d="M 90.027273 204.705907 
L 115.653846 204.70588 
L 141.28042 204.705957 
L 166.906993 201.856848 
L 192.533566 201.847601 
L 218.16014 201.93525 
L 243.786713 203.039626 
L 269.413287 204.712854 
L 295.03986 207.329607 
L 320.666434 208.679593 
L 346.293007 211.567961 
L 371.91958 214.235185 
L 397.546154 218.628033 
L 423.172727 222.499996 
" style="fill:none;stroke:#2ca02c;stroke-linecap:square;stroke-width:1.5;"/>
   </g>
   <g id="line2d_41">
    <path clip-path="url(#p3e02e44cd0)" d="M 141.28042 235.355965 
L 166.906993 224.766042 
L 192.533566 215.067009 
L 218.16014 207.796344 
L 243.786713 206.553238 
L 269.413287 220.22611 
L 295.03986 225.171475 
L 320.666434 229.18089 
L 346.293007 229.855906 
L 371.91958 234.875083 
L 397.546154 240.125315 
L 423.172727 244.168463 
" style="fill:none;stroke:#d62728;stroke-linecap:square;stroke-width:1.5;"/>
   </g>
   <g id="line2d_42">
    <path clip-path="url(#p3e02e44cd0)" d="M 90.027273 216.964418 
L 115.653846 216.885264 
L 141.28042 216.799349 
L 166.906993 216.406952 
L 192.533566 221.01478 
L 218.16014 225.171265 
L 243.786713 231.445964 
L 269.413287 234.341845 
L 295.03986 236.77155 
L 320.666434 237.092672 
L 346.293007 238.663418 
L 371.91958 240.280126 
L 397.546154 243.071888 
L 423.172727 244.266649 
" style="fill:none;stroke:#9467bd;stroke-linecap:square;stroke-width:1.5;"/>
   </g>
   <g id="line2d_43">
    <path clip-path="url(#p3e02e44cd0)" d="M 90.027273 231.828729 
L 115.653846 231.828922 
L 141.28042 231.828922 
L 166.906993 229.780056 
L 192.533566 229.790459 
L 218.16014 229.910278 
L 243.786713 232.119801 
L 269.413287 235.149371 
L 295.03986 238.10574 
L 320.666434 238.760506 
L 346.293007 241.101599 
L 371.91958 243.197852 
L 397.546154 246.204499 
L 423.172727 247.805912 
" style="fill:none;stroke:#8c564b;stroke-linecap:square;stroke-width:1.5;"/>
   </g>
   <g id="line2d_44">
    <path clip-path="url(#p3e02e44cd0)" d="M 90.027273 236.795774 
L 115.653846 236.795764 
L 141.28042 236.795803 
L 166.906993 234.912815 
L 192.533566 234.910311 
L 218.16014 234.899716 
L 243.786713 235.670834 
L 269.413287 235.615355 
L 295.03986 235.58357 
L 320.666434 236.452354 
L 346.293007 239.278309 
L 371.91958 242.448695 
L 397.546154 246.250346 
L 423.172727 249.241774 
" style="fill:none;stroke:#e377c2;stroke-linecap:square;stroke-width:1.5;"/>
   </g>
   <g id="line2d_45">
    <path clip-path="url(#p3e02e44cd0)" d="M 90.027273 243.391682 
L 115.653846 243.39172 
L 141.28042 243.391701 
L 166.906993 241.705143 
L 192.533566 241.705085 
L 218.16014 241.698035 
L 243.786713 242.469191 
L 269.413287 242.418393 
L 295.03986 242.361913 
L 320.666434 242.379019 
L 346.293007 243.459797 
L 371.91958 245.317184 
L 397.546154 248.519856 
L 423.172727 251.154505 
" style="fill:none;stroke:#7f7f7f;stroke-linecap:square;stroke-width:1.5;"/>
   </g>
   <g id="line2d_46">
    <path clip-path="url(#p3e02e44cd0)" d="M 115.653846 283.31836 
L 141.28042 265.874455 
L 166.906993 256.616226 
L 192.533566 248.964187 
L 218.16014 243.622227 
L 243.786713 245.468826 
L 269.413287 241.83862 
L 295.03986 238.992246 
L 320.666434 233.501379 
L 346.293007 231.817364 
L 371.91958 230.577565 
L 397.546154 231.098065 
L 423.172727 230.262992 
" style="fill:none;stroke:#bcbd22;stroke-linecap:square;stroke-width:1.5;"/>
   </g>
   <g id="line2d_47">
    <path clip-path="url(#p3e02e44cd0)" d="M 192.533566 297.881583 
L 218.16014 289.038983 
L 243.786713 281.805675 
L 269.413287 272.189415 
L 295.03986 263.475572 
L 320.666434 252.553362 
L 346.293007 245.793031 
L 371.91958 239.784361 
L 397.546154 235.810109 
L 423.172727 231.189374 
" style="fill:none;stroke:#17becf;stroke-linecap:square;stroke-width:1.5;"/>
   </g>
   <g id="line2d_48">
    <path clip-path="url(#p3e02e44cd0)" d="M 90.027273 264.995731 
L 115.653846 264.995654 
L 141.28042 264.995712 
L 166.906993 263.952324 
L 192.533566 263.952324 
L 218.16014 263.952324 
L 243.786713 264.438227 
L 269.413287 264.438227 
L 295.03986 264.438227 
L 320.666434 263.952151 
L 346.293007 263.871225 
L 371.91958 263.85801 
L 397.546154 264.647833 
L 423.172727 264.630996 
" style="fill:none;stroke:#1f77b4;stroke-linecap:square;stroke-width:1.5;"/>
   </g>
   <g id="line2d_49">
    <path clip-path="url(#p3e02e44cd0)" d="M 90.027273 262.428578 
L 115.653846 263.557336 
L 141.28042 265.424115 
L 166.906993 266.320958 
L 192.533566 268.322778 
L 218.16014 270.120808 
L 243.786713 271.85712 
L 269.413287 272.952405 
L 295.03986 273.870297 
L 320.666434 274.732229 
L 346.293007 275.410173 
L 371.91958 276.316495 
L 397.546154 277.60782 
L 423.172727 278.819107 
" style="fill:none;stroke:#ff7f0e;stroke-linecap:square;stroke-width:1.5;"/>
   </g>
   <g id="line2d_50">
    <path clip-path="url(#p3e02e44cd0)" d="M 115.653846 273.884336 
L 141.28042 248.929543 
L 166.906993 250.43054 
L 192.533566 254.326639 
L 218.16014 258.490758 
L 243.786713 262.634553 
L 269.413287 265.777542 
L 295.03986 268.285567 
L 320.666434 270.607673 
L 346.293007 294.265632 
L 371.91958 294.658111 
L 397.546154 294.348362 
L 423.172727 296.983746 
" style="fill:none;stroke:#2ca02c;stroke-linecap:square;stroke-width:1.5;"/>
   </g>
   <g id="line2d_51">
    <path clip-path="url(#p3e02e44cd0)" d="M 90.027273 266.973519 
L 115.653846 266.959751 
L 141.28042 267.394846 
L 166.906993 267.569489 
L 192.533566 269.072038 
L 218.16014 270.716179 
L 243.786713 272.968486 
L 269.413287 274.15699 
L 295.03986 275.002099 
L 320.666434 275.311123 
L 346.293007 276.025234 
L 371.91958 276.669016 
L 397.546154 277.70472 
L 423.172727 278.376938 
" style="fill:none;stroke:#d62728;stroke-linecap:square;stroke-width:1.5;"/>
   </g>
   <g id="line2d_52">
    <path clip-path="url(#p3e02e44cd0)" d="M 90.027273 271.295107 
L 115.653846 271.295049 
L 141.28042 271.302369 
L 166.906993 270.461787 
L 192.533566 270.481937 
L 218.16014 270.718396 
L 243.786713 271.984008 
L 269.413287 273.145982 
L 295.03986 274.232019 
L 320.666434 275.446525 
L 346.293007 276.252741 
L 371.91958 277.016866 
L 397.546154 277.796961 
L 423.172727 278.37475 
" style="fill:none;stroke:#9467bd;stroke-linecap:square;stroke-width:1.5;"/>
   </g>
   <g id="line2d_53">
    <path clip-path="url(#p3e02e44cd0)" d="M 90.027273 275.37629 
L 115.653846 275.37631 
L 141.28042 275.37631 
L 166.906993 274.641966 
L 192.533566 274.642004 
L 218.16014 274.641966 
L 243.786713 274.983932 
L 269.413287 274.986455 
L 295.03986 274.9858 
L 320.666434 274.676698 
L 346.293007 274.630177 
L 371.91958 274.65206 
L 397.546154 275.089129 
L 423.172727 275.079517 
" style="fill:none;stroke:#8c564b;stroke-linecap:square;stroke-width:1.5;"/>
   </g>
   <g id="line2d_54">
    <path clip-path="url(#p3e02e44cd0)" d="M 90.027273 277.24327 
L 115.653846 277.243308 
L 141.28042 277.243308 
L 166.906993 276.56454 
L 192.533566 276.564521 
L 218.16014 276.564559 
L 243.786713 276.880654 
L 269.413287 276.880635 
L 295.03986 276.880596 
L 320.666434 276.56165 
L 346.293007 276.516458 
L 371.91958 276.503513 
L 397.546154 277.008737 
L 423.172727 276.999799 
" style="fill:none;stroke:#e377c2;stroke-linecap:square;stroke-width:1.5;"/>
   </g>
   <g id="line2d_55">
    <path clip-path="url(#p3e02e44cd0)" d="M 90.027273 274.749955 
L 115.653846 274.749976 
L 141.28042 274.749919 
L 166.906993 273.997024 
L 192.533566 273.997005 
L 218.16014 273.997024 
L 243.786713 274.347697 
L 269.413287 274.344152 
L 295.03986 274.327162 
L 320.666434 274.037959 
L 346.293007 274.007946 
L 371.91958 274.273532 
L 397.546154 293.894232 
L 423.172727 294.139223 
" style="fill:none;stroke:#7f7f7f;stroke-linecap:square;stroke-width:1.5;"/>
   </g>
   <g id="line2d_56">
    <path clip-path="url(#p3e02e44cd0)" d="M 90.027273 278.910162 
L 115.653846 278.91014 
L 141.28042 278.910217 
L 166.906993 278.281052 
L 192.533566 278.28111 
L 218.16014 278.28111 
L 243.786713 278.574512 
L 269.413287 278.567905 
L 295.03986 278.542188 
L 320.666434 278.331658 
L 346.293007 278.291223 
L 371.91958 278.435353 
L 397.546154 279.080025 
L 423.172727 279.520446 
" style="fill:none;stroke:#bcbd22;stroke-linecap:square;stroke-width:1.5;"/>
   </g>
   <g id="line2d_57">
    <path clip-path="url(#p3e02e44cd0)" d="M 90.027273 285.352948 
L 115.653846 271.8834 
L 141.28042 273.534026 
L 166.906993 274.298943 
L 192.533566 275.962039 
L 218.16014 277.197739 
L 243.786713 278.429599 
L 269.413287 279.247822 
L 295.03986 279.997538 
L 320.666434 280.777906 
L 346.293007 281.887627 
L 371.91958 282.884234 
L 397.546154 284.03301 
L 423.172727 284.983605 
" style="fill:none;stroke:#17becf;stroke-linecap:square;stroke-width:1.5;"/>
   </g>
   <g id="line2d_58">
    <path clip-path="url(#p3e02e44cd0)" d="M 90.027273 277.946422 
L 115.653846 277.946424 
L 141.28042 277.946368 
L 166.906993 277.288616 
L 192.533566 277.289233 
L 218.16014 277.293297 
L 243.786713 277.571 
L 269.413287 277.562466 
L 295.03986 277.739132 
L 320.666434 278.078475 
L 346.293007 278.574988 
L 371.91958 279.196646 
L 397.546154 280.141752 
L 423.172727 298.125584 
" style="fill:none;stroke:#1f77b4;stroke-linecap:square;stroke-width:1.5;"/>
   </g>
   <g id="line2d_59">
    <path clip-path="url(#p3e02e44cd0)" d="M 90.027273 268.360115 
L 115.653846 268.589664 
L 141.28042 269.472643 
L 166.906993 269.796844 
L 192.533566 271.277581 
L 218.16014 272.755345 
L 243.786713 274.496482 
L 269.413287 275.542056 
L 295.03986 276.459371 
L 320.666434 277.407943 
L 346.293007 296.844845 
L 371.91958 297.02951 
L 397.546154 297.179964 
L 423.172727 297.621725 
" style="fill:none;stroke:#ff7f0e;stroke-linecap:square;stroke-width:1.5;"/>
   </g>
   <g id="line2d_60">
    <path clip-path="url(#p3e02e44cd0)" d="M 90.027273 278.699802 
L 115.653846 278.699802 
L 141.28042 278.688841 
L 166.906993 278.064415 
L 192.533566 278.102268 
L 218.16014 278.295153 
L 243.786713 279.834307 
L 269.413287 280.766718 
L 295.03986 281.598303 
L 320.666434 281.750447 
L 346.293007 282.355821 
L 371.91958 282.925231 
L 397.546154 283.805399 
L 423.172727 284.238963 
" style="fill:none;stroke:#2ca02c;stroke-linecap:square;stroke-width:1.5;"/>
   </g>
   <g id="line2d_61">
    <path clip-path="url(#p3e02e44cd0)" d="M 90.027273 281.673537 
L 115.653846 281.548366 
L 141.28042 281.18138 
L 166.906993 280.699266 
L 192.533566 280.455728 
L 218.16014 280.375938 
L 243.786713 280.980317 
L 269.413287 280.518218 
L 295.03986 280.447599 
L 320.666434 280.051695 
L 346.293007 279.941624 
L 371.91958 279.93937 
L 397.546154 280.296842 
L 423.172727 280.266772 
" style="fill:none;stroke:#d62728;stroke-linecap:square;stroke-width:1.5;"/>
   </g>
   <g id="line2d_62">
    <path clip-path="url(#p3e02e44cd0)" d="M 90.027273 278.172869 
L 115.653846 278.172849 
L 141.28042 278.141681 
L 166.906993 277.54875 
L 192.533566 278.036252 
L 218.16014 279.040265 
L 243.786713 280.747801 
L 269.413287 281.597167 
L 295.03986 282.329931 
L 320.666434 282.448286 
L 346.293007 282.940892 
L 371.91958 283.43685 
L 397.546154 284.251908 
L 423.172727 284.623713 
" style="fill:none;stroke:#9467bd;stroke-linecap:square;stroke-width:1.5;"/>
   </g>
   <g id="line2d_63">
    <path clip-path="url(#p3e02e44cd0)" d="M 90.027273 280.602533 
L 115.653846 280.602554 
L 141.28042 280.602535 
L 166.906993 280.01469 
L 192.533566 280.032181 
L 218.16014 280.068204 
L 243.786713 280.748668 
L 269.413287 281.430846 
L 295.03986 282.112177 
L 320.666434 282.33128 
L 346.293007 282.851298 
L 371.91958 283.376998 
L 397.546154 284.206908 
L 423.172727 284.617953 
" style="fill:none;stroke:#8c564b;stroke-linecap:square;stroke-width:1.5;"/>
   </g>
   <g id="line2d_64">
    <path clip-path="url(#p3e02e44cd0)" d="M 90.027273 298.082287 
L 115.653846 294.704993 
L 141.28042 291.211355 
L 166.906993 287.663146 
L 192.533566 284.185903 
L 218.16014 281.643944 
L 243.786713 280.239341 
L 269.413287 278.466982 
L 295.03986 277.254163 
L 320.666434 275.990237 
L 346.293007 275.221084 
L 371.91958 274.83065 
L 397.546154 275.31583 
L 423.172727 276.017225 
" style="fill:none;stroke:#e377c2;stroke-linecap:square;stroke-width:1.5;"/>
   </g>
   <g id="line2d_65">
    <path clip-path="url(#p3e02e44cd0)" d="M 90.027273 283.320672 
L 115.653846 283.320633 
L 141.28042 283.320653 
L 166.906993 282.822826 
L 192.533566 282.822826 
L 218.16014 282.81853 
L 243.786713 283.046649 
L 269.413287 283.027289 
L 295.03986 283.017214 
L 320.666434 282.891674 
L 346.293007 283.119985 
L 371.91958 283.579317 
L 397.546154 284.38253 
L 423.172727 284.834829 
" style="fill:none;stroke:#7f7f7f;stroke-linecap:square;stroke-width:1.5;"/>
   </g>
   <g id="line2d_66">
    <path clip-path="url(#p3e02e44cd0)" d="M 90.027273 284.286736 
L 115.653846 284.286736 
L 141.28042 284.286717 
L 166.906993 283.817689 
L 192.533566 283.817689 
L 218.16014 283.817689 
L 243.786713 284.036118 
L 269.413287 284.031052 
L 295.03986 284.017067 
L 320.666434 283.832869 
L 346.293007 283.850534 
L 371.91958 283.863055 
L 397.546154 284.066901 
L 423.172727 284.192364 
" style="fill:none;stroke:#bcbd22;stroke-linecap:square;stroke-width:1.5;"/>
   </g>
   <g id="line2d_67">
    <path clip-path="url(#p3e02e44cd0)" d="M 115.653846 280.849028 
L 141.28042 280.509272 
L 166.906993 279.393341 
L 192.533566 279.526353 
L 218.16014 280.306798 
L 243.786713 281.912153 
L 269.413287 283.373457 
L 295.03986 284.873891 
L 320.666434 286.274842 
L 346.293007 287.544806 
L 371.91958 288.565002 
L 397.546154 289.505123 
L 423.172727 290.273837 
" style="fill:none;stroke:#17becf;stroke-linecap:square;stroke-width:1.5;"/>
   </g>
   <g id="line2d_68">
    <path clip-path="url(#p3e02e44cd0)" d="M 90.027273 281.49873 
L 115.653846 281.50293 
L 141.28042 281.530168 
L 166.906993 280.998843 
L 192.533566 281.904477 
L 218.16014 282.954396 
L 243.786713 283.959469 
L 269.413287 284.731954 
L 295.03986 285.378187 
L 320.666434 286.15518 
L 346.293007 286.545882 
L 371.91958 286.925046 
L 397.546154 287.302629 
L 423.172727 287.58274 
" style="fill:none;stroke:#1f77b4;stroke-linecap:square;stroke-width:1.5;"/>
   </g>
   <g id="line2d_69">
    <path clip-path="url(#p3e02e44cd0)" d="M 90.027273 284.579253 
L 115.653846 284.579253 
L 141.28042 284.579253 
L 166.906993 284.118893 
L 192.533566 284.118913 
L 218.16014 284.118123 
L 243.786713 284.329944 
L 269.413287 284.311008 
L 295.03986 284.29945 
L 320.666434 284.153356 
L 346.293007 284.318117 
L 371.91958 284.74775 
L 397.546154 285.505114 
L 423.172727 285.936135 
" style="fill:none;stroke:#ff7f0e;stroke-linecap:square;stroke-width:1.5;"/>
   </g>
   <g id="line2d_70">
    <path clip-path="url(#p3e02e44cd0)" d="M 90.027273 284.993331 
" style="fill:none;stroke:#2ca02c;stroke-linecap:square;stroke-width:1.5;"/>
   </g>
   <g id="line2d_71">
    <path clip-path="url(#p3e02e44cd0)" d="M 90.027273 279.492233 
L 115.653846 280.769659 
L 141.28042 282.408334 
L 166.906993 283.623756 
L 192.533566 284.644835 
L 218.16014 285.442218 
L 243.786713 286.484518 
L 269.413287 286.863481 
L 295.03986 287.165635 
L 320.666434 287.059578 
L 346.293007 287.237058 
L 371.91958 287.433846 
L 397.546154 287.892354 
L 423.172727 288.031471 
" style="fill:none;stroke:#d62728;stroke-linecap:square;stroke-width:1.5;"/>
   </g>
   <g id="line2d_72">
    <path clip-path="url(#p3e02e44cd0)" d="M 90.027273 283.498017 
L 115.653846 283.498021 
L 141.28042 283.49805 
L 166.906993 283.005502 
L 192.533566 283.008218 
L 218.16014 283.01234 
L 243.786713 283.211043 
L 269.413287 283.339261 
L 295.03986 283.673065 
L 320.666434 284.08896 
L 346.293007 284.561702 
L 371.91958 285.036119 
L 397.546154 296.76667 
L 423.172727 296.975409 
" style="fill:none;stroke:#9467bd;stroke-linecap:square;stroke-width:1.5;"/>
   </g>
   <g id="line2d_73">
    <path clip-path="url(#p3e02e44cd0)" d="M 218.16014 290.554116 
L 243.786713 285.767977 
L 269.413287 282.364847 
L 295.03986 279.488615 
L 320.666434 276.920507 
L 346.293007 276.602371 
L 371.91958 294.755314 
L 397.546154 295.235638 
L 423.172727 294.551244 
" style="fill:none;stroke:#8c564b;stroke-linecap:square;stroke-width:1.5;"/>
   </g>
   <g id="line2d_74">
    <path clip-path="url(#p3e02e44cd0)" d="M 90.027273 297.175492 
L 115.653846 294.81108 
L 141.28042 292.426344 
L 166.906993 290.035647 
L 192.533566 288.06499 
L 218.16014 286.529065 
L 243.786713 285.939344 
L 269.413287 285.244572 
L 295.03986 284.497221 
L 320.666434 283.619056 
L 346.293007 283.195518 
L 371.91958 282.899109 
L 397.546154 282.937489 
L 423.172727 282.677912 
" style="fill:none;stroke:#e377c2;stroke-linecap:square;stroke-width:1.5;"/>
   </g>
   <g id="line2d_75">
    <path clip-path="url(#p3e02e44cd0)" d="M 90.027273 286.100206 
L 115.653846 286.100212 
L 141.28042 286.096482 
L 166.906993 285.687537 
L 192.533566 285.708845 
L 218.16014 285.972369 
L 243.786713 286.6435 
L 269.413287 287.17529 
L 295.03986 287.682665 
L 320.666434 287.865988 
L 346.293007 288.24378 
L 371.91958 288.608664 
L 397.546154 289.167361 
L 423.172727 289.44441 
" style="fill:none;stroke:#7f7f7f;stroke-linecap:square;stroke-width:1.5;"/>
   </g>
   <g id="line2d_76">
    <path clip-path="url(#p3e02e44cd0)" d="M 397.546154 287.321334 
L 423.172727 287.547661 
" style="fill:none;stroke:#bcbd22;stroke-linecap:square;stroke-width:1.5;"/>
   </g>
   <g id="line2d_77">
    <path clip-path="url(#p3e02e44cd0)" d="M 90.027273 286.22481 
L 115.653846 286.224812 
L 141.28042 286.224798 
L 166.906993 285.813484 
L 192.533566 285.813484 
L 218.16014 285.813465 
L 243.786713 286.005811 
L 269.413287 286.005098 
L 295.03986 285.996682 
L 320.666434 285.837232 
L 346.293007 285.795253 
L 371.91958 285.834395 
L 397.546154 296.533745 
L 423.172727 296.531946 
" style="fill:none;stroke:#17becf;stroke-linecap:square;stroke-width:1.5;"/>
   </g>
   <g id="line2d_78">
    <path clip-path="url(#p3e02e44cd0)" d="M 269.413287 299.898707 
L 295.03986 296.487773 
L 320.666434 292.843813 
L 346.293007 287.807526 
L 371.91958 283.21923 
L 397.546154 278.695083 
L 423.172727 274.636649 
" style="fill:none;stroke:#1f77b4;stroke-linecap:square;stroke-width:1.5;"/>
   </g>
   <g id="line2d_79">
    <path clip-path="url(#p3e02e44cd0)" d="M 90.027273 288.15366 
L 115.653846 288.153658 
L 141.28042 288.153671 
L 166.906993 287.799762 
L 192.533566 287.799782 
L 218.16014 287.797624 
L 243.786713 287.96277 
L 269.413287 287.949671 
L 295.03986 287.936398 
L 320.666434 287.84796 
L 346.293007 287.958551 
L 371.91958 288.226873 
L 397.546154 288.715048 
L 423.172727 289.180088 
" style="fill:none;stroke:#ff7f0e;stroke-linecap:square;stroke-width:1.5;"/>
   </g>
   <g id="line2d_80">
    <path clip-path="url(#p3e02e44cd0)" d="M 90.027273 287.066536 
L 115.653846 287.066536 
L 141.28042 287.066574 
L 166.906993 286.680264 
L 192.533566 286.680303 
L 218.16014 286.680226 
L 243.786713 286.860147 
L 269.413287 286.860185 
L 295.03986 286.860131 
L 320.666434 286.678552 
L 346.293007 286.690875 
L 371.91958 286.699917 
L 397.546154 296.745815 
L 423.172727 296.744326 
" style="fill:none;stroke:#2ca02c;stroke-linecap:square;stroke-width:1.5;"/>
   </g>
   <g id="line2d_81">
    <path clip-path="url(#p3e02e44cd0)" d="M 90.027273 285.19715 
L 115.653846 285.197168 
L 141.28042 285.196942 
L 166.906993 284.755939 
L 192.533566 284.76696 
L 218.16014 284.980253 
L 243.786713 285.486399 
L 269.413287 286.339792 
L 295.03986 287.155371 
L 320.666434 287.848616 
L 346.293007 288.645479 
L 371.91958 296.951 
L 397.546154 297.107395 
L 423.172727 297.254443 
" style="fill:none;stroke:#d62728;stroke-linecap:square;stroke-width:1.5;"/>
   </g>
   <g id="line2d_82">
    <path clip-path="url(#p3e02e44cd0)" d="M 218.16014 299.966459 
L 243.786713 299.349173 
L 269.413287 297.731535 
L 295.03986 289.643245 
L 320.666434 286.004825 
L 346.293007 283.611023 
L 371.91958 282.30814 
L 397.546154 280.155228 
L 423.172727 279.584254 
" style="fill:none;stroke:#9467bd;stroke-linecap:square;stroke-width:1.5;"/>
   </g>
   <g id="line2d_83">
    <path clip-path="url(#p3e02e44cd0)" d="M 90.027273 288.954343 
L 115.653846 288.954339 
L 141.28042 288.954339 
L 166.906993 288.624273 
L 192.533566 288.624279 
L 218.16014 288.624259 
L 243.786713 288.778001 
L 269.413287 288.778001 
L 295.03986 288.777982 
L 320.666434 288.622795 
L 346.293007 288.624279 
L 371.91958 288.624947 
L 397.546154 288.821525 
L 423.172727 288.821891 
" style="fill:none;stroke:#8c564b;stroke-linecap:square;stroke-width:1.5;"/>
   </g>
   <g id="line2d_84">
    <path clip-path="url(#p3e02e44cd0)" d="M 141.28042 290.171284 
L 166.906993 281.659941 
L 192.533566 282.04398 
L 218.16014 282.790572 
L 243.786713 286.46429 
L 269.413287 287.648339 
L 295.03986 288.593321 
L 320.666434 289.598936 
L 346.293007 295.222263 
L 371.91958 297.284527 
L 397.546154 292.07608 
L 423.172727 292.663339 
" style="fill:none;stroke:#e377c2;stroke-linecap:square;stroke-width:1.5;"/>
   </g>
   <g id="line2d_85">
    <path clip-path="url(#p3e02e44cd0)" d="M 90.027273 285.948519 
L 115.653846 285.948515 
L 141.28042 285.948529 
L 166.906993 285.528943 
L 192.533566 285.528962 
L 218.16014 285.52954 
L 243.786713 285.714529 
L 269.413287 285.696 
L 295.03986 285.699226 
L 320.666434 285.710388 
L 346.293007 296.52123 
L 371.91958 296.65947 
L 397.546154 296.835822 
L 423.172727 297.011412 
" style="fill:none;stroke:#7f7f7f;stroke-linecap:square;stroke-width:1.5;"/>
   </g>
   <g id="line2d_86">
    <path clip-path="url(#p3e02e44cd0)" d="M 90.027273 286.332805 
L 115.653846 286.332801 
L 141.28042 286.332816 
L 166.906993 285.923111 
L 192.533566 285.927655 
L 218.16014 285.988358 
L 243.786713 286.471236 
L 269.413287 286.90339 
L 295.03986 287.354267 
L 320.666434 287.533048 
L 346.293007 287.91621 
L 371.91958 297.691791 
L 397.546154 297.72238 
L 423.172727 297.720629 
" style="fill:none;stroke:#bcbd22;stroke-linecap:square;stroke-width:1.5;"/>
   </g>
   <g id="line2d_87">
    <path clip-path="url(#p3e02e44cd0)" d="M 90.027273 291.425732 
L 115.653846 283.210266 
L 141.28042 283.926666 
L 166.906993 284.44259 
L 192.533566 285.374709 
L 218.16014 286.205698 
L 243.786713 287.155472 
L 269.413287 287.753501 
L 295.03986 288.274469 
L 320.666434 288.652133 
L 346.293007 289.198823 
L 371.91958 297.266806 
L 397.546154 297.4615 
L 423.172727 297.624356 
" style="fill:none;stroke:#17becf;stroke-linecap:square;stroke-width:1.5;"/>
   </g>
   <g id="patch_3">
    <path d="M 73.37 300.04 
L 73.37 26.88 
" style="fill:none;stroke:#000000;stroke-linecap:square;stroke-linejoin:miter;stroke-width:0.8;"/>
   </g>
   <g id="patch_4">
    <path d="M 439.83 300.04 
L 439.83 26.88 
" style="fill:none;stroke:#000000;stroke-linecap:square;stroke-linejoin:miter;stroke-width:0.8;"/>
   </g>
   <g id="patch_5">
    <path d="M 73.37 300.04 
L 439.83 300.04 
" style="fill:none;stroke:#000000;stroke-linecap:square;stroke-linejoin:miter;stroke-width:0.8;"/>
   </g>
   <g id="patch_6">
    <path d="M 73.37 26.88 
L 439.83 26.88 
" style="fill:none;stroke:#000000;stroke-linecap:square;stroke-linejoin:miter;stroke-width:0.8;"/>
   </g>
   <g id="text_18">
    <!-- Highest peaks with increasing mosaicity at theta=348 degrees -->
    <defs>
     <path d="M 9.8125 72.90625 
L 19.671875 72.90625 
L 19.671875 43.015625 
L 55.515625 43.015625 
L 55.515625 72.90625 
L 65.375 72.90625 
L 65.375 0 
L 55.515625 0 
L 55.515625 34.71875 
L 19.671875 34.71875 
L 19.671875 0 
L 9.8125 0 
z
" id="DejaVuSans-72"/>
     <path d="M 45.40625 27.984375 
Q 45.40625 37.75 41.375 43.109375 
Q 37.359375 48.484375 30.078125 48.484375 
Q 22.859375 48.484375 18.828125 43.109375 
Q 14.796875 37.75 14.796875 27.984375 
Q 14.796875 18.265625 18.828125 12.890625 
Q 22.859375 7.515625 30.078125 7.515625 
Q 37.359375 7.515625 41.375 12.890625 
Q 45.40625 18.265625 45.40625 27.984375 
z
M 54.390625 6.78125 
Q 54.390625 -7.171875 48.1875 -13.984375 
Q 42 -20.796875 29.203125 -20.796875 
Q 24.46875 -20.796875 20.265625 -20.09375 
Q 16.0625 -19.390625 12.109375 -17.921875 
L 12.109375 -9.1875 
Q 16.0625 -11.328125 19.921875 -12.34375 
Q 23.78125 -13.375 27.78125 -13.375 
Q 36.625 -13.375 41.015625 -8.765625 
Q 45.40625 -4.15625 45.40625 5.171875 
L 45.40625 9.625 
Q 42.625 4.78125 38.28125 2.390625 
Q 33.9375 0 27.875 0 
Q 17.828125 0 11.671875 7.65625 
Q 5.515625 15.328125 5.515625 27.984375 
Q 5.515625 40.671875 11.671875 48.328125 
Q 17.828125 56 27.875 56 
Q 33.9375 56 38.28125 53.609375 
Q 42.625 51.21875 45.40625 46.390625 
L 45.40625 54.6875 
L 54.390625 54.6875 
z
" id="DejaVuSans-103"/>
     <path d="M 54.890625 33.015625 
L 54.890625 0 
L 45.90625 0 
L 45.90625 32.71875 
Q 45.90625 40.484375 42.875 44.328125 
Q 39.84375 48.1875 33.796875 48.1875 
Q 26.515625 48.1875 22.3125 43.546875 
Q 18.109375 38.921875 18.109375 30.90625 
L 18.109375 0 
L 9.078125 0 
L 9.078125 75.984375 
L 18.109375 75.984375 
L 18.109375 46.1875 
Q 21.34375 51.125 25.703125 53.5625 
Q 30.078125 56 35.796875 56 
Q 45.21875 56 50.046875 50.171875 
Q 54.890625 44.34375 54.890625 33.015625 
z
" id="DejaVuSans-104"/>
     <path d="M 18.109375 8.203125 
L 18.109375 -20.796875 
L 9.078125 -20.796875 
L 9.078125 54.6875 
L 18.109375 54.6875 
L 18.109375 46.390625 
Q 20.953125 51.265625 25.265625 53.625 
Q 29.59375 56 35.59375 56 
Q 45.5625 56 51.78125 48.09375 
Q 58.015625 40.1875 58.015625 27.296875 
Q 58.015625 14.40625 51.78125 6.484375 
Q 45.5625 -1.421875 35.59375 -1.421875 
Q 29.59375 -1.421875 25.265625 0.953125 
Q 20.953125 3.328125 18.109375 8.203125 
z
M 48.6875 27.296875 
Q 48.6875 37.203125 44.609375 42.84375 
Q 40.53125 48.484375 33.40625 48.484375 
Q 26.265625 48.484375 22.1875 42.84375 
Q 18.109375 37.203125 18.109375 27.296875 
Q 18.109375 17.390625 22.1875 11.75 
Q 26.265625 6.109375 33.40625 6.109375 
Q 40.53125 6.109375 44.609375 11.75 
Q 48.6875 17.390625 48.6875 27.296875 
z
" id="DejaVuSans-112"/>
     <path d="M 4.203125 54.6875 
L 13.1875 54.6875 
L 24.421875 12.015625 
L 35.59375 54.6875 
L 46.1875 54.6875 
L 57.421875 12.015625 
L 68.609375 54.6875 
L 77.59375 54.6875 
L 63.28125 0 
L 52.6875 0 
L 40.921875 44.828125 
L 29.109375 0 
L 18.5 0 
z
" id="DejaVuSans-119"/>
     <path d="M 48.78125 52.59375 
L 48.78125 44.1875 
Q 44.96875 46.296875 41.140625 47.34375 
Q 37.3125 48.390625 33.40625 48.390625 
Q 24.65625 48.390625 19.8125 42.84375 
Q 14.984375 37.3125 14.984375 27.296875 
Q 14.984375 17.28125 19.8125 11.734375 
Q 24.65625 6.203125 33.40625 6.203125 
Q 37.3125 6.203125 41.140625 7.25 
Q 44.96875 8.296875 48.78125 10.40625 
L 48.78125 2.09375 
Q 45.015625 0.34375 40.984375 -0.53125 
Q 36.96875 -1.421875 32.421875 -1.421875 
Q 20.0625 -1.421875 12.78125 6.34375 
Q 5.515625 14.109375 5.515625 27.296875 
Q 5.515625 40.671875 12.859375 48.328125 
Q 20.21875 56 33.015625 56 
Q 37.15625 56 41.109375 55.140625 
Q 45.0625 54.296875 48.78125 52.59375 
z
" id="DejaVuSans-99"/>
     <path d="M 30.609375 48.390625 
Q 23.390625 48.390625 19.1875 42.75 
Q 14.984375 37.109375 14.984375 27.296875 
Q 14.984375 17.484375 19.15625 11.84375 
Q 23.34375 6.203125 30.609375 6.203125 
Q 37.796875 6.203125 41.984375 11.859375 
Q 46.1875 17.53125 46.1875 27.296875 
Q 46.1875 37.015625 41.984375 42.703125 
Q 37.796875 48.390625 30.609375 48.390625 
z
M 30.609375 56 
Q 42.328125 56 49.015625 48.375 
Q 55.71875 40.765625 55.71875 27.296875 
Q 55.71875 13.875 49.015625 6.21875 
Q 42.328125 -1.421875 30.609375 -1.421875 
Q 18.84375 -1.421875 12.171875 6.21875 
Q 5.515625 13.875 5.515625 27.296875 
Q 5.515625 40.765625 12.171875 48.375 
Q 18.84375 56 30.609375 56 
z
" id="DejaVuSans-111"/>
     <path d="M 10.59375 45.40625 
L 73.1875 45.40625 
L 73.1875 37.203125 
L 10.59375 37.203125 
z
M 10.59375 25.484375 
L 73.1875 25.484375 
L 73.1875 17.1875 
L 10.59375 17.1875 
z
" id="DejaVuSans-61"/>
     <path d="M 40.578125 39.3125 
Q 47.65625 37.796875 51.625 33 
Q 55.609375 28.21875 55.609375 21.1875 
Q 55.609375 10.40625 48.1875 4.484375 
Q 40.765625 -1.421875 27.09375 -1.421875 
Q 22.515625 -1.421875 17.65625 -0.515625 
Q 12.796875 0.390625 7.625 2.203125 
L 7.625 11.71875 
Q 11.71875 9.328125 16.59375 8.109375 
Q 21.484375 6.890625 26.8125 6.890625 
Q 36.078125 6.890625 40.9375 10.546875 
Q 45.796875 14.203125 45.796875 21.1875 
Q 45.796875 27.640625 41.28125 31.265625 
Q 36.765625 34.90625 28.71875 34.90625 
L 20.21875 34.90625 
L 20.21875 43.015625 
L 29.109375 43.015625 
Q 36.375 43.015625 40.234375 45.921875 
Q 44.09375 48.828125 44.09375 54.296875 
Q 44.09375 59.90625 40.109375 62.90625 
Q 36.140625 65.921875 28.71875 65.921875 
Q 24.65625 65.921875 20.015625 65.03125 
Q 15.375 64.15625 9.8125 62.3125 
L 9.8125 71.09375 
Q 15.4375 72.65625 20.34375 73.4375 
Q 25.25 74.21875 29.59375 74.21875 
Q 40.828125 74.21875 47.359375 69.109375 
Q 53.90625 64.015625 53.90625 55.328125 
Q 53.90625 49.265625 50.4375 45.09375 
Q 46.96875 40.921875 40.578125 39.3125 
z
" id="DejaVuSans-51"/>
     <path d="M 45.40625 46.390625 
L 45.40625 75.984375 
L 54.390625 75.984375 
L 54.390625 0 
L 45.40625 0 
L 45.40625 8.203125 
Q 42.578125 3.328125 38.25 0.953125 
Q 33.9375 -1.421875 27.875 -1.421875 
Q 17.96875 -1.421875 11.734375 6.484375 
Q 5.515625 14.40625 5.515625 27.296875 
Q 5.515625 40.1875 11.734375 48.09375 
Q 17.96875 56 27.875 56 
Q 33.9375 56 38.25 53.625 
Q 42.578125 51.265625 45.40625 46.390625 
z
M 14.796875 27.296875 
Q 14.796875 17.390625 18.875 11.75 
Q 22.953125 6.109375 30.078125 6.109375 
Q 37.203125 6.109375 41.296875 11.75 
Q 45.40625 17.390625 45.40625 27.296875 
Q 45.40625 37.203125 41.296875 42.84375 
Q 37.203125 48.484375 30.078125 48.484375 
Q 22.953125 48.484375 18.875 42.84375 
Q 14.796875 37.203125 14.796875 27.296875 
z
" id="DejaVuSans-100"/>
    </defs>
    <g transform="translate(67.255938 20.88)scale(0.12 -0.12)">
     <use xlink:href="#DejaVuSans-72"/>
     <use x="75.195312" xlink:href="#DejaVuSans-105"/>
     <use x="102.978516" xlink:href="#DejaVuSans-103"/>
     <use x="166.455078" xlink:href="#DejaVuSans-104"/>
     <use x="229.833984" xlink:href="#DejaVuSans-101"/>
     <use x="291.357422" xlink:href="#DejaVuSans-115"/>
     <use x="343.457031" xlink:href="#DejaVuSans-116"/>
     <use x="382.666016" xlink:href="#DejaVuSans-32"/>
     <use x="414.453125" xlink:href="#DejaVuSans-112"/>
     <use x="477.929688" xlink:href="#DejaVuSans-101"/>
     <use x="539.453125" xlink:href="#DejaVuSans-97"/>
     <use x="600.732422" xlink:href="#DejaVuSans-107"/>
     <use x="658.642578" xlink:href="#DejaVuSans-115"/>
     <use x="710.742188" xlink:href="#DejaVuSans-32"/>
     <use x="742.529297" xlink:href="#DejaVuSans-119"/>
     <use x="824.316406" xlink:href="#DejaVuSans-105"/>
     <use x="852.099609" xlink:href="#DejaVuSans-116"/>
     <use x="891.308594" xlink:href="#DejaVuSans-104"/>
     <use x="954.6875" xlink:href="#DejaVuSans-32"/>
     <use x="986.474609" xlink:href="#DejaVuSans-105"/>
     <use x="1014.257812" xlink:href="#DejaVuSans-110"/>
     <use x="1077.636719" xlink:href="#DejaVuSans-99"/>
     <use x="1132.617188" xlink:href="#DejaVuSans-114"/>
     <use x="1173.699219" xlink:href="#DejaVuSans-101"/>
     <use x="1235.222656" xlink:href="#DejaVuSans-97"/>
     <use x="1296.501953" xlink:href="#DejaVuSans-115"/>
     <use x="1348.601562" xlink:href="#DejaVuSans-105"/>
     <use x="1376.384766" xlink:href="#DejaVuSans-110"/>
     <use x="1439.763672" xlink:href="#DejaVuSans-103"/>
     <use x="1503.240234" xlink:href="#DejaVuSans-32"/>
     <use x="1535.027344" xlink:href="#DejaVuSans-109"/>
     <use x="1632.439453" xlink:href="#DejaVuSans-111"/>
     <use x="1693.621094" xlink:href="#DejaVuSans-115"/>
     <use x="1745.720703" xlink:href="#DejaVuSans-97"/>
     <use x="1807" xlink:href="#DejaVuSans-105"/>
     <use x="1834.783203" xlink:href="#DejaVuSans-99"/>
     <use x="1889.763672" xlink:href="#DejaVuSans-105"/>
     <use x="1917.546875" xlink:href="#DejaVuSans-116"/>
     <use x="1956.755859" xlink:href="#DejaVuSans-121"/>
     <use x="2015.935547" xlink:href="#DejaVuSans-32"/>
     <use x="2047.722656" xlink:href="#DejaVuSans-97"/>
     <use x="2109.001953" xlink:href="#DejaVuSans-116"/>
     <use x="2148.210938" xlink:href="#DejaVuSans-32"/>
     <use x="2179.998047" xlink:href="#DejaVuSans-116"/>
     <use x="2219.207031" xlink:href="#DejaVuSans-104"/>
     <use x="2282.585938" xlink:href="#DejaVuSans-101"/>
     <use x="2344.109375" xlink:href="#DejaVuSans-116"/>
     <use x="2383.318359" xlink:href="#DejaVuSans-97"/>
     <use x="2444.597656" xlink:href="#DejaVuSans-61"/>
     <use x="2528.386719" xlink:href="#DejaVuSans-51"/>
     <use x="2592.009766" xlink:href="#DejaVuSans-52"/>
     <use x="2655.632812" xlink:href="#DejaVuSans-56"/>
     <use x="2719.255859" xlink:href="#DejaVuSans-32"/>
     <use x="2751.042969" xlink:href="#DejaVuSans-100"/>
     <use x="2814.519531" xlink:href="#DejaVuSans-101"/>
     <use x="2876.042969" xlink:href="#DejaVuSans-103"/>
     <use x="2939.519531" xlink:href="#DejaVuSans-114"/>
     <use x="2980.601562" xlink:href="#DejaVuSans-101"/>
     <use x="3042.125" xlink:href="#DejaVuSans-101"/>
     <use x="3103.648438" xlink:href="#DejaVuSans-115"/>
    </g>
   </g>
  </g>
 </g>
 <defs>
  <clipPath id="p3e02e44cd0">
   <rect height="273.16" width="366.46" x="73.37" y="26.88"/>
  </clipPath>
 </defs>
</svg>
