<?xml version="1.0" encoding="utf-8" standalone="no"?>
<!DOCTYPE svg PUBLIC "-//W3C//DTD SVG 1.1//EN"
  "http://www.w3.org/Graphics/SVG/1.1/DTD/svg11.dtd">
<!-- Created with matplotlib (https://matplotlib.org/) -->
<svg height="345.6pt" version="1.1" viewBox="0 0 460.8 345.6" width="460.8pt" xmlns="http://www.w3.org/2000/svg" xmlns:xlink="http://www.w3.org/1999/xlink">
 <defs>
  <style type="text/css">
*{stroke-linecap:butt;stroke-linejoin:round;}
  </style>
 </defs>
 <g id="figure_1">
  <g id="patch_1">
   <path d="M 0 345.6 
L 460.8 345.6 
L 460.8 0 
L 0 0 
z
" style="fill:#ffffff;"/>
  </g>
  <g id="axes_1">
   <g id="patch_2">
    <path d="M 73.37 300.04 
L 439.83 300.04 
L 439.83 26.88 
L 73.37 26.88 
z
" style="fill:#ffffff;"/>
   </g>
   <g id="matplotlib.axis_1">
    <g id="xtick_1">
     <g id="line2d_1">
      <path clip-path="url(#p2bba647f65)" d="M 115.653846 300.04 
L 115.653846 26.88 
" style="fill:none;stroke:#b0b0b0;stroke-linecap:square;stroke-width:0.8;"/>
     </g>
     <g id="line2d_2">
      <defs>
       <path d="M 0 0 
L 0 3.5 
" id="ma33a9f2f93" style="stroke:#000000;stroke-width:0.8;"/>
      </defs>
      <g>
       <use style="stroke:#000000;stroke-width:0.8;" x="115.653846" xlink:href="#ma33a9f2f93" y="300.04"/>
      </g>
     </g>
     <g id="text_1">
      <!-- 2 -->
      <defs>
       <path d="M 19.1875 8.296875 
L 53.609375 8.296875 
L 53.609375 0 
L 7.328125 0 
L 7.328125 8.296875 
Q 12.9375 14.109375 22.625 23.890625 
Q 32.328125 33.6875 34.8125 36.53125 
Q 39.546875 41.84375 41.421875 45.53125 
Q 43.3125 49.21875 43.3125 52.78125 
Q 43.3125 58.59375 39.234375 62.25 
Q 35.15625 65.921875 28.609375 65.921875 
Q 23.96875 65.921875 18.8125 64.3125 
Q 13.671875 62.703125 7.8125 59.421875 
L 7.8125 69.390625 
Q 13.765625 71.78125 18.9375 73 
Q 24.125 74.21875 28.421875 74.21875 
Q 39.75 74.21875 46.484375 68.546875 
Q 53.21875 62.890625 53.21875 53.421875 
Q 53.21875 48.921875 51.53125 44.890625 
Q 49.859375 40.875 45.40625 35.40625 
Q 44.1875 33.984375 37.640625 27.21875 
Q 31.109375 20.453125 19.1875 8.296875 
z
" id="DejaVuSans-50"/>
      </defs>
      <g transform="translate(112.472596 314.638437)scale(0.1 -0.1)">
       <use xlink:href="#DejaVuSans-50"/>
      </g>
     </g>
    </g>
    <g id="xtick_2">
     <g id="line2d_3">
      <path clip-path="url(#p2bba647f65)" d="M 166.906993 300.04 
L 166.906993 26.88 
" style="fill:none;stroke:#b0b0b0;stroke-linecap:square;stroke-width:0.8;"/>
     </g>
     <g id="line2d_4">
      <g>
       <use style="stroke:#000000;stroke-width:0.8;" x="166.906993" xlink:href="#ma33a9f2f93" y="300.04"/>
      </g>
     </g>
     <g id="text_2">
      <!-- 4 -->
      <defs>
       <path d="M 37.796875 64.3125 
L 12.890625 25.390625 
L 37.796875 25.390625 
z
M 35.203125 72.90625 
L 47.609375 72.90625 
L 47.609375 25.390625 
L 58.015625 25.390625 
L 58.015625 17.1875 
L 47.609375 17.1875 
L 47.609375 0 
L 37.796875 0 
L 37.796875 17.1875 
L 4.890625 17.1875 
L 4.890625 26.703125 
z
" id="DejaVuSans-52"/>
      </defs>
      <g transform="translate(163.725743 314.638437)scale(0.1 -0.1)">
       <use xlink:href="#DejaVuSans-52"/>
      </g>
     </g>
    </g>
    <g id="xtick_3">
     <g id="line2d_5">
      <path clip-path="url(#p2bba647f65)" d="M 218.16014 300.04 
L 218.16014 26.88 
" style="fill:none;stroke:#b0b0b0;stroke-linecap:square;stroke-width:0.8;"/>
     </g>
     <g id="line2d_6">
      <g>
       <use style="stroke:#000000;stroke-width:0.8;" x="218.16014" xlink:href="#ma33a9f2f93" y="300.04"/>
      </g>
     </g>
     <g id="text_3">
      <!-- 6 -->
      <defs>
       <path d="M 33.015625 40.375 
Q 26.375 40.375 22.484375 35.828125 
Q 18.609375 31.296875 18.609375 23.390625 
Q 18.609375 15.53125 22.484375 10.953125 
Q 26.375 6.390625 33.015625 6.390625 
Q 39.65625 6.390625 43.53125 10.953125 
Q 47.40625 15.53125 47.40625 23.390625 
Q 47.40625 31.296875 43.53125 35.828125 
Q 39.65625 40.375 33.015625 40.375 
z
M 52.59375 71.296875 
L 52.59375 62.3125 
Q 48.875 64.0625 45.09375 64.984375 
Q 41.3125 65.921875 37.59375 65.921875 
Q 27.828125 65.921875 22.671875 59.328125 
Q 17.53125 52.734375 16.796875 39.40625 
Q 19.671875 43.65625 24.015625 45.921875 
Q 28.375 48.1875 33.59375 48.1875 
Q 44.578125 48.1875 50.953125 41.515625 
Q 57.328125 34.859375 57.328125 23.390625 
Q 57.328125 12.15625 50.6875 5.359375 
Q 44.046875 -1.421875 33.015625 -1.421875 
Q 20.359375 -1.421875 13.671875 8.265625 
Q 6.984375 17.96875 6.984375 36.375 
Q 6.984375 53.65625 15.1875 63.9375 
Q 23.390625 74.21875 37.203125 74.21875 
Q 40.921875 74.21875 44.703125 73.484375 
Q 48.484375 72.75 52.59375 71.296875 
z
" id="DejaVuSans-54"/>
      </defs>
      <g transform="translate(214.97889 314.638437)scale(0.1 -0.1)">
       <use xlink:href="#DejaVuSans-54"/>
      </g>
     </g>
    </g>
    <g id="xtick_4">
     <g id="line2d_7">
      <path clip-path="url(#p2bba647f65)" d="M 269.413287 300.04 
L 269.413287 26.88 
" style="fill:none;stroke:#b0b0b0;stroke-linecap:square;stroke-width:0.8;"/>
     </g>
     <g id="line2d_8">
      <g>
       <use style="stroke:#000000;stroke-width:0.8;" x="269.413287" xlink:href="#ma33a9f2f93" y="300.04"/>
      </g>
     </g>
     <g id="text_4">
      <!-- 8 -->
      <defs>
       <path d="M 31.78125 34.625 
Q 24.75 34.625 20.71875 30.859375 
Q 16.703125 27.09375 16.703125 20.515625 
Q 16.703125 13.921875 20.71875 10.15625 
Q 24.75 6.390625 31.78125 6.390625 
Q 38.8125 6.390625 42.859375 10.171875 
Q 46.921875 13.96875 46.921875 20.515625 
Q 46.921875 27.09375 42.890625 30.859375 
Q 38.875 34.625 31.78125 34.625 
z
M 21.921875 38.8125 
Q 15.578125 40.375 12.03125 44.71875 
Q 8.5 49.078125 8.5 55.328125 
Q 8.5 64.0625 14.71875 69.140625 
Q 20.953125 74.21875 31.78125 74.21875 
Q 42.671875 74.21875 48.875 69.140625 
Q 55.078125 64.0625 55.078125 55.328125 
Q 55.078125 49.078125 51.53125 44.71875 
Q 48 40.375 41.703125 38.8125 
Q 48.828125 37.15625 52.796875 32.3125 
Q 56.78125 27.484375 56.78125 20.515625 
Q 56.78125 9.90625 50.3125 4.234375 
Q 43.84375 -1.421875 31.78125 -1.421875 
Q 19.734375 -1.421875 13.25 4.234375 
Q 6.78125 9.90625 6.78125 20.515625 
Q 6.78125 27.484375 10.78125 32.3125 
Q 14.796875 37.15625 21.921875 38.8125 
z
M 18.3125 54.390625 
Q 18.3125 48.734375 21.84375 45.5625 
Q 25.390625 42.390625 31.78125 42.390625 
Q 38.140625 42.390625 41.71875 45.5625 
Q 45.3125 48.734375 45.3125 54.390625 
Q 45.3125 60.0625 41.71875 63.234375 
Q 38.140625 66.40625 31.78125 66.40625 
Q 25.390625 66.40625 21.84375 63.234375 
Q 18.3125 60.0625 18.3125 54.390625 
z
" id="DejaVuSans-56"/>
      </defs>
      <g transform="translate(266.232037 314.638437)scale(0.1 -0.1)">
       <use xlink:href="#DejaVuSans-56"/>
      </g>
     </g>
    </g>
    <g id="xtick_5">
     <g id="line2d_9">
      <path clip-path="url(#p2bba647f65)" d="M 320.666434 300.04 
L 320.666434 26.88 
" style="fill:none;stroke:#b0b0b0;stroke-linecap:square;stroke-width:0.8;"/>
     </g>
     <g id="line2d_10">
      <g>
       <use style="stroke:#000000;stroke-width:0.8;" x="320.666434" xlink:href="#ma33a9f2f93" y="300.04"/>
      </g>
     </g>
     <g id="text_5">
      <!-- 10 -->
      <defs>
       <path d="M 12.40625 8.296875 
L 28.515625 8.296875 
L 28.515625 63.921875 
L 10.984375 60.40625 
L 10.984375 69.390625 
L 28.421875 72.90625 
L 38.28125 72.90625 
L 38.28125 8.296875 
L 54.390625 8.296875 
L 54.390625 0 
L 12.40625 0 
z
" id="DejaVuSans-49"/>
       <path d="M 31.78125 66.40625 
Q 24.171875 66.40625 20.328125 58.90625 
Q 16.5 51.421875 16.5 36.375 
Q 16.5 21.390625 20.328125 13.890625 
Q 24.171875 6.390625 31.78125 6.390625 
Q 39.453125 6.390625 43.28125 13.890625 
Q 47.125 21.390625 47.125 36.375 
Q 47.125 51.421875 43.28125 58.90625 
Q 39.453125 66.40625 31.78125 66.40625 
z
M 31.78125 74.21875 
Q 44.046875 74.21875 50.515625 64.515625 
Q 56.984375 54.828125 56.984375 36.375 
Q 56.984375 17.96875 50.515625 8.265625 
Q 44.046875 -1.421875 31.78125 -1.421875 
Q 19.53125 -1.421875 13.0625 8.265625 
Q 6.59375 17.96875 6.59375 36.375 
Q 6.59375 54.828125 13.0625 64.515625 
Q 19.53125 74.21875 31.78125 74.21875 
z
" id="DejaVuSans-48"/>
      </defs>
      <g transform="translate(314.303934 314.638437)scale(0.1 -0.1)">
       <use xlink:href="#DejaVuSans-49"/>
       <use x="63.623047" xlink:href="#DejaVuSans-48"/>
      </g>
     </g>
    </g>
    <g id="xtick_6">
     <g id="line2d_11">
      <path clip-path="url(#p2bba647f65)" d="M 371.91958 300.04 
L 371.91958 26.88 
" style="fill:none;stroke:#b0b0b0;stroke-linecap:square;stroke-width:0.8;"/>
     </g>
     <g id="line2d_12">
      <g>
       <use style="stroke:#000000;stroke-width:0.8;" x="371.91958" xlink:href="#ma33a9f2f93" y="300.04"/>
      </g>
     </g>
     <g id="text_6">
      <!-- 12 -->
      <g transform="translate(365.55708 314.638437)scale(0.1 -0.1)">
       <use xlink:href="#DejaVuSans-49"/>
       <use x="63.623047" xlink:href="#DejaVuSans-50"/>
      </g>
     </g>
    </g>
    <g id="xtick_7">
     <g id="line2d_13">
      <path clip-path="url(#p2bba647f65)" d="M 423.172727 300.04 
L 423.172727 26.88 
" style="fill:none;stroke:#b0b0b0;stroke-linecap:square;stroke-width:0.8;"/>
     </g>
     <g id="line2d_14">
      <g>
       <use style="stroke:#000000;stroke-width:0.8;" x="423.172727" xlink:href="#ma33a9f2f93" y="300.04"/>
      </g>
     </g>
     <g id="text_7">
      <!-- 14 -->
      <g transform="translate(416.810227 314.638437)scale(0.1 -0.1)">
       <use xlink:href="#DejaVuSans-49"/>
       <use x="63.623047" xlink:href="#DejaVuSans-52"/>
      </g>
     </g>
    </g>
    <g id="xtick_8">
     <g id="line2d_15">
      <defs>
       <path d="M 0 0 
L 0 2 
" id="m3b10ba4604" style="stroke:#000000;stroke-width:0.6;"/>
      </defs>
      <g>
       <use style="stroke:#000000;stroke-width:0.6;" x="90.027273" xlink:href="#m3b10ba4604" y="300.04"/>
      </g>
     </g>
    </g>
    <g id="xtick_9">
     <g id="line2d_16">
      <g>
       <use style="stroke:#000000;stroke-width:0.6;" x="141.28042" xlink:href="#m3b10ba4604" y="300.04"/>
      </g>
     </g>
    </g>
    <g id="xtick_10">
     <g id="line2d_17">
      <g>
       <use style="stroke:#000000;stroke-width:0.6;" x="192.533566" xlink:href="#m3b10ba4604" y="300.04"/>
      </g>
     </g>
    </g>
    <g id="xtick_11">
     <g id="line2d_18">
      <g>
       <use style="stroke:#000000;stroke-width:0.6;" x="243.786713" xlink:href="#m3b10ba4604" y="300.04"/>
      </g>
     </g>
    </g>
    <g id="xtick_12">
     <g id="line2d_19">
      <g>
       <use style="stroke:#000000;stroke-width:0.6;" x="295.03986" xlink:href="#m3b10ba4604" y="300.04"/>
      </g>
     </g>
    </g>
    <g id="xtick_13">
     <g id="line2d_20">
      <g>
       <use style="stroke:#000000;stroke-width:0.6;" x="346.293007" xlink:href="#m3b10ba4604" y="300.04"/>
      </g>
     </g>
    </g>
    <g id="xtick_14">
     <g id="line2d_21">
      <g>
       <use style="stroke:#000000;stroke-width:0.6;" x="397.546154" xlink:href="#m3b10ba4604" y="300.04"/>
      </g>
     </g>
    </g>
    <g id="text_8">
     <!-- Frame number -->
     <defs>
      <path d="M 9.8125 72.90625 
L 51.703125 72.90625 
L 51.703125 64.59375 
L 19.671875 64.59375 
L 19.671875 43.109375 
L 48.578125 43.109375 
L 48.578125 34.8125 
L 19.671875 34.8125 
L 19.671875 0 
L 9.8125 0 
z
" id="DejaVuSans-70"/>
      <path d="M 41.109375 46.296875 
Q 39.59375 47.171875 37.8125 47.578125 
Q 36.03125 48 33.890625 48 
Q 26.265625 48 22.1875 43.046875 
Q 18.109375 38.09375 18.109375 28.8125 
L 18.109375 0 
L 9.078125 0 
L 9.078125 54.6875 
L 18.109375 54.6875 
L 18.109375 46.1875 
Q 20.953125 51.171875 25.484375 53.578125 
Q 30.03125 56 36.53125 56 
Q 37.453125 56 38.578125 55.875 
Q 39.703125 55.765625 41.0625 55.515625 
z
" id="DejaVuSans-114"/>
      <path d="M 34.28125 27.484375 
Q 23.390625 27.484375 19.1875 25 
Q 14.984375 22.515625 14.984375 16.5 
Q 14.984375 11.71875 18.140625 8.90625 
Q 21.296875 6.109375 26.703125 6.109375 
Q 34.1875 6.109375 38.703125 11.40625 
Q 43.21875 16.703125 43.21875 25.484375 
L 43.21875 27.484375 
z
M 52.203125 31.203125 
L 52.203125 0 
L 43.21875 0 
L 43.21875 8.296875 
Q 40.140625 3.328125 35.546875 0.953125 
Q 30.953125 -1.421875 24.3125 -1.421875 
Q 15.921875 -1.421875 10.953125 3.296875 
Q 6 8.015625 6 15.921875 
Q 6 25.140625 12.171875 29.828125 
Q 18.359375 34.515625 30.609375 34.515625 
L 43.21875 34.515625 
L 43.21875 35.40625 
Q 43.21875 41.609375 39.140625 45 
Q 35.0625 48.390625 27.6875 48.390625 
Q 23 48.390625 18.546875 47.265625 
Q 14.109375 46.140625 10.015625 43.890625 
L 10.015625 52.203125 
Q 14.9375 54.109375 19.578125 55.046875 
Q 24.21875 56 28.609375 56 
Q 40.484375 56 46.34375 49.84375 
Q 52.203125 43.703125 52.203125 31.203125 
z
" id="DejaVuSans-97"/>
      <path d="M 52 44.1875 
Q 55.375 50.25 60.0625 53.125 
Q 64.75 56 71.09375 56 
Q 79.640625 56 84.28125 50.015625 
Q 88.921875 44.046875 88.921875 33.015625 
L 88.921875 0 
L 79.890625 0 
L 79.890625 32.71875 
Q 79.890625 40.578125 77.09375 44.375 
Q 74.3125 48.1875 68.609375 48.1875 
Q 61.625 48.1875 57.5625 43.546875 
Q 53.515625 38.921875 53.515625 30.90625 
L 53.515625 0 
L 44.484375 0 
L 44.484375 32.71875 
Q 44.484375 40.625 41.703125 44.40625 
Q 38.921875 48.1875 33.109375 48.1875 
Q 26.21875 48.1875 22.15625 43.53125 
Q 18.109375 38.875 18.109375 30.90625 
L 18.109375 0 
L 9.078125 0 
L 9.078125 54.6875 
L 18.109375 54.6875 
L 18.109375 46.1875 
Q 21.1875 51.21875 25.484375 53.609375 
Q 29.78125 56 35.6875 56 
Q 41.65625 56 45.828125 52.96875 
Q 50 49.953125 52 44.1875 
z
" id="DejaVuSans-109"/>
      <path d="M 56.203125 29.59375 
L 56.203125 25.203125 
L 14.890625 25.203125 
Q 15.484375 15.921875 20.484375 11.0625 
Q 25.484375 6.203125 34.421875 6.203125 
Q 39.59375 6.203125 44.453125 7.46875 
Q 49.3125 8.734375 54.109375 11.28125 
L 54.109375 2.78125 
Q 49.265625 0.734375 44.1875 -0.34375 
Q 39.109375 -1.421875 33.890625 -1.421875 
Q 20.796875 -1.421875 13.15625 6.1875 
Q 5.515625 13.8125 5.515625 26.8125 
Q 5.515625 40.234375 12.765625 48.109375 
Q 20.015625 56 32.328125 56 
Q 43.359375 56 49.78125 48.890625 
Q 56.203125 41.796875 56.203125 29.59375 
z
M 47.21875 32.234375 
Q 47.125 39.59375 43.09375 43.984375 
Q 39.0625 48.390625 32.421875 48.390625 
Q 24.90625 48.390625 20.390625 44.140625 
Q 15.875 39.890625 15.1875 32.171875 
z
" id="DejaVuSans-101"/>
      <path id="DejaVuSans-32"/>
      <path d="M 54.890625 33.015625 
L 54.890625 0 
L 45.90625 0 
L 45.90625 32.71875 
Q 45.90625 40.484375 42.875 44.328125 
Q 39.84375 48.1875 33.796875 48.1875 
Q 26.515625 48.1875 22.3125 43.546875 
Q 18.109375 38.921875 18.109375 30.90625 
L 18.109375 0 
L 9.078125 0 
L 9.078125 54.6875 
L 18.109375 54.6875 
L 18.109375 46.1875 
Q 21.34375 51.125 25.703125 53.5625 
Q 30.078125 56 35.796875 56 
Q 45.21875 56 50.046875 50.171875 
Q 54.890625 44.34375 54.890625 33.015625 
z
" id="DejaVuSans-110"/>
      <path d="M 8.5 21.578125 
L 8.5 54.6875 
L 17.484375 54.6875 
L 17.484375 21.921875 
Q 17.484375 14.15625 20.5 10.265625 
Q 23.53125 6.390625 29.59375 6.390625 
Q 36.859375 6.390625 41.078125 11.03125 
Q 45.3125 15.671875 45.3125 23.6875 
L 45.3125 54.6875 
L 54.296875 54.6875 
L 54.296875 0 
L 45.3125 0 
L 45.3125 8.40625 
Q 42.046875 3.421875 37.71875 1 
Q 33.40625 -1.421875 27.6875 -1.421875 
Q 18.265625 -1.421875 13.375 4.4375 
Q 8.5 10.296875 8.5 21.578125 
z
M 31.109375 56 
z
" id="DejaVuSans-117"/>
      <path d="M 48.6875 27.296875 
Q 48.6875 37.203125 44.609375 42.84375 
Q 40.53125 48.484375 33.40625 48.484375 
Q 26.265625 48.484375 22.1875 42.84375 
Q 18.109375 37.203125 18.109375 27.296875 
Q 18.109375 17.390625 22.1875 11.75 
Q 26.265625 6.109375 33.40625 6.109375 
Q 40.53125 6.109375 44.609375 11.75 
Q 48.6875 17.390625 48.6875 27.296875 
z
M 18.109375 46.390625 
Q 20.953125 51.265625 25.265625 53.625 
Q 29.59375 56 35.59375 56 
Q 45.5625 56 51.78125 48.09375 
Q 58.015625 40.1875 58.015625 27.296875 
Q 58.015625 14.40625 51.78125 6.484375 
Q 45.5625 -1.421875 35.59375 -1.421875 
Q 29.59375 -1.421875 25.265625 0.953125 
Q 20.953125 3.328125 18.109375 8.203125 
L 18.109375 0 
L 9.078125 0 
L 9.078125 75.984375 
L 18.109375 75.984375 
z
" id="DejaVuSans-98"/>
     </defs>
     <g transform="translate(203.262625 331.659875)scale(0.144 -0.144)">
      <use xlink:href="#DejaVuSans-70"/>
      <use x="57.410156" xlink:href="#DejaVuSans-114"/>
      <use x="98.523438" xlink:href="#DejaVuSans-97"/>
      <use x="159.802734" xlink:href="#DejaVuSans-109"/>
      <use x="257.214844" xlink:href="#DejaVuSans-101"/>
      <use x="318.738281" xlink:href="#DejaVuSans-32"/>
      <use x="350.525391" xlink:href="#DejaVuSans-110"/>
      <use x="413.904297" xlink:href="#DejaVuSans-117"/>
      <use x="477.283203" xlink:href="#DejaVuSans-109"/>
      <use x="574.695312" xlink:href="#DejaVuSans-98"/>
      <use x="638.171875" xlink:href="#DejaVuSans-101"/>
      <use x="699.695312" xlink:href="#DejaVuSans-114"/>
     </g>
    </g>
   </g>
   <g id="matplotlib.axis_2">
    <g id="ytick_1">
     <g id="line2d_22">
      <path clip-path="url(#p2bba647f65)" d="M 73.37 300.04 
L 439.83 300.04 
" style="fill:none;stroke:#b0b0b0;stroke-linecap:square;stroke-width:0.8;"/>
     </g>
     <g id="line2d_23">
      <defs>
       <path d="M 0 0 
L -3.5 0 
" id="mbc0d817942" style="stroke:#000000;stroke-width:0.8;"/>
      </defs>
      <g>
       <use style="stroke:#000000;stroke-width:0.8;" x="73.37" xlink:href="#mbc0d817942" y="300.04"/>
      </g>
     </g>
     <g id="text_9">
      <!-- 0 -->
      <g transform="translate(60.0075 303.839219)scale(0.1 -0.1)">
       <use xlink:href="#DejaVuSans-48"/>
      </g>
     </g>
    </g>
    <g id="ytick_2">
     <g id="line2d_24">
      <path clip-path="url(#p2bba647f65)" d="M 73.37 265.350269 
L 439.83 265.350269 
" style="fill:none;stroke:#b0b0b0;stroke-linecap:square;stroke-width:0.8;"/>
     </g>
     <g id="line2d_25">
      <g>
       <use style="stroke:#000000;stroke-width:0.8;" x="73.37" xlink:href="#mbc0d817942" y="265.350269"/>
      </g>
     </g>
     <g id="text_10">
      <!-- 20000 -->
      <g transform="translate(34.5575 269.149488)scale(0.1 -0.1)">
       <use xlink:href="#DejaVuSans-50"/>
       <use x="63.623047" xlink:href="#DejaVuSans-48"/>
       <use x="127.246094" xlink:href="#DejaVuSans-48"/>
       <use x="190.869141" xlink:href="#DejaVuSans-48"/>
       <use x="254.492188" xlink:href="#DejaVuSans-48"/>
      </g>
     </g>
    </g>
    <g id="ytick_3">
     <g id="line2d_26">
      <path clip-path="url(#p2bba647f65)" d="M 73.37 230.660539 
L 439.83 230.660539 
" style="fill:none;stroke:#b0b0b0;stroke-linecap:square;stroke-width:0.8;"/>
     </g>
     <g id="line2d_27">
      <g>
       <use style="stroke:#000000;stroke-width:0.8;" x="73.37" xlink:href="#mbc0d817942" y="230.660539"/>
      </g>
     </g>
     <g id="text_11">
      <!-- 40000 -->
      <g transform="translate(34.5575 234.459757)scale(0.1 -0.1)">
       <use xlink:href="#DejaVuSans-52"/>
       <use x="63.623047" xlink:href="#DejaVuSans-48"/>
       <use x="127.246094" xlink:href="#DejaVuSans-48"/>
       <use x="190.869141" xlink:href="#DejaVuSans-48"/>
       <use x="254.492188" xlink:href="#DejaVuSans-48"/>
      </g>
     </g>
    </g>
    <g id="ytick_4">
     <g id="line2d_28">
      <path clip-path="url(#p2bba647f65)" d="M 73.37 195.970808 
L 439.83 195.970808 
" style="fill:none;stroke:#b0b0b0;stroke-linecap:square;stroke-width:0.8;"/>
     </g>
     <g id="line2d_29">
      <g>
       <use style="stroke:#000000;stroke-width:0.8;" x="73.37" xlink:href="#mbc0d817942" y="195.970808"/>
      </g>
     </g>
     <g id="text_12">
      <!-- 60000 -->
      <g transform="translate(34.5575 199.770027)scale(0.1 -0.1)">
       <use xlink:href="#DejaVuSans-54"/>
       <use x="63.623047" xlink:href="#DejaVuSans-48"/>
       <use x="127.246094" xlink:href="#DejaVuSans-48"/>
       <use x="190.869141" xlink:href="#DejaVuSans-48"/>
       <use x="254.492188" xlink:href="#DejaVuSans-48"/>
      </g>
     </g>
    </g>
    <g id="ytick_5">
     <g id="line2d_30">
      <path clip-path="url(#p2bba647f65)" d="M 73.37 161.281077 
L 439.83 161.281077 
" style="fill:none;stroke:#b0b0b0;stroke-linecap:square;stroke-width:0.8;"/>
     </g>
     <g id="line2d_31">
      <g>
       <use style="stroke:#000000;stroke-width:0.8;" x="73.37" xlink:href="#mbc0d817942" y="161.281077"/>
      </g>
     </g>
     <g id="text_13">
      <!-- 80000 -->
      <g transform="translate(34.5575 165.080296)scale(0.1 -0.1)">
       <use xlink:href="#DejaVuSans-56"/>
       <use x="63.623047" xlink:href="#DejaVuSans-48"/>
       <use x="127.246094" xlink:href="#DejaVuSans-48"/>
       <use x="190.869141" xlink:href="#DejaVuSans-48"/>
       <use x="254.492188" xlink:href="#DejaVuSans-48"/>
      </g>
     </g>
    </g>
    <g id="ytick_6">
     <g id="line2d_32">
      <path clip-path="url(#p2bba647f65)" d="M 73.37 126.591346 
L 439.83 126.591346 
" style="fill:none;stroke:#b0b0b0;stroke-linecap:square;stroke-width:0.8;"/>
     </g>
     <g id="line2d_33">
      <g>
       <use style="stroke:#000000;stroke-width:0.8;" x="73.37" xlink:href="#mbc0d817942" y="126.591346"/>
      </g>
     </g>
     <g id="text_14">
      <!-- 100000 -->
      <g transform="translate(28.195 130.390565)scale(0.1 -0.1)">
       <use xlink:href="#DejaVuSans-49"/>
       <use x="63.623047" xlink:href="#DejaVuSans-48"/>
       <use x="127.246094" xlink:href="#DejaVuSans-48"/>
       <use x="190.869141" xlink:href="#DejaVuSans-48"/>
       <use x="254.492188" xlink:href="#DejaVuSans-48"/>
       <use x="318.115234" xlink:href="#DejaVuSans-48"/>
      </g>
     </g>
    </g>
    <g id="ytick_7">
     <g id="line2d_34">
      <path clip-path="url(#p2bba647f65)" d="M 73.37 91.901616 
L 439.83 91.901616 
" style="fill:none;stroke:#b0b0b0;stroke-linecap:square;stroke-width:0.8;"/>
     </g>
     <g id="line2d_35">
      <g>
       <use style="stroke:#000000;stroke-width:0.8;" x="73.37" xlink:href="#mbc0d817942" y="91.901616"/>
      </g>
     </g>
     <g id="text_15">
      <!-- 120000 -->
      <g transform="translate(28.195 95.700835)scale(0.1 -0.1)">
       <use xlink:href="#DejaVuSans-49"/>
       <use x="63.623047" xlink:href="#DejaVuSans-50"/>
       <use x="127.246094" xlink:href="#DejaVuSans-48"/>
       <use x="190.869141" xlink:href="#DejaVuSans-48"/>
       <use x="254.492188" xlink:href="#DejaVuSans-48"/>
       <use x="318.115234" xlink:href="#DejaVuSans-48"/>
      </g>
     </g>
    </g>
    <g id="ytick_8">
     <g id="line2d_36">
      <path clip-path="url(#p2bba647f65)" d="M 73.37 57.211885 
L 439.83 57.211885 
" style="fill:none;stroke:#b0b0b0;stroke-linecap:square;stroke-width:0.8;"/>
     </g>
     <g id="line2d_37">
      <g>
       <use style="stroke:#000000;stroke-width:0.8;" x="73.37" xlink:href="#mbc0d817942" y="57.211885"/>
      </g>
     </g>
     <g id="text_16">
      <!-- 140000 -->
      <g transform="translate(28.195 61.011104)scale(0.1 -0.1)">
       <use xlink:href="#DejaVuSans-49"/>
       <use x="63.623047" xlink:href="#DejaVuSans-52"/>
       <use x="127.246094" xlink:href="#DejaVuSans-48"/>
       <use x="190.869141" xlink:href="#DejaVuSans-48"/>
       <use x="254.492188" xlink:href="#DejaVuSans-48"/>
       <use x="318.115234" xlink:href="#DejaVuSans-48"/>
      </g>
     </g>
    </g>
    <g id="text_17">
     <!-- Peak intensity -->
     <defs>
      <path d="M 19.671875 64.796875 
L 19.671875 37.40625 
L 32.078125 37.40625 
Q 38.96875 37.40625 42.71875 40.96875 
Q 46.484375 44.53125 46.484375 51.125 
Q 46.484375 57.671875 42.71875 61.234375 
Q 38.96875 64.796875 32.078125 64.796875 
z
M 9.8125 72.90625 
L 32.078125 72.90625 
Q 44.34375 72.90625 50.609375 67.359375 
Q 56.890625 61.8125 56.890625 51.125 
Q 56.890625 40.328125 50.609375 34.8125 
Q 44.34375 29.296875 32.078125 29.296875 
L 19.671875 29.296875 
L 19.671875 0 
L 9.8125 0 
z
" id="DejaVuSans-80"/>
      <path d="M 9.078125 75.984375 
L 18.109375 75.984375 
L 18.109375 31.109375 
L 44.921875 54.6875 
L 56.390625 54.6875 
L 27.390625 29.109375 
L 57.625 0 
L 45.90625 0 
L 18.109375 26.703125 
L 18.109375 0 
L 9.078125 0 
z
" id="DejaVuSans-107"/>
      <path d="M 9.421875 54.6875 
L 18.40625 54.6875 
L 18.40625 0 
L 9.421875 0 
z
M 9.421875 75.984375 
L 18.40625 75.984375 
L 18.40625 64.59375 
L 9.421875 64.59375 
z
" id="DejaVuSans-105"/>
      <path d="M 18.3125 70.21875 
L 18.3125 54.6875 
L 36.8125 54.6875 
L 36.8125 47.703125 
L 18.3125 47.703125 
L 18.3125 18.015625 
Q 18.3125 11.328125 20.140625 9.421875 
Q 21.96875 7.515625 27.59375 7.515625 
L 36.8125 7.515625 
L 36.8125 0 
L 27.59375 0 
Q 17.1875 0 13.234375 3.875 
Q 9.28125 7.765625 9.28125 18.015625 
L 9.28125 47.703125 
L 2.6875 47.703125 
L 2.6875 54.6875 
L 9.28125 54.6875 
L 9.28125 70.21875 
z
" id="DejaVuSans-116"/>
      <path d="M 44.28125 53.078125 
L 44.28125 44.578125 
Q 40.484375 46.53125 36.375 47.5 
Q 32.28125 48.484375 27.875 48.484375 
Q 21.1875 48.484375 17.84375 46.4375 
Q 14.5 44.390625 14.5 40.28125 
Q 14.5 37.15625 16.890625 35.375 
Q 19.28125 33.59375 26.515625 31.984375 
L 29.59375 31.296875 
Q 39.15625 29.25 43.1875 25.515625 
Q 47.21875 21.78125 47.21875 15.09375 
Q 47.21875 7.46875 41.1875 3.015625 
Q 35.15625 -1.421875 24.609375 -1.421875 
Q 20.21875 -1.421875 15.453125 -0.5625 
Q 10.6875 0.296875 5.421875 2 
L 5.421875 11.28125 
Q 10.40625 8.6875 15.234375 7.390625 
Q 20.0625 6.109375 24.8125 6.109375 
Q 31.15625 6.109375 34.5625 8.28125 
Q 37.984375 10.453125 37.984375 14.40625 
Q 37.984375 18.0625 35.515625 20.015625 
Q 33.0625 21.96875 24.703125 23.78125 
L 21.578125 24.515625 
Q 13.234375 26.265625 9.515625 29.90625 
Q 5.8125 33.546875 5.8125 39.890625 
Q 5.8125 47.609375 11.28125 51.796875 
Q 16.75 56 26.8125 56 
Q 31.78125 56 36.171875 55.265625 
Q 40.578125 54.546875 44.28125 53.078125 
z
" id="DejaVuSans-115"/>
      <path d="M 32.171875 -5.078125 
Q 28.375 -14.84375 24.75 -17.8125 
Q 21.140625 -20.796875 15.09375 -20.796875 
L 7.90625 -20.796875 
L 7.90625 -13.28125 
L 13.1875 -13.28125 
Q 16.890625 -13.28125 18.9375 -11.515625 
Q 21 -9.765625 23.484375 -3.21875 
L 25.09375 0.875 
L 2.984375 54.6875 
L 12.5 54.6875 
L 29.59375 11.921875 
L 46.6875 54.6875 
L 56.203125 54.6875 
z
" id="DejaVuSans-121"/>
     </defs>
     <g transform="translate(21.20025 214.31225)rotate(-90)scale(0.144 -0.144)">
      <use xlink:href="#DejaVuSans-80"/>
      <use x="60.255859" xlink:href="#DejaVuSans-101"/>
      <use x="121.779297" xlink:href="#DejaVuSans-97"/>
      <use x="183.058594" xlink:href="#DejaVuSans-107"/>
      <use x="240.96875" xlink:href="#DejaVuSans-32"/>
      <use x="272.755859" xlink:href="#DejaVuSans-105"/>
      <use x="300.539062" xlink:href="#DejaVuSans-110"/>
      <use x="363.917969" xlink:href="#DejaVuSans-116"/>
      <use x="403.126953" xlink:href="#DejaVuSans-101"/>
      <use x="464.650391" xlink:href="#DejaVuSans-110"/>
      <use x="528.029297" xlink:href="#DejaVuSans-115"/>
      <use x="580.128906" xlink:href="#DejaVuSans-105"/>
      <use x="607.912109" xlink:href="#DejaVuSans-116"/>
      <use x="647.121094" xlink:href="#DejaVuSans-121"/>
     </g>
    </g>
   </g>
   <g id="line2d_38">
    <path clip-path="url(#p2bba647f65)" d="M 90.027273 39.903968 
L 115.653846 39.877826 
L 141.28042 43.710729 
L 166.906993 55.858986 
L 192.533566 67.704176 
L 218.16014 80.700649 
L 243.786713 87.113045 
L 269.413287 94.214554 
L 295.03986 104.615055 
L 320.666434 117.834791 
L 346.293007 128.144406 
L 371.91958 140.047233 
L 397.546154 152.735834 
L 423.172727 162.711838 
" style="fill:none;stroke:#1f77b4;stroke-linecap:square;stroke-width:1.5;"/>
   </g>
   <g id="line2d_39">
    <path clip-path="url(#p2bba647f65)" d="M 90.027273 87.683397 
L 115.653846 87.683518 
L 141.28042 90.930477 
L 166.906993 101.065255 
L 192.533566 110.869787 
L 218.16014 119.632933 
L 243.786713 131.112979 
L 269.413287 137.647137 
L 295.03986 143.163151 
L 320.666434 146.105361 
L 346.293007 149.089892 
L 371.91958 152.775502 
L 397.546154 158.25197 
L 423.172727 160.975808 
" style="fill:none;stroke:#ff7f0e;stroke-linecap:square;stroke-width:1.5;"/>
   </g>
   <g id="line2d_40">
    <path clip-path="url(#p2bba647f65)" d="M 90.027273 134.202013 
L 115.653846 134.2021 
L 141.28042 134.202273 
L 166.906993 135.587608 
L 192.533566 135.587781 
L 218.16014 135.634786 
L 243.786713 132.448534 
L 269.413287 132.603424 
L 295.03986 132.714778 
L 320.666434 132.028268 
L 346.293007 132.862556 
L 371.91958 135.622991 
L 397.546154 140.780314 
L 423.172727 144.723495 
" style="fill:none;stroke:#2ca02c;stroke-linecap:square;stroke-width:1.5;"/>
   </g>
   <g id="line2d_41">
    <path clip-path="url(#p2bba647f65)" d="M 90.027273 138.031794 
L 115.653846 137.974955 
L 141.28042 137.764562 
L 166.906993 147.349508 
L 192.533566 156.643581 
L 218.16014 164.691598 
L 243.786713 167.080333 
L 269.413287 172.988861 
L 295.03986 177.89503 
L 320.666434 183.549976 
L 346.293007 184.409588 
L 371.91958 187.518482 
L 397.546154 191.116154 
L 423.172727 193.340112 
" style="fill:none;stroke:#d62728;stroke-linecap:square;stroke-width:1.5;"/>
   </g>
   <g id="line2d_42">
    <path clip-path="url(#p2bba647f65)" d="M 90.027273 243.833721 
L 115.653846 243.833704 
L 141.28042 243.833756 
L 166.906993 244.314243 
L 192.533566 244.300194 
L 218.16014 244.264637 
L 243.786713 243.28101 
L 269.413287 244.138193 
L 295.03986 245.741205 
L 320.666434 247.743323 
L 346.293007 248.789912 
L 371.91958 250.291978 
L 397.546154 252.24154 
L 423.172727 253.529397 
" style="fill:none;stroke:#9467bd;stroke-linecap:square;stroke-width:1.5;"/>
   </g>
   <g id="line2d_43">
    <path clip-path="url(#p2bba647f65)" d="M 90.027273 244.559252 
L 115.653846 244.559274 
L 141.28042 244.559291 
L 166.906993 245.034922 
L 192.533566 245.014282 
L 218.16014 244.98098 
L 243.786713 244.010188 
L 269.413287 245.156857 
L 295.03986 246.807047 
L 320.666434 248.802747 
L 346.293007 249.811004 
L 371.91958 251.311682 
L 397.546154 253.22829 
L 423.172727 254.477987 
" style="fill:none;stroke:#8c564b;stroke-linecap:square;stroke-width:1.5;"/>
   </g>
   <g id="line2d_44">
    <path clip-path="url(#p2bba647f65)" d="M 371.91958 246.977897 
L 397.546154 249.2744 
L 423.172727 251.164101 
" style="fill:none;stroke:#e377c2;stroke-linecap:square;stroke-width:1.5;"/>
   </g>
   <g id="line2d_45">
    <path clip-path="url(#p2bba647f65)" d="M 90.027273 242.897614 
L 115.653846 248.280997 
L 141.28042 252.094387 
L 166.906993 257.925236 
L 192.533566 257.633261 
L 218.16014 258.272454 
L 243.786713 256.922521 
L 269.413287 257.481164 
L 295.03986 257.931003 
L 320.666434 259.226526 
L 346.293007 258.079666 
L 371.91958 258.408438 
L 397.546154 258.93645 
L 423.172727 259.14523 
" style="fill:none;stroke:#7f7f7f;stroke-linecap:square;stroke-width:1.5;"/>
   </g>
   <g id="line2d_46">
    <path clip-path="url(#p2bba647f65)" d="M 115.653846 258.074012 
L 141.28042 216.990551 
L 166.906993 220.066068 
L 192.533566 223.014296 
L 218.16014 225.863169 
L 243.786713 228.03773 
L 269.413287 232.031782 
L 295.03986 291.804875 
L 320.666434 292.561059 
L 346.293007 293.454401 
L 371.91958 298.893091 
L 397.546154 299.235001 
L 423.172727 295.418109 
" style="fill:none;stroke:#bcbd22;stroke-linecap:square;stroke-width:1.5;"/>
   </g>
   <g id="line2d_47">
    <path clip-path="url(#p2bba647f65)" d="M 90.027273 258.603325 
L 115.653846 258.60336 
L 141.28042 258.60336 
L 166.906993 258.847593 
L 192.533566 258.737383 
L 218.16014 258.74198 
L 243.786713 259.417024 
L 269.413287 261.091446 
L 295.03986 262.739919 
L 320.666434 263.813757 
L 346.293007 264.84347 
L 371.91958 266.031975 
L 397.546154 267.652731 
L 423.172727 268.56769 
" style="fill:none;stroke:#17becf;stroke-linecap:square;stroke-width:1.5;"/>
   </g>
   <g id="line2d_48">
    <path clip-path="url(#p2bba647f65)" d="M 90.027273 262.039551 
L 115.653846 262.039655 
L 141.28042 262.039481 
L 166.906993 262.357066 
L 192.533566 262.357066 
L 218.16014 262.350128 
L 243.786713 261.655986 
L 269.413287 261.652864 
L 295.03986 261.653905 
L 320.666434 261.645059 
L 346.293007 261.969235 
L 371.91958 262.988246 
L 397.546154 264.593131 
L 423.172727 265.663483 
" style="fill:none;stroke:#1f77b4;stroke-linecap:square;stroke-width:1.5;"/>
   </g>
   <g id="line2d_49">
    <path clip-path="url(#p2bba647f65)" d="M 90.027273 258.571081 
L 115.653846 258.571029 
L 141.28042 258.565131 
L 166.906993 258.870748 
L 192.533566 259.378952 
L 218.16014 261.535266 
L 243.786713 262.396786 
L 269.413287 264.310844 
L 295.03986 265.94891 
L 320.666434 267.962458 
L 346.293007 268.107426 
L 371.91958 269.153582 
L 397.546154 270.433754 
L 423.172727 271.178907 
" style="fill:none;stroke:#ff7f0e;stroke-linecap:square;stroke-width:1.5;"/>
   </g>
   <g id="line2d_50">
    <path clip-path="url(#p2bba647f65)" d="M 90.027273 257.180612 
L 115.653846 257.281967 
L 141.28042 258.252924 
L 166.906993 259.986691 
L 192.533566 262.077252 
L 218.16014 264.058906 
L 243.786713 265.761384 
L 269.413287 267.271581 
L 295.03986 268.591562 
L 320.666434 269.320393 
L 346.293007 270.510986 
L 371.91958 271.995738 
L 397.546154 273.71873 
L 423.172727 275.119933 
" style="fill:none;stroke:#2ca02c;stroke-linecap:square;stroke-width:1.5;"/>
   </g>
   <g id="line2d_51">
    <path clip-path="url(#p2bba647f65)" d="M 90.027273 252.731597 
L 115.653846 256.224426 
L 141.28042 259.679527 
L 166.906993 264.003475 
L 192.533566 266.193802 
L 218.16014 267.72544 
L 243.786713 267.912696 
L 269.413287 268.925688 
L 295.03986 269.715979 
L 320.666434 270.633375 
L 346.293007 268.990679 
L 371.91958 269.408656 
L 397.546154 269.971288 
L 423.172727 270.319088 
" style="fill:none;stroke:#d62728;stroke-linecap:square;stroke-width:1.5;"/>
   </g>
   <g id="line2d_52">
    <path clip-path="url(#p2bba647f65)" d="M 90.027273 257.780404 
L 115.653846 257.959476 
L 141.28042 259.016747 
L 166.906993 261.440756 
L 192.533566 263.585932 
L 218.16014 265.425253 
L 243.786713 266.317421 
L 269.413287 267.90671 
L 295.03986 269.09714 
L 320.666434 270.406208 
L 346.293007 271.12522 
L 371.91958 272.284775 
L 397.546154 273.872546 
L 423.172727 290.310103 
" style="fill:none;stroke:#9467bd;stroke-linecap:square;stroke-width:1.5;"/>
   </g>
   <g id="line2d_53">
    <path clip-path="url(#p2bba647f65)" d="M 115.653846 259.701054 
L 141.28042 260.301801 
L 166.906993 261.008422 
L 192.533566 261.844363 
L 218.16014 263.564526 
L 243.786713 265.504049 
L 269.413287 268.136209 
L 295.03986 270.959617 
L 320.666434 273.570594 
L 346.293007 275.696665 
L 371.91958 277.700567 
L 397.546154 279.828367 
L 423.172727 281.153985 
" style="fill:none;stroke:#8c564b;stroke-linecap:square;stroke-width:1.5;"/>
   </g>
   <g id="line2d_54">
    <path clip-path="url(#p2bba647f65)" d="M 90.027273 265.930308 
L 115.653846 265.930108 
L 141.28042 265.920759 
L 166.906993 266.477339 
L 192.533566 267.339413 
L 218.16014 268.544361 
L 243.786713 269.162705 
L 269.413287 270.491946 
L 295.03986 271.654781 
L 320.666434 272.916563 
L 346.293007 273.382035 
L 371.91958 274.164734 
L 397.546154 275.262744 
L 423.172727 275.856597 
" style="fill:none;stroke:#e377c2;stroke-linecap:square;stroke-width:1.5;"/>
   </g>
   <g id="line2d_55">
    <path clip-path="url(#p2bba647f65)" d="M 90.027273 268.633722 
L 115.653846 268.633756 
L 141.28042 268.633722 
L 166.906993 268.782853 
L 192.533566 268.714427 
L 218.16014 268.986586 
L 243.786713 269.942479 
L 269.413287 271.292377 
L 295.03986 272.545509 
L 320.666434 273.318136 
L 346.293007 274.04728 
L 371.91958 274.909736 
L 397.546154 276.101102 
L 423.172727 276.754284 
" style="fill:none;stroke:#7f7f7f;stroke-linecap:square;stroke-width:1.5;"/>
   </g>
   <g id="line2d_56">
    <path clip-path="url(#p2bba647f65)" d="M 90.027273 270.755502 
L 115.653846 270.755467 
L 141.28042 270.755519 
L 166.906993 271.000064 
L 192.533566 270.987975 
L 218.16014 270.912525 
L 243.786713 270.455366 
L 269.413287 270.464056 
L 295.03986 270.74565 
L 320.666434 271.362537 
L 346.293007 272.098185 
L 371.91958 273.021678 
L 397.546154 274.268167 
L 423.172727 275.059873 
" style="fill:none;stroke:#bcbd22;stroke-linecap:square;stroke-width:1.5;"/>
   </g>
   <g id="line2d_57">
    <path clip-path="url(#p2bba647f65)" d="M 90.027273 269.736331 
L 115.653846 269.941266 
L 141.28042 270.894255 
L 166.906993 272.823557 
L 192.533566 273.159184 
L 218.16014 273.379292 
L 243.786713 272.940818 
L 269.413287 273.086752 
L 295.03986 273.225799 
L 320.666434 273.695444 
L 346.293007 273.760271 
L 371.91958 274.298169 
L 397.546154 275.399296 
L 423.172727 276.278549 
" style="fill:none;stroke:#17becf;stroke-linecap:square;stroke-width:1.5;"/>
   </g>
   <g id="line2d_58">
    <path clip-path="url(#p2bba647f65)" d="M 90.027273 273.358567 
L 115.653846 273.358532 
L 141.28042 273.358532 
L 166.906993 273.581449 
L 192.533566 273.581466 
L 218.16014 273.581431 
L 243.786713 273.075985 
L 269.413287 273.090641 
L 295.03986 273.08594 
L 320.666434 273.09182 
L 346.293007 272.980709 
L 371.91958 273.123006 
L 397.546154 273.97679 
L 423.172727 274.60039 
" style="fill:none;stroke:#1f77b4;stroke-linecap:square;stroke-width:1.5;"/>
   </g>
   <g id="line2d_59">
    <path clip-path="url(#p2bba647f65)" d="M 90.027273 269.92219 
L 115.653846 269.921318 
L 141.28042 269.907789 
L 166.906993 270.56842 
L 192.533566 271.380628 
L 218.16014 272.577233 
L 243.786713 273.124672 
L 269.413287 274.269259 
L 295.03986 275.292957 
L 320.666434 276.402444 
L 346.293007 276.786343 
L 371.91958 277.452906 
L 397.546154 278.214594 
L 423.172727 292.503378 
" style="fill:none;stroke:#ff7f0e;stroke-linecap:square;stroke-width:1.5;"/>
   </g>
   <g id="line2d_60">
    <path clip-path="url(#p2bba647f65)" d="M 90.027273 270.735503 
L 115.653846 270.73618 
L 141.28042 271.084066 
L 166.906993 272.360734 
L 192.533566 274.156448 
L 218.16014 275.694487 
L 243.786713 277.189163 
L 269.413287 278.200213 
L 295.03986 279.028239 
L 320.666434 279.372292 
L 346.293007 279.749872 
L 371.91958 280.268003 
L 397.546154 281.0465 
L 423.172727 281.410605 
" style="fill:none;stroke:#2ca02c;stroke-linecap:square;stroke-width:1.5;"/>
   </g>
   <g id="line2d_61">
    <path clip-path="url(#p2bba647f65)" d="M 90.027273 268.933762 
L 115.653846 269.01303 
L 141.28042 269.756779 
L 166.906993 271.167954 
L 192.533566 272.568606 
L 218.16014 274.113261 
L 243.786713 275.502587 
L 269.413287 277.235972 
L 295.03986 279.199213 
L 320.666434 280.678976 
L 346.293007 282.034089 
L 371.91958 283.301681 
L 397.546154 284.561971 
L 423.172727 285.533414 
" style="fill:none;stroke:#d62728;stroke-linecap:square;stroke-width:1.5;"/>
   </g>
   <g id="line2d_62">
    <path clip-path="url(#p2bba647f65)" d="M 90.027273 272.225531 
L 115.653846 272.225548 
L 141.28042 272.225583 
L 166.906993 272.457935 
L 192.533566 272.434103 
L 218.16014 272.385087 
L 243.786713 271.947684 
L 269.413287 272.288979 
L 295.03986 272.960381 
L 320.666434 273.609669 
L 346.293007 293.889511 
L 371.91958 294.299856 
L 397.546154 294.789447 
L 423.172727 295.142141 
" style="fill:none;stroke:#9467bd;stroke-linecap:square;stroke-width:1.5;"/>
   </g>
   <g id="line2d_63">
    <path clip-path="url(#p2bba647f65)" d="M 90.027273 280.04329 
L 115.653846 280.043296 
L 141.28042 280.043313 
L 166.906993 280.210361 
L 192.533566 280.210361 
L 218.16014 280.210396 
L 243.786713 279.821385 
L 269.413287 279.834914 
L 295.03986 279.842511 
L 320.666434 279.844211 
L 346.293007 279.765188 
L 371.91958 279.795715 
L 397.546154 280.012023 
L 423.172727 280.283123 
" style="fill:none;stroke:#8c564b;stroke-linecap:square;stroke-width:1.5;"/>
   </g>
   <g id="line2d_64">
    <path clip-path="url(#p2bba647f65)" d="M 90.027273 280.026384 
L 115.653846 280.026384 
L 141.28042 280.026402 
L 166.906993 280.193589 
L 192.533566 280.194664 
L 218.16014 280.200561 
L 243.786713 279.825964 
L 269.413287 279.845547 
L 295.03986 279.845391 
L 320.666434 279.920529 
L 346.293007 280.240992 
L 371.91958 280.741687 
L 397.546154 281.423513 
L 423.172727 281.945091 
" style="fill:none;stroke:#e377c2;stroke-linecap:square;stroke-width:1.5;"/>
   </g>
   <g id="line2d_65">
    <path clip-path="url(#p2bba647f65)" d="M 90.027273 274.464077 
L 115.653846 274.464059 
L 141.28042 274.464077 
L 166.906993 274.665954 
L 192.533566 274.643319 
L 218.16014 275.147308 
L 243.786713 275.533041 
L 269.413287 276.632532 
L 295.03986 277.643234 
L 320.666434 278.876437 
L 346.293007 293.575152 
L 371.91958 293.578899 
L 397.546154 293.626927 
L 423.172727 293.626909 
" style="fill:none;stroke:#7f7f7f;stroke-linecap:square;stroke-width:1.5;"/>
   </g>
   <g id="line2d_66">
    <path clip-path="url(#p2bba647f65)" d="M 90.027273 281.394428 
L 115.653846 281.394429 
L 141.28042 281.394426 
L 166.906993 281.550217 
L 192.533566 281.551536 
L 218.16014 281.550634 
L 243.786713 281.200979 
L 269.413287 281.209738 
L 295.03986 281.371114 
L 320.666434 281.695064 
L 346.293007 282.013707 
L 371.91958 282.549455 
L 397.546154 283.365432 
L 423.172727 284.095958 
" style="fill:none;stroke:#bcbd22;stroke-linecap:square;stroke-width:1.5;"/>
   </g>
   <g id="line2d_67">
    <path clip-path="url(#p2bba647f65)" d="M 90.027273 279.50524 
L 115.653846 279.505223 
L 141.28042 279.504512 
L 166.906993 279.670138 
L 192.533566 279.772403 
L 218.16014 280.362823 
L 243.786713 280.701845 
L 269.413287 281.576634 
L 295.03986 282.367452 
L 320.666434 283.30353 
L 346.293007 283.499858 
L 371.91958 284.03966 
L 397.546154 284.681847 
L 423.172727 294.890937 
" style="fill:none;stroke:#17becf;stroke-linecap:square;stroke-width:1.5;"/>
   </g>
   <g id="line2d_68">
    <path clip-path="url(#p2bba647f65)" d="M 192.533566 280.300106 
L 218.16014 267.302854 
L 243.786713 271.436276 
L 269.413287 274.779 
L 295.03986 286.800896 
L 320.666434 278.920681 
L 346.293007 280.553909 
L 371.91958 295.555625 
L 397.546154 294.293355 
L 423.172727 298.6613 
" style="fill:none;stroke:#1f77b4;stroke-linecap:square;stroke-width:1.5;"/>
   </g>
   <g id="line2d_69">
    <path clip-path="url(#p2bba647f65)" d="M 90.027273 273.371333 
L 115.653846 275.652582 
L 141.28042 277.988024 
L 166.906993 281.031441 
L 192.533566 281.906672 
L 218.16014 282.657507 
L 243.786713 282.640597 
L 269.413287 283.133105 
L 295.03986 283.526583 
L 320.666434 284.083166 
L 346.293007 283.952075 
L 371.91958 292.333088 
L 397.546154 292.460282 
L 423.172727 292.524789 
" style="fill:none;stroke:#ff7f0e;stroke-linecap:square;stroke-width:1.5;"/>
   </g>
   <g id="line2d_70">
    <path clip-path="url(#p2bba647f65)" d="M 90.027273 282.463728 
L 115.653846 282.463737 
L 141.28042 282.463737 
L 166.906993 282.610578 
L 192.533566 282.610596 
L 218.16014 282.610596 
L 243.786713 282.267549 
L 269.413287 282.26833 
L 295.03986 282.274647 
L 320.666434 282.241237 
L 346.293007 282.284426 
L 371.91958 282.353371 
L 397.546154 295.640612 
L 423.172727 295.685743 
" style="fill:none;stroke:#2ca02c;stroke-linecap:square;stroke-width:1.5;"/>
   </g>
   <g id="line2d_71">
    <path clip-path="url(#p2bba647f65)" d="M 423.172727 284.439896 
" style="fill:none;stroke:#d62728;stroke-linecap:square;stroke-width:1.5;"/>
   </g>
   <g id="line2d_72">
    <path clip-path="url(#p2bba647f65)" d="M 90.027273 289.05783 
L 115.653846 288.41887 
L 141.28042 286.885064 
L 166.906993 285.343245 
L 192.533566 284.313112 
L 218.16014 283.737525 
L 243.786713 283.352248 
L 269.413287 282.957396 
L 295.03986 282.816084 
L 320.666434 282.382242 
L 346.293007 282.483583 
L 371.91958 282.792276 
L 397.546154 283.511667 
L 423.172727 284.626765 
" style="fill:none;stroke:#9467bd;stroke-linecap:square;stroke-width:1.5;"/>
   </g>
   <g id="line2d_73">
    <path clip-path="url(#p2bba647f65)" d="M 269.413287 299.074273 
L 295.03986 294.481439 
L 320.666434 291.209261 
L 346.293007 283.033307 
L 371.91958 278.468885 
L 397.546154 275.092707 
L 423.172727 271.361479 
" style="fill:none;stroke:#8c564b;stroke-linecap:square;stroke-width:1.5;"/>
   </g>
   <g id="line2d_74">
    <path clip-path="url(#p2bba647f65)" d="M 90.027273 282.869485 
L 115.653846 282.869503 
L 141.28042 282.868427 
L 166.906993 282.996571 
L 192.533566 283.063054 
L 218.16014 283.885339 
L 243.786713 284.243424 
L 269.413287 285.044913 
L 295.03986 285.737407 
L 320.666434 286.588051 
L 346.293007 286.657083 
L 371.91958 287.106107 
L 397.546154 287.651014 
L 423.172727 287.969885 
" style="fill:none;stroke:#e377c2;stroke-linecap:square;stroke-width:1.5;"/>
   </g>
   <g id="line2d_75">
    <path clip-path="url(#p2bba647f65)" d="M 90.027273 281.084733 
L 115.653846 281.084612 
L 141.28042 281.453884 
L 166.906993 282.884072 
L 192.533566 284.181937 
L 218.16014 285.192292 
L 243.786713 286.183742 
L 269.413287 286.774682 
L 295.03986 287.244745 
L 320.666434 287.386973 
L 346.293007 287.575824 
L 371.91958 287.868414 
L 397.546154 288.317612 
L 423.172727 288.517823 
" style="fill:none;stroke:#7f7f7f;stroke-linecap:square;stroke-width:1.5;"/>
   </g>
   <g id="line2d_76">
    <path clip-path="url(#p2bba647f65)" d="M 115.653846 285.796444 
L 141.28042 271.505158 
L 166.906993 273.065684 
L 192.533566 274.51932 
L 218.16014 275.814449 
L 243.786713 277.02139 
L 269.413287 278.579063 
L 295.03986 295.898634 
L 320.666434 296.07962 
L 346.293007 296.284244 
L 371.91958 297.481804 
L 397.546154 297.6491 
L 423.172727 297.776385 
" style="fill:none;stroke:#bcbd22;stroke-linecap:square;stroke-width:1.5;"/>
   </g>
   <g id="line2d_77">
    <path clip-path="url(#p2bba647f65)" d="M 90.027273 284.382234 
L 115.653846 284.382237 
L 141.28042 284.378884 
L 166.906993 284.62584 
L 192.533566 284.985706 
L 218.16014 285.41901 
L 243.786713 285.673678 
L 269.413287 286.297871 
L 295.03986 286.909727 
L 320.666434 287.412067 
L 346.293007 287.734359 
L 371.91958 288.273188 
L 397.546154 289.050175 
L 423.172727 289.624613 
" style="fill:none;stroke:#17becf;stroke-linecap:square;stroke-width:1.5;"/>
   </g>
   <g id="line2d_78">
    <path clip-path="url(#p2bba647f65)" d="M 90.027273 284.460224 
L 115.653846 284.46023 
L 141.28042 284.460252 
L 166.906993 284.591345 
L 192.533566 284.590842 
L 218.16014 284.585742 
L 243.786713 284.3076 
L 269.413287 284.510986 
L 295.03986 284.887217 
L 320.666434 285.434149 
L 346.293007 285.73079 
L 371.91958 286.173842 
L 397.546154 296.136075 
L 423.172727 296.138475 
" style="fill:none;stroke:#1f77b4;stroke-linecap:square;stroke-width:1.5;"/>
   </g>
   <g id="line2d_79">
    <path clip-path="url(#p2bba647f65)" d="M 90.027273 283.92499 
L 115.653846 283.924868 
L 141.28042 283.908044 
L 166.906993 284.287601 
L 192.533566 285.190332 
L 218.16014 286.057784 
L 243.786713 286.330827 
L 269.413287 286.973922 
L 295.03986 287.517233 
L 320.666434 288.161716 
L 346.293007 288.231841 
L 371.91958 288.575599 
L 397.546154 288.9814 
L 423.172727 289.225962 
" style="fill:none;stroke:#ff7f0e;stroke-linecap:square;stroke-width:1.5;"/>
   </g>
   <g id="line2d_80">
    <path clip-path="url(#p2bba647f65)" d="M 90.027273 287.962831 
L 115.653846 287.739884 
L 141.28042 287.350781 
L 166.906993 286.959905 
L 192.533566 286.671376 
L 218.16014 286.604438 
L 243.786713 286.616993 
L 269.413287 286.494213 
L 295.03986 286.455135 
L 320.666434 286.249072 
L 346.293007 286.119672 
L 371.91958 286.105036 
L 397.546154 286.328652 
L 423.172727 286.307777 
" style="fill:none;stroke:#2ca02c;stroke-linecap:square;stroke-width:1.5;"/>
   </g>
   <g id="line2d_81">
    <path clip-path="url(#p2bba647f65)" d="M 90.027273 286.425408 
L 115.653846 286.425391 
L 141.28042 286.425391 
L 166.906993 286.539138 
L 192.533566 286.539138 
L 218.16014 286.539173 
L 243.786713 286.278792 
L 269.413287 286.288609 
L 295.03986 286.286632 
L 320.666434 286.289469 
L 346.293007 286.232741 
L 371.91958 286.314814 
L 397.546154 286.782688 
L 423.172727 296.996136 
" style="fill:none;stroke:#d62728;stroke-linecap:square;stroke-width:1.5;"/>
   </g>
   <g id="line2d_82">
    <path clip-path="url(#p2bba647f65)" d="M 141.28042 296.816526 
L 166.906993 293.230007 
L 192.533566 290.823702 
L 218.16014 289.076311 
L 243.786713 288.380729 
L 269.413287 287.297768 
L 295.03986 286.456213 
L 320.666434 285.316568 
L 346.293007 284.604232 
L 371.91958 284.203704 
L 397.546154 284.180757 
L 423.172727 283.889676 
" style="fill:none;stroke:#9467bd;stroke-linecap:square;stroke-width:1.5;"/>
   </g>
   <g id="line2d_83">
    <path clip-path="url(#p2bba647f65)" d="M 90.027273 281.91886 
L 115.653846 283.039153 
L 141.28042 284.57538 
L 166.906993 285.741693 
L 192.533566 286.74911 
L 218.16014 287.409901 
L 243.786713 288.101755 
L 269.413287 288.472395 
L 295.03986 288.763801 
L 320.666434 288.801029 
L 346.293007 288.919246 
L 371.91958 289.106144 
L 397.546154 289.433967 
L 423.172727 299.4937 
" style="fill:none;stroke:#8c564b;stroke-linecap:square;stroke-width:1.5;"/>
   </g>
   <g id="line2d_84">
    <path clip-path="url(#p2bba647f65)" d="M 90.027273 282.340887 
L 115.653846 284.728272 
L 141.28042 286.24515 
L 166.906993 287.658965 
L 192.533566 288.02414 
L 218.16014 288.284356 
L 243.786713 287.98174 
L 269.413287 288.180904 
L 295.03986 288.335986 
L 320.666434 288.699029 
L 346.293007 288.428464 
L 371.91958 288.531973 
L 397.546154 288.685816 
L 423.172727 294.781302 
" style="fill:none;stroke:#e377c2;stroke-linecap:square;stroke-width:1.5;"/>
   </g>
   <g id="line2d_85">
    <path clip-path="url(#p2bba647f65)" d="M 346.293007 287.510727 
L 371.91958 287.91898 
L 397.546154 288.463725 
L 423.172727 288.796602 
" style="fill:none;stroke:#7f7f7f;stroke-linecap:square;stroke-width:1.5;"/>
   </g>
   <g id="line2d_86">
    <path clip-path="url(#p2bba647f65)" d="M 218.16014 299.834337 
L 243.786713 298.550734 
L 269.413287 295.946988 
L 295.03986 292.352679 
L 320.666434 287.848733 
L 346.293007 283.634223 
L 371.91958 280.533271 
L 397.546154 278.589256 
L 423.172727 277.992283 
" style="fill:none;stroke:#bcbd22;stroke-linecap:square;stroke-width:1.5;"/>
   </g>
   <g id="line2d_87">
    <path clip-path="url(#p2bba647f65)" d="M 90.027273 282.440668 
L 115.653846 285.511715 
L 141.28042 287.075528 
L 166.906993 287.826353 
L 192.533566 288.438124 
L 218.16014 288.858476 
L 243.786713 289.355972 
L 269.413287 289.544353 
L 295.03986 289.689514 
L 320.666434 289.61623 
L 346.293007 289.627289 
L 371.91958 289.727891 
L 397.546154 289.975073 
L 423.172727 290.039225 
" style="fill:none;stroke:#17becf;stroke-linecap:square;stroke-width:1.5;"/>
   </g>
   <g id="patch_3">
    <path d="M 73.37 300.04 
L 73.37 26.88 
" style="fill:none;stroke:#000000;stroke-linecap:square;stroke-linejoin:miter;stroke-width:0.8;"/>
   </g>
   <g id="patch_4">
    <path d="M 439.83 300.04 
L 439.83 26.88 
" style="fill:none;stroke:#000000;stroke-linecap:square;stroke-linejoin:miter;stroke-width:0.8;"/>
   </g>
   <g id="patch_5">
    <path d="M 73.37 300.04 
L 439.83 300.04 
" style="fill:none;stroke:#000000;stroke-linecap:square;stroke-linejoin:miter;stroke-width:0.8;"/>
   </g>
   <g id="patch_6">
    <path d="M 73.37 26.88 
L 439.83 26.88 
" style="fill:none;stroke:#000000;stroke-linecap:square;stroke-linejoin:miter;stroke-width:0.8;"/>
   </g>
   <g id="text_18">
    <!-- Highest peaks with increasing mosaicity at theta=344 degrees -->
    <defs>
     <path d="M 9.8125 72.90625 
L 19.671875 72.90625 
L 19.671875 43.015625 
L 55.515625 43.015625 
L 55.515625 72.90625 
L 65.375 72.90625 
L 65.375 0 
L 55.515625 0 
L 55.515625 34.71875 
L 19.671875 34.71875 
L 19.671875 0 
L 9.8125 0 
z
" id="DejaVuSans-72"/>
     <path d="M 45.40625 27.984375 
Q 45.40625 37.75 41.375 43.109375 
Q 37.359375 48.484375 30.078125 48.484375 
Q 22.859375 48.484375 18.828125 43.109375 
Q 14.796875 37.75 14.796875 27.984375 
Q 14.796875 18.265625 18.828125 12.890625 
Q 22.859375 7.515625 30.078125 7.515625 
Q 37.359375 7.515625 41.375 12.890625 
Q 45.40625 18.265625 45.40625 27.984375 
z
M 54.390625 6.78125 
Q 54.390625 -7.171875 48.1875 -13.984375 
Q 42 -20.796875 29.203125 -20.796875 
Q 24.46875 -20.796875 20.265625 -20.09375 
Q 16.0625 -19.390625 12.109375 -17.921875 
L 12.109375 -9.1875 
Q 16.0625 -11.328125 19.921875 -12.34375 
Q 23.78125 -13.375 27.78125 -13.375 
Q 36.625 -13.375 41.015625 -8.765625 
Q 45.40625 -4.15625 45.40625 5.171875 
L 45.40625 9.625 
Q 42.625 4.78125 38.28125 2.390625 
Q 33.9375 0 27.875 0 
Q 17.828125 0 11.671875 7.65625 
Q 5.515625 15.328125 5.515625 27.984375 
Q 5.515625 40.671875 11.671875 48.328125 
Q 17.828125 56 27.875 56 
Q 33.9375 56 38.28125 53.609375 
Q 42.625 51.21875 45.40625 46.390625 
L 45.40625 54.6875 
L 54.390625 54.6875 
z
" id="DejaVuSans-103"/>
     <path d="M 54.890625 33.015625 
L 54.890625 0 
L 45.90625 0 
L 45.90625 32.71875 
Q 45.90625 40.484375 42.875 44.328125 
Q 39.84375 48.1875 33.796875 48.1875 
Q 26.515625 48.1875 22.3125 43.546875 
Q 18.109375 38.921875 18.109375 30.90625 
L 18.109375 0 
L 9.078125 0 
L 9.078125 75.984375 
L 18.109375 75.984375 
L 18.109375 46.1875 
Q 21.34375 51.125 25.703125 53.5625 
Q 30.078125 56 35.796875 56 
Q 45.21875 56 50.046875 50.171875 
Q 54.890625 44.34375 54.890625 33.015625 
z
" id="DejaVuSans-104"/>
     <path d="M 18.109375 8.203125 
L 18.109375 -20.796875 
L 9.078125 -20.796875 
L 9.078125 54.6875 
L 18.109375 54.6875 
L 18.109375 46.390625 
Q 20.953125 51.265625 25.265625 53.625 
Q 29.59375 56 35.59375 56 
Q 45.5625 56 51.78125 48.09375 
Q 58.015625 40.1875 58.015625 27.296875 
Q 58.015625 14.40625 51.78125 6.484375 
Q 45.5625 -1.421875 35.59375 -1.421875 
Q 29.59375 -1.421875 25.265625 0.953125 
Q 20.953125 3.328125 18.109375 8.203125 
z
M 48.6875 27.296875 
Q 48.6875 37.203125 44.609375 42.84375 
Q 40.53125 48.484375 33.40625 48.484375 
Q 26.265625 48.484375 22.1875 42.84375 
Q 18.109375 37.203125 18.109375 27.296875 
Q 18.109375 17.390625 22.1875 11.75 
Q 26.265625 6.109375 33.40625 6.109375 
Q 40.53125 6.109375 44.609375 11.75 
Q 48.6875 17.390625 48.6875 27.296875 
z
" id="DejaVuSans-112"/>
     <path d="M 4.203125 54.6875 
L 13.1875 54.6875 
L 24.421875 12.015625 
L 35.59375 54.6875 
L 46.1875 54.6875 
L 57.421875 12.015625 
L 68.609375 54.6875 
L 77.59375 54.6875 
L 63.28125 0 
L 52.6875 0 
L 40.921875 44.828125 
L 29.109375 0 
L 18.5 0 
z
" id="DejaVuSans-119"/>
     <path d="M 48.78125 52.59375 
L 48.78125 44.1875 
Q 44.96875 46.296875 41.140625 47.34375 
Q 37.3125 48.390625 33.40625 48.390625 
Q 24.65625 48.390625 19.8125 42.84375 
Q 14.984375 37.3125 14.984375 27.296875 
Q 14.984375 17.28125 19.8125 11.734375 
Q 24.65625 6.203125 33.40625 6.203125 
Q 37.3125 6.203125 41.140625 7.25 
Q 44.96875 8.296875 48.78125 10.40625 
L 48.78125 2.09375 
Q 45.015625 0.34375 40.984375 -0.53125 
Q 36.96875 -1.421875 32.421875 -1.421875 
Q 20.0625 -1.421875 12.78125 6.34375 
Q 5.515625 14.109375 5.515625 27.296875 
Q 5.515625 40.671875 12.859375 48.328125 
Q 20.21875 56 33.015625 56 
Q 37.15625 56 41.109375 55.140625 
Q 45.0625 54.296875 48.78125 52.59375 
z
" id="DejaVuSans-99"/>
     <path d="M 30.609375 48.390625 
Q 23.390625 48.390625 19.1875 42.75 
Q 14.984375 37.109375 14.984375 27.296875 
Q 14.984375 17.484375 19.15625 11.84375 
Q 23.34375 6.203125 30.609375 6.203125 
Q 37.796875 6.203125 41.984375 11.859375 
Q 46.1875 17.53125 46.1875 27.296875 
Q 46.1875 37.015625 41.984375 42.703125 
Q 37.796875 48.390625 30.609375 48.390625 
z
M 30.609375 56 
Q 42.328125 56 49.015625 48.375 
Q 55.71875 40.765625 55.71875 27.296875 
Q 55.71875 13.875 49.015625 6.21875 
Q 42.328125 -1.421875 30.609375 -1.421875 
Q 18.84375 -1.421875 12.171875 6.21875 
Q 5.515625 13.875 5.515625 27.296875 
Q 5.515625 40.765625 12.171875 48.375 
Q 18.84375 56 30.609375 56 
z
" id="DejaVuSans-111"/>
     <path d="M 10.59375 45.40625 
L 73.1875 45.40625 
L 73.1875 37.203125 
L 10.59375 37.203125 
z
M 10.59375 25.484375 
L 73.1875 25.484375 
L 73.1875 17.1875 
L 10.59375 17.1875 
z
" id="DejaVuSans-61"/>
     <path d="M 40.578125 39.3125 
Q 47.65625 37.796875 51.625 33 
Q 55.609375 28.21875 55.609375 21.1875 
Q 55.609375 10.40625 48.1875 4.484375 
Q 40.765625 -1.421875 27.09375 -1.421875 
Q 22.515625 -1.421875 17.65625 -0.515625 
Q 12.796875 0.390625 7.625 2.203125 
L 7.625 11.71875 
Q 11.71875 9.328125 16.59375 8.109375 
Q 21.484375 6.890625 26.8125 6.890625 
Q 36.078125 6.890625 40.9375 10.546875 
Q 45.796875 14.203125 45.796875 21.1875 
Q 45.796875 27.640625 41.28125 31.265625 
Q 36.765625 34.90625 28.71875 34.90625 
L 20.21875 34.90625 
L 20.21875 43.015625 
L 29.109375 43.015625 
Q 36.375 43.015625 40.234375 45.921875 
Q 44.09375 48.828125 44.09375 54.296875 
Q 44.09375 59.90625 40.109375 62.90625 
Q 36.140625 65.921875 28.71875 65.921875 
Q 24.65625 65.921875 20.015625 65.03125 
Q 15.375 64.15625 9.8125 62.3125 
L 9.8125 71.09375 
Q 15.4375 72.65625 20.34375 73.4375 
Q 25.25 74.21875 29.59375 74.21875 
Q 40.828125 74.21875 47.359375 69.109375 
Q 53.90625 64.015625 53.90625 55.328125 
Q 53.90625 49.265625 50.4375 45.09375 
Q 46.96875 40.921875 40.578125 39.3125 
z
" id="DejaVuSans-51"/>
     <path d="M 45.40625 46.390625 
L 45.40625 75.984375 
L 54.390625 75.984375 
L 54.390625 0 
L 45.40625 0 
L 45.40625 8.203125 
Q 42.578125 3.328125 38.25 0.953125 
Q 33.9375 -1.421875 27.875 -1.421875 
Q 17.96875 -1.421875 11.734375 6.484375 
Q 5.515625 14.40625 5.515625 27.296875 
Q 5.515625 40.1875 11.734375 48.09375 
Q 17.96875 56 27.875 56 
Q 33.9375 56 38.25 53.625 
Q 42.578125 51.265625 45.40625 46.390625 
z
M 14.796875 27.296875 
Q 14.796875 17.390625 18.875 11.75 
Q 22.953125 6.109375 30.078125 6.109375 
Q 37.203125 6.109375 41.296875 11.75 
Q 45.40625 17.390625 45.40625 27.296875 
Q 45.40625 37.203125 41.296875 42.84375 
Q 37.203125 48.484375 30.078125 48.484375 
Q 22.953125 48.484375 18.875 42.84375 
Q 14.796875 37.203125 14.796875 27.296875 
z
" id="DejaVuSans-100"/>
    </defs>
    <g transform="translate(67.255938 20.88)scale(0.12 -0.12)">
     <use xlink:href="#DejaVuSans-72"/>
     <use x="75.195312" xlink:href="#DejaVuSans-105"/>
     <use x="102.978516" xlink:href="#DejaVuSans-103"/>
     <use x="166.455078" xlink:href="#DejaVuSans-104"/>
     <use x="229.833984" xlink:href="#DejaVuSans-101"/>
     <use x="291.357422" xlink:href="#DejaVuSans-115"/>
     <use x="343.457031" xlink:href="#DejaVuSans-116"/>
     <use x="382.666016" xlink:href="#DejaVuSans-32"/>
     <use x="414.453125" xlink:href="#DejaVuSans-112"/>
     <use x="477.929688" xlink:href="#DejaVuSans-101"/>
     <use x="539.453125" xlink:href="#DejaVuSans-97"/>
     <use x="600.732422" xlink:href="#DejaVuSans-107"/>
     <use x="658.642578" xlink:href="#DejaVuSans-115"/>
     <use x="710.742188" xlink:href="#DejaVuSans-32"/>
     <use x="742.529297" xlink:href="#DejaVuSans-119"/>
     <use x="824.316406" xlink:href="#DejaVuSans-105"/>
     <use x="852.099609" xlink:href="#DejaVuSans-116"/>
     <use x="891.308594" xlink:href="#DejaVuSans-104"/>
     <use x="954.6875" xlink:href="#DejaVuSans-32"/>
     <use x="986.474609" xlink:href="#DejaVuSans-105"/>
     <use x="1014.257812" xlink:href="#DejaVuSans-110"/>
     <use x="1077.636719" xlink:href="#DejaVuSans-99"/>
     <use x="1132.617188" xlink:href="#DejaVuSans-114"/>
     <use x="1173.699219" xlink:href="#DejaVuSans-101"/>
     <use x="1235.222656" xlink:href="#DejaVuSans-97"/>
     <use x="1296.501953" xlink:href="#DejaVuSans-115"/>
     <use x="1348.601562" xlink:href="#DejaVuSans-105"/>
     <use x="1376.384766" xlink:href="#DejaVuSans-110"/>
     <use x="1439.763672" xlink:href="#DejaVuSans-103"/>
     <use x="1503.240234" xlink:href="#DejaVuSans-32"/>
     <use x="1535.027344" xlink:href="#DejaVuSans-109"/>
     <use x="1632.439453" xlink:href="#DejaVuSans-111"/>
     <use x="1693.621094" xlink:href="#DejaVuSans-115"/>
     <use x="1745.720703" xlink:href="#DejaVuSans-97"/>
     <use x="1807" xlink:href="#DejaVuSans-105"/>
     <use x="1834.783203" xlink:href="#DejaVuSans-99"/>
     <use x="1889.763672" xlink:href="#DejaVuSans-105"/>
     <use x="1917.546875" xlink:href="#DejaVuSans-116"/>
     <use x="1956.755859" xlink:href="#DejaVuSans-121"/>
     <use x="2015.935547" xlink:href="#DejaVuSans-32"/>
     <use x="2047.722656" xlink:href="#DejaVuSans-97"/>
     <use x="2109.001953" xlink:href="#DejaVuSans-116"/>
     <use x="2148.210938" xlink:href="#DejaVuSans-32"/>
     <use x="2179.998047" xlink:href="#DejaVuSans-116"/>
     <use x="2219.207031" xlink:href="#DejaVuSans-104"/>
     <use x="2282.585938" xlink:href="#DejaVuSans-101"/>
     <use x="2344.109375" xlink:href="#DejaVuSans-116"/>
     <use x="2383.318359" xlink:href="#DejaVuSans-97"/>
     <use x="2444.597656" xlink:href="#DejaVuSans-61"/>
     <use x="2528.386719" xlink:href="#DejaVuSans-51"/>
     <use x="2592.009766" xlink:href="#DejaVuSans-52"/>
     <use x="2655.632812" xlink:href="#DejaVuSans-52"/>
     <use x="2719.255859" xlink:href="#DejaVuSans-32"/>
     <use x="2751.042969" xlink:href="#DejaVuSans-100"/>
     <use x="2814.519531" xlink:href="#DejaVuSans-101"/>
     <use x="2876.042969" xlink:href="#DejaVuSans-103"/>
     <use x="2939.519531" xlink:href="#DejaVuSans-114"/>
     <use x="2980.601562" xlink:href="#DejaVuSans-101"/>
     <use x="3042.125" xlink:href="#DejaVuSans-101"/>
     <use x="3103.648438" xlink:href="#DejaVuSans-115"/>
    </g>
   </g>
  </g>
 </g>
 <defs>
  <clipPath id="p2bba647f65">
   <rect height="273.16" width="366.46" x="73.37" y="26.88"/>
  </clipPath>
 </defs>
</svg>
