<?xml version="1.0" encoding="utf-8" standalone="no"?>
<!DOCTYPE svg PUBLIC "-//W3C//DTD SVG 1.1//EN"
  "http://www.w3.org/Graphics/SVG/1.1/DTD/svg11.dtd">
<!-- Created with matplotlib (https://matplotlib.org/) -->
<svg height="345.6pt" version="1.1" viewBox="0 0 460.8 345.6" width="460.8pt" xmlns="http://www.w3.org/2000/svg" xmlns:xlink="http://www.w3.org/1999/xlink">
 <defs>
  <style type="text/css">
*{stroke-linecap:butt;stroke-linejoin:round;}
  </style>
 </defs>
 <g id="figure_1">
  <g id="patch_1">
   <path d="M 0 345.6 
L 460.8 345.6 
L 460.8 0 
L 0 0 
z
" style="fill:#ffffff;"/>
  </g>
  <g id="axes_1">
   <g id="patch_2">
    <path d="M 73.37 300.04 
L 439.83 300.04 
L 439.83 26.88 
L 73.37 26.88 
z
" style="fill:#ffffff;"/>
   </g>
   <g id="matplotlib.axis_1">
    <g id="xtick_1">
     <g id="line2d_1">
      <path clip-path="url(#p8fbeb8ca45)" d="M 115.653846 300.04 
L 115.653846 26.88 
" style="fill:none;stroke:#b0b0b0;stroke-linecap:square;stroke-width:0.8;"/>
     </g>
     <g id="line2d_2">
      <defs>
       <path d="M 0 0 
L 0 3.5 
" id="m0740c356e3" style="stroke:#000000;stroke-width:0.8;"/>
      </defs>
      <g>
       <use style="stroke:#000000;stroke-width:0.8;" x="115.653846" xlink:href="#m0740c356e3" y="300.04"/>
      </g>
     </g>
     <g id="text_1">
      <!-- 2 -->
      <defs>
       <path d="M 19.1875 8.296875 
L 53.609375 8.296875 
L 53.609375 0 
L 7.328125 0 
L 7.328125 8.296875 
Q 12.9375 14.109375 22.625 23.890625 
Q 32.328125 33.6875 34.8125 36.53125 
Q 39.546875 41.84375 41.421875 45.53125 
Q 43.3125 49.21875 43.3125 52.78125 
Q 43.3125 58.59375 39.234375 62.25 
Q 35.15625 65.921875 28.609375 65.921875 
Q 23.96875 65.921875 18.8125 64.3125 
Q 13.671875 62.703125 7.8125 59.421875 
L 7.8125 69.390625 
Q 13.765625 71.78125 18.9375 73 
Q 24.125 74.21875 28.421875 74.21875 
Q 39.75 74.21875 46.484375 68.546875 
Q 53.21875 62.890625 53.21875 53.421875 
Q 53.21875 48.921875 51.53125 44.890625 
Q 49.859375 40.875 45.40625 35.40625 
Q 44.1875 33.984375 37.640625 27.21875 
Q 31.109375 20.453125 19.1875 8.296875 
z
" id="DejaVuSans-50"/>
      </defs>
      <g transform="translate(112.472596 314.638437)scale(0.1 -0.1)">
       <use xlink:href="#DejaVuSans-50"/>
      </g>
     </g>
    </g>
    <g id="xtick_2">
     <g id="line2d_3">
      <path clip-path="url(#p8fbeb8ca45)" d="M 166.906993 300.04 
L 166.906993 26.88 
" style="fill:none;stroke:#b0b0b0;stroke-linecap:square;stroke-width:0.8;"/>
     </g>
     <g id="line2d_4">
      <g>
       <use style="stroke:#000000;stroke-width:0.8;" x="166.906993" xlink:href="#m0740c356e3" y="300.04"/>
      </g>
     </g>
     <g id="text_2">
      <!-- 4 -->
      <defs>
       <path d="M 37.796875 64.3125 
L 12.890625 25.390625 
L 37.796875 25.390625 
z
M 35.203125 72.90625 
L 47.609375 72.90625 
L 47.609375 25.390625 
L 58.015625 25.390625 
L 58.015625 17.1875 
L 47.609375 17.1875 
L 47.609375 0 
L 37.796875 0 
L 37.796875 17.1875 
L 4.890625 17.1875 
L 4.890625 26.703125 
z
" id="DejaVuSans-52"/>
      </defs>
      <g transform="translate(163.725743 314.638437)scale(0.1 -0.1)">
       <use xlink:href="#DejaVuSans-52"/>
      </g>
     </g>
    </g>
    <g id="xtick_3">
     <g id="line2d_5">
      <path clip-path="url(#p8fbeb8ca45)" d="M 218.16014 300.04 
L 218.16014 26.88 
" style="fill:none;stroke:#b0b0b0;stroke-linecap:square;stroke-width:0.8;"/>
     </g>
     <g id="line2d_6">
      <g>
       <use style="stroke:#000000;stroke-width:0.8;" x="218.16014" xlink:href="#m0740c356e3" y="300.04"/>
      </g>
     </g>
     <g id="text_3">
      <!-- 6 -->
      <defs>
       <path d="M 33.015625 40.375 
Q 26.375 40.375 22.484375 35.828125 
Q 18.609375 31.296875 18.609375 23.390625 
Q 18.609375 15.53125 22.484375 10.953125 
Q 26.375 6.390625 33.015625 6.390625 
Q 39.65625 6.390625 43.53125 10.953125 
Q 47.40625 15.53125 47.40625 23.390625 
Q 47.40625 31.296875 43.53125 35.828125 
Q 39.65625 40.375 33.015625 40.375 
z
M 52.59375 71.296875 
L 52.59375 62.3125 
Q 48.875 64.0625 45.09375 64.984375 
Q 41.3125 65.921875 37.59375 65.921875 
Q 27.828125 65.921875 22.671875 59.328125 
Q 17.53125 52.734375 16.796875 39.40625 
Q 19.671875 43.65625 24.015625 45.921875 
Q 28.375 48.1875 33.59375 48.1875 
Q 44.578125 48.1875 50.953125 41.515625 
Q 57.328125 34.859375 57.328125 23.390625 
Q 57.328125 12.15625 50.6875 5.359375 
Q 44.046875 -1.421875 33.015625 -1.421875 
Q 20.359375 -1.421875 13.671875 8.265625 
Q 6.984375 17.96875 6.984375 36.375 
Q 6.984375 53.65625 15.1875 63.9375 
Q 23.390625 74.21875 37.203125 74.21875 
Q 40.921875 74.21875 44.703125 73.484375 
Q 48.484375 72.75 52.59375 71.296875 
z
" id="DejaVuSans-54"/>
      </defs>
      <g transform="translate(214.97889 314.638437)scale(0.1 -0.1)">
       <use xlink:href="#DejaVuSans-54"/>
      </g>
     </g>
    </g>
    <g id="xtick_4">
     <g id="line2d_7">
      <path clip-path="url(#p8fbeb8ca45)" d="M 269.413287 300.04 
L 269.413287 26.88 
" style="fill:none;stroke:#b0b0b0;stroke-linecap:square;stroke-width:0.8;"/>
     </g>
     <g id="line2d_8">
      <g>
       <use style="stroke:#000000;stroke-width:0.8;" x="269.413287" xlink:href="#m0740c356e3" y="300.04"/>
      </g>
     </g>
     <g id="text_4">
      <!-- 8 -->
      <defs>
       <path d="M 31.78125 34.625 
Q 24.75 34.625 20.71875 30.859375 
Q 16.703125 27.09375 16.703125 20.515625 
Q 16.703125 13.921875 20.71875 10.15625 
Q 24.75 6.390625 31.78125 6.390625 
Q 38.8125 6.390625 42.859375 10.171875 
Q 46.921875 13.96875 46.921875 20.515625 
Q 46.921875 27.09375 42.890625 30.859375 
Q 38.875 34.625 31.78125 34.625 
z
M 21.921875 38.8125 
Q 15.578125 40.375 12.03125 44.71875 
Q 8.5 49.078125 8.5 55.328125 
Q 8.5 64.0625 14.71875 69.140625 
Q 20.953125 74.21875 31.78125 74.21875 
Q 42.671875 74.21875 48.875 69.140625 
Q 55.078125 64.0625 55.078125 55.328125 
Q 55.078125 49.078125 51.53125 44.71875 
Q 48 40.375 41.703125 38.8125 
Q 48.828125 37.15625 52.796875 32.3125 
Q 56.78125 27.484375 56.78125 20.515625 
Q 56.78125 9.90625 50.3125 4.234375 
Q 43.84375 -1.421875 31.78125 -1.421875 
Q 19.734375 -1.421875 13.25 4.234375 
Q 6.78125 9.90625 6.78125 20.515625 
Q 6.78125 27.484375 10.78125 32.3125 
Q 14.796875 37.15625 21.921875 38.8125 
z
M 18.3125 54.390625 
Q 18.3125 48.734375 21.84375 45.5625 
Q 25.390625 42.390625 31.78125 42.390625 
Q 38.140625 42.390625 41.71875 45.5625 
Q 45.3125 48.734375 45.3125 54.390625 
Q 45.3125 60.0625 41.71875 63.234375 
Q 38.140625 66.40625 31.78125 66.40625 
Q 25.390625 66.40625 21.84375 63.234375 
Q 18.3125 60.0625 18.3125 54.390625 
z
" id="DejaVuSans-56"/>
      </defs>
      <g transform="translate(266.232037 314.638437)scale(0.1 -0.1)">
       <use xlink:href="#DejaVuSans-56"/>
      </g>
     </g>
    </g>
    <g id="xtick_5">
     <g id="line2d_9">
      <path clip-path="url(#p8fbeb8ca45)" d="M 320.666434 300.04 
L 320.666434 26.88 
" style="fill:none;stroke:#b0b0b0;stroke-linecap:square;stroke-width:0.8;"/>
     </g>
     <g id="line2d_10">
      <g>
       <use style="stroke:#000000;stroke-width:0.8;" x="320.666434" xlink:href="#m0740c356e3" y="300.04"/>
      </g>
     </g>
     <g id="text_5">
      <!-- 10 -->
      <defs>
       <path d="M 12.40625 8.296875 
L 28.515625 8.296875 
L 28.515625 63.921875 
L 10.984375 60.40625 
L 10.984375 69.390625 
L 28.421875 72.90625 
L 38.28125 72.90625 
L 38.28125 8.296875 
L 54.390625 8.296875 
L 54.390625 0 
L 12.40625 0 
z
" id="DejaVuSans-49"/>
       <path d="M 31.78125 66.40625 
Q 24.171875 66.40625 20.328125 58.90625 
Q 16.5 51.421875 16.5 36.375 
Q 16.5 21.390625 20.328125 13.890625 
Q 24.171875 6.390625 31.78125 6.390625 
Q 39.453125 6.390625 43.28125 13.890625 
Q 47.125 21.390625 47.125 36.375 
Q 47.125 51.421875 43.28125 58.90625 
Q 39.453125 66.40625 31.78125 66.40625 
z
M 31.78125 74.21875 
Q 44.046875 74.21875 50.515625 64.515625 
Q 56.984375 54.828125 56.984375 36.375 
Q 56.984375 17.96875 50.515625 8.265625 
Q 44.046875 -1.421875 31.78125 -1.421875 
Q 19.53125 -1.421875 13.0625 8.265625 
Q 6.59375 17.96875 6.59375 36.375 
Q 6.59375 54.828125 13.0625 64.515625 
Q 19.53125 74.21875 31.78125 74.21875 
z
" id="DejaVuSans-48"/>
      </defs>
      <g transform="translate(314.303934 314.638437)scale(0.1 -0.1)">
       <use xlink:href="#DejaVuSans-49"/>
       <use x="63.623047" xlink:href="#DejaVuSans-48"/>
      </g>
     </g>
    </g>
    <g id="xtick_6">
     <g id="line2d_11">
      <path clip-path="url(#p8fbeb8ca45)" d="M 371.91958 300.04 
L 371.91958 26.88 
" style="fill:none;stroke:#b0b0b0;stroke-linecap:square;stroke-width:0.8;"/>
     </g>
     <g id="line2d_12">
      <g>
       <use style="stroke:#000000;stroke-width:0.8;" x="371.91958" xlink:href="#m0740c356e3" y="300.04"/>
      </g>
     </g>
     <g id="text_6">
      <!-- 12 -->
      <g transform="translate(365.55708 314.638437)scale(0.1 -0.1)">
       <use xlink:href="#DejaVuSans-49"/>
       <use x="63.623047" xlink:href="#DejaVuSans-50"/>
      </g>
     </g>
    </g>
    <g id="xtick_7">
     <g id="line2d_13">
      <path clip-path="url(#p8fbeb8ca45)" d="M 423.172727 300.04 
L 423.172727 26.88 
" style="fill:none;stroke:#b0b0b0;stroke-linecap:square;stroke-width:0.8;"/>
     </g>
     <g id="line2d_14">
      <g>
       <use style="stroke:#000000;stroke-width:0.8;" x="423.172727" xlink:href="#m0740c356e3" y="300.04"/>
      </g>
     </g>
     <g id="text_7">
      <!-- 14 -->
      <g transform="translate(416.810227 314.638437)scale(0.1 -0.1)">
       <use xlink:href="#DejaVuSans-49"/>
       <use x="63.623047" xlink:href="#DejaVuSans-52"/>
      </g>
     </g>
    </g>
    <g id="xtick_8">
     <g id="line2d_15">
      <defs>
       <path d="M 0 0 
L 0 2 
" id="m07bf18f383" style="stroke:#000000;stroke-width:0.6;"/>
      </defs>
      <g>
       <use style="stroke:#000000;stroke-width:0.6;" x="90.027273" xlink:href="#m07bf18f383" y="300.04"/>
      </g>
     </g>
    </g>
    <g id="xtick_9">
     <g id="line2d_16">
      <g>
       <use style="stroke:#000000;stroke-width:0.6;" x="141.28042" xlink:href="#m07bf18f383" y="300.04"/>
      </g>
     </g>
    </g>
    <g id="xtick_10">
     <g id="line2d_17">
      <g>
       <use style="stroke:#000000;stroke-width:0.6;" x="192.533566" xlink:href="#m07bf18f383" y="300.04"/>
      </g>
     </g>
    </g>
    <g id="xtick_11">
     <g id="line2d_18">
      <g>
       <use style="stroke:#000000;stroke-width:0.6;" x="243.786713" xlink:href="#m07bf18f383" y="300.04"/>
      </g>
     </g>
    </g>
    <g id="xtick_12">
     <g id="line2d_19">
      <g>
       <use style="stroke:#000000;stroke-width:0.6;" x="295.03986" xlink:href="#m07bf18f383" y="300.04"/>
      </g>
     </g>
    </g>
    <g id="xtick_13">
     <g id="line2d_20">
      <g>
       <use style="stroke:#000000;stroke-width:0.6;" x="346.293007" xlink:href="#m07bf18f383" y="300.04"/>
      </g>
     </g>
    </g>
    <g id="xtick_14">
     <g id="line2d_21">
      <g>
       <use style="stroke:#000000;stroke-width:0.6;" x="397.546154" xlink:href="#m07bf18f383" y="300.04"/>
      </g>
     </g>
    </g>
    <g id="text_8">
     <!-- Frame number -->
     <defs>
      <path d="M 9.8125 72.90625 
L 51.703125 72.90625 
L 51.703125 64.59375 
L 19.671875 64.59375 
L 19.671875 43.109375 
L 48.578125 43.109375 
L 48.578125 34.8125 
L 19.671875 34.8125 
L 19.671875 0 
L 9.8125 0 
z
" id="DejaVuSans-70"/>
      <path d="M 41.109375 46.296875 
Q 39.59375 47.171875 37.8125 47.578125 
Q 36.03125 48 33.890625 48 
Q 26.265625 48 22.1875 43.046875 
Q 18.109375 38.09375 18.109375 28.8125 
L 18.109375 0 
L 9.078125 0 
L 9.078125 54.6875 
L 18.109375 54.6875 
L 18.109375 46.1875 
Q 20.953125 51.171875 25.484375 53.578125 
Q 30.03125 56 36.53125 56 
Q 37.453125 56 38.578125 55.875 
Q 39.703125 55.765625 41.0625 55.515625 
z
" id="DejaVuSans-114"/>
      <path d="M 34.28125 27.484375 
Q 23.390625 27.484375 19.1875 25 
Q 14.984375 22.515625 14.984375 16.5 
Q 14.984375 11.71875 18.140625 8.90625 
Q 21.296875 6.109375 26.703125 6.109375 
Q 34.1875 6.109375 38.703125 11.40625 
Q 43.21875 16.703125 43.21875 25.484375 
L 43.21875 27.484375 
z
M 52.203125 31.203125 
L 52.203125 0 
L 43.21875 0 
L 43.21875 8.296875 
Q 40.140625 3.328125 35.546875 0.953125 
Q 30.953125 -1.421875 24.3125 -1.421875 
Q 15.921875 -1.421875 10.953125 3.296875 
Q 6 8.015625 6 15.921875 
Q 6 25.140625 12.171875 29.828125 
Q 18.359375 34.515625 30.609375 34.515625 
L 43.21875 34.515625 
L 43.21875 35.40625 
Q 43.21875 41.609375 39.140625 45 
Q 35.0625 48.390625 27.6875 48.390625 
Q 23 48.390625 18.546875 47.265625 
Q 14.109375 46.140625 10.015625 43.890625 
L 10.015625 52.203125 
Q 14.9375 54.109375 19.578125 55.046875 
Q 24.21875 56 28.609375 56 
Q 40.484375 56 46.34375 49.84375 
Q 52.203125 43.703125 52.203125 31.203125 
z
" id="DejaVuSans-97"/>
      <path d="M 52 44.1875 
Q 55.375 50.25 60.0625 53.125 
Q 64.75 56 71.09375 56 
Q 79.640625 56 84.28125 50.015625 
Q 88.921875 44.046875 88.921875 33.015625 
L 88.921875 0 
L 79.890625 0 
L 79.890625 32.71875 
Q 79.890625 40.578125 77.09375 44.375 
Q 74.3125 48.1875 68.609375 48.1875 
Q 61.625 48.1875 57.5625 43.546875 
Q 53.515625 38.921875 53.515625 30.90625 
L 53.515625 0 
L 44.484375 0 
L 44.484375 32.71875 
Q 44.484375 40.625 41.703125 44.40625 
Q 38.921875 48.1875 33.109375 48.1875 
Q 26.21875 48.1875 22.15625 43.53125 
Q 18.109375 38.875 18.109375 30.90625 
L 18.109375 0 
L 9.078125 0 
L 9.078125 54.6875 
L 18.109375 54.6875 
L 18.109375 46.1875 
Q 21.1875 51.21875 25.484375 53.609375 
Q 29.78125 56 35.6875 56 
Q 41.65625 56 45.828125 52.96875 
Q 50 49.953125 52 44.1875 
z
" id="DejaVuSans-109"/>
      <path d="M 56.203125 29.59375 
L 56.203125 25.203125 
L 14.890625 25.203125 
Q 15.484375 15.921875 20.484375 11.0625 
Q 25.484375 6.203125 34.421875 6.203125 
Q 39.59375 6.203125 44.453125 7.46875 
Q 49.3125 8.734375 54.109375 11.28125 
L 54.109375 2.78125 
Q 49.265625 0.734375 44.1875 -0.34375 
Q 39.109375 -1.421875 33.890625 -1.421875 
Q 20.796875 -1.421875 13.15625 6.1875 
Q 5.515625 13.8125 5.515625 26.8125 
Q 5.515625 40.234375 12.765625 48.109375 
Q 20.015625 56 32.328125 56 
Q 43.359375 56 49.78125 48.890625 
Q 56.203125 41.796875 56.203125 29.59375 
z
M 47.21875 32.234375 
Q 47.125 39.59375 43.09375 43.984375 
Q 39.0625 48.390625 32.421875 48.390625 
Q 24.90625 48.390625 20.390625 44.140625 
Q 15.875 39.890625 15.1875 32.171875 
z
" id="DejaVuSans-101"/>
      <path id="DejaVuSans-32"/>
      <path d="M 54.890625 33.015625 
L 54.890625 0 
L 45.90625 0 
L 45.90625 32.71875 
Q 45.90625 40.484375 42.875 44.328125 
Q 39.84375 48.1875 33.796875 48.1875 
Q 26.515625 48.1875 22.3125 43.546875 
Q 18.109375 38.921875 18.109375 30.90625 
L 18.109375 0 
L 9.078125 0 
L 9.078125 54.6875 
L 18.109375 54.6875 
L 18.109375 46.1875 
Q 21.34375 51.125 25.703125 53.5625 
Q 30.078125 56 35.796875 56 
Q 45.21875 56 50.046875 50.171875 
Q 54.890625 44.34375 54.890625 33.015625 
z
" id="DejaVuSans-110"/>
      <path d="M 8.5 21.578125 
L 8.5 54.6875 
L 17.484375 54.6875 
L 17.484375 21.921875 
Q 17.484375 14.15625 20.5 10.265625 
Q 23.53125 6.390625 29.59375 6.390625 
Q 36.859375 6.390625 41.078125 11.03125 
Q 45.3125 15.671875 45.3125 23.6875 
L 45.3125 54.6875 
L 54.296875 54.6875 
L 54.296875 0 
L 45.3125 0 
L 45.3125 8.40625 
Q 42.046875 3.421875 37.71875 1 
Q 33.40625 -1.421875 27.6875 -1.421875 
Q 18.265625 -1.421875 13.375 4.4375 
Q 8.5 10.296875 8.5 21.578125 
z
M 31.109375 56 
z
" id="DejaVuSans-117"/>
      <path d="M 48.6875 27.296875 
Q 48.6875 37.203125 44.609375 42.84375 
Q 40.53125 48.484375 33.40625 48.484375 
Q 26.265625 48.484375 22.1875 42.84375 
Q 18.109375 37.203125 18.109375 27.296875 
Q 18.109375 17.390625 22.1875 11.75 
Q 26.265625 6.109375 33.40625 6.109375 
Q 40.53125 6.109375 44.609375 11.75 
Q 48.6875 17.390625 48.6875 27.296875 
z
M 18.109375 46.390625 
Q 20.953125 51.265625 25.265625 53.625 
Q 29.59375 56 35.59375 56 
Q 45.5625 56 51.78125 48.09375 
Q 58.015625 40.1875 58.015625 27.296875 
Q 58.015625 14.40625 51.78125 6.484375 
Q 45.5625 -1.421875 35.59375 -1.421875 
Q 29.59375 -1.421875 25.265625 0.953125 
Q 20.953125 3.328125 18.109375 8.203125 
L 18.109375 0 
L 9.078125 0 
L 9.078125 75.984375 
L 18.109375 75.984375 
z
" id="DejaVuSans-98"/>
     </defs>
     <g transform="translate(203.262625 331.659875)scale(0.144 -0.144)">
      <use xlink:href="#DejaVuSans-70"/>
      <use x="57.410156" xlink:href="#DejaVuSans-114"/>
      <use x="98.523438" xlink:href="#DejaVuSans-97"/>
      <use x="159.802734" xlink:href="#DejaVuSans-109"/>
      <use x="257.214844" xlink:href="#DejaVuSans-101"/>
      <use x="318.738281" xlink:href="#DejaVuSans-32"/>
      <use x="350.525391" xlink:href="#DejaVuSans-110"/>
      <use x="413.904297" xlink:href="#DejaVuSans-117"/>
      <use x="477.283203" xlink:href="#DejaVuSans-109"/>
      <use x="574.695312" xlink:href="#DejaVuSans-98"/>
      <use x="638.171875" xlink:href="#DejaVuSans-101"/>
      <use x="699.695312" xlink:href="#DejaVuSans-114"/>
     </g>
    </g>
   </g>
   <g id="matplotlib.axis_2">
    <g id="ytick_1">
     <g id="line2d_22">
      <path clip-path="url(#p8fbeb8ca45)" d="M 73.37 300.04 
L 439.83 300.04 
" style="fill:none;stroke:#b0b0b0;stroke-linecap:square;stroke-width:0.8;"/>
     </g>
     <g id="line2d_23">
      <defs>
       <path d="M 0 0 
L -3.5 0 
" id="ma2f969e34d" style="stroke:#000000;stroke-width:0.8;"/>
      </defs>
      <g>
       <use style="stroke:#000000;stroke-width:0.8;" x="73.37" xlink:href="#ma2f969e34d" y="300.04"/>
      </g>
     </g>
     <g id="text_9">
      <!-- 0 -->
      <g transform="translate(60.0075 303.839219)scale(0.1 -0.1)">
       <use xlink:href="#DejaVuSans-48"/>
      </g>
     </g>
    </g>
    <g id="ytick_2">
     <g id="line2d_24">
      <path clip-path="url(#p8fbeb8ca45)" d="M 73.37 261.227711 
L 439.83 261.227711 
" style="fill:none;stroke:#b0b0b0;stroke-linecap:square;stroke-width:0.8;"/>
     </g>
     <g id="line2d_25">
      <g>
       <use style="stroke:#000000;stroke-width:0.8;" x="73.37" xlink:href="#ma2f969e34d" y="261.227711"/>
      </g>
     </g>
     <g id="text_10">
      <!-- 20000 -->
      <g transform="translate(34.5575 265.02693)scale(0.1 -0.1)">
       <use xlink:href="#DejaVuSans-50"/>
       <use x="63.623047" xlink:href="#DejaVuSans-48"/>
       <use x="127.246094" xlink:href="#DejaVuSans-48"/>
       <use x="190.869141" xlink:href="#DejaVuSans-48"/>
       <use x="254.492188" xlink:href="#DejaVuSans-48"/>
      </g>
     </g>
    </g>
    <g id="ytick_3">
     <g id="line2d_26">
      <path clip-path="url(#p8fbeb8ca45)" d="M 73.37 222.415422 
L 439.83 222.415422 
" style="fill:none;stroke:#b0b0b0;stroke-linecap:square;stroke-width:0.8;"/>
     </g>
     <g id="line2d_27">
      <g>
       <use style="stroke:#000000;stroke-width:0.8;" x="73.37" xlink:href="#ma2f969e34d" y="222.415422"/>
      </g>
     </g>
     <g id="text_11">
      <!-- 40000 -->
      <g transform="translate(34.5575 226.214641)scale(0.1 -0.1)">
       <use xlink:href="#DejaVuSans-52"/>
       <use x="63.623047" xlink:href="#DejaVuSans-48"/>
       <use x="127.246094" xlink:href="#DejaVuSans-48"/>
       <use x="190.869141" xlink:href="#DejaVuSans-48"/>
       <use x="254.492188" xlink:href="#DejaVuSans-48"/>
      </g>
     </g>
    </g>
    <g id="ytick_4">
     <g id="line2d_28">
      <path clip-path="url(#p8fbeb8ca45)" d="M 73.37 183.603133 
L 439.83 183.603133 
" style="fill:none;stroke:#b0b0b0;stroke-linecap:square;stroke-width:0.8;"/>
     </g>
     <g id="line2d_29">
      <g>
       <use style="stroke:#000000;stroke-width:0.8;" x="73.37" xlink:href="#ma2f969e34d" y="183.603133"/>
      </g>
     </g>
     <g id="text_12">
      <!-- 60000 -->
      <g transform="translate(34.5575 187.402352)scale(0.1 -0.1)">
       <use xlink:href="#DejaVuSans-54"/>
       <use x="63.623047" xlink:href="#DejaVuSans-48"/>
       <use x="127.246094" xlink:href="#DejaVuSans-48"/>
       <use x="190.869141" xlink:href="#DejaVuSans-48"/>
       <use x="254.492188" xlink:href="#DejaVuSans-48"/>
      </g>
     </g>
    </g>
    <g id="ytick_5">
     <g id="line2d_30">
      <path clip-path="url(#p8fbeb8ca45)" d="M 73.37 144.790844 
L 439.83 144.790844 
" style="fill:none;stroke:#b0b0b0;stroke-linecap:square;stroke-width:0.8;"/>
     </g>
     <g id="line2d_31">
      <g>
       <use style="stroke:#000000;stroke-width:0.8;" x="73.37" xlink:href="#ma2f969e34d" y="144.790844"/>
      </g>
     </g>
     <g id="text_13">
      <!-- 80000 -->
      <g transform="translate(34.5575 148.590063)scale(0.1 -0.1)">
       <use xlink:href="#DejaVuSans-56"/>
       <use x="63.623047" xlink:href="#DejaVuSans-48"/>
       <use x="127.246094" xlink:href="#DejaVuSans-48"/>
       <use x="190.869141" xlink:href="#DejaVuSans-48"/>
       <use x="254.492188" xlink:href="#DejaVuSans-48"/>
      </g>
     </g>
    </g>
    <g id="ytick_6">
     <g id="line2d_32">
      <path clip-path="url(#p8fbeb8ca45)" d="M 73.37 105.978555 
L 439.83 105.978555 
" style="fill:none;stroke:#b0b0b0;stroke-linecap:square;stroke-width:0.8;"/>
     </g>
     <g id="line2d_33">
      <g>
       <use style="stroke:#000000;stroke-width:0.8;" x="73.37" xlink:href="#ma2f969e34d" y="105.978555"/>
      </g>
     </g>
     <g id="text_14">
      <!-- 100000 -->
      <g transform="translate(28.195 109.777774)scale(0.1 -0.1)">
       <use xlink:href="#DejaVuSans-49"/>
       <use x="63.623047" xlink:href="#DejaVuSans-48"/>
       <use x="127.246094" xlink:href="#DejaVuSans-48"/>
       <use x="190.869141" xlink:href="#DejaVuSans-48"/>
       <use x="254.492188" xlink:href="#DejaVuSans-48"/>
       <use x="318.115234" xlink:href="#DejaVuSans-48"/>
      </g>
     </g>
    </g>
    <g id="ytick_7">
     <g id="line2d_34">
      <path clip-path="url(#p8fbeb8ca45)" d="M 73.37 67.166266 
L 439.83 67.166266 
" style="fill:none;stroke:#b0b0b0;stroke-linecap:square;stroke-width:0.8;"/>
     </g>
     <g id="line2d_35">
      <g>
       <use style="stroke:#000000;stroke-width:0.8;" x="73.37" xlink:href="#ma2f969e34d" y="67.166266"/>
      </g>
     </g>
     <g id="text_15">
      <!-- 120000 -->
      <g transform="translate(28.195 70.965485)scale(0.1 -0.1)">
       <use xlink:href="#DejaVuSans-49"/>
       <use x="63.623047" xlink:href="#DejaVuSans-50"/>
       <use x="127.246094" xlink:href="#DejaVuSans-48"/>
       <use x="190.869141" xlink:href="#DejaVuSans-48"/>
       <use x="254.492188" xlink:href="#DejaVuSans-48"/>
       <use x="318.115234" xlink:href="#DejaVuSans-48"/>
      </g>
     </g>
    </g>
    <g id="ytick_8">
     <g id="line2d_36">
      <path clip-path="url(#p8fbeb8ca45)" d="M 73.37 28.353977 
L 439.83 28.353977 
" style="fill:none;stroke:#b0b0b0;stroke-linecap:square;stroke-width:0.8;"/>
     </g>
     <g id="line2d_37">
      <g>
       <use style="stroke:#000000;stroke-width:0.8;" x="73.37" xlink:href="#ma2f969e34d" y="28.353977"/>
      </g>
     </g>
     <g id="text_16">
      <!-- 140000 -->
      <g transform="translate(28.195 32.153196)scale(0.1 -0.1)">
       <use xlink:href="#DejaVuSans-49"/>
       <use x="63.623047" xlink:href="#DejaVuSans-52"/>
       <use x="127.246094" xlink:href="#DejaVuSans-48"/>
       <use x="190.869141" xlink:href="#DejaVuSans-48"/>
       <use x="254.492188" xlink:href="#DejaVuSans-48"/>
       <use x="318.115234" xlink:href="#DejaVuSans-48"/>
      </g>
     </g>
    </g>
    <g id="text_17">
     <!-- Peak intensity -->
     <defs>
      <path d="M 19.671875 64.796875 
L 19.671875 37.40625 
L 32.078125 37.40625 
Q 38.96875 37.40625 42.71875 40.96875 
Q 46.484375 44.53125 46.484375 51.125 
Q 46.484375 57.671875 42.71875 61.234375 
Q 38.96875 64.796875 32.078125 64.796875 
z
M 9.8125 72.90625 
L 32.078125 72.90625 
Q 44.34375 72.90625 50.609375 67.359375 
Q 56.890625 61.8125 56.890625 51.125 
Q 56.890625 40.328125 50.609375 34.8125 
Q 44.34375 29.296875 32.078125 29.296875 
L 19.671875 29.296875 
L 19.671875 0 
L 9.8125 0 
z
" id="DejaVuSans-80"/>
      <path d="M 9.078125 75.984375 
L 18.109375 75.984375 
L 18.109375 31.109375 
L 44.921875 54.6875 
L 56.390625 54.6875 
L 27.390625 29.109375 
L 57.625 0 
L 45.90625 0 
L 18.109375 26.703125 
L 18.109375 0 
L 9.078125 0 
z
" id="DejaVuSans-107"/>
      <path d="M 9.421875 54.6875 
L 18.40625 54.6875 
L 18.40625 0 
L 9.421875 0 
z
M 9.421875 75.984375 
L 18.40625 75.984375 
L 18.40625 64.59375 
L 9.421875 64.59375 
z
" id="DejaVuSans-105"/>
      <path d="M 18.3125 70.21875 
L 18.3125 54.6875 
L 36.8125 54.6875 
L 36.8125 47.703125 
L 18.3125 47.703125 
L 18.3125 18.015625 
Q 18.3125 11.328125 20.140625 9.421875 
Q 21.96875 7.515625 27.59375 7.515625 
L 36.8125 7.515625 
L 36.8125 0 
L 27.59375 0 
Q 17.1875 0 13.234375 3.875 
Q 9.28125 7.765625 9.28125 18.015625 
L 9.28125 47.703125 
L 2.6875 47.703125 
L 2.6875 54.6875 
L 9.28125 54.6875 
L 9.28125 70.21875 
z
" id="DejaVuSans-116"/>
      <path d="M 44.28125 53.078125 
L 44.28125 44.578125 
Q 40.484375 46.53125 36.375 47.5 
Q 32.28125 48.484375 27.875 48.484375 
Q 21.1875 48.484375 17.84375 46.4375 
Q 14.5 44.390625 14.5 40.28125 
Q 14.5 37.15625 16.890625 35.375 
Q 19.28125 33.59375 26.515625 31.984375 
L 29.59375 31.296875 
Q 39.15625 29.25 43.1875 25.515625 
Q 47.21875 21.78125 47.21875 15.09375 
Q 47.21875 7.46875 41.1875 3.015625 
Q 35.15625 -1.421875 24.609375 -1.421875 
Q 20.21875 -1.421875 15.453125 -0.5625 
Q 10.6875 0.296875 5.421875 2 
L 5.421875 11.28125 
Q 10.40625 8.6875 15.234375 7.390625 
Q 20.0625 6.109375 24.8125 6.109375 
Q 31.15625 6.109375 34.5625 8.28125 
Q 37.984375 10.453125 37.984375 14.40625 
Q 37.984375 18.0625 35.515625 20.015625 
Q 33.0625 21.96875 24.703125 23.78125 
L 21.578125 24.515625 
Q 13.234375 26.265625 9.515625 29.90625 
Q 5.8125 33.546875 5.8125 39.890625 
Q 5.8125 47.609375 11.28125 51.796875 
Q 16.75 56 26.8125 56 
Q 31.78125 56 36.171875 55.265625 
Q 40.578125 54.546875 44.28125 53.078125 
z
" id="DejaVuSans-115"/>
      <path d="M 32.171875 -5.078125 
Q 28.375 -14.84375 24.75 -17.8125 
Q 21.140625 -20.796875 15.09375 -20.796875 
L 7.90625 -20.796875 
L 7.90625 -13.28125 
L 13.1875 -13.28125 
Q 16.890625 -13.28125 18.9375 -11.515625 
Q 21 -9.765625 23.484375 -3.21875 
L 25.09375 0.875 
L 2.984375 54.6875 
L 12.5 54.6875 
L 29.59375 11.921875 
L 46.6875 54.6875 
L 56.203125 54.6875 
z
" id="DejaVuSans-121"/>
     </defs>
     <g transform="translate(21.20025 214.31225)rotate(-90)scale(0.144 -0.144)">
      <use xlink:href="#DejaVuSans-80"/>
      <use x="60.255859" xlink:href="#DejaVuSans-101"/>
      <use x="121.779297" xlink:href="#DejaVuSans-97"/>
      <use x="183.058594" xlink:href="#DejaVuSans-107"/>
      <use x="240.96875" xlink:href="#DejaVuSans-32"/>
      <use x="272.755859" xlink:href="#DejaVuSans-105"/>
      <use x="300.539062" xlink:href="#DejaVuSans-110"/>
      <use x="363.917969" xlink:href="#DejaVuSans-116"/>
      <use x="403.126953" xlink:href="#DejaVuSans-101"/>
      <use x="464.650391" xlink:href="#DejaVuSans-110"/>
      <use x="528.029297" xlink:href="#DejaVuSans-115"/>
      <use x="580.128906" xlink:href="#DejaVuSans-105"/>
      <use x="607.912109" xlink:href="#DejaVuSans-116"/>
      <use x="647.121094" xlink:href="#DejaVuSans-121"/>
     </g>
    </g>
   </g>
   <g id="line2d_38">
    <path clip-path="url(#p8fbeb8ca45)" d="M 90.027273 41.014837 
L 115.653846 41.015128 
L 141.28042 40.853863 
L 166.906993 39.884914 
L 192.533566 40.832904 
L 218.16014 49.068678 
L 243.786713 64.7535 
L 269.413287 74.361094 
L 295.03986 82.930653 
L 320.666434 88.994879 
L 346.293007 95.030578 
L 371.91958 101.089565 
L 397.546154 106.739664 
L 423.172727 111.290017 
" style="fill:none;stroke:#1f77b4;stroke-linecap:square;stroke-width:1.5;"/>
   </g>
   <g id="line2d_39">
    <path clip-path="url(#p8fbeb8ca45)" d="M 90.027273 140.643363 
L 115.653846 140.643363 
L 141.28042 140.568843 
L 166.906993 140.846157 
L 192.533566 141.108528 
L 218.16014 144.004895 
L 243.786713 151.546899 
L 269.413287 158.401731 
L 295.03986 164.544552 
L 320.666434 170.343497 
L 346.293007 172.970894 
L 371.91958 177.093342 
L 397.546154 183.996884 
L 423.172727 186.90994 
" style="fill:none;stroke:#ff7f0e;stroke-linecap:square;stroke-width:1.5;"/>
   </g>
   <g id="line2d_40">
    <path clip-path="url(#p8fbeb8ca45)" d="M 90.027273 162.48886 
L 115.653846 162.489054 
L 141.28042 162.489248 
L 166.906993 162.1477 
L 192.533566 162.147311 
L 218.16014 162.147311 
L 243.786713 162.432194 
L 269.413287 162.432194 
L 295.03986 162.441315 
L 320.666434 163.17312 
L 346.293007 161.261421 
L 371.91958 161.286261 
L 397.546154 163.257343 
L 423.172727 163.15876 
" style="fill:none;stroke:#2ca02c;stroke-linecap:square;stroke-width:1.5;"/>
   </g>
   <g id="line2d_41">
    <path clip-path="url(#p8fbeb8ca45)" d="M 115.653846 170.922769 
L 141.28042 159.027377 
L 166.906993 147.02222 
L 192.533566 139.413844 
L 218.16014 140.111716 
L 243.786713 148.101071 
L 269.413287 157.75402 
L 295.03986 169.220967 
L 320.666434 179.861725 
L 346.293007 190.273917 
L 371.91958 200.175891 
L 397.546154 208.369192 
L 423.172727 213.533678 
" style="fill:none;stroke:#d62728;stroke-linecap:square;stroke-width:1.5;"/>
   </g>
   <g id="line2d_42">
    <path clip-path="url(#p8fbeb8ca45)" d="M 90.027273 201.69632 
L 115.653846 198.356002 
L 141.28042 191.569602 
L 166.906993 182.04643 
L 192.533566 181.195574 
L 218.16014 178.563551 
L 243.786713 177.435666 
L 269.413287 177.017852 
L 295.03986 176.753152 
L 320.666434 176.470599 
L 346.293007 176.269881 
L 371.91958 175.791248 
L 397.546154 178.683889 
L 423.172727 178.22111 
" style="fill:none;stroke:#9467bd;stroke-linecap:square;stroke-width:1.5;"/>
   </g>
   <g id="line2d_43">
    <path clip-path="url(#p8fbeb8ca45)" d="M 90.027273 142.362941 
L 115.653846 145.76872 
L 141.28042 164.090449 
L 166.906993 180.140689 
L 192.533566 188.715294 
L 218.16014 194.770593 
L 243.786713 204.212963 
L 269.413287 206.84267 
L 295.03986 208.897975 
L 320.666434 209.350604 
L 346.293007 211.210935 
L 371.91958 212.217668 
L 397.546154 212.599542 
L 423.172727 213.430222 
" style="fill:none;stroke:#8c564b;stroke-linecap:square;stroke-width:1.5;"/>
   </g>
   <g id="line2d_44">
    <path clip-path="url(#p8fbeb8ca45)" d="M 141.28042 196.512739 
L 166.906993 116.624187 
L 192.533566 135.727864 
L 218.16014 153.910805 
L 243.786713 172.472454 
L 269.413287 190.78506 
L 295.03986 199.379978 
L 320.666434 206.536365 
L 346.293007 248.965514 
L 371.91958 252.713735 
L 397.546154 256.190456 
L 423.172727 269.888536 
" style="fill:none;stroke:#e377c2;stroke-linecap:square;stroke-width:1.5;"/>
   </g>
   <g id="line2d_45">
    <path clip-path="url(#p8fbeb8ca45)" d="M 90.027273 241.275776 
L 115.653846 241.275769 
L 141.28042 241.275807 
L 166.906993 241.129931 
L 192.533566 241.129931 
L 218.16014 241.172819 
L 243.786713 241.321664 
L 269.413287 241.362029 
L 295.03986 241.467792 
L 320.666434 242.113241 
L 346.293007 242.765093 
L 371.91958 244.215314 
L 397.546154 246.581894 
L 423.172727 247.939354 
" style="fill:none;stroke:#7f7f7f;stroke-linecap:square;stroke-width:1.5;"/>
   </g>
   <g id="line2d_46">
    <path clip-path="url(#p8fbeb8ca45)" d="M 90.027273 236.504317 
L 115.653846 239.726871 
L 141.28042 243.200921 
L 166.906993 246.909828 
L 192.533566 250.387579 
L 218.16014 253.042665 
L 243.786713 256.469107 
L 269.413287 259.384029 
L 295.03986 262.438344 
L 320.666434 264.511658 
L 346.293007 266.717379 
L 371.91958 269.328227 
L 397.546154 271.955377 
L 423.172727 273.476186 
" style="fill:none;stroke:#bcbd22;stroke-linecap:square;stroke-width:1.5;"/>
   </g>
   <g id="line2d_47">
    <path clip-path="url(#p8fbeb8ca45)" d="M 141.28042 202.286743 
L 166.906993 272.867331 
L 192.533566 274.816757 
L 218.16014 276.640937 
L 243.786713 267.188994 
" style="fill:none;stroke:#17becf;stroke-linecap:square;stroke-width:1.5;"/>
   </g>
   <g id="line2d_48">
    <path clip-path="url(#p8fbeb8ca45)" d="M 90.027273 274.846534 
L 115.653846 249.706958 
L 141.28042 250.450051 
L 166.906993 251.820388 
L 192.533566 253.77233 
L 218.16014 255.854134 
L 243.786713 258.189242 
L 269.413287 260.488217 
L 295.03986 262.419697 
L 320.666434 264.231879 
L 346.293007 265.851072 
L 371.91958 287.78599 
L 397.546154 288.216477 
L 423.172727 288.553251 
" style="fill:none;stroke:#1f77b4;stroke-linecap:square;stroke-width:1.5;"/>
   </g>
   <g id="line2d_49">
    <path clip-path="url(#p8fbeb8ca45)" d="M 90.027273 264.805389 
L 115.653846 264.805389 
L 141.28042 264.805428 
L 166.906993 264.725377 
L 192.533566 264.765102 
L 218.16014 264.88837 
L 243.786713 265.207019 
L 269.413287 266.036825 
L 295.03986 267.263274 
L 320.666434 268.605054 
L 346.293007 269.279437 
L 371.91958 270.316967 
L 397.546154 271.958164 
L 423.172727 272.749197 
" style="fill:none;stroke:#ff7f0e;stroke-linecap:square;stroke-width:1.5;"/>
   </g>
   <g id="line2d_50">
    <path clip-path="url(#p8fbeb8ca45)" d="M 90.027273 264.86372 
L 115.653846 264.863724 
L 141.28042 264.863763 
L 166.906993 264.76745 
L 192.533566 264.754855 
L 218.16014 264.724349 
L 243.786713 265.506746 
L 269.413287 266.276646 
L 295.03986 267.420348 
L 320.666434 268.521569 
L 346.293007 269.47109 
L 371.91958 270.45855 
L 397.546154 271.457617 
L 423.172727 272.400407 
" style="fill:none;stroke:#2ca02c;stroke-linecap:square;stroke-width:1.5;"/>
   </g>
   <g id="line2d_51">
    <path clip-path="url(#p8fbeb8ca45)" d="M 90.027273 252.224882 
L 115.653846 253.686077 
L 141.28042 255.842288 
L 166.906993 257.938069 
L 192.533566 260.461248 
L 218.16014 262.515014 
L 243.786713 264.487518 
L 269.413287 266.726876 
L 295.03986 268.587037 
L 320.666434 270.48771 
L 346.293007 272.124764 
L 371.91958 291.997015 
L 397.546154 292.495186 
L 423.172727 292.951636 
" style="fill:none;stroke:#d62728;stroke-linecap:square;stroke-width:1.5;"/>
   </g>
   <g id="line2d_52">
    <path clip-path="url(#p8fbeb8ca45)" d="M 90.027273 267.103348 
L 115.653846 267.103406 
L 141.28042 267.104105 
L 166.906993 267.084893 
L 192.533566 267.184582 
L 218.16014 267.202746 
L 243.786713 268.389626 
L 269.413287 269.788421 
L 295.03986 271.113609 
L 320.666434 272.38898 
L 346.293007 272.973299 
L 371.91958 273.8935 
L 397.546154 275.440131 
L 423.172727 276.098717 
" style="fill:none;stroke:#9467bd;stroke-linecap:square;stroke-width:1.5;"/>
   </g>
   <g id="line2d_53">
    <path clip-path="url(#p8fbeb8ca45)" d="M 90.027273 263.124299 
L 115.653846 263.124318 
L 141.28042 263.112591 
L 166.906993 263.312086 
L 192.533566 264.051247 
L 218.16014 265.104826 
L 243.786713 266.509559 
L 269.413287 267.927028 
L 295.03986 269.349785 
L 320.666434 270.548595 
L 346.293007 271.282021 
L 371.91958 272.357554 
L 397.546154 294.429492 
L 423.172727 294.522926 
" style="fill:none;stroke:#8c564b;stroke-linecap:square;stroke-width:1.5;"/>
   </g>
   <g id="line2d_54">
    <path clip-path="url(#p8fbeb8ca45)" d="M 141.28042 281.024343 
L 166.906993 275.104548 
L 192.533566 269.640344 
L 218.16014 264.631825 
L 243.786713 261.436053 
L 269.413287 260.01925 
L 295.03986 266.947049 
L 320.666434 268.502913 
L 346.293007 269.814949 
L 371.91958 271.087982 
L 397.546154 272.593974 
L 423.172727 287.771358 
" style="fill:none;stroke:#e377c2;stroke-linecap:square;stroke-width:1.5;"/>
   </g>
   <g id="line2d_55">
    <path clip-path="url(#p8fbeb8ca45)" d="M 90.027273 259.955687 
L 115.653846 262.323954 
L 141.28042 264.724504 
L 166.906993 267.37401 
L 192.533566 269.394603 
L 218.16014 270.965499 
L 243.786713 272.814356 
L 269.413287 273.463762 
L 295.03986 274.141839 
L 320.666434 274.439612 
L 346.293007 275.088618 
L 371.91958 275.927831 
L 397.546154 277.130068 
L 423.172727 278.376478 
" style="fill:none;stroke:#7f7f7f;stroke-linecap:square;stroke-width:1.5;"/>
   </g>
   <g id="line2d_56">
    <path clip-path="url(#p8fbeb8ca45)" d="M 90.027273 272.718863 
L 115.653846 272.718875 
L 141.28042 272.718885 
L 166.906993 272.655407 
L 192.533566 272.679975 
L 218.16014 272.699673 
L 243.786713 273.109725 
L 269.413287 273.669902 
L 295.03986 274.476092 
L 320.666434 275.644516 
L 346.293007 276.651016 
L 371.91958 278.068965 
L 397.546154 279.747536 
L 423.172727 281.001369 
" style="fill:none;stroke:#bcbd22;stroke-linecap:square;stroke-width:1.5;"/>
   </g>
   <g id="line2d_57">
    <path clip-path="url(#p8fbeb8ca45)" d="M 90.027273 275.184758 
L 115.653846 275.184727 
L 141.28042 275.184785 
L 166.906993 275.123093 
L 192.533566 275.123054 
L 218.16014 275.123073 
L 243.786713 275.179312 
L 269.413287 275.186667 
L 295.03986 275.200543 
L 320.666434 275.279312 
L 346.293007 275.040927 
L 371.91958 275.220686 
L 397.546154 275.744536 
L 423.172727 276.253171 
" style="fill:none;stroke:#17becf;stroke-linecap:square;stroke-width:1.5;"/>
   </g>
   <g id="line2d_58">
    <path clip-path="url(#p8fbeb8ca45)" d="M 90.027273 277.531647 
L 115.653846 277.531667 
L 141.28042 277.531647 
L 166.906993 277.475777 
L 192.533566 277.475777 
L 218.16014 277.475777 
L 243.786713 277.522332 
L 269.413287 277.523516 
L 295.03986 277.536518 
L 320.666434 277.693902 
L 346.293007 277.458991 
L 371.91958 277.480241 
L 397.546154 277.657166 
L 423.172727 277.717287 
" style="fill:none;stroke:#1f77b4;stroke-linecap:square;stroke-width:1.5;"/>
   </g>
   <g id="line2d_59">
    <path clip-path="url(#p8fbeb8ca45)" d="M 90.027273 271.634233 
L 115.653846 271.914112 
L 141.28042 273.125735 
L 166.906993 274.621677 
L 192.533566 275.850745 
L 218.16014 276.999026 
L 243.786713 278.172516 
L 269.413287 279.103293 
L 295.03986 279.901565 
L 320.666434 280.569699 
L 346.293007 280.846256 
L 371.91958 281.240045 
L 397.546154 281.914661 
L 423.172727 282.220541 
" style="fill:none;stroke:#ff7f0e;stroke-linecap:square;stroke-width:1.5;"/>
   </g>
   <g id="line2d_60">
    <path clip-path="url(#p8fbeb8ca45)" d="M 90.027273 283.127592 
L 115.653846 268.300185 
L 141.28042 270.088609 
L 166.906993 271.667524 
L 192.533566 273.484826 
L 218.16014 274.963263 
L 243.786713 276.801874 
L 269.413287 278.209905 
L 295.03986 279.790687 
L 320.666434 281.321254 
L 346.293007 282.722213 
L 371.91958 284.076775 
L 397.546154 285.548897 
L 423.172727 286.535939 
" style="fill:none;stroke:#2ca02c;stroke-linecap:square;stroke-width:1.5;"/>
   </g>
   <g id="line2d_61">
    <path clip-path="url(#p8fbeb8ca45)" d="M 90.027273 275.818907 
L 115.653846 276.155123 
L 141.28042 276.984512 
L 166.906993 278.038898 
L 192.533566 278.426377 
L 218.16014 278.576028 
L 243.786713 279.365373 
L 269.413287 279.55041 
L 295.03986 279.564383 
L 320.666434 279.411385 
L 346.293007 279.378627 
L 371.91958 279.409017 
L 397.546154 279.453321 
L 423.172727 279.462151 
" style="fill:none;stroke:#d62728;stroke-linecap:square;stroke-width:1.5;"/>
   </g>
   <g id="line2d_62">
    <path clip-path="url(#p8fbeb8ca45)" d="M 90.027273 286.25502 
L 115.653846 272.489853 
L 141.28042 272.489615 
L 166.906993 272.42514 
L 192.533566 272.64943 
L 218.16014 273.482109 
L 243.786713 274.729039 
L 269.413287 276.540842 
L 295.03986 278.926416 
L 320.666434 280.551813 
L 346.293007 281.929054 
L 371.91958 283.310831 
L 397.546154 284.696083 
L 423.172727 294.997816 
" style="fill:none;stroke:#9467bd;stroke-linecap:square;stroke-width:1.5;"/>
   </g>
   <g id="line2d_63">
    <path clip-path="url(#p8fbeb8ca45)" d="M 90.027273 282.16798 
L 115.653846 281.954904 
L 141.28042 280.954566 
L 166.906993 279.558744 
L 192.533566 279.20038 
L 218.16014 278.711281 
L 243.786713 278.73075 
L 269.413287 278.441551 
L 295.03986 278.225454 
L 320.666434 278.650847 
L 346.293007 278.76924 
L 371.91958 279.35822 
L 397.546154 280.368188 
L 423.172727 281.192543 
" style="fill:none;stroke:#8c564b;stroke-linecap:square;stroke-width:1.5;"/>
   </g>
   <g id="line2d_64">
    <path clip-path="url(#p8fbeb8ca45)" d="M 90.027273 279.973639 
L 115.653846 279.97362 
L 141.28042 279.973658 
L 166.906993 279.923843 
L 192.533566 279.923843 
L 218.16014 279.913577 
L 243.786713 279.97622 
L 269.413287 279.98472 
L 295.03986 279.994229 
L 320.666434 280.235777 
L 346.293007 280.730265 
L 371.91958 281.376936 
L 397.546154 281.999932 
L 423.172727 282.564223 
" style="fill:none;stroke:#e377c2;stroke-linecap:square;stroke-width:1.5;"/>
   </g>
   <g id="line2d_65">
    <path clip-path="url(#p8fbeb8ca45)" d="M 218.16014 261.315222 
L 243.786713 263.195948 
L 269.413287 262.510098 
L 295.03986 264.657751 
L 320.666434 294.785185 
L 346.293007 295.321028 
L 371.91958 294.919413 
L 397.546154 295.193927 
L 423.172727 294.358949 
" style="fill:none;stroke:#7f7f7f;stroke-linecap:square;stroke-width:1.5;"/>
   </g>
   <g id="line2d_66">
    <path clip-path="url(#p8fbeb8ca45)" d="M 90.027273 274.883381 
L 115.653846 283.008653 
L 141.28042 283.954924 
L 166.906993 284.658731 
" style="fill:none;stroke:#bcbd22;stroke-linecap:square;stroke-width:1.5;"/>
   </g>
   <g id="line2d_67">
    <path clip-path="url(#p8fbeb8ca45)" d="M 115.653846 266.45313 
L 141.28042 266.586623 
L 166.906993 267.367052 
L 192.533566 269.028542 
L 218.16014 270.807528 
L 243.786713 273.063352 
L 269.413287 275.000603 
L 295.03986 279.53341 
L 320.666434 299.087258 
L 346.293007 297.847939 
L 371.91958 298.059924 
L 397.546154 299.34864 
L 423.172727 299.165256 
" style="fill:none;stroke:#17becf;stroke-linecap:square;stroke-width:1.5;"/>
   </g>
   <g id="line2d_68">
    <path clip-path="url(#p8fbeb8ca45)" d="M 90.027273 281.095334 
L 115.653846 281.095334 
L 141.28042 281.095334 
L 166.906993 281.048313 
L 192.533566 281.07094 
L 218.16014 281.117457 
L 243.786713 281.147381 
L 269.413287 281.239211 
L 295.03986 281.802144 
L 320.666434 282.521452 
L 346.293007 282.885279 
L 371.91958 283.476545 
L 397.546154 284.451879 
L 423.172727 284.913143 
" style="fill:none;stroke:#1f77b4;stroke-linecap:square;stroke-width:1.5;"/>
   </g>
   <g id="line2d_69">
    <path clip-path="url(#p8fbeb8ca45)" d="M 166.906993 297.412136 
L 192.533566 292.60898 
L 218.16014 288.43336 
L 243.786713 286.62166 
L 269.413287 283.538218 
L 295.03986 280.918544 
L 320.666434 278.057884 
L 346.293007 276.623188 
L 371.91958 274.928643 
L 397.546154 272.93505 
L 423.172727 271.730122 
" style="fill:none;stroke:#ff7f0e;stroke-linecap:square;stroke-width:1.5;"/>
   </g>
   <g id="line2d_70">
    <path clip-path="url(#p8fbeb8ca45)" d="M 90.027273 280.724051 
L 115.653846 280.724057 
L 141.28042 280.724061 
L 166.906993 280.681604 
L 192.533566 280.703795 
L 218.16014 280.770824 
L 243.786713 281.165584 
L 269.413287 281.604376 
L 295.03986 282.233174 
L 320.666434 282.89177 
L 346.293007 283.365587 
L 371.91958 284.027163 
L 397.546154 284.974985 
L 423.172727 285.722226 
" style="fill:none;stroke:#2ca02c;stroke-linecap:square;stroke-width:1.5;"/>
   </g>
   <g id="line2d_71">
    <path clip-path="url(#p8fbeb8ca45)" d="M 90.027273 287.413133 
L 115.653846 265.608661 
L 141.28042 267.644239 
L 166.906993 269.854198 
L 192.533566 271.603637 
L 218.16014 273.062807 
L 243.786713 274.709404 
L 269.413287 275.472451 
L 295.03986 276.328126 
L 320.666434 299.026845 
L 346.293007 299.123997 
L 371.91958 299.180958 
L 397.546154 299.195046 
L 423.172727 299.257647 
" style="fill:none;stroke:#d62728;stroke-linecap:square;stroke-width:1.5;"/>
   </g>
   <g id="line2d_72">
    <path clip-path="url(#p8fbeb8ca45)" d="M 90.027273 279.830441 
L 115.653846 279.830402 
L 141.28042 279.830402 
L 166.906993 279.780257 
L 192.533566 279.780257 
L 218.16014 279.780257 
L 243.786713 279.822038 
L 269.413287 279.828966 
L 295.03986 279.842434 
L 320.666434 279.976317 
L 346.293007 279.778336 
L 371.91958 294.951026 
L 397.546154 295.025891 
L 423.172727 295.026009 
" style="fill:none;stroke:#9467bd;stroke-linecap:square;stroke-width:1.5;"/>
   </g>
   <g id="line2d_73">
    <path clip-path="url(#p8fbeb8ca45)" d="M 90.027273 276.94597 
L 115.653846 276.907856 
L 141.28042 278.211813 
L 166.906993 280.394714 
L 192.533566 281.829119 
L 218.16014 282.902104 
L 243.786713 284.488168 
L 269.413287 285.050684 
L 295.03986 285.49513 
L 320.666434 285.669205 
L 346.293007 286.052344 
L 371.91958 286.29135 
L 397.546154 286.415711 
L 423.172727 286.60237 
" style="fill:none;stroke:#8c564b;stroke-linecap:square;stroke-width:1.5;"/>
   </g>
   <g id="line2d_74">
    <path clip-path="url(#p8fbeb8ca45)" d="M 90.027273 283.518784 
" style="fill:none;stroke:#e377c2;stroke-linecap:square;stroke-width:1.5;"/>
   </g>
   <g id="line2d_75">
    <path clip-path="url(#p8fbeb8ca45)" d="M 90.027273 277.559728 
L 115.653846 277.894504 
L 141.28042 280.00368 
L 166.906993 281.077461 
L 192.533566 282.446351 
L 218.16014 283.477554 
L 243.786713 284.398512 
L 269.413287 285.005284 
L 295.03986 285.488865 
L 320.666434 285.888593 
L 346.293007 286.021642 
L 371.91958 286.304855 
L 397.546154 286.908561 
L 423.172727 287.082069 
" style="fill:none;stroke:#7f7f7f;stroke-linecap:square;stroke-width:1.5;"/>
   </g>
   <g id="line2d_76">
    <path clip-path="url(#p8fbeb8ca45)" d="M 90.027273 278.981391 
L 115.653846 278.980262 
L 141.28042 278.968672 
L 166.906993 278.965606 
L 192.533566 279.421301 
L 218.16014 280.047111 
L 243.786713 281.270885 
L 269.413287 282.065709 
L 295.03986 282.764093 
L 320.666434 283.316609 
L 346.293007 283.803618 
L 371.91958 298.83045 
L 397.546154 298.975084 
L 423.172727 299.157456 
" style="fill:none;stroke:#bcbd22;stroke-linecap:square;stroke-width:1.5;"/>
   </g>
   <g id="line2d_77">
    <path clip-path="url(#p8fbeb8ca45)" d="M 90.027273 278.821535 
L 115.653846 278.794483 
L 141.28042 279.141795 
L 166.906993 280.41051 
L 192.533566 281.801174 
L 218.16014 282.869346 
L 243.786713 284.384908 
L 269.413287 285.026004 
L 295.03986 285.547965 
L 320.666434 285.810928 
L 346.293007 286.228038 
L 371.91958 286.526787 
L 397.546154 298.849031 
L 423.172727 298.950217 
" style="fill:none;stroke:#17becf;stroke-linecap:square;stroke-width:1.5;"/>
   </g>
   <g id="line2d_78">
    <path clip-path="url(#p8fbeb8ca45)" d="M 90.027273 285.323542 
L 115.653846 285.323548 
L 141.28042 285.32354 
L 166.906993 285.28702 
L 192.533566 285.287041 
L 218.16014 285.287041 
L 243.786713 285.319586 
L 269.413287 285.326572 
L 295.03986 285.338429 
L 320.666434 285.399675 
L 346.293007 285.366364 
L 371.91958 285.613544 
L 397.546154 286.196049 
L 423.172727 286.755083 
" style="fill:none;stroke:#1f77b4;stroke-linecap:square;stroke-width:1.5;"/>
   </g>
   <g id="line2d_79">
    <path clip-path="url(#p8fbeb8ca45)" d="M 295.03986 299.983191 
L 320.666434 294.822445 
L 346.293007 289.916688 
L 371.91958 283.616328 
L 397.546154 275.460371 
L 423.172727 269.898182 
" style="fill:none;stroke:#ff7f0e;stroke-linecap:square;stroke-width:1.5;"/>
   </g>
   <g id="line2d_80">
    <path clip-path="url(#p8fbeb8ca45)" d="M 295.03986 289.781423 
L 320.666434 289.944546 
L 346.293007 290.053034 
L 371.91958 281.625849 
L 397.546154 282.10077 
L 423.172727 282.476519 
" style="fill:none;stroke:#2ca02c;stroke-linecap:square;stroke-width:1.5;"/>
   </g>
   <g id="line2d_81">
    <path clip-path="url(#p8fbeb8ca45)" d="M 423.172727 286.593983 
" style="fill:none;stroke:#d62728;stroke-linecap:square;stroke-width:1.5;"/>
   </g>
   <g id="line2d_82">
    <path clip-path="url(#p8fbeb8ca45)" d="M 90.027273 285.225796 
L 115.653846 285.225815 
L 141.28042 285.225815 
L 166.906993 285.189021 
L 192.533566 285.189021 
L 218.16014 285.189021 
L 243.786713 285.219683 
L 269.413287 285.227872 
L 295.03986 285.239725 
L 320.666434 285.332888 
L 346.293007 285.19291 
L 371.91958 285.191815 
L 397.546154 296.364647 
L 423.172727 296.364643 
" style="fill:none;stroke:#9467bd;stroke-linecap:square;stroke-width:1.5;"/>
   </g>
   <g id="line2d_83">
    <path clip-path="url(#p8fbeb8ca45)" d="M 90.027273 283.898532 
L 115.653846 283.898532 
L 141.28042 283.898532 
L 166.906993 283.859293 
L 192.533566 283.875322 
L 218.16014 283.896281 
L 243.786713 283.972663 
L 269.413287 284.254536 
L 295.03986 284.651859 
L 320.666434 285.205848 
L 346.293007 285.485493 
L 371.91958 297.328086 
L 397.546154 296.031711 
L 423.172727 296.029334 
" style="fill:none;stroke:#8c564b;stroke-linecap:square;stroke-width:1.5;"/>
   </g>
   <g id="line2d_84">
    <path clip-path="url(#p8fbeb8ca45)" d="M 90.027273 288.081895 
L 115.653846 288.027522 
L 141.28042 287.930851 
L 166.906993 287.477223 
L 192.533566 287.522736 
L 218.16014 287.540931 
L 243.786713 287.626351 
L 269.413287 287.664426 
L 295.03986 287.666957 
L 320.666434 287.683031 
L 346.293007 287.548269 
L 371.91958 287.548666 
L 397.546154 287.789602 
L 423.172727 287.784141 
" style="fill:none;stroke:#e377c2;stroke-linecap:square;stroke-width:1.5;"/>
   </g>
   <g id="line2d_85">
    <path clip-path="url(#p8fbeb8ca45)" d="M 371.91958 286.947237 
L 397.546154 287.833721 
L 423.172727 288.520492 
" style="fill:none;stroke:#7f7f7f;stroke-linecap:square;stroke-width:1.5;"/>
   </g>
   <g id="line2d_86">
    <path clip-path="url(#p8fbeb8ca45)" d="M 90.027273 284.661218 
L 115.653846 284.654727 
L 141.28042 284.938026 
L 166.906993 285.377443 
L 192.533566 286.12262 
L 218.16014 286.843071 
L 243.786713 287.518544 
L 269.413287 288.088122 
L 295.03986 288.662888 
L 320.666434 289.049804 
L 346.293007 289.230019 
L 371.91958 296.203572 
L 397.546154 296.212487 
L 423.172727 296.212183 
" style="fill:none;stroke:#bcbd22;stroke-linecap:square;stroke-width:1.5;"/>
   </g>
   <g id="line2d_87">
    <path clip-path="url(#p8fbeb8ca45)" d="M 423.172727 288.887247 
" style="fill:none;stroke:#17becf;stroke-linecap:square;stroke-width:1.5;"/>
   </g>
   <g id="patch_3">
    <path d="M 73.37 300.04 
L 73.37 26.88 
" style="fill:none;stroke:#000000;stroke-linecap:square;stroke-linejoin:miter;stroke-width:0.8;"/>
   </g>
   <g id="patch_4">
    <path d="M 439.83 300.04 
L 439.83 26.88 
" style="fill:none;stroke:#000000;stroke-linecap:square;stroke-linejoin:miter;stroke-width:0.8;"/>
   </g>
   <g id="patch_5">
    <path d="M 73.37 300.04 
L 439.83 300.04 
" style="fill:none;stroke:#000000;stroke-linecap:square;stroke-linejoin:miter;stroke-width:0.8;"/>
   </g>
   <g id="patch_6">
    <path d="M 73.37 26.88 
L 439.83 26.88 
" style="fill:none;stroke:#000000;stroke-linecap:square;stroke-linejoin:miter;stroke-width:0.8;"/>
   </g>
   <g id="text_18">
    <!-- Highest peaks with increasing mosaicity at theta=349 degrees -->
    <defs>
     <path d="M 9.8125 72.90625 
L 19.671875 72.90625 
L 19.671875 43.015625 
L 55.515625 43.015625 
L 55.515625 72.90625 
L 65.375 72.90625 
L 65.375 0 
L 55.515625 0 
L 55.515625 34.71875 
L 19.671875 34.71875 
L 19.671875 0 
L 9.8125 0 
z
" id="DejaVuSans-72"/>
     <path d="M 45.40625 27.984375 
Q 45.40625 37.75 41.375 43.109375 
Q 37.359375 48.484375 30.078125 48.484375 
Q 22.859375 48.484375 18.828125 43.109375 
Q 14.796875 37.75 14.796875 27.984375 
Q 14.796875 18.265625 18.828125 12.890625 
Q 22.859375 7.515625 30.078125 7.515625 
Q 37.359375 7.515625 41.375 12.890625 
Q 45.40625 18.265625 45.40625 27.984375 
z
M 54.390625 6.78125 
Q 54.390625 -7.171875 48.1875 -13.984375 
Q 42 -20.796875 29.203125 -20.796875 
Q 24.46875 -20.796875 20.265625 -20.09375 
Q 16.0625 -19.390625 12.109375 -17.921875 
L 12.109375 -9.1875 
Q 16.0625 -11.328125 19.921875 -12.34375 
Q 23.78125 -13.375 27.78125 -13.375 
Q 36.625 -13.375 41.015625 -8.765625 
Q 45.40625 -4.15625 45.40625 5.171875 
L 45.40625 9.625 
Q 42.625 4.78125 38.28125 2.390625 
Q 33.9375 0 27.875 0 
Q 17.828125 0 11.671875 7.65625 
Q 5.515625 15.328125 5.515625 27.984375 
Q 5.515625 40.671875 11.671875 48.328125 
Q 17.828125 56 27.875 56 
Q 33.9375 56 38.28125 53.609375 
Q 42.625 51.21875 45.40625 46.390625 
L 45.40625 54.6875 
L 54.390625 54.6875 
z
" id="DejaVuSans-103"/>
     <path d="M 54.890625 33.015625 
L 54.890625 0 
L 45.90625 0 
L 45.90625 32.71875 
Q 45.90625 40.484375 42.875 44.328125 
Q 39.84375 48.1875 33.796875 48.1875 
Q 26.515625 48.1875 22.3125 43.546875 
Q 18.109375 38.921875 18.109375 30.90625 
L 18.109375 0 
L 9.078125 0 
L 9.078125 75.984375 
L 18.109375 75.984375 
L 18.109375 46.1875 
Q 21.34375 51.125 25.703125 53.5625 
Q 30.078125 56 35.796875 56 
Q 45.21875 56 50.046875 50.171875 
Q 54.890625 44.34375 54.890625 33.015625 
z
" id="DejaVuSans-104"/>
     <path d="M 18.109375 8.203125 
L 18.109375 -20.796875 
L 9.078125 -20.796875 
L 9.078125 54.6875 
L 18.109375 54.6875 
L 18.109375 46.390625 
Q 20.953125 51.265625 25.265625 53.625 
Q 29.59375 56 35.59375 56 
Q 45.5625 56 51.78125 48.09375 
Q 58.015625 40.1875 58.015625 27.296875 
Q 58.015625 14.40625 51.78125 6.484375 
Q 45.5625 -1.421875 35.59375 -1.421875 
Q 29.59375 -1.421875 25.265625 0.953125 
Q 20.953125 3.328125 18.109375 8.203125 
z
M 48.6875 27.296875 
Q 48.6875 37.203125 44.609375 42.84375 
Q 40.53125 48.484375 33.40625 48.484375 
Q 26.265625 48.484375 22.1875 42.84375 
Q 18.109375 37.203125 18.109375 27.296875 
Q 18.109375 17.390625 22.1875 11.75 
Q 26.265625 6.109375 33.40625 6.109375 
Q 40.53125 6.109375 44.609375 11.75 
Q 48.6875 17.390625 48.6875 27.296875 
z
" id="DejaVuSans-112"/>
     <path d="M 4.203125 54.6875 
L 13.1875 54.6875 
L 24.421875 12.015625 
L 35.59375 54.6875 
L 46.1875 54.6875 
L 57.421875 12.015625 
L 68.609375 54.6875 
L 77.59375 54.6875 
L 63.28125 0 
L 52.6875 0 
L 40.921875 44.828125 
L 29.109375 0 
L 18.5 0 
z
" id="DejaVuSans-119"/>
     <path d="M 48.78125 52.59375 
L 48.78125 44.1875 
Q 44.96875 46.296875 41.140625 47.34375 
Q 37.3125 48.390625 33.40625 48.390625 
Q 24.65625 48.390625 19.8125 42.84375 
Q 14.984375 37.3125 14.984375 27.296875 
Q 14.984375 17.28125 19.8125 11.734375 
Q 24.65625 6.203125 33.40625 6.203125 
Q 37.3125 6.203125 41.140625 7.25 
Q 44.96875 8.296875 48.78125 10.40625 
L 48.78125 2.09375 
Q 45.015625 0.34375 40.984375 -0.53125 
Q 36.96875 -1.421875 32.421875 -1.421875 
Q 20.0625 -1.421875 12.78125 6.34375 
Q 5.515625 14.109375 5.515625 27.296875 
Q 5.515625 40.671875 12.859375 48.328125 
Q 20.21875 56 33.015625 56 
Q 37.15625 56 41.109375 55.140625 
Q 45.0625 54.296875 48.78125 52.59375 
z
" id="DejaVuSans-99"/>
     <path d="M 30.609375 48.390625 
Q 23.390625 48.390625 19.1875 42.75 
Q 14.984375 37.109375 14.984375 27.296875 
Q 14.984375 17.484375 19.15625 11.84375 
Q 23.34375 6.203125 30.609375 6.203125 
Q 37.796875 6.203125 41.984375 11.859375 
Q 46.1875 17.53125 46.1875 27.296875 
Q 46.1875 37.015625 41.984375 42.703125 
Q 37.796875 48.390625 30.609375 48.390625 
z
M 30.609375 56 
Q 42.328125 56 49.015625 48.375 
Q 55.71875 40.765625 55.71875 27.296875 
Q 55.71875 13.875 49.015625 6.21875 
Q 42.328125 -1.421875 30.609375 -1.421875 
Q 18.84375 -1.421875 12.171875 6.21875 
Q 5.515625 13.875 5.515625 27.296875 
Q 5.515625 40.765625 12.171875 48.375 
Q 18.84375 56 30.609375 56 
z
" id="DejaVuSans-111"/>
     <path d="M 10.59375 45.40625 
L 73.1875 45.40625 
L 73.1875 37.203125 
L 10.59375 37.203125 
z
M 10.59375 25.484375 
L 73.1875 25.484375 
L 73.1875 17.1875 
L 10.59375 17.1875 
z
" id="DejaVuSans-61"/>
     <path d="M 40.578125 39.3125 
Q 47.65625 37.796875 51.625 33 
Q 55.609375 28.21875 55.609375 21.1875 
Q 55.609375 10.40625 48.1875 4.484375 
Q 40.765625 -1.421875 27.09375 -1.421875 
Q 22.515625 -1.421875 17.65625 -0.515625 
Q 12.796875 0.390625 7.625 2.203125 
L 7.625 11.71875 
Q 11.71875 9.328125 16.59375 8.109375 
Q 21.484375 6.890625 26.8125 6.890625 
Q 36.078125 6.890625 40.9375 10.546875 
Q 45.796875 14.203125 45.796875 21.1875 
Q 45.796875 27.640625 41.28125 31.265625 
Q 36.765625 34.90625 28.71875 34.90625 
L 20.21875 34.90625 
L 20.21875 43.015625 
L 29.109375 43.015625 
Q 36.375 43.015625 40.234375 45.921875 
Q 44.09375 48.828125 44.09375 54.296875 
Q 44.09375 59.90625 40.109375 62.90625 
Q 36.140625 65.921875 28.71875 65.921875 
Q 24.65625 65.921875 20.015625 65.03125 
Q 15.375 64.15625 9.8125 62.3125 
L 9.8125 71.09375 
Q 15.4375 72.65625 20.34375 73.4375 
Q 25.25 74.21875 29.59375 74.21875 
Q 40.828125 74.21875 47.359375 69.109375 
Q 53.90625 64.015625 53.90625 55.328125 
Q 53.90625 49.265625 50.4375 45.09375 
Q 46.96875 40.921875 40.578125 39.3125 
z
" id="DejaVuSans-51"/>
     <path d="M 10.984375 1.515625 
L 10.984375 10.5 
Q 14.703125 8.734375 18.5 7.8125 
Q 22.3125 6.890625 25.984375 6.890625 
Q 35.75 6.890625 40.890625 13.453125 
Q 46.046875 20.015625 46.78125 33.40625 
Q 43.953125 29.203125 39.59375 26.953125 
Q 35.25 24.703125 29.984375 24.703125 
Q 19.046875 24.703125 12.671875 31.3125 
Q 6.296875 37.9375 6.296875 49.421875 
Q 6.296875 60.640625 12.9375 67.421875 
Q 19.578125 74.21875 30.609375 74.21875 
Q 43.265625 74.21875 49.921875 64.515625 
Q 56.59375 54.828125 56.59375 36.375 
Q 56.59375 19.140625 48.40625 8.859375 
Q 40.234375 -1.421875 26.421875 -1.421875 
Q 22.703125 -1.421875 18.890625 -0.6875 
Q 15.09375 0.046875 10.984375 1.515625 
z
M 30.609375 32.421875 
Q 37.25 32.421875 41.125 36.953125 
Q 45.015625 41.5 45.015625 49.421875 
Q 45.015625 57.28125 41.125 61.84375 
Q 37.25 66.40625 30.609375 66.40625 
Q 23.96875 66.40625 20.09375 61.84375 
Q 16.21875 57.28125 16.21875 49.421875 
Q 16.21875 41.5 20.09375 36.953125 
Q 23.96875 32.421875 30.609375 32.421875 
z
" id="DejaVuSans-57"/>
     <path d="M 45.40625 46.390625 
L 45.40625 75.984375 
L 54.390625 75.984375 
L 54.390625 0 
L 45.40625 0 
L 45.40625 8.203125 
Q 42.578125 3.328125 38.25 0.953125 
Q 33.9375 -1.421875 27.875 -1.421875 
Q 17.96875 -1.421875 11.734375 6.484375 
Q 5.515625 14.40625 5.515625 27.296875 
Q 5.515625 40.1875 11.734375 48.09375 
Q 17.96875 56 27.875 56 
Q 33.9375 56 38.25 53.625 
Q 42.578125 51.265625 45.40625 46.390625 
z
M 14.796875 27.296875 
Q 14.796875 17.390625 18.875 11.75 
Q 22.953125 6.109375 30.078125 6.109375 
Q 37.203125 6.109375 41.296875 11.75 
Q 45.40625 17.390625 45.40625 27.296875 
Q 45.40625 37.203125 41.296875 42.84375 
Q 37.203125 48.484375 30.078125 48.484375 
Q 22.953125 48.484375 18.875 42.84375 
Q 14.796875 37.203125 14.796875 27.296875 
z
" id="DejaVuSans-100"/>
    </defs>
    <g transform="translate(67.255938 20.88)scale(0.12 -0.12)">
     <use xlink:href="#DejaVuSans-72"/>
     <use x="75.195312" xlink:href="#DejaVuSans-105"/>
     <use x="102.978516" xlink:href="#DejaVuSans-103"/>
     <use x="166.455078" xlink:href="#DejaVuSans-104"/>
     <use x="229.833984" xlink:href="#DejaVuSans-101"/>
     <use x="291.357422" xlink:href="#DejaVuSans-115"/>
     <use x="343.457031" xlink:href="#DejaVuSans-116"/>
     <use x="382.666016" xlink:href="#DejaVuSans-32"/>
     <use x="414.453125" xlink:href="#DejaVuSans-112"/>
     <use x="477.929688" xlink:href="#DejaVuSans-101"/>
     <use x="539.453125" xlink:href="#DejaVuSans-97"/>
     <use x="600.732422" xlink:href="#DejaVuSans-107"/>
     <use x="658.642578" xlink:href="#DejaVuSans-115"/>
     <use x="710.742188" xlink:href="#DejaVuSans-32"/>
     <use x="742.529297" xlink:href="#DejaVuSans-119"/>
     <use x="824.316406" xlink:href="#DejaVuSans-105"/>
     <use x="852.099609" xlink:href="#DejaVuSans-116"/>
     <use x="891.308594" xlink:href="#DejaVuSans-104"/>
     <use x="954.6875" xlink:href="#DejaVuSans-32"/>
     <use x="986.474609" xlink:href="#DejaVuSans-105"/>
     <use x="1014.257812" xlink:href="#DejaVuSans-110"/>
     <use x="1077.636719" xlink:href="#DejaVuSans-99"/>
     <use x="1132.617188" xlink:href="#DejaVuSans-114"/>
     <use x="1173.699219" xlink:href="#DejaVuSans-101"/>
     <use x="1235.222656" xlink:href="#DejaVuSans-97"/>
     <use x="1296.501953" xlink:href="#DejaVuSans-115"/>
     <use x="1348.601562" xlink:href="#DejaVuSans-105"/>
     <use x="1376.384766" xlink:href="#DejaVuSans-110"/>
     <use x="1439.763672" xlink:href="#DejaVuSans-103"/>
     <use x="1503.240234" xlink:href="#DejaVuSans-32"/>
     <use x="1535.027344" xlink:href="#DejaVuSans-109"/>
     <use x="1632.439453" xlink:href="#DejaVuSans-111"/>
     <use x="1693.621094" xlink:href="#DejaVuSans-115"/>
     <use x="1745.720703" xlink:href="#DejaVuSans-97"/>
     <use x="1807" xlink:href="#DejaVuSans-105"/>
     <use x="1834.783203" xlink:href="#DejaVuSans-99"/>
     <use x="1889.763672" xlink:href="#DejaVuSans-105"/>
     <use x="1917.546875" xlink:href="#DejaVuSans-116"/>
     <use x="1956.755859" xlink:href="#DejaVuSans-121"/>
     <use x="2015.935547" xlink:href="#DejaVuSans-32"/>
     <use x="2047.722656" xlink:href="#DejaVuSans-97"/>
     <use x="2109.001953" xlink:href="#DejaVuSans-116"/>
     <use x="2148.210938" xlink:href="#DejaVuSans-32"/>
     <use x="2179.998047" xlink:href="#DejaVuSans-116"/>
     <use x="2219.207031" xlink:href="#DejaVuSans-104"/>
     <use x="2282.585938" xlink:href="#DejaVuSans-101"/>
     <use x="2344.109375" xlink:href="#DejaVuSans-116"/>
     <use x="2383.318359" xlink:href="#DejaVuSans-97"/>
     <use x="2444.597656" xlink:href="#DejaVuSans-61"/>
     <use x="2528.386719" xlink:href="#DejaVuSans-51"/>
     <use x="2592.009766" xlink:href="#DejaVuSans-52"/>
     <use x="2655.632812" xlink:href="#DejaVuSans-57"/>
     <use x="2719.255859" xlink:href="#DejaVuSans-32"/>
     <use x="2751.042969" xlink:href="#DejaVuSans-100"/>
     <use x="2814.519531" xlink:href="#DejaVuSans-101"/>
     <use x="2876.042969" xlink:href="#DejaVuSans-103"/>
     <use x="2939.519531" xlink:href="#DejaVuSans-114"/>
     <use x="2980.601562" xlink:href="#DejaVuSans-101"/>
     <use x="3042.125" xlink:href="#DejaVuSans-101"/>
     <use x="3103.648438" xlink:href="#DejaVuSans-115"/>
    </g>
   </g>
  </g>
 </g>
 <defs>
  <clipPath id="p8fbeb8ca45">
   <rect height="273.16" width="366.46" x="73.37" y="26.88"/>
  </clipPath>
 </defs>
</svg>
