<?xml version="1.0" encoding="utf-8" standalone="no"?>
<!DOCTYPE svg PUBLIC "-//W3C//DTD SVG 1.1//EN"
  "http://www.w3.org/Graphics/SVG/1.1/DTD/svg11.dtd">
<!-- Created with matplotlib (https://matplotlib.org/) -->
<svg height="345.6pt" version="1.1" viewBox="0 0 460.8 345.6" width="460.8pt" xmlns="http://www.w3.org/2000/svg" xmlns:xlink="http://www.w3.org/1999/xlink">
 <defs>
  <style type="text/css">
*{stroke-linecap:butt;stroke-linejoin:round;}
  </style>
 </defs>
 <g id="figure_1">
  <g id="patch_1">
   <path d="M 0 345.6 
L 460.8 345.6 
L 460.8 0 
L 0 0 
z
" style="fill:#ffffff;"/>
  </g>
  <g id="axes_1">
   <g id="patch_2">
    <path d="M 73.37 300.04 
L 439.785 300.04 
L 439.785 26.88 
L 73.37 26.88 
z
" style="fill:#ffffff;"/>
   </g>
   <g id="matplotlib.axis_1">
    <g id="xtick_1">
     <g id="line2d_1">
      <path clip-path="url(#p8a3e064284)" d="M 115.648654 300.04 
L 115.648654 26.88 
" style="fill:none;stroke:#b0b0b0;stroke-linecap:square;stroke-width:0.8;"/>
     </g>
     <g id="line2d_2">
      <defs>
       <path d="M 0 0 
L 0 3.5 
" id="m53cd7d193d" style="stroke:#000000;stroke-width:0.8;"/>
      </defs>
      <g>
       <use style="stroke:#000000;stroke-width:0.8;" x="115.648654" xlink:href="#m53cd7d193d" y="300.04"/>
      </g>
     </g>
     <g id="text_1">
      <!-- 2 -->
      <defs>
       <path d="M 19.1875 8.296875 
L 53.609375 8.296875 
L 53.609375 0 
L 7.328125 0 
L 7.328125 8.296875 
Q 12.9375 14.109375 22.625 23.890625 
Q 32.328125 33.6875 34.8125 36.53125 
Q 39.546875 41.84375 41.421875 45.53125 
Q 43.3125 49.21875 43.3125 52.78125 
Q 43.3125 58.59375 39.234375 62.25 
Q 35.15625 65.921875 28.609375 65.921875 
Q 23.96875 65.921875 18.8125 64.3125 
Q 13.671875 62.703125 7.8125 59.421875 
L 7.8125 69.390625 
Q 13.765625 71.78125 18.9375 73 
Q 24.125 74.21875 28.421875 74.21875 
Q 39.75 74.21875 46.484375 68.546875 
Q 53.21875 62.890625 53.21875 53.421875 
Q 53.21875 48.921875 51.53125 44.890625 
Q 49.859375 40.875 45.40625 35.40625 
Q 44.1875 33.984375 37.640625 27.21875 
Q 31.109375 20.453125 19.1875 8.296875 
z
" id="DejaVuSans-50"/>
      </defs>
      <g transform="translate(112.467404 314.638437)scale(0.1 -0.1)">
       <use xlink:href="#DejaVuSans-50"/>
      </g>
     </g>
    </g>
    <g id="xtick_2">
     <g id="line2d_3">
      <path clip-path="url(#p8a3e064284)" d="M 166.895507 300.04 
L 166.895507 26.88 
" style="fill:none;stroke:#b0b0b0;stroke-linecap:square;stroke-width:0.8;"/>
     </g>
     <g id="line2d_4">
      <g>
       <use style="stroke:#000000;stroke-width:0.8;" x="166.895507" xlink:href="#m53cd7d193d" y="300.04"/>
      </g>
     </g>
     <g id="text_2">
      <!-- 4 -->
      <defs>
       <path d="M 37.796875 64.3125 
L 12.890625 25.390625 
L 37.796875 25.390625 
z
M 35.203125 72.90625 
L 47.609375 72.90625 
L 47.609375 25.390625 
L 58.015625 25.390625 
L 58.015625 17.1875 
L 47.609375 17.1875 
L 47.609375 0 
L 37.796875 0 
L 37.796875 17.1875 
L 4.890625 17.1875 
L 4.890625 26.703125 
z
" id="DejaVuSans-52"/>
      </defs>
      <g transform="translate(163.714257 314.638437)scale(0.1 -0.1)">
       <use xlink:href="#DejaVuSans-52"/>
      </g>
     </g>
    </g>
    <g id="xtick_3">
     <g id="line2d_5">
      <path clip-path="url(#p8a3e064284)" d="M 218.14236 300.04 
L 218.14236 26.88 
" style="fill:none;stroke:#b0b0b0;stroke-linecap:square;stroke-width:0.8;"/>
     </g>
     <g id="line2d_6">
      <g>
       <use style="stroke:#000000;stroke-width:0.8;" x="218.14236" xlink:href="#m53cd7d193d" y="300.04"/>
      </g>
     </g>
     <g id="text_3">
      <!-- 6 -->
      <defs>
       <path d="M 33.015625 40.375 
Q 26.375 40.375 22.484375 35.828125 
Q 18.609375 31.296875 18.609375 23.390625 
Q 18.609375 15.53125 22.484375 10.953125 
Q 26.375 6.390625 33.015625 6.390625 
Q 39.65625 6.390625 43.53125 10.953125 
Q 47.40625 15.53125 47.40625 23.390625 
Q 47.40625 31.296875 43.53125 35.828125 
Q 39.65625 40.375 33.015625 40.375 
z
M 52.59375 71.296875 
L 52.59375 62.3125 
Q 48.875 64.0625 45.09375 64.984375 
Q 41.3125 65.921875 37.59375 65.921875 
Q 27.828125 65.921875 22.671875 59.328125 
Q 17.53125 52.734375 16.796875 39.40625 
Q 19.671875 43.65625 24.015625 45.921875 
Q 28.375 48.1875 33.59375 48.1875 
Q 44.578125 48.1875 50.953125 41.515625 
Q 57.328125 34.859375 57.328125 23.390625 
Q 57.328125 12.15625 50.6875 5.359375 
Q 44.046875 -1.421875 33.015625 -1.421875 
Q 20.359375 -1.421875 13.671875 8.265625 
Q 6.984375 17.96875 6.984375 36.375 
Q 6.984375 53.65625 15.1875 63.9375 
Q 23.390625 74.21875 37.203125 74.21875 
Q 40.921875 74.21875 44.703125 73.484375 
Q 48.484375 72.75 52.59375 71.296875 
z
" id="DejaVuSans-54"/>
      </defs>
      <g transform="translate(214.96111 314.638437)scale(0.1 -0.1)">
       <use xlink:href="#DejaVuSans-54"/>
      </g>
     </g>
    </g>
    <g id="xtick_4">
     <g id="line2d_7">
      <path clip-path="url(#p8a3e064284)" d="M 269.389213 300.04 
L 269.389213 26.88 
" style="fill:none;stroke:#b0b0b0;stroke-linecap:square;stroke-width:0.8;"/>
     </g>
     <g id="line2d_8">
      <g>
       <use style="stroke:#000000;stroke-width:0.8;" x="269.389213" xlink:href="#m53cd7d193d" y="300.04"/>
      </g>
     </g>
     <g id="text_4">
      <!-- 8 -->
      <defs>
       <path d="M 31.78125 34.625 
Q 24.75 34.625 20.71875 30.859375 
Q 16.703125 27.09375 16.703125 20.515625 
Q 16.703125 13.921875 20.71875 10.15625 
Q 24.75 6.390625 31.78125 6.390625 
Q 38.8125 6.390625 42.859375 10.171875 
Q 46.921875 13.96875 46.921875 20.515625 
Q 46.921875 27.09375 42.890625 30.859375 
Q 38.875 34.625 31.78125 34.625 
z
M 21.921875 38.8125 
Q 15.578125 40.375 12.03125 44.71875 
Q 8.5 49.078125 8.5 55.328125 
Q 8.5 64.0625 14.71875 69.140625 
Q 20.953125 74.21875 31.78125 74.21875 
Q 42.671875 74.21875 48.875 69.140625 
Q 55.078125 64.0625 55.078125 55.328125 
Q 55.078125 49.078125 51.53125 44.71875 
Q 48 40.375 41.703125 38.8125 
Q 48.828125 37.15625 52.796875 32.3125 
Q 56.78125 27.484375 56.78125 20.515625 
Q 56.78125 9.90625 50.3125 4.234375 
Q 43.84375 -1.421875 31.78125 -1.421875 
Q 19.734375 -1.421875 13.25 4.234375 
Q 6.78125 9.90625 6.78125 20.515625 
Q 6.78125 27.484375 10.78125 32.3125 
Q 14.796875 37.15625 21.921875 38.8125 
z
M 18.3125 54.390625 
Q 18.3125 48.734375 21.84375 45.5625 
Q 25.390625 42.390625 31.78125 42.390625 
Q 38.140625 42.390625 41.71875 45.5625 
Q 45.3125 48.734375 45.3125 54.390625 
Q 45.3125 60.0625 41.71875 63.234375 
Q 38.140625 66.40625 31.78125 66.40625 
Q 25.390625 66.40625 21.84375 63.234375 
Q 18.3125 60.0625 18.3125 54.390625 
z
" id="DejaVuSans-56"/>
      </defs>
      <g transform="translate(266.207963 314.638437)scale(0.1 -0.1)">
       <use xlink:href="#DejaVuSans-56"/>
      </g>
     </g>
    </g>
    <g id="xtick_5">
     <g id="line2d_9">
      <path clip-path="url(#p8a3e064284)" d="M 320.636066 300.04 
L 320.636066 26.88 
" style="fill:none;stroke:#b0b0b0;stroke-linecap:square;stroke-width:0.8;"/>
     </g>
     <g id="line2d_10">
      <g>
       <use style="stroke:#000000;stroke-width:0.8;" x="320.636066" xlink:href="#m53cd7d193d" y="300.04"/>
      </g>
     </g>
     <g id="text_5">
      <!-- 10 -->
      <defs>
       <path d="M 12.40625 8.296875 
L 28.515625 8.296875 
L 28.515625 63.921875 
L 10.984375 60.40625 
L 10.984375 69.390625 
L 28.421875 72.90625 
L 38.28125 72.90625 
L 38.28125 8.296875 
L 54.390625 8.296875 
L 54.390625 0 
L 12.40625 0 
z
" id="DejaVuSans-49"/>
       <path d="M 31.78125 66.40625 
Q 24.171875 66.40625 20.328125 58.90625 
Q 16.5 51.421875 16.5 36.375 
Q 16.5 21.390625 20.328125 13.890625 
Q 24.171875 6.390625 31.78125 6.390625 
Q 39.453125 6.390625 43.28125 13.890625 
Q 47.125 21.390625 47.125 36.375 
Q 47.125 51.421875 43.28125 58.90625 
Q 39.453125 66.40625 31.78125 66.40625 
z
M 31.78125 74.21875 
Q 44.046875 74.21875 50.515625 64.515625 
Q 56.984375 54.828125 56.984375 36.375 
Q 56.984375 17.96875 50.515625 8.265625 
Q 44.046875 -1.421875 31.78125 -1.421875 
Q 19.53125 -1.421875 13.0625 8.265625 
Q 6.59375 17.96875 6.59375 36.375 
Q 6.59375 54.828125 13.0625 64.515625 
Q 19.53125 74.21875 31.78125 74.21875 
z
" id="DejaVuSans-48"/>
      </defs>
      <g transform="translate(314.273566 314.638437)scale(0.1 -0.1)">
       <use xlink:href="#DejaVuSans-49"/>
       <use x="63.623047" xlink:href="#DejaVuSans-48"/>
      </g>
     </g>
    </g>
    <g id="xtick_6">
     <g id="line2d_11">
      <path clip-path="url(#p8a3e064284)" d="M 371.88292 300.04 
L 371.88292 26.88 
" style="fill:none;stroke:#b0b0b0;stroke-linecap:square;stroke-width:0.8;"/>
     </g>
     <g id="line2d_12">
      <g>
       <use style="stroke:#000000;stroke-width:0.8;" x="371.88292" xlink:href="#m53cd7d193d" y="300.04"/>
      </g>
     </g>
     <g id="text_6">
      <!-- 12 -->
      <g transform="translate(365.52042 314.638437)scale(0.1 -0.1)">
       <use xlink:href="#DejaVuSans-49"/>
       <use x="63.623047" xlink:href="#DejaVuSans-50"/>
      </g>
     </g>
    </g>
    <g id="xtick_7">
     <g id="line2d_13">
      <path clip-path="url(#p8a3e064284)" d="M 423.129773 300.04 
L 423.129773 26.88 
" style="fill:none;stroke:#b0b0b0;stroke-linecap:square;stroke-width:0.8;"/>
     </g>
     <g id="line2d_14">
      <g>
       <use style="stroke:#000000;stroke-width:0.8;" x="423.129773" xlink:href="#m53cd7d193d" y="300.04"/>
      </g>
     </g>
     <g id="text_7">
      <!-- 14 -->
      <g transform="translate(416.767273 314.638437)scale(0.1 -0.1)">
       <use xlink:href="#DejaVuSans-49"/>
       <use x="63.623047" xlink:href="#DejaVuSans-52"/>
      </g>
     </g>
    </g>
    <g id="xtick_8">
     <g id="line2d_15">
      <defs>
       <path d="M 0 0 
L 0 2 
" id="m3ae88de94d" style="stroke:#000000;stroke-width:0.6;"/>
      </defs>
      <g>
       <use style="stroke:#000000;stroke-width:0.6;" x="90.025227" xlink:href="#m3ae88de94d" y="300.04"/>
      </g>
     </g>
    </g>
    <g id="xtick_9">
     <g id="line2d_16">
      <g>
       <use style="stroke:#000000;stroke-width:0.6;" x="141.27208" xlink:href="#m3ae88de94d" y="300.04"/>
      </g>
     </g>
    </g>
    <g id="xtick_10">
     <g id="line2d_17">
      <g>
       <use style="stroke:#000000;stroke-width:0.6;" x="192.518934" xlink:href="#m3ae88de94d" y="300.04"/>
      </g>
     </g>
    </g>
    <g id="xtick_11">
     <g id="line2d_18">
      <g>
       <use style="stroke:#000000;stroke-width:0.6;" x="243.765787" xlink:href="#m3ae88de94d" y="300.04"/>
      </g>
     </g>
    </g>
    <g id="xtick_12">
     <g id="line2d_19">
      <g>
       <use style="stroke:#000000;stroke-width:0.6;" x="295.01264" xlink:href="#m3ae88de94d" y="300.04"/>
      </g>
     </g>
    </g>
    <g id="xtick_13">
     <g id="line2d_20">
      <g>
       <use style="stroke:#000000;stroke-width:0.6;" x="346.259493" xlink:href="#m3ae88de94d" y="300.04"/>
      </g>
     </g>
    </g>
    <g id="xtick_14">
     <g id="line2d_21">
      <g>
       <use style="stroke:#000000;stroke-width:0.6;" x="397.506346" xlink:href="#m3ae88de94d" y="300.04"/>
      </g>
     </g>
    </g>
    <g id="text_8">
     <!-- Frame number -->
     <defs>
      <path d="M 9.8125 72.90625 
L 51.703125 72.90625 
L 51.703125 64.59375 
L 19.671875 64.59375 
L 19.671875 43.109375 
L 48.578125 43.109375 
L 48.578125 34.8125 
L 19.671875 34.8125 
L 19.671875 0 
L 9.8125 0 
z
" id="DejaVuSans-70"/>
      <path d="M 41.109375 46.296875 
Q 39.59375 47.171875 37.8125 47.578125 
Q 36.03125 48 33.890625 48 
Q 26.265625 48 22.1875 43.046875 
Q 18.109375 38.09375 18.109375 28.8125 
L 18.109375 0 
L 9.078125 0 
L 9.078125 54.6875 
L 18.109375 54.6875 
L 18.109375 46.1875 
Q 20.953125 51.171875 25.484375 53.578125 
Q 30.03125 56 36.53125 56 
Q 37.453125 56 38.578125 55.875 
Q 39.703125 55.765625 41.0625 55.515625 
z
" id="DejaVuSans-114"/>
      <path d="M 34.28125 27.484375 
Q 23.390625 27.484375 19.1875 25 
Q 14.984375 22.515625 14.984375 16.5 
Q 14.984375 11.71875 18.140625 8.90625 
Q 21.296875 6.109375 26.703125 6.109375 
Q 34.1875 6.109375 38.703125 11.40625 
Q 43.21875 16.703125 43.21875 25.484375 
L 43.21875 27.484375 
z
M 52.203125 31.203125 
L 52.203125 0 
L 43.21875 0 
L 43.21875 8.296875 
Q 40.140625 3.328125 35.546875 0.953125 
Q 30.953125 -1.421875 24.3125 -1.421875 
Q 15.921875 -1.421875 10.953125 3.296875 
Q 6 8.015625 6 15.921875 
Q 6 25.140625 12.171875 29.828125 
Q 18.359375 34.515625 30.609375 34.515625 
L 43.21875 34.515625 
L 43.21875 35.40625 
Q 43.21875 41.609375 39.140625 45 
Q 35.0625 48.390625 27.6875 48.390625 
Q 23 48.390625 18.546875 47.265625 
Q 14.109375 46.140625 10.015625 43.890625 
L 10.015625 52.203125 
Q 14.9375 54.109375 19.578125 55.046875 
Q 24.21875 56 28.609375 56 
Q 40.484375 56 46.34375 49.84375 
Q 52.203125 43.703125 52.203125 31.203125 
z
" id="DejaVuSans-97"/>
      <path d="M 52 44.1875 
Q 55.375 50.25 60.0625 53.125 
Q 64.75 56 71.09375 56 
Q 79.640625 56 84.28125 50.015625 
Q 88.921875 44.046875 88.921875 33.015625 
L 88.921875 0 
L 79.890625 0 
L 79.890625 32.71875 
Q 79.890625 40.578125 77.09375 44.375 
Q 74.3125 48.1875 68.609375 48.1875 
Q 61.625 48.1875 57.5625 43.546875 
Q 53.515625 38.921875 53.515625 30.90625 
L 53.515625 0 
L 44.484375 0 
L 44.484375 32.71875 
Q 44.484375 40.625 41.703125 44.40625 
Q 38.921875 48.1875 33.109375 48.1875 
Q 26.21875 48.1875 22.15625 43.53125 
Q 18.109375 38.875 18.109375 30.90625 
L 18.109375 0 
L 9.078125 0 
L 9.078125 54.6875 
L 18.109375 54.6875 
L 18.109375 46.1875 
Q 21.1875 51.21875 25.484375 53.609375 
Q 29.78125 56 35.6875 56 
Q 41.65625 56 45.828125 52.96875 
Q 50 49.953125 52 44.1875 
z
" id="DejaVuSans-109"/>
      <path d="M 56.203125 29.59375 
L 56.203125 25.203125 
L 14.890625 25.203125 
Q 15.484375 15.921875 20.484375 11.0625 
Q 25.484375 6.203125 34.421875 6.203125 
Q 39.59375 6.203125 44.453125 7.46875 
Q 49.3125 8.734375 54.109375 11.28125 
L 54.109375 2.78125 
Q 49.265625 0.734375 44.1875 -0.34375 
Q 39.109375 -1.421875 33.890625 -1.421875 
Q 20.796875 -1.421875 13.15625 6.1875 
Q 5.515625 13.8125 5.515625 26.8125 
Q 5.515625 40.234375 12.765625 48.109375 
Q 20.015625 56 32.328125 56 
Q 43.359375 56 49.78125 48.890625 
Q 56.203125 41.796875 56.203125 29.59375 
z
M 47.21875 32.234375 
Q 47.125 39.59375 43.09375 43.984375 
Q 39.0625 48.390625 32.421875 48.390625 
Q 24.90625 48.390625 20.390625 44.140625 
Q 15.875 39.890625 15.1875 32.171875 
z
" id="DejaVuSans-101"/>
      <path id="DejaVuSans-32"/>
      <path d="M 54.890625 33.015625 
L 54.890625 0 
L 45.90625 0 
L 45.90625 32.71875 
Q 45.90625 40.484375 42.875 44.328125 
Q 39.84375 48.1875 33.796875 48.1875 
Q 26.515625 48.1875 22.3125 43.546875 
Q 18.109375 38.921875 18.109375 30.90625 
L 18.109375 0 
L 9.078125 0 
L 9.078125 54.6875 
L 18.109375 54.6875 
L 18.109375 46.1875 
Q 21.34375 51.125 25.703125 53.5625 
Q 30.078125 56 35.796875 56 
Q 45.21875 56 50.046875 50.171875 
Q 54.890625 44.34375 54.890625 33.015625 
z
" id="DejaVuSans-110"/>
      <path d="M 8.5 21.578125 
L 8.5 54.6875 
L 17.484375 54.6875 
L 17.484375 21.921875 
Q 17.484375 14.15625 20.5 10.265625 
Q 23.53125 6.390625 29.59375 6.390625 
Q 36.859375 6.390625 41.078125 11.03125 
Q 45.3125 15.671875 45.3125 23.6875 
L 45.3125 54.6875 
L 54.296875 54.6875 
L 54.296875 0 
L 45.3125 0 
L 45.3125 8.40625 
Q 42.046875 3.421875 37.71875 1 
Q 33.40625 -1.421875 27.6875 -1.421875 
Q 18.265625 -1.421875 13.375 4.4375 
Q 8.5 10.296875 8.5 21.578125 
z
M 31.109375 56 
z
" id="DejaVuSans-117"/>
      <path d="M 48.6875 27.296875 
Q 48.6875 37.203125 44.609375 42.84375 
Q 40.53125 48.484375 33.40625 48.484375 
Q 26.265625 48.484375 22.1875 42.84375 
Q 18.109375 37.203125 18.109375 27.296875 
Q 18.109375 17.390625 22.1875 11.75 
Q 26.265625 6.109375 33.40625 6.109375 
Q 40.53125 6.109375 44.609375 11.75 
Q 48.6875 17.390625 48.6875 27.296875 
z
M 18.109375 46.390625 
Q 20.953125 51.265625 25.265625 53.625 
Q 29.59375 56 35.59375 56 
Q 45.5625 56 51.78125 48.09375 
Q 58.015625 40.1875 58.015625 27.296875 
Q 58.015625 14.40625 51.78125 6.484375 
Q 45.5625 -1.421875 35.59375 -1.421875 
Q 29.59375 -1.421875 25.265625 0.953125 
Q 20.953125 3.328125 18.109375 8.203125 
L 18.109375 0 
L 9.078125 0 
L 9.078125 75.984375 
L 18.109375 75.984375 
z
" id="DejaVuSans-98"/>
     </defs>
     <g transform="translate(203.240125 331.659875)scale(0.144 -0.144)">
      <use xlink:href="#DejaVuSans-70"/>
      <use x="57.410156" xlink:href="#DejaVuSans-114"/>
      <use x="98.523438" xlink:href="#DejaVuSans-97"/>
      <use x="159.802734" xlink:href="#DejaVuSans-109"/>
      <use x="257.214844" xlink:href="#DejaVuSans-101"/>
      <use x="318.738281" xlink:href="#DejaVuSans-32"/>
      <use x="350.525391" xlink:href="#DejaVuSans-110"/>
      <use x="413.904297" xlink:href="#DejaVuSans-117"/>
      <use x="477.283203" xlink:href="#DejaVuSans-109"/>
      <use x="574.695312" xlink:href="#DejaVuSans-98"/>
      <use x="638.171875" xlink:href="#DejaVuSans-101"/>
      <use x="699.695312" xlink:href="#DejaVuSans-114"/>
     </g>
    </g>
   </g>
   <g id="matplotlib.axis_2">
    <g id="ytick_1">
     <g id="line2d_22">
      <path clip-path="url(#p8a3e064284)" d="M 73.37 300.04 
L 439.785 300.04 
" style="fill:none;stroke:#b0b0b0;stroke-linecap:square;stroke-width:0.8;"/>
     </g>
     <g id="line2d_23">
      <defs>
       <path d="M 0 0 
L -3.5 0 
" id="m45dbc2c8f4" style="stroke:#000000;stroke-width:0.8;"/>
      </defs>
      <g>
       <use style="stroke:#000000;stroke-width:0.8;" x="73.37" xlink:href="#m45dbc2c8f4" y="300.04"/>
      </g>
     </g>
     <g id="text_9">
      <!-- 0 -->
      <g transform="translate(60.0075 303.839219)scale(0.1 -0.1)">
       <use xlink:href="#DejaVuSans-48"/>
      </g>
     </g>
    </g>
    <g id="ytick_2">
     <g id="line2d_24">
      <path clip-path="url(#p8a3e064284)" d="M 73.37 267.574164 
L 439.785 267.574164 
" style="fill:none;stroke:#b0b0b0;stroke-linecap:square;stroke-width:0.8;"/>
     </g>
     <g id="line2d_25">
      <g>
       <use style="stroke:#000000;stroke-width:0.8;" x="73.37" xlink:href="#m45dbc2c8f4" y="267.574164"/>
      </g>
     </g>
     <g id="text_10">
      <!-- 25000 -->
      <defs>
       <path d="M 10.796875 72.90625 
L 49.515625 72.90625 
L 49.515625 64.59375 
L 19.828125 64.59375 
L 19.828125 46.734375 
Q 21.96875 47.46875 24.109375 47.828125 
Q 26.265625 48.1875 28.421875 48.1875 
Q 40.625 48.1875 47.75 41.5 
Q 54.890625 34.8125 54.890625 23.390625 
Q 54.890625 11.625 47.5625 5.09375 
Q 40.234375 -1.421875 26.90625 -1.421875 
Q 22.3125 -1.421875 17.546875 -0.640625 
Q 12.796875 0.140625 7.71875 1.703125 
L 7.71875 11.625 
Q 12.109375 9.234375 16.796875 8.0625 
Q 21.484375 6.890625 26.703125 6.890625 
Q 35.15625 6.890625 40.078125 11.328125 
Q 45.015625 15.765625 45.015625 23.390625 
Q 45.015625 31 40.078125 35.4375 
Q 35.15625 39.890625 26.703125 39.890625 
Q 22.75 39.890625 18.8125 39.015625 
Q 14.890625 38.140625 10.796875 36.28125 
z
" id="DejaVuSans-53"/>
      </defs>
      <g transform="translate(34.5575 271.373382)scale(0.1 -0.1)">
       <use xlink:href="#DejaVuSans-50"/>
       <use x="63.623047" xlink:href="#DejaVuSans-53"/>
       <use x="127.246094" xlink:href="#DejaVuSans-48"/>
       <use x="190.869141" xlink:href="#DejaVuSans-48"/>
       <use x="254.492188" xlink:href="#DejaVuSans-48"/>
      </g>
     </g>
    </g>
    <g id="ytick_3">
     <g id="line2d_26">
      <path clip-path="url(#p8a3e064284)" d="M 73.37 235.108327 
L 439.785 235.108327 
" style="fill:none;stroke:#b0b0b0;stroke-linecap:square;stroke-width:0.8;"/>
     </g>
     <g id="line2d_27">
      <g>
       <use style="stroke:#000000;stroke-width:0.8;" x="73.37" xlink:href="#m45dbc2c8f4" y="235.108327"/>
      </g>
     </g>
     <g id="text_11">
      <!-- 50000 -->
      <g transform="translate(34.5575 238.907546)scale(0.1 -0.1)">
       <use xlink:href="#DejaVuSans-53"/>
       <use x="63.623047" xlink:href="#DejaVuSans-48"/>
       <use x="127.246094" xlink:href="#DejaVuSans-48"/>
       <use x="190.869141" xlink:href="#DejaVuSans-48"/>
       <use x="254.492188" xlink:href="#DejaVuSans-48"/>
      </g>
     </g>
    </g>
    <g id="ytick_4">
     <g id="line2d_28">
      <path clip-path="url(#p8a3e064284)" d="M 73.37 202.642491 
L 439.785 202.642491 
" style="fill:none;stroke:#b0b0b0;stroke-linecap:square;stroke-width:0.8;"/>
     </g>
     <g id="line2d_29">
      <g>
       <use style="stroke:#000000;stroke-width:0.8;" x="73.37" xlink:href="#m45dbc2c8f4" y="202.642491"/>
      </g>
     </g>
     <g id="text_12">
      <!-- 75000 -->
      <defs>
       <path d="M 8.203125 72.90625 
L 55.078125 72.90625 
L 55.078125 68.703125 
L 28.609375 0 
L 18.3125 0 
L 43.21875 64.59375 
L 8.203125 64.59375 
z
" id="DejaVuSans-55"/>
      </defs>
      <g transform="translate(34.5575 206.441709)scale(0.1 -0.1)">
       <use xlink:href="#DejaVuSans-55"/>
       <use x="63.623047" xlink:href="#DejaVuSans-53"/>
       <use x="127.246094" xlink:href="#DejaVuSans-48"/>
       <use x="190.869141" xlink:href="#DejaVuSans-48"/>
       <use x="254.492188" xlink:href="#DejaVuSans-48"/>
      </g>
     </g>
    </g>
    <g id="ytick_5">
     <g id="line2d_30">
      <path clip-path="url(#p8a3e064284)" d="M 73.37 170.176654 
L 439.785 170.176654 
" style="fill:none;stroke:#b0b0b0;stroke-linecap:square;stroke-width:0.8;"/>
     </g>
     <g id="line2d_31">
      <g>
       <use style="stroke:#000000;stroke-width:0.8;" x="73.37" xlink:href="#m45dbc2c8f4" y="170.176654"/>
      </g>
     </g>
     <g id="text_13">
      <!-- 100000 -->
      <g transform="translate(28.195 173.975873)scale(0.1 -0.1)">
       <use xlink:href="#DejaVuSans-49"/>
       <use x="63.623047" xlink:href="#DejaVuSans-48"/>
       <use x="127.246094" xlink:href="#DejaVuSans-48"/>
       <use x="190.869141" xlink:href="#DejaVuSans-48"/>
       <use x="254.492188" xlink:href="#DejaVuSans-48"/>
       <use x="318.115234" xlink:href="#DejaVuSans-48"/>
      </g>
     </g>
    </g>
    <g id="ytick_6">
     <g id="line2d_32">
      <path clip-path="url(#p8a3e064284)" d="M 73.37 137.710818 
L 439.785 137.710818 
" style="fill:none;stroke:#b0b0b0;stroke-linecap:square;stroke-width:0.8;"/>
     </g>
     <g id="line2d_33">
      <g>
       <use style="stroke:#000000;stroke-width:0.8;" x="73.37" xlink:href="#m45dbc2c8f4" y="137.710818"/>
      </g>
     </g>
     <g id="text_14">
      <!-- 125000 -->
      <g transform="translate(28.195 141.510037)scale(0.1 -0.1)">
       <use xlink:href="#DejaVuSans-49"/>
       <use x="63.623047" xlink:href="#DejaVuSans-50"/>
       <use x="127.246094" xlink:href="#DejaVuSans-53"/>
       <use x="190.869141" xlink:href="#DejaVuSans-48"/>
       <use x="254.492188" xlink:href="#DejaVuSans-48"/>
       <use x="318.115234" xlink:href="#DejaVuSans-48"/>
      </g>
     </g>
    </g>
    <g id="ytick_7">
     <g id="line2d_34">
      <path clip-path="url(#p8a3e064284)" d="M 73.37 105.244981 
L 439.785 105.244981 
" style="fill:none;stroke:#b0b0b0;stroke-linecap:square;stroke-width:0.8;"/>
     </g>
     <g id="line2d_35">
      <g>
       <use style="stroke:#000000;stroke-width:0.8;" x="73.37" xlink:href="#m45dbc2c8f4" y="105.244981"/>
      </g>
     </g>
     <g id="text_15">
      <!-- 150000 -->
      <g transform="translate(28.195 109.0442)scale(0.1 -0.1)">
       <use xlink:href="#DejaVuSans-49"/>
       <use x="63.623047" xlink:href="#DejaVuSans-53"/>
       <use x="127.246094" xlink:href="#DejaVuSans-48"/>
       <use x="190.869141" xlink:href="#DejaVuSans-48"/>
       <use x="254.492188" xlink:href="#DejaVuSans-48"/>
       <use x="318.115234" xlink:href="#DejaVuSans-48"/>
      </g>
     </g>
    </g>
    <g id="ytick_8">
     <g id="line2d_36">
      <path clip-path="url(#p8a3e064284)" d="M 73.37 72.779145 
L 439.785 72.779145 
" style="fill:none;stroke:#b0b0b0;stroke-linecap:square;stroke-width:0.8;"/>
     </g>
     <g id="line2d_37">
      <g>
       <use style="stroke:#000000;stroke-width:0.8;" x="73.37" xlink:href="#m45dbc2c8f4" y="72.779145"/>
      </g>
     </g>
     <g id="text_16">
      <!-- 175000 -->
      <g transform="translate(28.195 76.578364)scale(0.1 -0.1)">
       <use xlink:href="#DejaVuSans-49"/>
       <use x="63.623047" xlink:href="#DejaVuSans-55"/>
       <use x="127.246094" xlink:href="#DejaVuSans-53"/>
       <use x="190.869141" xlink:href="#DejaVuSans-48"/>
       <use x="254.492188" xlink:href="#DejaVuSans-48"/>
       <use x="318.115234" xlink:href="#DejaVuSans-48"/>
      </g>
     </g>
    </g>
    <g id="ytick_9">
     <g id="line2d_38">
      <path clip-path="url(#p8a3e064284)" d="M 73.37 40.313308 
L 439.785 40.313308 
" style="fill:none;stroke:#b0b0b0;stroke-linecap:square;stroke-width:0.8;"/>
     </g>
     <g id="line2d_39">
      <g>
       <use style="stroke:#000000;stroke-width:0.8;" x="73.37" xlink:href="#m45dbc2c8f4" y="40.313308"/>
      </g>
     </g>
     <g id="text_17">
      <!-- 200000 -->
      <g transform="translate(28.195 44.112527)scale(0.1 -0.1)">
       <use xlink:href="#DejaVuSans-50"/>
       <use x="63.623047" xlink:href="#DejaVuSans-48"/>
       <use x="127.246094" xlink:href="#DejaVuSans-48"/>
       <use x="190.869141" xlink:href="#DejaVuSans-48"/>
       <use x="254.492188" xlink:href="#DejaVuSans-48"/>
       <use x="318.115234" xlink:href="#DejaVuSans-48"/>
      </g>
     </g>
    </g>
    <g id="text_18">
     <!-- Peak intensity -->
     <defs>
      <path d="M 19.671875 64.796875 
L 19.671875 37.40625 
L 32.078125 37.40625 
Q 38.96875 37.40625 42.71875 40.96875 
Q 46.484375 44.53125 46.484375 51.125 
Q 46.484375 57.671875 42.71875 61.234375 
Q 38.96875 64.796875 32.078125 64.796875 
z
M 9.8125 72.90625 
L 32.078125 72.90625 
Q 44.34375 72.90625 50.609375 67.359375 
Q 56.890625 61.8125 56.890625 51.125 
Q 56.890625 40.328125 50.609375 34.8125 
Q 44.34375 29.296875 32.078125 29.296875 
L 19.671875 29.296875 
L 19.671875 0 
L 9.8125 0 
z
" id="DejaVuSans-80"/>
      <path d="M 9.078125 75.984375 
L 18.109375 75.984375 
L 18.109375 31.109375 
L 44.921875 54.6875 
L 56.390625 54.6875 
L 27.390625 29.109375 
L 57.625 0 
L 45.90625 0 
L 18.109375 26.703125 
L 18.109375 0 
L 9.078125 0 
z
" id="DejaVuSans-107"/>
      <path d="M 9.421875 54.6875 
L 18.40625 54.6875 
L 18.40625 0 
L 9.421875 0 
z
M 9.421875 75.984375 
L 18.40625 75.984375 
L 18.40625 64.59375 
L 9.421875 64.59375 
z
" id="DejaVuSans-105"/>
      <path d="M 18.3125 70.21875 
L 18.3125 54.6875 
L 36.8125 54.6875 
L 36.8125 47.703125 
L 18.3125 47.703125 
L 18.3125 18.015625 
Q 18.3125 11.328125 20.140625 9.421875 
Q 21.96875 7.515625 27.59375 7.515625 
L 36.8125 7.515625 
L 36.8125 0 
L 27.59375 0 
Q 17.1875 0 13.234375 3.875 
Q 9.28125 7.765625 9.28125 18.015625 
L 9.28125 47.703125 
L 2.6875 47.703125 
L 2.6875 54.6875 
L 9.28125 54.6875 
L 9.28125 70.21875 
z
" id="DejaVuSans-116"/>
      <path d="M 44.28125 53.078125 
L 44.28125 44.578125 
Q 40.484375 46.53125 36.375 47.5 
Q 32.28125 48.484375 27.875 48.484375 
Q 21.1875 48.484375 17.84375 46.4375 
Q 14.5 44.390625 14.5 40.28125 
Q 14.5 37.15625 16.890625 35.375 
Q 19.28125 33.59375 26.515625 31.984375 
L 29.59375 31.296875 
Q 39.15625 29.25 43.1875 25.515625 
Q 47.21875 21.78125 47.21875 15.09375 
Q 47.21875 7.46875 41.1875 3.015625 
Q 35.15625 -1.421875 24.609375 -1.421875 
Q 20.21875 -1.421875 15.453125 -0.5625 
Q 10.6875 0.296875 5.421875 2 
L 5.421875 11.28125 
Q 10.40625 8.6875 15.234375 7.390625 
Q 20.0625 6.109375 24.8125 6.109375 
Q 31.15625 6.109375 34.5625 8.28125 
Q 37.984375 10.453125 37.984375 14.40625 
Q 37.984375 18.0625 35.515625 20.015625 
Q 33.0625 21.96875 24.703125 23.78125 
L 21.578125 24.515625 
Q 13.234375 26.265625 9.515625 29.90625 
Q 5.8125 33.546875 5.8125 39.890625 
Q 5.8125 47.609375 11.28125 51.796875 
Q 16.75 56 26.8125 56 
Q 31.78125 56 36.171875 55.265625 
Q 40.578125 54.546875 44.28125 53.078125 
z
" id="DejaVuSans-115"/>
      <path d="M 32.171875 -5.078125 
Q 28.375 -14.84375 24.75 -17.8125 
Q 21.140625 -20.796875 15.09375 -20.796875 
L 7.90625 -20.796875 
L 7.90625 -13.28125 
L 13.1875 -13.28125 
Q 16.890625 -13.28125 18.9375 -11.515625 
Q 21 -9.765625 23.484375 -3.21875 
L 25.09375 0.875 
L 2.984375 54.6875 
L 12.5 54.6875 
L 29.59375 11.921875 
L 46.6875 54.6875 
L 56.203125 54.6875 
z
" id="DejaVuSans-121"/>
     </defs>
     <g transform="translate(21.20025 214.31225)rotate(-90)scale(0.144 -0.144)">
      <use xlink:href="#DejaVuSans-80"/>
      <use x="60.255859" xlink:href="#DejaVuSans-101"/>
      <use x="121.779297" xlink:href="#DejaVuSans-97"/>
      <use x="183.058594" xlink:href="#DejaVuSans-107"/>
      <use x="240.96875" xlink:href="#DejaVuSans-32"/>
      <use x="272.755859" xlink:href="#DejaVuSans-105"/>
      <use x="300.539062" xlink:href="#DejaVuSans-110"/>
      <use x="363.917969" xlink:href="#DejaVuSans-116"/>
      <use x="403.126953" xlink:href="#DejaVuSans-101"/>
      <use x="464.650391" xlink:href="#DejaVuSans-110"/>
      <use x="528.029297" xlink:href="#DejaVuSans-115"/>
      <use x="580.128906" xlink:href="#DejaVuSans-105"/>
      <use x="607.912109" xlink:href="#DejaVuSans-116"/>
      <use x="647.121094" xlink:href="#DejaVuSans-121"/>
     </g>
    </g>
   </g>
   <g id="line2d_40">
    <path clip-path="url(#p8a3e064284)" d="M 90.025227 39.879903 
L 115.648654 39.880058 
L 141.27208 39.981118 
L 166.895507 44.729052 
L 192.518934 50.646665 
L 218.14236 60.16396 
L 243.765787 68.747278 
L 269.389213 79.503859 
L 295.01264 90.70613 
L 320.636066 101.703088 
L 346.259493 114.435021 
L 371.88292 126.758793 
L 397.506346 138.656223 
L 423.129773 149.310342 
" style="fill:none;stroke:#1f77b4;stroke-linecap:square;stroke-width:1.5;"/>
   </g>
   <g id="line2d_41">
    <path clip-path="url(#p8a3e064284)" d="M 90.025227 251.070558 
L 115.648654 251.070662 
L 141.27208 251.07074 
L 166.895507 251.836544 
L 192.518934 251.815766 
L 218.14236 251.784599 
L 243.765787 251.752652 
L 269.389213 252.607803 
L 295.01264 254.039416 
L 320.636066 254.449784 
L 346.259493 256.55396 
L 371.88292 257.870255 
L 397.506346 258.736833 
L 423.129773 259.862488 
" style="fill:none;stroke:#ff7f0e;stroke-linecap:square;stroke-width:1.5;"/>
   </g>
   <g id="line2d_42">
    <path clip-path="url(#p8a3e064284)" d="M 90.025227 258.175749 
L 115.648654 258.175758 
L 141.27208 258.265559 
L 166.895507 258.903837 
L 192.518934 260.282973 
L 218.14236 261.914018 
L 243.765787 263.308555 
L 269.389213 264.717183 
L 295.01264 266.397342 
L 320.636066 266.612084 
L 346.259493 268.248557 
L 371.88292 269.108044 
L 397.506346 269.567878 
L 423.129773 270.262504 
" style="fill:none;stroke:#2ca02c;stroke-linecap:square;stroke-width:1.5;"/>
   </g>
   <g id="line2d_43">
    <path clip-path="url(#p8a3e064284)" d="M 269.389213 299.205968 
L 295.01264 294.942475 
L 320.636066 284.438581 
L 346.259493 272.625204 
L 371.88292 256.882809 
L 397.506346 239.200568 
L 423.129773 225.566566 
" style="fill:none;stroke:#d62728;stroke-linecap:square;stroke-width:1.5;"/>
   </g>
   <g id="line2d_44">
    <path clip-path="url(#p8a3e064284)" d="M 90.025227 279.793111 
L 115.648654 259.577754 
L 141.27208 259.631804 
L 166.895507 260.657888 
L 192.518934 261.65646 
L 218.14236 263.086723 
L 243.765787 264.947468 
L 269.389213 267.021409 
L 295.01264 269.042436 
L 320.636066 271.026808 
L 346.259493 273.459734 
L 371.88292 275.446822 
L 397.506346 277.201972 
L 423.129773 278.711825 
" style="fill:none;stroke:#9467bd;stroke-linecap:square;stroke-width:1.5;"/>
   </g>
   <g id="line2d_45">
    <path clip-path="url(#p8a3e064284)" d="M 90.025227 265.99214 
L 115.648654 265.996067 
L 141.27208 266.160588 
L 166.895507 267.22648 
L 192.518934 268.17186 
L 218.14236 269.651216 
L 243.765787 271.204204 
L 269.389213 272.789772 
L 295.01264 274.464014 
L 320.636066 275.897955 
L 346.259493 277.744892 
L 371.88292 279.392392 
L 397.506346 280.880801 
L 423.129773 282.191752 
" style="fill:none;stroke:#8c564b;stroke-linecap:square;stroke-width:1.5;"/>
   </g>
   <g id="line2d_46">
    <path clip-path="url(#p8a3e064284)" d="M 90.025227 272.369112 
L 115.648654 272.369147 
L 141.27208 272.372303 
L 166.895507 272.794384 
L 192.518934 272.778788 
L 218.14236 273.171443 
L 243.765787 273.720401 
L 269.389213 274.675208 
L 295.01264 275.668091 
L 320.636066 275.994009 
L 346.259493 277.174415 
L 371.88292 277.894404 
L 397.506346 278.342575 
L 423.129773 278.929077 
" style="fill:none;stroke:#e377c2;stroke-linecap:square;stroke-width:1.5;"/>
   </g>
   <g id="line2d_47">
    <path clip-path="url(#p8a3e064284)" d="M 90.025227 270.605588 
L 115.648654 270.616992 
L 141.27208 270.804722 
L 166.895507 271.905431 
L 192.518934 272.95274 
L 218.14236 274.341317 
L 243.765787 275.392301 
L 269.389213 276.25971 
L 295.01264 277.080875 
L 320.636066 277.842679 
L 346.259493 278.344874 
L 371.88292 278.985554 
L 397.506346 279.669415 
L 423.129773 280.167623 
" style="fill:none;stroke:#7f7f7f;stroke-linecap:square;stroke-width:1.5;"/>
   </g>
   <g id="line2d_48">
    <path clip-path="url(#p8a3e064284)" d="M 115.648654 291.744981 
L 141.27208 287.353371 
L 166.895507 283.208688 
L 192.518934 278.999314 
L 218.14236 275.501757 
L 243.765787 272.80798 
L 269.389213 271.057197 
L 295.01264 269.546721 
L 320.636066 267.946832 
L 346.259493 268.187846 
L 371.88292 270.712453 
L 397.506346 271.641175 
L 423.129773 272.711596 
" style="fill:none;stroke:#bcbd22;stroke-linecap:square;stroke-width:1.5;"/>
   </g>
   <g id="line2d_49">
    <path clip-path="url(#p8a3e064284)" d="M 90.025227 272.984089 
L 115.648654 273.074993 
L 141.27208 273.888353 
L 166.895507 275.102368 
L 192.518934 276.539955 
L 218.14236 277.808772 
L 243.765787 279.008835 
L 269.389213 280.099081 
L 295.01264 280.819485 
L 320.636066 281.507046 
L 346.259493 281.706305 
L 371.88292 282.14548 
L 397.506346 282.714627 
L 423.129773 283.031055 
" style="fill:none;stroke:#17becf;stroke-linecap:square;stroke-width:1.5;"/>
   </g>
   <g id="line2d_50">
    <path clip-path="url(#p8a3e064284)" d="M 90.025227 278.926119 
L 115.648654 278.926103 
L 141.27208 278.926077 
L 166.895507 279.255449 
L 192.518934 279.255943 
L 218.14236 279.25132 
L 243.765787 279.232632 
L 269.389213 279.241905 
L 295.01264 279.505631 
L 320.636066 279.511943 
L 346.259493 280.371924 
L 371.88292 280.985268 
L 397.506346 281.415596 
L 423.129773 281.97223 
" style="fill:none;stroke:#1f77b4;stroke-linecap:square;stroke-width:1.5;"/>
   </g>
   <g id="line2d_51">
    <path clip-path="url(#p8a3e064284)" d="M 90.025227 279.82273 
" style="fill:none;stroke:#ff7f0e;stroke-linecap:square;stroke-width:1.5;"/>
   </g>
   <g id="line2d_52">
    <path clip-path="url(#p8a3e064284)" d="M 90.025227 279.955854 
L 115.648654 279.955789 
L 141.27208 279.955802 
L 166.895507 280.269098 
L 192.518934 280.269098 
L 218.14236 280.269111 
L 243.765787 280.263033 
L 269.389213 280.263033 
L 295.01264 280.263033 
L 320.636066 280.021072 
L 346.259493 279.97623 
L 371.88292 279.970945 
L 397.506346 279.844523 
L 423.129773 279.86869 
" style="fill:none;stroke:#2ca02c;stroke-linecap:square;stroke-width:1.5;"/>
   </g>
   <g id="line2d_53">
    <path clip-path="url(#p8a3e064284)" d="M 90.025227 276.640434 
L 115.648654 276.655559 
L 141.27208 276.69831 
L 166.895507 277.383495 
L 192.518934 278.0662 
L 218.14236 279.087588 
L 243.765787 280.149779 
L 269.389213 281.002163 
L 295.01264 281.721321 
L 320.636066 282.558342 
L 346.259493 282.848837 
L 371.88292 283.326034 
L 397.506346 283.876699 
L 423.129773 284.222278 
" style="fill:none;stroke:#d62728;stroke-linecap:square;stroke-width:1.5;"/>
   </g>
   <g id="line2d_54">
    <path clip-path="url(#p8a3e064284)" d="M 90.025227 279.030561 
L 115.648654 279.030578 
L 141.27208 279.030604 
L 166.895507 279.357509 
L 192.518934 279.348847 
L 218.14236 279.341899 
L 243.765787 279.611288 
L 269.389213 280.062433 
L 295.01264 280.716568 
L 320.636066 280.945751 
L 346.259493 281.893156 
L 371.88292 282.482878 
L 397.506346 282.865923 
L 423.129773 283.351143 
" style="fill:none;stroke:#9467bd;stroke-linecap:square;stroke-width:1.5;"/>
   </g>
   <g id="line2d_55">
    <path clip-path="url(#p8a3e064284)" d="M 90.025227 280.487702 
L 115.648654 280.487684 
L 141.27208 280.48771 
L 166.895507 280.792707 
L 192.518934 280.782733 
L 218.14236 280.767656 
L 243.765787 280.75602 
L 269.389213 280.83938 
L 295.01264 281.135624 
L 320.636066 281.500085 
L 346.259493 281.906921 
L 371.88292 282.484774 
L 397.506346 283.051459 
L 423.129773 283.539849 
" style="fill:none;stroke:#8c564b;stroke-linecap:square;stroke-width:1.5;"/>
   </g>
   <g id="line2d_56">
    <path clip-path="url(#p8a3e064284)" d="M 243.765787 299.510061 
L 269.389213 295.118114 
L 295.01264 289.767991 
L 320.636066 283.355027 
L 346.259493 279.292902 
L 371.88292 274.464972 
L 397.506346 269.534061 
L 423.129773 265.527647 
" style="fill:none;stroke:#e377c2;stroke-linecap:square;stroke-width:1.5;"/>
   </g>
   <g id="line2d_57">
    <path clip-path="url(#p8a3e064284)" d="M 90.025227 276.146483 
L 115.648654 278.323541 
L 141.27208 280.381079 
L 166.895507 282.092548 
L 192.518934 283.041784 
L 218.14236 283.767805 
L 243.765787 284.129364 
L 269.389213 283.645025 
L 295.01264 283.954905 
L 320.636066 283.62665 
L 346.259493 284.380675 
L 371.88292 284.565094 
L 397.506346 284.551939 
L 423.129773 284.695607 
" style="fill:none;stroke:#7f7f7f;stroke-linecap:square;stroke-width:1.5;"/>
   </g>
   <g id="line2d_58">
    <path clip-path="url(#p8a3e064284)" d="M 90.025227 283.06407 
L 115.648654 283.202151 
L 141.27208 283.292042 
L 166.895507 282.582917 
L 192.518934 282.830126 
L 218.14236 283.111684 
L 243.765787 283.258851 
L 269.389213 283.279213 
L 295.01264 283.148714 
L 320.636066 283.323678 
L 346.259493 283.08173 
L 371.88292 283.109884 
L 397.506346 283.356278 
L 423.129773 283.365505 
" style="fill:none;stroke:#bcbd22;stroke-linecap:square;stroke-width:1.5;"/>
   </g>
   <g id="line2d_59">
    <path clip-path="url(#p8a3e064284)" d="M 90.025227 280.023317 
L 115.648654 280.023292 
L 141.27208 280.023318 
L 166.895507 280.32203 
L 192.518934 280.304278 
L 218.14236 280.292097 
L 243.765787 280.559212 
L 269.389213 281.002527 
L 295.01264 281.675094 
L 320.636066 282.259305 
L 346.259493 282.683686 
L 371.88292 283.237917 
L 397.506346 297.265736 
L 423.129773 297.472187 
" style="fill:none;stroke:#17becf;stroke-linecap:square;stroke-width:1.5;"/>
   </g>
   <g id="line2d_60">
    <path clip-path="url(#p8a3e064284)" d="M 141.27208 294.147089 
L 166.895507 290.454793 
L 192.518934 286.878951 
L 218.14236 283.279903 
L 243.765787 280.008188 
L 269.389213 277.621474 
L 295.01264 280.380872 
L 320.636066 280.840912 
L 346.259493 281.609795 
L 371.88292 282.363076 
L 397.506346 282.290026 
L 423.129773 283.429945 
" style="fill:none;stroke:#1f77b4;stroke-linecap:square;stroke-width:1.5;"/>
   </g>
   <g id="line2d_61">
    <path clip-path="url(#p8a3e064284)" d="M 90.025227 281.36123 
L 115.648654 281.361236 
L 141.27208 281.404155 
L 166.895507 281.596158 
L 192.518934 281.904843 
L 218.14236 282.607209 
L 243.765787 283.490033 
L 269.389213 284.17353 
L 295.01264 284.77194 
L 320.636066 285.3266 
L 346.259493 285.575509 
L 371.88292 285.985526 
L 397.506346 286.455411 
L 423.129773 286.76333 
" style="fill:none;stroke:#ff7f0e;stroke-linecap:square;stroke-width:1.5;"/>
   </g>
   <g id="line2d_62">
    <path clip-path="url(#p8a3e064284)" d="M 115.648654 299.66909 
L 141.27208 297.71411 
L 166.895507 294.87131 
L 192.518934 291.453398 
L 218.14236 287.769725 
L 243.765787 284.527468 
L 269.389213 281.804186 
L 295.01264 279.549506 
L 320.636066 277.07003 
L 346.259493 276.298551 
L 371.88292 275.629028 
L 397.506346 275.215113 
L 423.129773 276.22438 
" style="fill:none;stroke:#2ca02c;stroke-linecap:square;stroke-width:1.5;"/>
   </g>
   <g id="line2d_63">
    <path clip-path="url(#p8a3e064284)" d="M 218.14236 268.852193 
L 243.765787 271.822207 
L 269.389213 273.732276 
L 295.01264 276.018845 
L 320.636066 292.987874 
L 346.259493 296.840088 
L 371.88292 296.473643 
L 397.506346 296.977551 
L 423.129773 293.34383 
" style="fill:none;stroke:#d62728;stroke-linecap:square;stroke-width:1.5;"/>
   </g>
   <g id="line2d_64">
    <path clip-path="url(#p8a3e064284)" d="M 90.025227 285.224214 
L 115.648654 285.224216 
L 141.27208 285.224203 
L 166.895507 285.455333 
L 192.518934 285.455346 
L 218.14236 285.455346 
L 243.765787 285.447256 
L 269.389213 285.436555 
L 295.01264 285.416076 
L 320.636066 285.326301 
L 346.259493 285.222904 
L 371.88292 285.286199 
L 397.506346 285.568185 
L 423.129773 285.899466 
" style="fill:none;stroke:#9467bd;stroke-linecap:square;stroke-width:1.5;"/>
   </g>
   <g id="line2d_65">
    <path clip-path="url(#p8a3e064284)" d="M 90.025227 279.656805 
L 115.648654 283.186205 
L 141.27208 284.988591 
L 166.895507 285.422699 
L 192.518934 286.232955 
L 218.14236 286.794341 
L 243.765787 287.300237 
L 269.389213 287.588793 
L 295.01264 287.811717 
L 320.636066 288.06554 
L 346.259493 288.003653 
L 371.88292 288.123868 
L 397.506346 288.371723 
L 423.129773 288.44563 
" style="fill:none;stroke:#8c564b;stroke-linecap:square;stroke-width:1.5;"/>
   </g>
   <g id="line2d_66">
    <path clip-path="url(#p8a3e064284)" d="M 90.025227 286.640637 
L 115.648654 286.615706 
L 141.27208 286.591623 
L 166.895507 286.711795 
L 192.518934 286.627651 
L 218.14236 286.590701 
L 243.765787 286.458642 
L 269.389213 286.451291 
L 295.01264 286.442706 
L 320.636066 286.026445 
L 346.259493 286.32405 
L 371.88292 286.306703 
L 397.506346 286.181494 
L 423.129773 295.406216 
" style="fill:none;stroke:#e377c2;stroke-linecap:square;stroke-width:1.5;"/>
   </g>
   <g id="line2d_67">
    <path clip-path="url(#p8a3e064284)" d="M 295.01264 290.593317 
L 320.636066 290.802927 
L 346.259493 291.161938 
L 371.88292 283.072301 
L 397.506346 283.961374 
L 423.129773 284.65376 
" style="fill:none;stroke:#7f7f7f;stroke-linecap:square;stroke-width:1.5;"/>
   </g>
   <g id="line2d_68">
    <path clip-path="url(#p8a3e064284)" d="M 90.025227 283.158769 
L 115.648654 283.710914 
L 141.27208 284.577344 
L 166.895507 285.733373 
L 192.518934 286.590635 
L 218.14236 287.342733 
L 243.765787 287.90717 
L 269.389213 288.366153 
L 295.01264 288.746741 
L 320.636066 288.84951 
L 346.259493 289.328865 
L 371.88292 289.710675 
L 397.506346 290.251978 
L 423.129773 290.746965 
" style="fill:none;stroke:#bcbd22;stroke-linecap:square;stroke-width:1.5;"/>
   </g>
   <g id="line2d_69">
    <path clip-path="url(#p8a3e064284)" d="M 90.025227 287.449814 
L 115.648654 287.449853 
L 141.27208 287.44984 
L 166.895507 287.646206 
L 192.518934 287.646232 
L 218.14236 287.646206 
L 243.765787 287.642531 
L 269.389213 287.642959 
L 295.01264 287.639998 
L 320.636066 287.454696 
L 346.259493 287.465345 
L 371.88292 287.488253 
L 397.506346 287.513018 
L 423.129773 287.741707 
" style="fill:none;stroke:#17becf;stroke-linecap:square;stroke-width:1.5;"/>
   </g>
   <g id="line2d_70">
    <path clip-path="url(#p8a3e064284)" d="M 166.895507 299.700436 
L 192.518934 298.099368 
L 218.14236 295.62739 
L 243.765787 292.45143 
L 269.389213 289.141363 
L 295.01264 286.094647 
L 320.636066 282.872235 
L 346.259493 281.252917 
L 371.88292 280.35466 
L 397.506346 279.927419 
L 423.129773 280.117156 
" style="fill:none;stroke:#1f77b4;stroke-linecap:square;stroke-width:1.5;"/>
   </g>
   <g id="line2d_71">
    <path clip-path="url(#p8a3e064284)" d="M 90.025227 283.059562 
L 115.648654 283.35369 
L 141.27208 284.223631 
L 166.895507 285.109377 
L 192.518934 286.040434 
L 218.14236 286.980708 
L 243.765787 287.67875 
L 269.389213 288.165737 
L 295.01264 288.560335 
L 320.636066 288.94917 
L 346.259493 289.034041 
L 371.88292 289.27059 
L 397.506346 289.602054 
L 423.129773 298.980619 
" style="fill:none;stroke:#ff7f0e;stroke-linecap:square;stroke-width:1.5;"/>
   </g>
   <g id="line2d_72">
    <path clip-path="url(#p8a3e064284)" d="M 269.389213 297.568036 
L 295.01264 294.658262 
L 320.636066 290.898071 
L 346.259493 288.226989 
L 371.88292 284.279304 
L 397.506346 280.992285 
L 423.129773 278.312725 
" style="fill:none;stroke:#2ca02c;stroke-linecap:square;stroke-width:1.5;"/>
   </g>
   <g id="line2d_73">
    <path clip-path="url(#p8a3e064284)" d="M 90.025227 287.958618 
L 115.648654 287.958618 
L 141.27208 287.958618 
L 166.895507 288.147089 
L 192.518934 288.147089 
L 218.14236 288.147089 
L 243.765787 288.143453 
L 269.389213 288.143453 
L 295.01264 288.143453 
L 320.636066 287.997863 
L 346.259493 287.967916 
L 371.88292 287.96028 
L 397.506346 287.89979 
L 423.129773 287.915542 
" style="fill:none;stroke:#d62728;stroke-linecap:square;stroke-width:1.5;"/>
   </g>
   <g id="line2d_74">
    <path clip-path="url(#p8a3e064284)" d="M 90.025227 284.12039 
L 115.648654 284.129909 
L 141.27208 284.178816 
L 166.895507 284.466255 
L 192.518934 285.292654 
L 218.14236 286.161673 
L 243.765787 287.011291 
L 269.389213 287.633583 
L 295.01264 288.147973 
L 320.636066 288.613062 
L 346.259493 288.780517 
L 371.88292 289.091273 
L 397.506346 298.829848 
L 423.129773 298.933766 
" style="fill:none;stroke:#9467bd;stroke-linecap:square;stroke-width:1.5;"/>
   </g>
   <g id="line2d_75">
    <path clip-path="url(#p8a3e064284)" d="M 90.025227 286.378616 
L 115.648654 287.12571 
L 141.27208 287.747328 
L 166.895507 288.378486 
L 192.518934 288.624128 
L 218.14236 288.557782 
L 243.765787 288.466847 
L 269.389213 288.557783 
L 295.01264 288.629764 
L 320.636066 288.215383 
L 346.259493 288.708145 
L 371.88292 288.742659 
L 397.506346 288.639028 
L 423.129773 288.669443 
" style="fill:none;stroke:#8c564b;stroke-linecap:square;stroke-width:1.5;"/>
   </g>
   <g id="line2d_76">
    <path clip-path="url(#p8a3e064284)" d="M 90.025227 288.666116 
L 115.648654 288.666116 
L 141.27208 288.66614 
L 166.895507 288.843234 
L 192.518934 288.836429 
L 218.14236 288.830884 
L 243.765787 288.851481 
L 269.389213 289.109039 
L 295.01264 289.449865 
L 320.636066 289.569118 
L 346.259493 290.000693 
L 371.88292 290.296989 
L 397.506346 290.521497 
L 423.129773 290.774978 
" style="fill:none;stroke:#e377c2;stroke-linecap:square;stroke-width:1.5;"/>
   </g>
   <g id="line2d_77">
    <path clip-path="url(#p8a3e064284)" d="M 90.025227 289.712527 
L 115.648654 289.712501 
L 141.27208 289.712501 
L 166.895507 289.873596 
L 192.518934 289.873622 
L 218.14236 289.873622 
L 243.765787 289.870531 
L 269.389213 289.870531 
L 295.01264 289.870856 
L 320.636066 289.72771 
L 346.259493 289.722222 
L 371.88292 289.721657 
L 397.506346 289.667705 
L 423.129773 289.680141 
" style="fill:none;stroke:#7f7f7f;stroke-linecap:square;stroke-width:1.5;"/>
   </g>
   <g id="line2d_78">
    <path clip-path="url(#p8a3e064284)" d="M 166.895507 299.50144 
L 192.518934 297.844829 
L 218.14236 295.300884 
L 243.765787 292.588143 
L 269.389213 290.609051 
L 295.01264 288.874116 
L 320.636066 287.495136 
L 346.259493 285.885383 
L 371.88292 284.501336 
L 397.506346 283.445249 
L 423.129773 282.265819 
" style="fill:none;stroke:#bcbd22;stroke-linecap:square;stroke-width:1.5;"/>
   </g>
   <g id="line2d_79">
    <path clip-path="url(#p8a3e064284)" d="M 295.01264 290.178043 
L 320.636066 290.313424 
L 346.259493 290.696657 
" style="fill:none;stroke:#17becf;stroke-linecap:square;stroke-width:1.5;"/>
   </g>
   <g id="line2d_80">
    <path clip-path="url(#p8a3e064284)" d="M 115.648654 284.120637 
L 141.27208 284.950924 
L 166.895507 285.986582 
L 192.518934 287.14511 
L 218.14236 288.317218 
L 243.765787 289.402103 
L 269.389213 290.430968 
L 295.01264 290.841401 
L 320.636066 291.369208 
L 346.259493 291.981963 
L 371.88292 296.465875 
L 397.506346 298.777507 
L 423.129773 298.540756 
" style="fill:none;stroke:#1f77b4;stroke-linecap:square;stroke-width:1.5;"/>
   </g>
   <g id="line2d_81">
    <path clip-path="url(#p8a3e064284)" d="M 90.025227 290.698123 
L 115.648654 290.698124 
L 141.27208 290.698137 
L 166.895507 290.843844 
L 192.518934 290.843844 
L 218.14236 290.843844 
L 243.765787 290.841052 
L 269.389213 290.841052 
L 295.01264 290.840052 
L 320.636066 290.738803 
L 346.259493 290.692301 
L 371.88292 290.69004 
L 397.506346 290.682165 
L 423.129773 290.700857 
" style="fill:none;stroke:#ff7f0e;stroke-linecap:square;stroke-width:1.5;"/>
   </g>
   <g id="line2d_82">
    <path clip-path="url(#p8a3e064284)" d="M 90.025227 288.926669 
L 115.648654 288.926669 
L 141.27208 288.926671 
L 166.895507 289.095624 
L 192.518934 289.082806 
L 218.14236 289.07582 
L 243.765787 289.223344 
L 269.389213 289.49517 
L 295.01264 289.819598 
L 320.636066 290.132423 
L 346.259493 290.371213 
L 371.88292 290.675336 
L 397.506346 298.488685 
L 423.129773 298.602375 
" style="fill:none;stroke:#2ca02c;stroke-linecap:square;stroke-width:1.5;"/>
   </g>
   <g id="line2d_83">
    <path clip-path="url(#p8a3e064284)" d="M 90.025227 288.906867 
L 115.648654 288.915685 
L 141.27208 288.945839 
L 166.895507 289.38057 
L 192.518934 290.058249 
L 218.14236 290.665386 
L 243.765787 291.077962 
L 269.389213 291.502329 
L 295.01264 291.84961 
L 320.636066 291.841844 
L 346.259493 292.324585 
L 371.88292 292.530912 
L 397.506346 292.618453 
L 423.129773 292.775457 
" style="fill:none;stroke:#d62728;stroke-linecap:square;stroke-width:1.5;"/>
   </g>
   <g id="line2d_84">
    <path clip-path="url(#p8a3e064284)" d="M 141.27208 294.278363 
L 166.895507 292.905251 
L 192.518934 291.454517 
L 218.14236 289.835839 
L 243.765787 289.327174 
L 269.389213 289.304786 
L 295.01264 288.639372 
L 320.636066 288.895622 
L 346.259493 289.439279 
L 371.88292 290.180645 
L 397.506346 298.114634 
L 423.129773 295.782843 
" style="fill:none;stroke:#9467bd;stroke-linecap:square;stroke-width:1.5;"/>
   </g>
   <g id="line2d_85">
    <path clip-path="url(#p8a3e064284)" d="M 115.648654 299.877953 
L 141.27208 298.277297 
L 166.895507 296.076142 
L 192.518934 294.093324 
L 218.14236 292.553235 
L 243.765787 291.097727 
L 269.389213 290.169074 
L 295.01264 289.424295 
L 320.636066 288.202086 
L 346.259493 288.325508 
L 371.88292 287.898972 
L 397.506346 287.368896 
L 423.129773 287.063912 
" style="fill:none;stroke:#8c564b;stroke-linecap:square;stroke-width:1.5;"/>
   </g>
   <g id="line2d_86">
    <path clip-path="url(#p8a3e064284)" d="M 90.025227 291.629985 
L 115.648654 291.629998 
L 141.27208 291.629998 
L 166.895507 291.761173 
L 192.518934 291.761186 
L 218.14236 291.761186 
L 243.765787 291.758653 
L 269.389213 291.756628 
L 295.01264 291.750316 
L 320.636066 291.684995 
L 346.259493 291.623673 
L 371.88292 291.628608 
L 397.506346 291.6938 
L 423.129773 291.866193 
" style="fill:none;stroke:#e377c2;stroke-linecap:square;stroke-width:1.5;"/>
   </g>
   <g id="line2d_87">
    <path clip-path="url(#p8a3e064284)" d="M 397.506346 291.606272 
L 423.129773 291.841974 
" style="fill:none;stroke:#7f7f7f;stroke-linecap:square;stroke-width:1.5;"/>
   </g>
   <g id="line2d_88">
    <path clip-path="url(#p8a3e064284)" d="M 90.025227 288.987802 
L 115.648654 288.987801 
L 141.27208 288.987811 
L 166.895507 289.160205 
L 192.518934 289.160179 
L 218.14236 289.160049 
L 243.765787 289.155239 
L 269.389213 289.152199 
L 295.01264 289.194607 
L 320.636066 289.118903 
L 346.259493 298.194182 
L 371.88292 298.193903 
L 397.506346 298.208345 
L 423.129773 298.675257 
" style="fill:none;stroke:#bcbd22;stroke-linecap:square;stroke-width:1.5;"/>
   </g>
   <g id="line2d_89">
    <path clip-path="url(#p8a3e064284)" d="M 90.025227 288.76682 
L 115.648654 288.781788 
L 141.27208 288.956195 
L 166.895507 289.404095 
L 192.518934 289.851961 
L 218.14236 290.315635 
L 243.765787 290.816328 
L 269.389213 291.278682 
L 295.01264 291.899508 
L 320.636066 292.31645 
L 346.259493 292.80965 
L 371.88292 293.286674 
L 397.506346 299.183579 
L 423.129773 298.532892 
" style="fill:none;stroke:#17becf;stroke-linecap:square;stroke-width:1.5;"/>
   </g>
   <g id="patch_3">
    <path d="M 73.37 300.04 
L 73.37 26.88 
" style="fill:none;stroke:#000000;stroke-linecap:square;stroke-linejoin:miter;stroke-width:0.8;"/>
   </g>
   <g id="patch_4">
    <path d="M 439.785 300.04 
L 439.785 26.88 
" style="fill:none;stroke:#000000;stroke-linecap:square;stroke-linejoin:miter;stroke-width:0.8;"/>
   </g>
   <g id="patch_5">
    <path d="M 73.37 300.04 
L 439.785 300.04 
" style="fill:none;stroke:#000000;stroke-linecap:square;stroke-linejoin:miter;stroke-width:0.8;"/>
   </g>
   <g id="patch_6">
    <path d="M 73.37 26.88 
L 439.785 26.88 
" style="fill:none;stroke:#000000;stroke-linecap:square;stroke-linejoin:miter;stroke-width:0.8;"/>
   </g>
   <g id="text_19">
    <!-- Highest peaks with increasing mosaicity at theta=351 degrees -->
    <defs>
     <path d="M 9.8125 72.90625 
L 19.671875 72.90625 
L 19.671875 43.015625 
L 55.515625 43.015625 
L 55.515625 72.90625 
L 65.375 72.90625 
L 65.375 0 
L 55.515625 0 
L 55.515625 34.71875 
L 19.671875 34.71875 
L 19.671875 0 
L 9.8125 0 
z
" id="DejaVuSans-72"/>
     <path d="M 45.40625 27.984375 
Q 45.40625 37.75 41.375 43.109375 
Q 37.359375 48.484375 30.078125 48.484375 
Q 22.859375 48.484375 18.828125 43.109375 
Q 14.796875 37.75 14.796875 27.984375 
Q 14.796875 18.265625 18.828125 12.890625 
Q 22.859375 7.515625 30.078125 7.515625 
Q 37.359375 7.515625 41.375 12.890625 
Q 45.40625 18.265625 45.40625 27.984375 
z
M 54.390625 6.78125 
Q 54.390625 -7.171875 48.1875 -13.984375 
Q 42 -20.796875 29.203125 -20.796875 
Q 24.46875 -20.796875 20.265625 -20.09375 
Q 16.0625 -19.390625 12.109375 -17.921875 
L 12.109375 -9.1875 
Q 16.0625 -11.328125 19.921875 -12.34375 
Q 23.78125 -13.375 27.78125 -13.375 
Q 36.625 -13.375 41.015625 -8.765625 
Q 45.40625 -4.15625 45.40625 5.171875 
L 45.40625 9.625 
Q 42.625 4.78125 38.28125 2.390625 
Q 33.9375 0 27.875 0 
Q 17.828125 0 11.671875 7.65625 
Q 5.515625 15.328125 5.515625 27.984375 
Q 5.515625 40.671875 11.671875 48.328125 
Q 17.828125 56 27.875 56 
Q 33.9375 56 38.28125 53.609375 
Q 42.625 51.21875 45.40625 46.390625 
L 45.40625 54.6875 
L 54.390625 54.6875 
z
" id="DejaVuSans-103"/>
     <path d="M 54.890625 33.015625 
L 54.890625 0 
L 45.90625 0 
L 45.90625 32.71875 
Q 45.90625 40.484375 42.875 44.328125 
Q 39.84375 48.1875 33.796875 48.1875 
Q 26.515625 48.1875 22.3125 43.546875 
Q 18.109375 38.921875 18.109375 30.90625 
L 18.109375 0 
L 9.078125 0 
L 9.078125 75.984375 
L 18.109375 75.984375 
L 18.109375 46.1875 
Q 21.34375 51.125 25.703125 53.5625 
Q 30.078125 56 35.796875 56 
Q 45.21875 56 50.046875 50.171875 
Q 54.890625 44.34375 54.890625 33.015625 
z
" id="DejaVuSans-104"/>
     <path d="M 18.109375 8.203125 
L 18.109375 -20.796875 
L 9.078125 -20.796875 
L 9.078125 54.6875 
L 18.109375 54.6875 
L 18.109375 46.390625 
Q 20.953125 51.265625 25.265625 53.625 
Q 29.59375 56 35.59375 56 
Q 45.5625 56 51.78125 48.09375 
Q 58.015625 40.1875 58.015625 27.296875 
Q 58.015625 14.40625 51.78125 6.484375 
Q 45.5625 -1.421875 35.59375 -1.421875 
Q 29.59375 -1.421875 25.265625 0.953125 
Q 20.953125 3.328125 18.109375 8.203125 
z
M 48.6875 27.296875 
Q 48.6875 37.203125 44.609375 42.84375 
Q 40.53125 48.484375 33.40625 48.484375 
Q 26.265625 48.484375 22.1875 42.84375 
Q 18.109375 37.203125 18.109375 27.296875 
Q 18.109375 17.390625 22.1875 11.75 
Q 26.265625 6.109375 33.40625 6.109375 
Q 40.53125 6.109375 44.609375 11.75 
Q 48.6875 17.390625 48.6875 27.296875 
z
" id="DejaVuSans-112"/>
     <path d="M 4.203125 54.6875 
L 13.1875 54.6875 
L 24.421875 12.015625 
L 35.59375 54.6875 
L 46.1875 54.6875 
L 57.421875 12.015625 
L 68.609375 54.6875 
L 77.59375 54.6875 
L 63.28125 0 
L 52.6875 0 
L 40.921875 44.828125 
L 29.109375 0 
L 18.5 0 
z
" id="DejaVuSans-119"/>
     <path d="M 48.78125 52.59375 
L 48.78125 44.1875 
Q 44.96875 46.296875 41.140625 47.34375 
Q 37.3125 48.390625 33.40625 48.390625 
Q 24.65625 48.390625 19.8125 42.84375 
Q 14.984375 37.3125 14.984375 27.296875 
Q 14.984375 17.28125 19.8125 11.734375 
Q 24.65625 6.203125 33.40625 6.203125 
Q 37.3125 6.203125 41.140625 7.25 
Q 44.96875 8.296875 48.78125 10.40625 
L 48.78125 2.09375 
Q 45.015625 0.34375 40.984375 -0.53125 
Q 36.96875 -1.421875 32.421875 -1.421875 
Q 20.0625 -1.421875 12.78125 6.34375 
Q 5.515625 14.109375 5.515625 27.296875 
Q 5.515625 40.671875 12.859375 48.328125 
Q 20.21875 56 33.015625 56 
Q 37.15625 56 41.109375 55.140625 
Q 45.0625 54.296875 48.78125 52.59375 
z
" id="DejaVuSans-99"/>
     <path d="M 30.609375 48.390625 
Q 23.390625 48.390625 19.1875 42.75 
Q 14.984375 37.109375 14.984375 27.296875 
Q 14.984375 17.484375 19.15625 11.84375 
Q 23.34375 6.203125 30.609375 6.203125 
Q 37.796875 6.203125 41.984375 11.859375 
Q 46.1875 17.53125 46.1875 27.296875 
Q 46.1875 37.015625 41.984375 42.703125 
Q 37.796875 48.390625 30.609375 48.390625 
z
M 30.609375 56 
Q 42.328125 56 49.015625 48.375 
Q 55.71875 40.765625 55.71875 27.296875 
Q 55.71875 13.875 49.015625 6.21875 
Q 42.328125 -1.421875 30.609375 -1.421875 
Q 18.84375 -1.421875 12.171875 6.21875 
Q 5.515625 13.875 5.515625 27.296875 
Q 5.515625 40.765625 12.171875 48.375 
Q 18.84375 56 30.609375 56 
z
" id="DejaVuSans-111"/>
     <path d="M 10.59375 45.40625 
L 73.1875 45.40625 
L 73.1875 37.203125 
L 10.59375 37.203125 
z
M 10.59375 25.484375 
L 73.1875 25.484375 
L 73.1875 17.1875 
L 10.59375 17.1875 
z
" id="DejaVuSans-61"/>
     <path d="M 40.578125 39.3125 
Q 47.65625 37.796875 51.625 33 
Q 55.609375 28.21875 55.609375 21.1875 
Q 55.609375 10.40625 48.1875 4.484375 
Q 40.765625 -1.421875 27.09375 -1.421875 
Q 22.515625 -1.421875 17.65625 -0.515625 
Q 12.796875 0.390625 7.625 2.203125 
L 7.625 11.71875 
Q 11.71875 9.328125 16.59375 8.109375 
Q 21.484375 6.890625 26.8125 6.890625 
Q 36.078125 6.890625 40.9375 10.546875 
Q 45.796875 14.203125 45.796875 21.1875 
Q 45.796875 27.640625 41.28125 31.265625 
Q 36.765625 34.90625 28.71875 34.90625 
L 20.21875 34.90625 
L 20.21875 43.015625 
L 29.109375 43.015625 
Q 36.375 43.015625 40.234375 45.921875 
Q 44.09375 48.828125 44.09375 54.296875 
Q 44.09375 59.90625 40.109375 62.90625 
Q 36.140625 65.921875 28.71875 65.921875 
Q 24.65625 65.921875 20.015625 65.03125 
Q 15.375 64.15625 9.8125 62.3125 
L 9.8125 71.09375 
Q 15.4375 72.65625 20.34375 73.4375 
Q 25.25 74.21875 29.59375 74.21875 
Q 40.828125 74.21875 47.359375 69.109375 
Q 53.90625 64.015625 53.90625 55.328125 
Q 53.90625 49.265625 50.4375 45.09375 
Q 46.96875 40.921875 40.578125 39.3125 
z
" id="DejaVuSans-51"/>
     <path d="M 45.40625 46.390625 
L 45.40625 75.984375 
L 54.390625 75.984375 
L 54.390625 0 
L 45.40625 0 
L 45.40625 8.203125 
Q 42.578125 3.328125 38.25 0.953125 
Q 33.9375 -1.421875 27.875 -1.421875 
Q 17.96875 -1.421875 11.734375 6.484375 
Q 5.515625 14.40625 5.515625 27.296875 
Q 5.515625 40.1875 11.734375 48.09375 
Q 17.96875 56 27.875 56 
Q 33.9375 56 38.25 53.625 
Q 42.578125 51.265625 45.40625 46.390625 
z
M 14.796875 27.296875 
Q 14.796875 17.390625 18.875 11.75 
Q 22.953125 6.109375 30.078125 6.109375 
Q 37.203125 6.109375 41.296875 11.75 
Q 45.40625 17.390625 45.40625 27.296875 
Q 45.40625 37.203125 41.296875 42.84375 
Q 37.203125 48.484375 30.078125 48.484375 
Q 22.953125 48.484375 18.875 42.84375 
Q 14.796875 37.203125 14.796875 27.296875 
z
" id="DejaVuSans-100"/>
    </defs>
    <g transform="translate(67.233437 20.88)scale(0.12 -0.12)">
     <use xlink:href="#DejaVuSans-72"/>
     <use x="75.195312" xlink:href="#DejaVuSans-105"/>
     <use x="102.978516" xlink:href="#DejaVuSans-103"/>
     <use x="166.455078" xlink:href="#DejaVuSans-104"/>
     <use x="229.833984" xlink:href="#DejaVuSans-101"/>
     <use x="291.357422" xlink:href="#DejaVuSans-115"/>
     <use x="343.457031" xlink:href="#DejaVuSans-116"/>
     <use x="382.666016" xlink:href="#DejaVuSans-32"/>
     <use x="414.453125" xlink:href="#DejaVuSans-112"/>
     <use x="477.929688" xlink:href="#DejaVuSans-101"/>
     <use x="539.453125" xlink:href="#DejaVuSans-97"/>
     <use x="600.732422" xlink:href="#DejaVuSans-107"/>
     <use x="658.642578" xlink:href="#DejaVuSans-115"/>
     <use x="710.742188" xlink:href="#DejaVuSans-32"/>
     <use x="742.529297" xlink:href="#DejaVuSans-119"/>
     <use x="824.316406" xlink:href="#DejaVuSans-105"/>
     <use x="852.099609" xlink:href="#DejaVuSans-116"/>
     <use x="891.308594" xlink:href="#DejaVuSans-104"/>
     <use x="954.6875" xlink:href="#DejaVuSans-32"/>
     <use x="986.474609" xlink:href="#DejaVuSans-105"/>
     <use x="1014.257812" xlink:href="#DejaVuSans-110"/>
     <use x="1077.636719" xlink:href="#DejaVuSans-99"/>
     <use x="1132.617188" xlink:href="#DejaVuSans-114"/>
     <use x="1173.699219" xlink:href="#DejaVuSans-101"/>
     <use x="1235.222656" xlink:href="#DejaVuSans-97"/>
     <use x="1296.501953" xlink:href="#DejaVuSans-115"/>
     <use x="1348.601562" xlink:href="#DejaVuSans-105"/>
     <use x="1376.384766" xlink:href="#DejaVuSans-110"/>
     <use x="1439.763672" xlink:href="#DejaVuSans-103"/>
     <use x="1503.240234" xlink:href="#DejaVuSans-32"/>
     <use x="1535.027344" xlink:href="#DejaVuSans-109"/>
     <use x="1632.439453" xlink:href="#DejaVuSans-111"/>
     <use x="1693.621094" xlink:href="#DejaVuSans-115"/>
     <use x="1745.720703" xlink:href="#DejaVuSans-97"/>
     <use x="1807" xlink:href="#DejaVuSans-105"/>
     <use x="1834.783203" xlink:href="#DejaVuSans-99"/>
     <use x="1889.763672" xlink:href="#DejaVuSans-105"/>
     <use x="1917.546875" xlink:href="#DejaVuSans-116"/>
     <use x="1956.755859" xlink:href="#DejaVuSans-121"/>
     <use x="2015.935547" xlink:href="#DejaVuSans-32"/>
     <use x="2047.722656" xlink:href="#DejaVuSans-97"/>
     <use x="2109.001953" xlink:href="#DejaVuSans-116"/>
     <use x="2148.210938" xlink:href="#DejaVuSans-32"/>
     <use x="2179.998047" xlink:href="#DejaVuSans-116"/>
     <use x="2219.207031" xlink:href="#DejaVuSans-104"/>
     <use x="2282.585938" xlink:href="#DejaVuSans-101"/>
     <use x="2344.109375" xlink:href="#DejaVuSans-116"/>
     <use x="2383.318359" xlink:href="#DejaVuSans-97"/>
     <use x="2444.597656" xlink:href="#DejaVuSans-61"/>
     <use x="2528.386719" xlink:href="#DejaVuSans-51"/>
     <use x="2592.009766" xlink:href="#DejaVuSans-53"/>
     <use x="2655.632812" xlink:href="#DejaVuSans-49"/>
     <use x="2719.255859" xlink:href="#DejaVuSans-32"/>
     <use x="2751.042969" xlink:href="#DejaVuSans-100"/>
     <use x="2814.519531" xlink:href="#DejaVuSans-101"/>
     <use x="2876.042969" xlink:href="#DejaVuSans-103"/>
     <use x="2939.519531" xlink:href="#DejaVuSans-114"/>
     <use x="2980.601562" xlink:href="#DejaVuSans-101"/>
     <use x="3042.125" xlink:href="#DejaVuSans-101"/>
     <use x="3103.648438" xlink:href="#DejaVuSans-115"/>
    </g>
   </g>
  </g>
 </g>
 <defs>
  <clipPath id="p8a3e064284">
   <rect height="273.16" width="366.415" x="73.37" y="26.88"/>
  </clipPath>
 </defs>
</svg>
