<?xml version="1.0" encoding="utf-8" standalone="no"?>
<!DOCTYPE svg PUBLIC "-//W3C//DTD SVG 1.1//EN"
  "http://www.w3.org/Graphics/SVG/1.1/DTD/svg11.dtd">
<!-- Created with matplotlib (https://matplotlib.org/) -->
<svg height="345.6pt" version="1.1" viewBox="0 0 460.8 345.6" width="460.8pt" xmlns="http://www.w3.org/2000/svg" xmlns:xlink="http://www.w3.org/1999/xlink">
 <defs>
  <style type="text/css">
*{stroke-linecap:butt;stroke-linejoin:round;}
  </style>
 </defs>
 <g id="figure_1">
  <g id="patch_1">
   <path d="M 0 345.6 
L 460.8 345.6 
L 460.8 0 
L 0 0 
z
" style="fill:#ffffff;"/>
  </g>
  <g id="axes_1">
   <g id="patch_2">
    <path d="M 73.37 300.04 
L 439.785 300.04 
L 439.785 26.88 
L 73.37 26.88 
z
" style="fill:#ffffff;"/>
   </g>
   <g id="matplotlib.axis_1">
    <g id="xtick_1">
     <g id="line2d_1">
      <path clip-path="url(#p35f0b5897e)" d="M 115.648654 300.04 
L 115.648654 26.88 
" style="fill:none;stroke:#b0b0b0;stroke-linecap:square;stroke-width:0.8;"/>
     </g>
     <g id="line2d_2">
      <defs>
       <path d="M 0 0 
L 0 3.5 
" id="m44efdf95b0" style="stroke:#000000;stroke-width:0.8;"/>
      </defs>
      <g>
       <use style="stroke:#000000;stroke-width:0.8;" x="115.648654" xlink:href="#m44efdf95b0" y="300.04"/>
      </g>
     </g>
     <g id="text_1">
      <!-- 2 -->
      <defs>
       <path d="M 19.1875 8.296875 
L 53.609375 8.296875 
L 53.609375 0 
L 7.328125 0 
L 7.328125 8.296875 
Q 12.9375 14.109375 22.625 23.890625 
Q 32.328125 33.6875 34.8125 36.53125 
Q 39.546875 41.84375 41.421875 45.53125 
Q 43.3125 49.21875 43.3125 52.78125 
Q 43.3125 58.59375 39.234375 62.25 
Q 35.15625 65.921875 28.609375 65.921875 
Q 23.96875 65.921875 18.8125 64.3125 
Q 13.671875 62.703125 7.8125 59.421875 
L 7.8125 69.390625 
Q 13.765625 71.78125 18.9375 73 
Q 24.125 74.21875 28.421875 74.21875 
Q 39.75 74.21875 46.484375 68.546875 
Q 53.21875 62.890625 53.21875 53.421875 
Q 53.21875 48.921875 51.53125 44.890625 
Q 49.859375 40.875 45.40625 35.40625 
Q 44.1875 33.984375 37.640625 27.21875 
Q 31.109375 20.453125 19.1875 8.296875 
z
" id="DejaVuSans-50"/>
      </defs>
      <g transform="translate(112.467404 314.638437)scale(0.1 -0.1)">
       <use xlink:href="#DejaVuSans-50"/>
      </g>
     </g>
    </g>
    <g id="xtick_2">
     <g id="line2d_3">
      <path clip-path="url(#p35f0b5897e)" d="M 166.895507 300.04 
L 166.895507 26.88 
" style="fill:none;stroke:#b0b0b0;stroke-linecap:square;stroke-width:0.8;"/>
     </g>
     <g id="line2d_4">
      <g>
       <use style="stroke:#000000;stroke-width:0.8;" x="166.895507" xlink:href="#m44efdf95b0" y="300.04"/>
      </g>
     </g>
     <g id="text_2">
      <!-- 4 -->
      <defs>
       <path d="M 37.796875 64.3125 
L 12.890625 25.390625 
L 37.796875 25.390625 
z
M 35.203125 72.90625 
L 47.609375 72.90625 
L 47.609375 25.390625 
L 58.015625 25.390625 
L 58.015625 17.1875 
L 47.609375 17.1875 
L 47.609375 0 
L 37.796875 0 
L 37.796875 17.1875 
L 4.890625 17.1875 
L 4.890625 26.703125 
z
" id="DejaVuSans-52"/>
      </defs>
      <g transform="translate(163.714257 314.638437)scale(0.1 -0.1)">
       <use xlink:href="#DejaVuSans-52"/>
      </g>
     </g>
    </g>
    <g id="xtick_3">
     <g id="line2d_5">
      <path clip-path="url(#p35f0b5897e)" d="M 218.14236 300.04 
L 218.14236 26.88 
" style="fill:none;stroke:#b0b0b0;stroke-linecap:square;stroke-width:0.8;"/>
     </g>
     <g id="line2d_6">
      <g>
       <use style="stroke:#000000;stroke-width:0.8;" x="218.14236" xlink:href="#m44efdf95b0" y="300.04"/>
      </g>
     </g>
     <g id="text_3">
      <!-- 6 -->
      <defs>
       <path d="M 33.015625 40.375 
Q 26.375 40.375 22.484375 35.828125 
Q 18.609375 31.296875 18.609375 23.390625 
Q 18.609375 15.53125 22.484375 10.953125 
Q 26.375 6.390625 33.015625 6.390625 
Q 39.65625 6.390625 43.53125 10.953125 
Q 47.40625 15.53125 47.40625 23.390625 
Q 47.40625 31.296875 43.53125 35.828125 
Q 39.65625 40.375 33.015625 40.375 
z
M 52.59375 71.296875 
L 52.59375 62.3125 
Q 48.875 64.0625 45.09375 64.984375 
Q 41.3125 65.921875 37.59375 65.921875 
Q 27.828125 65.921875 22.671875 59.328125 
Q 17.53125 52.734375 16.796875 39.40625 
Q 19.671875 43.65625 24.015625 45.921875 
Q 28.375 48.1875 33.59375 48.1875 
Q 44.578125 48.1875 50.953125 41.515625 
Q 57.328125 34.859375 57.328125 23.390625 
Q 57.328125 12.15625 50.6875 5.359375 
Q 44.046875 -1.421875 33.015625 -1.421875 
Q 20.359375 -1.421875 13.671875 8.265625 
Q 6.984375 17.96875 6.984375 36.375 
Q 6.984375 53.65625 15.1875 63.9375 
Q 23.390625 74.21875 37.203125 74.21875 
Q 40.921875 74.21875 44.703125 73.484375 
Q 48.484375 72.75 52.59375 71.296875 
z
" id="DejaVuSans-54"/>
      </defs>
      <g transform="translate(214.96111 314.638437)scale(0.1 -0.1)">
       <use xlink:href="#DejaVuSans-54"/>
      </g>
     </g>
    </g>
    <g id="xtick_4">
     <g id="line2d_7">
      <path clip-path="url(#p35f0b5897e)" d="M 269.389213 300.04 
L 269.389213 26.88 
" style="fill:none;stroke:#b0b0b0;stroke-linecap:square;stroke-width:0.8;"/>
     </g>
     <g id="line2d_8">
      <g>
       <use style="stroke:#000000;stroke-width:0.8;" x="269.389213" xlink:href="#m44efdf95b0" y="300.04"/>
      </g>
     </g>
     <g id="text_4">
      <!-- 8 -->
      <defs>
       <path d="M 31.78125 34.625 
Q 24.75 34.625 20.71875 30.859375 
Q 16.703125 27.09375 16.703125 20.515625 
Q 16.703125 13.921875 20.71875 10.15625 
Q 24.75 6.390625 31.78125 6.390625 
Q 38.8125 6.390625 42.859375 10.171875 
Q 46.921875 13.96875 46.921875 20.515625 
Q 46.921875 27.09375 42.890625 30.859375 
Q 38.875 34.625 31.78125 34.625 
z
M 21.921875 38.8125 
Q 15.578125 40.375 12.03125 44.71875 
Q 8.5 49.078125 8.5 55.328125 
Q 8.5 64.0625 14.71875 69.140625 
Q 20.953125 74.21875 31.78125 74.21875 
Q 42.671875 74.21875 48.875 69.140625 
Q 55.078125 64.0625 55.078125 55.328125 
Q 55.078125 49.078125 51.53125 44.71875 
Q 48 40.375 41.703125 38.8125 
Q 48.828125 37.15625 52.796875 32.3125 
Q 56.78125 27.484375 56.78125 20.515625 
Q 56.78125 9.90625 50.3125 4.234375 
Q 43.84375 -1.421875 31.78125 -1.421875 
Q 19.734375 -1.421875 13.25 4.234375 
Q 6.78125 9.90625 6.78125 20.515625 
Q 6.78125 27.484375 10.78125 32.3125 
Q 14.796875 37.15625 21.921875 38.8125 
z
M 18.3125 54.390625 
Q 18.3125 48.734375 21.84375 45.5625 
Q 25.390625 42.390625 31.78125 42.390625 
Q 38.140625 42.390625 41.71875 45.5625 
Q 45.3125 48.734375 45.3125 54.390625 
Q 45.3125 60.0625 41.71875 63.234375 
Q 38.140625 66.40625 31.78125 66.40625 
Q 25.390625 66.40625 21.84375 63.234375 
Q 18.3125 60.0625 18.3125 54.390625 
z
" id="DejaVuSans-56"/>
      </defs>
      <g transform="translate(266.207963 314.638437)scale(0.1 -0.1)">
       <use xlink:href="#DejaVuSans-56"/>
      </g>
     </g>
    </g>
    <g id="xtick_5">
     <g id="line2d_9">
      <path clip-path="url(#p35f0b5897e)" d="M 320.636066 300.04 
L 320.636066 26.88 
" style="fill:none;stroke:#b0b0b0;stroke-linecap:square;stroke-width:0.8;"/>
     </g>
     <g id="line2d_10">
      <g>
       <use style="stroke:#000000;stroke-width:0.8;" x="320.636066" xlink:href="#m44efdf95b0" y="300.04"/>
      </g>
     </g>
     <g id="text_5">
      <!-- 10 -->
      <defs>
       <path d="M 12.40625 8.296875 
L 28.515625 8.296875 
L 28.515625 63.921875 
L 10.984375 60.40625 
L 10.984375 69.390625 
L 28.421875 72.90625 
L 38.28125 72.90625 
L 38.28125 8.296875 
L 54.390625 8.296875 
L 54.390625 0 
L 12.40625 0 
z
" id="DejaVuSans-49"/>
       <path d="M 31.78125 66.40625 
Q 24.171875 66.40625 20.328125 58.90625 
Q 16.5 51.421875 16.5 36.375 
Q 16.5 21.390625 20.328125 13.890625 
Q 24.171875 6.390625 31.78125 6.390625 
Q 39.453125 6.390625 43.28125 13.890625 
Q 47.125 21.390625 47.125 36.375 
Q 47.125 51.421875 43.28125 58.90625 
Q 39.453125 66.40625 31.78125 66.40625 
z
M 31.78125 74.21875 
Q 44.046875 74.21875 50.515625 64.515625 
Q 56.984375 54.828125 56.984375 36.375 
Q 56.984375 17.96875 50.515625 8.265625 
Q 44.046875 -1.421875 31.78125 -1.421875 
Q 19.53125 -1.421875 13.0625 8.265625 
Q 6.59375 17.96875 6.59375 36.375 
Q 6.59375 54.828125 13.0625 64.515625 
Q 19.53125 74.21875 31.78125 74.21875 
z
" id="DejaVuSans-48"/>
      </defs>
      <g transform="translate(314.273566 314.638437)scale(0.1 -0.1)">
       <use xlink:href="#DejaVuSans-49"/>
       <use x="63.623047" xlink:href="#DejaVuSans-48"/>
      </g>
     </g>
    </g>
    <g id="xtick_6">
     <g id="line2d_11">
      <path clip-path="url(#p35f0b5897e)" d="M 371.88292 300.04 
L 371.88292 26.88 
" style="fill:none;stroke:#b0b0b0;stroke-linecap:square;stroke-width:0.8;"/>
     </g>
     <g id="line2d_12">
      <g>
       <use style="stroke:#000000;stroke-width:0.8;" x="371.88292" xlink:href="#m44efdf95b0" y="300.04"/>
      </g>
     </g>
     <g id="text_6">
      <!-- 12 -->
      <g transform="translate(365.52042 314.638437)scale(0.1 -0.1)">
       <use xlink:href="#DejaVuSans-49"/>
       <use x="63.623047" xlink:href="#DejaVuSans-50"/>
      </g>
     </g>
    </g>
    <g id="xtick_7">
     <g id="line2d_13">
      <path clip-path="url(#p35f0b5897e)" d="M 423.129773 300.04 
L 423.129773 26.88 
" style="fill:none;stroke:#b0b0b0;stroke-linecap:square;stroke-width:0.8;"/>
     </g>
     <g id="line2d_14">
      <g>
       <use style="stroke:#000000;stroke-width:0.8;" x="423.129773" xlink:href="#m44efdf95b0" y="300.04"/>
      </g>
     </g>
     <g id="text_7">
      <!-- 14 -->
      <g transform="translate(416.767273 314.638437)scale(0.1 -0.1)">
       <use xlink:href="#DejaVuSans-49"/>
       <use x="63.623047" xlink:href="#DejaVuSans-52"/>
      </g>
     </g>
    </g>
    <g id="xtick_8">
     <g id="line2d_15">
      <defs>
       <path d="M 0 0 
L 0 2 
" id="m4321fbcd4d" style="stroke:#000000;stroke-width:0.6;"/>
      </defs>
      <g>
       <use style="stroke:#000000;stroke-width:0.6;" x="90.025227" xlink:href="#m4321fbcd4d" y="300.04"/>
      </g>
     </g>
    </g>
    <g id="xtick_9">
     <g id="line2d_16">
      <g>
       <use style="stroke:#000000;stroke-width:0.6;" x="141.27208" xlink:href="#m4321fbcd4d" y="300.04"/>
      </g>
     </g>
    </g>
    <g id="xtick_10">
     <g id="line2d_17">
      <g>
       <use style="stroke:#000000;stroke-width:0.6;" x="192.518934" xlink:href="#m4321fbcd4d" y="300.04"/>
      </g>
     </g>
    </g>
    <g id="xtick_11">
     <g id="line2d_18">
      <g>
       <use style="stroke:#000000;stroke-width:0.6;" x="243.765787" xlink:href="#m4321fbcd4d" y="300.04"/>
      </g>
     </g>
    </g>
    <g id="xtick_12">
     <g id="line2d_19">
      <g>
       <use style="stroke:#000000;stroke-width:0.6;" x="295.01264" xlink:href="#m4321fbcd4d" y="300.04"/>
      </g>
     </g>
    </g>
    <g id="xtick_13">
     <g id="line2d_20">
      <g>
       <use style="stroke:#000000;stroke-width:0.6;" x="346.259493" xlink:href="#m4321fbcd4d" y="300.04"/>
      </g>
     </g>
    </g>
    <g id="xtick_14">
     <g id="line2d_21">
      <g>
       <use style="stroke:#000000;stroke-width:0.6;" x="397.506346" xlink:href="#m4321fbcd4d" y="300.04"/>
      </g>
     </g>
    </g>
    <g id="text_8">
     <!-- Frame number -->
     <defs>
      <path d="M 9.8125 72.90625 
L 51.703125 72.90625 
L 51.703125 64.59375 
L 19.671875 64.59375 
L 19.671875 43.109375 
L 48.578125 43.109375 
L 48.578125 34.8125 
L 19.671875 34.8125 
L 19.671875 0 
L 9.8125 0 
z
" id="DejaVuSans-70"/>
      <path d="M 41.109375 46.296875 
Q 39.59375 47.171875 37.8125 47.578125 
Q 36.03125 48 33.890625 48 
Q 26.265625 48 22.1875 43.046875 
Q 18.109375 38.09375 18.109375 28.8125 
L 18.109375 0 
L 9.078125 0 
L 9.078125 54.6875 
L 18.109375 54.6875 
L 18.109375 46.1875 
Q 20.953125 51.171875 25.484375 53.578125 
Q 30.03125 56 36.53125 56 
Q 37.453125 56 38.578125 55.875 
Q 39.703125 55.765625 41.0625 55.515625 
z
" id="DejaVuSans-114"/>
      <path d="M 34.28125 27.484375 
Q 23.390625 27.484375 19.1875 25 
Q 14.984375 22.515625 14.984375 16.5 
Q 14.984375 11.71875 18.140625 8.90625 
Q 21.296875 6.109375 26.703125 6.109375 
Q 34.1875 6.109375 38.703125 11.40625 
Q 43.21875 16.703125 43.21875 25.484375 
L 43.21875 27.484375 
z
M 52.203125 31.203125 
L 52.203125 0 
L 43.21875 0 
L 43.21875 8.296875 
Q 40.140625 3.328125 35.546875 0.953125 
Q 30.953125 -1.421875 24.3125 -1.421875 
Q 15.921875 -1.421875 10.953125 3.296875 
Q 6 8.015625 6 15.921875 
Q 6 25.140625 12.171875 29.828125 
Q 18.359375 34.515625 30.609375 34.515625 
L 43.21875 34.515625 
L 43.21875 35.40625 
Q 43.21875 41.609375 39.140625 45 
Q 35.0625 48.390625 27.6875 48.390625 
Q 23 48.390625 18.546875 47.265625 
Q 14.109375 46.140625 10.015625 43.890625 
L 10.015625 52.203125 
Q 14.9375 54.109375 19.578125 55.046875 
Q 24.21875 56 28.609375 56 
Q 40.484375 56 46.34375 49.84375 
Q 52.203125 43.703125 52.203125 31.203125 
z
" id="DejaVuSans-97"/>
      <path d="M 52 44.1875 
Q 55.375 50.25 60.0625 53.125 
Q 64.75 56 71.09375 56 
Q 79.640625 56 84.28125 50.015625 
Q 88.921875 44.046875 88.921875 33.015625 
L 88.921875 0 
L 79.890625 0 
L 79.890625 32.71875 
Q 79.890625 40.578125 77.09375 44.375 
Q 74.3125 48.1875 68.609375 48.1875 
Q 61.625 48.1875 57.5625 43.546875 
Q 53.515625 38.921875 53.515625 30.90625 
L 53.515625 0 
L 44.484375 0 
L 44.484375 32.71875 
Q 44.484375 40.625 41.703125 44.40625 
Q 38.921875 48.1875 33.109375 48.1875 
Q 26.21875 48.1875 22.15625 43.53125 
Q 18.109375 38.875 18.109375 30.90625 
L 18.109375 0 
L 9.078125 0 
L 9.078125 54.6875 
L 18.109375 54.6875 
L 18.109375 46.1875 
Q 21.1875 51.21875 25.484375 53.609375 
Q 29.78125 56 35.6875 56 
Q 41.65625 56 45.828125 52.96875 
Q 50 49.953125 52 44.1875 
z
" id="DejaVuSans-109"/>
      <path d="M 56.203125 29.59375 
L 56.203125 25.203125 
L 14.890625 25.203125 
Q 15.484375 15.921875 20.484375 11.0625 
Q 25.484375 6.203125 34.421875 6.203125 
Q 39.59375 6.203125 44.453125 7.46875 
Q 49.3125 8.734375 54.109375 11.28125 
L 54.109375 2.78125 
Q 49.265625 0.734375 44.1875 -0.34375 
Q 39.109375 -1.421875 33.890625 -1.421875 
Q 20.796875 -1.421875 13.15625 6.1875 
Q 5.515625 13.8125 5.515625 26.8125 
Q 5.515625 40.234375 12.765625 48.109375 
Q 20.015625 56 32.328125 56 
Q 43.359375 56 49.78125 48.890625 
Q 56.203125 41.796875 56.203125 29.59375 
z
M 47.21875 32.234375 
Q 47.125 39.59375 43.09375 43.984375 
Q 39.0625 48.390625 32.421875 48.390625 
Q 24.90625 48.390625 20.390625 44.140625 
Q 15.875 39.890625 15.1875 32.171875 
z
" id="DejaVuSans-101"/>
      <path id="DejaVuSans-32"/>
      <path d="M 54.890625 33.015625 
L 54.890625 0 
L 45.90625 0 
L 45.90625 32.71875 
Q 45.90625 40.484375 42.875 44.328125 
Q 39.84375 48.1875 33.796875 48.1875 
Q 26.515625 48.1875 22.3125 43.546875 
Q 18.109375 38.921875 18.109375 30.90625 
L 18.109375 0 
L 9.078125 0 
L 9.078125 54.6875 
L 18.109375 54.6875 
L 18.109375 46.1875 
Q 21.34375 51.125 25.703125 53.5625 
Q 30.078125 56 35.796875 56 
Q 45.21875 56 50.046875 50.171875 
Q 54.890625 44.34375 54.890625 33.015625 
z
" id="DejaVuSans-110"/>
      <path d="M 8.5 21.578125 
L 8.5 54.6875 
L 17.484375 54.6875 
L 17.484375 21.921875 
Q 17.484375 14.15625 20.5 10.265625 
Q 23.53125 6.390625 29.59375 6.390625 
Q 36.859375 6.390625 41.078125 11.03125 
Q 45.3125 15.671875 45.3125 23.6875 
L 45.3125 54.6875 
L 54.296875 54.6875 
L 54.296875 0 
L 45.3125 0 
L 45.3125 8.40625 
Q 42.046875 3.421875 37.71875 1 
Q 33.40625 -1.421875 27.6875 -1.421875 
Q 18.265625 -1.421875 13.375 4.4375 
Q 8.5 10.296875 8.5 21.578125 
z
M 31.109375 56 
z
" id="DejaVuSans-117"/>
      <path d="M 48.6875 27.296875 
Q 48.6875 37.203125 44.609375 42.84375 
Q 40.53125 48.484375 33.40625 48.484375 
Q 26.265625 48.484375 22.1875 42.84375 
Q 18.109375 37.203125 18.109375 27.296875 
Q 18.109375 17.390625 22.1875 11.75 
Q 26.265625 6.109375 33.40625 6.109375 
Q 40.53125 6.109375 44.609375 11.75 
Q 48.6875 17.390625 48.6875 27.296875 
z
M 18.109375 46.390625 
Q 20.953125 51.265625 25.265625 53.625 
Q 29.59375 56 35.59375 56 
Q 45.5625 56 51.78125 48.09375 
Q 58.015625 40.1875 58.015625 27.296875 
Q 58.015625 14.40625 51.78125 6.484375 
Q 45.5625 -1.421875 35.59375 -1.421875 
Q 29.59375 -1.421875 25.265625 0.953125 
Q 20.953125 3.328125 18.109375 8.203125 
L 18.109375 0 
L 9.078125 0 
L 9.078125 75.984375 
L 18.109375 75.984375 
z
" id="DejaVuSans-98"/>
     </defs>
     <g transform="translate(203.240125 331.659875)scale(0.144 -0.144)">
      <use xlink:href="#DejaVuSans-70"/>
      <use x="57.410156" xlink:href="#DejaVuSans-114"/>
      <use x="98.523438" xlink:href="#DejaVuSans-97"/>
      <use x="159.802734" xlink:href="#DejaVuSans-109"/>
      <use x="257.214844" xlink:href="#DejaVuSans-101"/>
      <use x="318.738281" xlink:href="#DejaVuSans-32"/>
      <use x="350.525391" xlink:href="#DejaVuSans-110"/>
      <use x="413.904297" xlink:href="#DejaVuSans-117"/>
      <use x="477.283203" xlink:href="#DejaVuSans-109"/>
      <use x="574.695312" xlink:href="#DejaVuSans-98"/>
      <use x="638.171875" xlink:href="#DejaVuSans-101"/>
      <use x="699.695312" xlink:href="#DejaVuSans-114"/>
     </g>
    </g>
   </g>
   <g id="matplotlib.axis_2">
    <g id="ytick_1">
     <g id="line2d_22">
      <path clip-path="url(#p35f0b5897e)" d="M 73.37 300.04 
L 439.785 300.04 
" style="fill:none;stroke:#b0b0b0;stroke-linecap:square;stroke-width:0.8;"/>
     </g>
     <g id="line2d_23">
      <defs>
       <path d="M 0 0 
L -3.5 0 
" id="m2a49a477f4" style="stroke:#000000;stroke-width:0.8;"/>
      </defs>
      <g>
       <use style="stroke:#000000;stroke-width:0.8;" x="73.37" xlink:href="#m2a49a477f4" y="300.04"/>
      </g>
     </g>
     <g id="text_9">
      <!-- 0 -->
      <g transform="translate(60.0075 303.839219)scale(0.1 -0.1)">
       <use xlink:href="#DejaVuSans-48"/>
      </g>
     </g>
    </g>
    <g id="ytick_2">
     <g id="line2d_24">
      <path clip-path="url(#p35f0b5897e)" d="M 73.37 256.048226 
L 439.785 256.048226 
" style="fill:none;stroke:#b0b0b0;stroke-linecap:square;stroke-width:0.8;"/>
     </g>
     <g id="line2d_25">
      <g>
       <use style="stroke:#000000;stroke-width:0.8;" x="73.37" xlink:href="#m2a49a477f4" y="256.048226"/>
      </g>
     </g>
     <g id="text_10">
      <!-- 20000 -->
      <g transform="translate(34.5575 259.847444)scale(0.1 -0.1)">
       <use xlink:href="#DejaVuSans-50"/>
       <use x="63.623047" xlink:href="#DejaVuSans-48"/>
       <use x="127.246094" xlink:href="#DejaVuSans-48"/>
       <use x="190.869141" xlink:href="#DejaVuSans-48"/>
       <use x="254.492188" xlink:href="#DejaVuSans-48"/>
      </g>
     </g>
    </g>
    <g id="ytick_3">
     <g id="line2d_26">
      <path clip-path="url(#p35f0b5897e)" d="M 73.37 212.056451 
L 439.785 212.056451 
" style="fill:none;stroke:#b0b0b0;stroke-linecap:square;stroke-width:0.8;"/>
     </g>
     <g id="line2d_27">
      <g>
       <use style="stroke:#000000;stroke-width:0.8;" x="73.37" xlink:href="#m2a49a477f4" y="212.056451"/>
      </g>
     </g>
     <g id="text_11">
      <!-- 40000 -->
      <g transform="translate(34.5575 215.85567)scale(0.1 -0.1)">
       <use xlink:href="#DejaVuSans-52"/>
       <use x="63.623047" xlink:href="#DejaVuSans-48"/>
       <use x="127.246094" xlink:href="#DejaVuSans-48"/>
       <use x="190.869141" xlink:href="#DejaVuSans-48"/>
       <use x="254.492188" xlink:href="#DejaVuSans-48"/>
      </g>
     </g>
    </g>
    <g id="ytick_4">
     <g id="line2d_28">
      <path clip-path="url(#p35f0b5897e)" d="M 73.37 168.064677 
L 439.785 168.064677 
" style="fill:none;stroke:#b0b0b0;stroke-linecap:square;stroke-width:0.8;"/>
     </g>
     <g id="line2d_29">
      <g>
       <use style="stroke:#000000;stroke-width:0.8;" x="73.37" xlink:href="#m2a49a477f4" y="168.064677"/>
      </g>
     </g>
     <g id="text_12">
      <!-- 60000 -->
      <g transform="translate(34.5575 171.863895)scale(0.1 -0.1)">
       <use xlink:href="#DejaVuSans-54"/>
       <use x="63.623047" xlink:href="#DejaVuSans-48"/>
       <use x="127.246094" xlink:href="#DejaVuSans-48"/>
       <use x="190.869141" xlink:href="#DejaVuSans-48"/>
       <use x="254.492188" xlink:href="#DejaVuSans-48"/>
      </g>
     </g>
    </g>
    <g id="ytick_5">
     <g id="line2d_30">
      <path clip-path="url(#p35f0b5897e)" d="M 73.37 124.072902 
L 439.785 124.072902 
" style="fill:none;stroke:#b0b0b0;stroke-linecap:square;stroke-width:0.8;"/>
     </g>
     <g id="line2d_31">
      <g>
       <use style="stroke:#000000;stroke-width:0.8;" x="73.37" xlink:href="#m2a49a477f4" y="124.072902"/>
      </g>
     </g>
     <g id="text_13">
      <!-- 80000 -->
      <g transform="translate(34.5575 127.872121)scale(0.1 -0.1)">
       <use xlink:href="#DejaVuSans-56"/>
       <use x="63.623047" xlink:href="#DejaVuSans-48"/>
       <use x="127.246094" xlink:href="#DejaVuSans-48"/>
       <use x="190.869141" xlink:href="#DejaVuSans-48"/>
       <use x="254.492188" xlink:href="#DejaVuSans-48"/>
      </g>
     </g>
    </g>
    <g id="ytick_6">
     <g id="line2d_32">
      <path clip-path="url(#p35f0b5897e)" d="M 73.37 80.081128 
L 439.785 80.081128 
" style="fill:none;stroke:#b0b0b0;stroke-linecap:square;stroke-width:0.8;"/>
     </g>
     <g id="line2d_33">
      <g>
       <use style="stroke:#000000;stroke-width:0.8;" x="73.37" xlink:href="#m2a49a477f4" y="80.081128"/>
      </g>
     </g>
     <g id="text_14">
      <!-- 100000 -->
      <g transform="translate(28.195 83.880346)scale(0.1 -0.1)">
       <use xlink:href="#DejaVuSans-49"/>
       <use x="63.623047" xlink:href="#DejaVuSans-48"/>
       <use x="127.246094" xlink:href="#DejaVuSans-48"/>
       <use x="190.869141" xlink:href="#DejaVuSans-48"/>
       <use x="254.492188" xlink:href="#DejaVuSans-48"/>
       <use x="318.115234" xlink:href="#DejaVuSans-48"/>
      </g>
     </g>
    </g>
    <g id="ytick_7">
     <g id="line2d_34">
      <path clip-path="url(#p35f0b5897e)" d="M 73.37 36.089353 
L 439.785 36.089353 
" style="fill:none;stroke:#b0b0b0;stroke-linecap:square;stroke-width:0.8;"/>
     </g>
     <g id="line2d_35">
      <g>
       <use style="stroke:#000000;stroke-width:0.8;" x="73.37" xlink:href="#m2a49a477f4" y="36.089353"/>
      </g>
     </g>
     <g id="text_15">
      <!-- 120000 -->
      <g transform="translate(28.195 39.888572)scale(0.1 -0.1)">
       <use xlink:href="#DejaVuSans-49"/>
       <use x="63.623047" xlink:href="#DejaVuSans-50"/>
       <use x="127.246094" xlink:href="#DejaVuSans-48"/>
       <use x="190.869141" xlink:href="#DejaVuSans-48"/>
       <use x="254.492188" xlink:href="#DejaVuSans-48"/>
       <use x="318.115234" xlink:href="#DejaVuSans-48"/>
      </g>
     </g>
    </g>
    <g id="text_16">
     <!-- Peak intensity -->
     <defs>
      <path d="M 19.671875 64.796875 
L 19.671875 37.40625 
L 32.078125 37.40625 
Q 38.96875 37.40625 42.71875 40.96875 
Q 46.484375 44.53125 46.484375 51.125 
Q 46.484375 57.671875 42.71875 61.234375 
Q 38.96875 64.796875 32.078125 64.796875 
z
M 9.8125 72.90625 
L 32.078125 72.90625 
Q 44.34375 72.90625 50.609375 67.359375 
Q 56.890625 61.8125 56.890625 51.125 
Q 56.890625 40.328125 50.609375 34.8125 
Q 44.34375 29.296875 32.078125 29.296875 
L 19.671875 29.296875 
L 19.671875 0 
L 9.8125 0 
z
" id="DejaVuSans-80"/>
      <path d="M 9.078125 75.984375 
L 18.109375 75.984375 
L 18.109375 31.109375 
L 44.921875 54.6875 
L 56.390625 54.6875 
L 27.390625 29.109375 
L 57.625 0 
L 45.90625 0 
L 18.109375 26.703125 
L 18.109375 0 
L 9.078125 0 
z
" id="DejaVuSans-107"/>
      <path d="M 9.421875 54.6875 
L 18.40625 54.6875 
L 18.40625 0 
L 9.421875 0 
z
M 9.421875 75.984375 
L 18.40625 75.984375 
L 18.40625 64.59375 
L 9.421875 64.59375 
z
" id="DejaVuSans-105"/>
      <path d="M 18.3125 70.21875 
L 18.3125 54.6875 
L 36.8125 54.6875 
L 36.8125 47.703125 
L 18.3125 47.703125 
L 18.3125 18.015625 
Q 18.3125 11.328125 20.140625 9.421875 
Q 21.96875 7.515625 27.59375 7.515625 
L 36.8125 7.515625 
L 36.8125 0 
L 27.59375 0 
Q 17.1875 0 13.234375 3.875 
Q 9.28125 7.765625 9.28125 18.015625 
L 9.28125 47.703125 
L 2.6875 47.703125 
L 2.6875 54.6875 
L 9.28125 54.6875 
L 9.28125 70.21875 
z
" id="DejaVuSans-116"/>
      <path d="M 44.28125 53.078125 
L 44.28125 44.578125 
Q 40.484375 46.53125 36.375 47.5 
Q 32.28125 48.484375 27.875 48.484375 
Q 21.1875 48.484375 17.84375 46.4375 
Q 14.5 44.390625 14.5 40.28125 
Q 14.5 37.15625 16.890625 35.375 
Q 19.28125 33.59375 26.515625 31.984375 
L 29.59375 31.296875 
Q 39.15625 29.25 43.1875 25.515625 
Q 47.21875 21.78125 47.21875 15.09375 
Q 47.21875 7.46875 41.1875 3.015625 
Q 35.15625 -1.421875 24.609375 -1.421875 
Q 20.21875 -1.421875 15.453125 -0.5625 
Q 10.6875 0.296875 5.421875 2 
L 5.421875 11.28125 
Q 10.40625 8.6875 15.234375 7.390625 
Q 20.0625 6.109375 24.8125 6.109375 
Q 31.15625 6.109375 34.5625 8.28125 
Q 37.984375 10.453125 37.984375 14.40625 
Q 37.984375 18.0625 35.515625 20.015625 
Q 33.0625 21.96875 24.703125 23.78125 
L 21.578125 24.515625 
Q 13.234375 26.265625 9.515625 29.90625 
Q 5.8125 33.546875 5.8125 39.890625 
Q 5.8125 47.609375 11.28125 51.796875 
Q 16.75 56 26.8125 56 
Q 31.78125 56 36.171875 55.265625 
Q 40.578125 54.546875 44.28125 53.078125 
z
" id="DejaVuSans-115"/>
      <path d="M 32.171875 -5.078125 
Q 28.375 -14.84375 24.75 -17.8125 
Q 21.140625 -20.796875 15.09375 -20.796875 
L 7.90625 -20.796875 
L 7.90625 -13.28125 
L 13.1875 -13.28125 
Q 16.890625 -13.28125 18.9375 -11.515625 
Q 21 -9.765625 23.484375 -3.21875 
L 25.09375 0.875 
L 2.984375 54.6875 
L 12.5 54.6875 
L 29.59375 11.921875 
L 46.6875 54.6875 
L 56.203125 54.6875 
z
" id="DejaVuSans-121"/>
     </defs>
     <g transform="translate(21.20025 214.31225)rotate(-90)scale(0.144 -0.144)">
      <use xlink:href="#DejaVuSans-80"/>
      <use x="60.255859" xlink:href="#DejaVuSans-101"/>
      <use x="121.779297" xlink:href="#DejaVuSans-97"/>
      <use x="183.058594" xlink:href="#DejaVuSans-107"/>
      <use x="240.96875" xlink:href="#DejaVuSans-32"/>
      <use x="272.755859" xlink:href="#DejaVuSans-105"/>
      <use x="300.539062" xlink:href="#DejaVuSans-110"/>
      <use x="363.917969" xlink:href="#DejaVuSans-116"/>
      <use x="403.126953" xlink:href="#DejaVuSans-101"/>
      <use x="464.650391" xlink:href="#DejaVuSans-110"/>
      <use x="528.029297" xlink:href="#DejaVuSans-115"/>
      <use x="580.128906" xlink:href="#DejaVuSans-105"/>
      <use x="607.912109" xlink:href="#DejaVuSans-116"/>
      <use x="647.121094" xlink:href="#DejaVuSans-121"/>
     </g>
    </g>
   </g>
   <g id="line2d_36">
    <path clip-path="url(#p35f0b5897e)" d="M 115.648654 299.129694 
L 141.27208 282.848608 
L 166.895507 257.676867 
L 192.518934 221.920133 
L 218.14236 185.817249 
L 243.765787 152.078946 
L 269.389213 126.141395 
L 295.01264 112.741677 
L 320.636066 92.366777 
L 346.259493 73.536031 
L 371.88292 60.001742 
L 397.506346 49.756278 
L 423.129773 39.844271 
" style="fill:none;stroke:#1f77b4;stroke-linecap:square;stroke-width:1.5;"/>
   </g>
   <g id="line2d_37">
    <path clip-path="url(#p35f0b5897e)" d="M 371.88292 213.570212 
L 397.506346 220.261716 
L 423.129773 225.083669 
" style="fill:none;stroke:#ff7f0e;stroke-linecap:square;stroke-width:1.5;"/>
   </g>
   <g id="line2d_38">
    <path clip-path="url(#p35f0b5897e)" d="M 115.648654 295.099178 
L 141.27208 281.917874 
L 166.895507 266.071993 
L 192.518934 251.767052 
L 218.14236 239.309377 
L 243.765787 225.883484 
L 269.389213 216.65159 
L 295.01264 208.807988 
L 320.636066 200.66918 
L 346.259493 198.060028 
L 371.88292 194.314788 
L 397.506346 191.881603 
L 423.129773 188.90666 
" style="fill:none;stroke:#2ca02c;stroke-linecap:square;stroke-width:1.5;"/>
   </g>
   <g id="line2d_39">
    <path clip-path="url(#p35f0b5897e)" d="M 90.025227 227.724078 
L 115.648654 227.724122 
L 141.27208 227.724056 
L 166.895507 228.312819 
L 192.518934 228.312731 
L 218.14236 228.314623 
L 243.765787 227.39051 
L 269.389213 227.44231 
L 295.01264 227.558427 
L 320.636066 228.583743 
L 346.259493 228.858383 
L 371.88292 229.928813 
L 397.506346 231.455196 
L 423.129773 233.248851 
" style="fill:none;stroke:#d62728;stroke-linecap:square;stroke-width:1.5;"/>
   </g>
   <g id="line2d_40">
    <path clip-path="url(#p35f0b5897e)" d="M 90.025227 236.119281 
L 115.648654 236.119314 
L 141.27208 236.119358 
L 166.895507 236.644466 
L 192.518934 236.682958 
L 218.14236 236.712323 
L 243.765787 235.942423 
L 269.389213 236.514162 
L 295.01264 238.081699 
L 320.636066 240.333902 
L 346.259493 241.732862 
L 371.88292 243.40257 
L 397.506346 245.244066 
L 423.129773 247.580887 
" style="fill:none;stroke:#9467bd;stroke-linecap:square;stroke-width:1.5;"/>
   </g>
   <g id="line2d_41">
    <path clip-path="url(#p35f0b5897e)" d="M 141.27208 297.029489 
L 166.895507 283.340107 
L 192.518934 270.73444 
L 218.14236 259.525995 
L 243.765787 244.533599 
L 269.389213 235.854461 
L 295.01264 228.502336 
L 320.636066 224.807467 
L 346.259493 217.269256 
L 371.88292 212.721607 
L 397.506346 212.587432 
L 423.129773 208.919178 
" style="fill:none;stroke:#8c564b;stroke-linecap:square;stroke-width:1.5;"/>
   </g>
   <g id="line2d_42">
    <path clip-path="url(#p35f0b5897e)" d="M 90.025227 244.351187 
L 115.648654 244.351187 
L 141.27208 244.351253 
L 166.895507 244.804588 
L 192.518934 244.804588 
L 218.14236 244.804368 
L 243.765787 244.074324 
L 269.389213 244.074324 
L 295.01264 244.074104 
L 320.636066 245.001451 
L 346.259493 244.825704 
L 371.88292 244.764555 
L 397.506346 244.171766 
L 423.129773 244.236214 
" style="fill:none;stroke:#e377c2;stroke-linecap:square;stroke-width:1.5;"/>
   </g>
   <g id="line2d_43">
    <path clip-path="url(#p35f0b5897e)" d="M 90.025227 251.85762 
L 115.648654 251.857613 
L 141.27208 251.857679 
L 166.895507 252.249844 
L 192.518934 252.259478 
L 218.14236 252.276481 
L 243.765787 251.538409 
L 269.389213 251.776492 
L 295.01264 252.529697 
L 320.636066 254.675814 
L 346.259493 255.678079 
L 371.88292 257.028758 
L 397.506346 258.711642 
L 423.129773 259.931094 
" style="fill:none;stroke:#7f7f7f;stroke-linecap:square;stroke-width:1.5;"/>
   </g>
   <g id="line2d_44">
    <path clip-path="url(#p35f0b5897e)" d="M 90.025227 251.217599 
L 115.648654 251.217599 
L 141.27208 251.217621 
L 166.895507 251.622213 
L 192.518934 251.633277 
L 218.14236 251.641174 
L 243.765787 251.538211 
L 269.389213 252.471122 
L 295.01264 253.919881 
L 320.636066 256.336262 
L 346.259493 257.702695 
L 371.88292 259.395799 
L 397.506346 261.814949 
L 423.129773 263.789742 
" style="fill:none;stroke:#bcbd22;stroke-linecap:square;stroke-width:1.5;"/>
   </g>
   <g id="line2d_45">
    <path clip-path="url(#p35f0b5897e)" d="M 90.025227 259.550103 
L 115.648654 259.550081 
L 141.27208 259.550081 
L 166.895507 259.879733 
L 192.518934 259.879689 
L 218.14236 259.879777 
L 243.765787 259.34884 
L 269.389213 259.320818 
L 295.01264 259.27522 
L 320.636066 259.924825 
L 346.259493 259.825535 
L 371.88292 259.836885 
L 397.506346 259.760669 
L 423.129773 260.342945 
" style="fill:none;stroke:#17becf;stroke-linecap:square;stroke-width:1.5;"/>
   </g>
   <g id="line2d_46">
    <path clip-path="url(#p35f0b5897e)" d="M 90.025227 260.495948 
L 115.648654 260.495948 
L 141.27208 260.496014 
L 166.895507 260.817924 
L 192.518934 260.826238 
L 218.14236 260.854921 
L 243.765787 260.403719 
L 269.389213 260.423933 
L 295.01264 260.552125 
L 320.636066 261.786337 
L 346.259493 262.620487 
L 371.88292 263.778878 
L 397.506346 264.704729 
L 423.129773 265.751535 
" style="fill:none;stroke:#1f77b4;stroke-linecap:square;stroke-width:1.5;"/>
   </g>
   <g id="line2d_47">
    <path clip-path="url(#p35f0b5897e)" d="M 115.648654 257.270772 
L 141.27208 256.404037 
L 166.895507 255.514332 
L 192.518934 255.077511 
L 218.14236 255.580468 
L 243.765787 256.769253 
L 269.389213 259.159152 
L 295.01264 262.407978 
L 320.636066 266.053634 
L 346.259493 268.54727 
L 371.88292 271.231302 
L 397.506346 273.908819 
L 423.129773 275.780385 
" style="fill:none;stroke:#ff7f0e;stroke-linecap:square;stroke-width:1.5;"/>
   </g>
   <g id="line2d_48">
    <path clip-path="url(#p35f0b5897e)" d="M 90.025227 259.185521 
L 115.648654 259.185565 
L 141.27208 259.186775 
L 166.895507 259.550983 
L 192.518934 259.589475 
L 218.14236 259.95872 
L 243.765787 260.697606 
L 269.389213 262.232259 
L 295.01264 263.692214 
L 320.636066 265.053232 
L 346.259493 265.977235 
L 371.88292 267.042144 
L 397.506346 267.831202 
L 423.129773 268.679034 
" style="fill:none;stroke:#2ca02c;stroke-linecap:square;stroke-width:1.5;"/>
   </g>
   <g id="line2d_49">
    <path clip-path="url(#p35f0b5897e)" d="M 90.025227 250.991943 
L 115.648654 251.360902 
L 141.27208 256.382035 
L 166.895507 260.303858 
L 192.518934 263.330096 
L 218.14236 265.524428 
L 243.765787 266.524471 
L 269.389213 267.802278 
L 295.01264 268.790465 
L 320.636066 270.555041 
L 346.259493 270.524621 
L 371.88292 271.059891 
L 397.506346 272.310489 
L 423.129773 272.617705 
" style="fill:none;stroke:#d62728;stroke-linecap:square;stroke-width:1.5;"/>
   </g>
   <g id="line2d_50">
    <path clip-path="url(#p35f0b5897e)" d="M 90.025227 271.309421 
L 115.648654 270.329573 
L 141.27208 267.459965 
L 166.895507 265.971628 
L 192.518934 264.078868 
L 218.14236 262.842962 
L 243.765787 261.331616 
L 269.389213 260.554862 
L 295.01264 260.147737 
L 320.636066 260.238825 
L 346.259493 260.087933 
L 371.88292 260.838083 
L 397.506346 262.172693 
L 423.129773 292.530853 
" style="fill:none;stroke:#9467bd;stroke-linecap:square;stroke-width:1.5;"/>
   </g>
   <g id="line2d_51">
    <path clip-path="url(#p35f0b5897e)" d="M 115.648654 292.374365 
L 141.27208 284.373635 
L 166.895507 276.594993 
L 192.518934 268.265583 
L 218.14236 260.438413 
L 243.765787 255.134305 
L 269.389213 253.836311 
L 295.01264 254.725837 
L 320.636066 257.731111 
L 346.259493 260.368115 
L 371.88292 263.37447 
L 397.506346 266.878904 
L 423.129773 269.045546 
" style="fill:none;stroke:#8c564b;stroke-linecap:square;stroke-width:1.5;"/>
   </g>
   <g id="line2d_52">
    <path clip-path="url(#p35f0b5897e)" d="M 90.025227 266.295568 
L 115.648654 266.29556 
L 141.27208 266.29556 
L 166.895507 266.570244 
L 192.518934 266.570244 
L 218.14236 266.579064 
L 243.765787 266.202341 
L 269.389213 266.230144 
L 295.01264 266.234323 
L 320.636066 266.791259 
L 346.259493 267.186063 
L 371.88292 267.943953 
L 397.506346 268.759539 
L 423.129773 269.596042 
" style="fill:none;stroke:#e377c2;stroke-linecap:square;stroke-width:1.5;"/>
   </g>
   <g id="line2d_53">
    <path clip-path="url(#p35f0b5897e)" d="M 90.025227 267.534456 
L 115.648654 267.534478 
L 141.27208 267.534522 
L 166.895507 267.799066 
L 192.518934 267.799088 
L 218.14236 267.799528 
L 243.765787 267.325143 
L 269.389213 267.291841 
L 295.01264 267.27827 
L 320.636066 267.819984 
L 346.259493 267.860655 
L 371.88292 268.503023 
L 397.506346 269.604159 
L 423.129773 270.481927 
" style="fill:none;stroke:#7f7f7f;stroke-linecap:square;stroke-width:1.5;"/>
   </g>
   <g id="line2d_54">
    <path clip-path="url(#p35f0b5897e)" d="M 90.025227 264.600754 
L 115.648654 264.600754 
L 141.27208 264.600776 
L 166.895507 264.929725 
L 192.518934 264.951589 
L 218.14236 265.395774 
L 243.765787 266.266019 
L 269.389213 267.876844 
L 295.01264 269.346961 
L 320.636066 270.505176 
L 346.259493 271.357561 
L 371.88292 272.351291 
L 397.506346 273.08745 
L 423.129773 273.846 
" style="fill:none;stroke:#bcbd22;stroke-linecap:square;stroke-width:1.5;"/>
   </g>
   <g id="line2d_55">
    <path clip-path="url(#p35f0b5897e)" d="M 90.025227 268.212633 
L 115.648654 268.212655 
L 141.27208 268.212611 
L 166.895507 268.471701 
L 192.518934 268.471679 
L 218.14236 268.471679 
L 243.765787 268.046344 
L 269.389213 268.008907 
L 295.01264 267.979059 
L 320.636066 268.497744 
L 346.259493 268.423068 
L 371.88292 268.46651 
L 397.506346 268.773858 
L 423.129773 269.465541 
" style="fill:none;stroke:#17becf;stroke-linecap:square;stroke-width:1.5;"/>
   </g>
   <g id="line2d_56">
    <path clip-path="url(#p35f0b5897e)" d="M 90.025227 262.948269 
L 115.648654 262.948247 
L 141.27208 263.024661 
L 166.895507 263.294067 
L 192.518934 264.543367 
L 218.14236 266.643446 
L 243.765787 268.024656 
L 269.389213 269.63106 
L 295.01264 270.971489 
L 320.636066 272.907413 
L 346.259493 273.262845 
L 371.88292 274.053971 
L 397.506346 275.434961 
L 423.129773 275.968625 
" style="fill:none;stroke:#1f77b4;stroke-linecap:square;stroke-width:1.5;"/>
   </g>
   <g id="line2d_57">
    <path clip-path="url(#p35f0b5897e)" d="M 423.129773 268.871521 
" style="fill:none;stroke:#ff7f0e;stroke-linecap:square;stroke-width:1.5;"/>
   </g>
   <g id="line2d_58">
    <path clip-path="url(#p35f0b5897e)" d="M 90.025227 270.592918 
L 115.648654 270.592896 
L 141.27208 270.592896 
L 166.895507 270.832607 
L 192.518934 270.832629 
L 218.14236 270.832607 
L 243.765787 270.446491 
L 269.389213 270.446469 
L 295.01264 270.446469 
L 320.636066 270.941003 
L 346.259493 270.903478 
L 371.88292 270.88333 
L 397.506346 270.538016 
L 423.129773 270.607611 
" style="fill:none;stroke:#2ca02c;stroke-linecap:square;stroke-width:1.5;"/>
   </g>
   <g id="line2d_59">
    <path clip-path="url(#p35f0b5897e)" d="M 90.025227 270.519166 
L 115.648654 270.51921 
L 141.27208 270.51921 
L 166.895507 270.759515 
L 192.518934 270.759515 
L 218.14236 270.759515 
L 243.765787 270.358662 
L 269.389213 270.318365 
L 295.01264 270.296237 
L 320.636066 270.780565 
L 346.259493 270.713587 
L 371.88292 270.742996 
L 397.506346 271.301362 
L 423.129773 272.008507 
" style="fill:none;stroke:#d62728;stroke-linecap:square;stroke-width:1.5;"/>
   </g>
   <g id="line2d_60">
    <path clip-path="url(#p35f0b5897e)" d="M 90.025227 264.061985 
L 115.648654 264.091704 
L 141.27208 264.5488 
L 166.895507 265.696436 
L 192.518934 267.272001 
L 218.14236 268.889007 
L 243.765787 269.820904 
L 269.389213 271.118362 
L 295.01264 272.268142 
L 320.636066 273.900447 
L 346.259493 274.358522 
L 371.88292 275.071126 
L 397.506346 275.953011 
L 423.129773 294.015151 
" style="fill:none;stroke:#9467bd;stroke-linecap:square;stroke-width:1.5;"/>
   </g>
   <g id="line2d_61">
    <path clip-path="url(#p35f0b5897e)" d="M 90.025227 264.606266 
L 115.648654 265.406323 
L 141.27208 267.329292 
L 166.895507 269.147717 
L 192.518934 270.456542 
L 218.14236 271.16465 
L 243.765787 271.289301 
L 269.389213 271.806242 
L 295.01264 272.442169 
L 320.636066 273.897699 
L 346.259493 274.781291 
L 371.88292 276.227459 
L 397.506346 277.990577 
L 423.129773 279.600662 
" style="fill:none;stroke:#8c564b;stroke-linecap:square;stroke-width:1.5;"/>
   </g>
   <g id="line2d_62">
    <path clip-path="url(#p35f0b5897e)" d="M 90.025227 267.724478 
L 115.648654 267.7245 
L 141.27208 267.758968 
L 166.895507 268.033631 
L 192.518934 268.917469 
L 218.14236 270.576861 
L 243.765787 271.699487 
L 269.389213 273.076386 
L 295.01264 274.243201 
L 320.636066 275.924237 
L 346.259493 276.284906 
L 371.88292 276.995991 
L 397.506346 278.177078 
L 423.129773 278.666768 
" style="fill:none;stroke:#e377c2;stroke-linecap:square;stroke-width:1.5;"/>
   </g>
   <g id="line2d_63">
    <path clip-path="url(#p35f0b5897e)" d="M 90.025227 273.905719 
L 115.648654 273.905719 
L 141.27208 273.905719 
L 166.895507 274.118441 
L 192.518934 274.118441 
L 218.14236 274.118485 
L 243.765787 273.775745 
L 269.389213 273.775745 
L 295.01264 273.775745 
L 320.636066 274.213749 
L 346.259493 274.180689 
L 371.88292 274.150885 
L 397.506346 273.87631 
L 423.129773 273.935853 
" style="fill:none;stroke:#7f7f7f;stroke-linecap:square;stroke-width:1.5;"/>
   </g>
   <g id="line2d_64">
    <path clip-path="url(#p35f0b5897e)" d="M 90.025227 271.220153 
L 115.648654 271.220175 
L 141.27208 271.221077 
L 166.895507 271.477461 
L 192.518934 271.592807 
L 218.14236 272.315284 
L 243.765787 273.027929 
L 269.389213 274.276349 
L 295.01264 275.40773 
L 320.636066 276.330677 
L 346.259493 276.993567 
L 371.88292 277.75852 
L 397.506346 278.325027 
L 423.129773 278.912926 
" style="fill:none;stroke:#bcbd22;stroke-linecap:square;stroke-width:1.5;"/>
   </g>
   <g id="line2d_65">
    <path clip-path="url(#p35f0b5897e)" d="M 90.025227 267.180674 
L 115.648654 267.174119 
L 141.27208 268.114377 
L 166.895507 270.621271 
L 192.518934 272.806078 
L 218.14236 274.422864 
L 243.765787 275.099919 
L 269.389213 276.171295 
L 295.01264 277.04473 
L 320.636066 277.607076 
L 346.259493 278.036216 
L 371.88292 278.573431 
L 397.506346 279.028218 
L 423.129773 279.427628 
" style="fill:none;stroke:#17becf;stroke-linecap:square;stroke-width:1.5;"/>
   </g>
   <g id="line2d_66">
    <path clip-path="url(#p35f0b5897e)" d="M 90.025227 274.930155 
L 115.648654 274.930243 
L 141.27208 274.930243 
L 166.895507 275.134629 
L 192.518934 275.134673 
L 218.14236 275.134607 
L 243.765787 274.805416 
L 269.389213 274.805372 
L 295.01264 274.812279 
L 320.636066 275.20484 
L 346.259493 275.153325 
L 371.88292 275.127128 
L 397.506346 274.962291 
L 423.129773 275.006657 
" style="fill:none;stroke:#1f77b4;stroke-linecap:square;stroke-width:1.5;"/>
   </g>
   <g id="line2d_67">
    <path clip-path="url(#p35f0b5897e)" d="M 115.648654 292.052324 
L 141.27208 285.635628 
L 166.895507 279.811678 
L 192.518934 273.324965 
L 218.14236 266.973352 
L 243.765787 262.189051 
L 269.389213 259.374069 
L 295.01264 257.582103 
L 320.636066 282.582629 
L 346.259493 281.318203 
L 371.88292 257.247866 
L 397.506346 288.826758 
L 423.129773 288.949735 
" style="fill:none;stroke:#ff7f0e;stroke-linecap:square;stroke-width:1.5;"/>
   </g>
   <g id="line2d_68">
    <path clip-path="url(#p35f0b5897e)" d="M 90.025227 276.939589 
L 115.648654 276.939589 
L 141.27208 276.939567 
L 166.895507 277.127588 
L 192.518934 277.127676 
L 218.14236 277.127676 
L 243.765787 276.824749 
L 269.389213 276.824749 
L 295.01264 276.824661 
L 320.636066 277.212624 
L 346.259493 277.183326 
L 371.88292 277.185635 
L 397.506346 276.866057 
L 423.129773 276.914668 
" style="fill:none;stroke:#2ca02c;stroke-linecap:square;stroke-width:1.5;"/>
   </g>
   <g id="line2d_69">
    <path clip-path="url(#p35f0b5897e)" d="M 90.025227 272.388062 
L 115.648654 272.384725 
L 141.27208 272.700476 
L 166.895507 274.621729 
L 192.518934 276.349198 
L 218.14236 277.609936 
L 243.765787 278.184425 
L 269.389213 279.078689 
L 295.01264 279.827605 
L 320.636066 280.374137 
L 346.259493 280.757591 
L 371.88292 281.241237 
L 397.506346 281.664592 
L 423.129773 282.033595 
" style="fill:none;stroke:#d62728;stroke-linecap:square;stroke-width:1.5;"/>
   </g>
   <g id="line2d_70">
    <path clip-path="url(#p35f0b5897e)" d="M 295.01264 297.397832 
L 320.636066 290.784769 
L 346.259493 281.530593 
L 371.88292 273.037849 
L 397.506346 267.031432 
L 423.129773 259.402378 
" style="fill:none;stroke:#9467bd;stroke-linecap:square;stroke-width:1.5;"/>
   </g>
   <g id="line2d_71">
    <path clip-path="url(#p35f0b5897e)" d="M 90.025227 270.744498 
L 115.648654 272.268151 
L 141.27208 274.242264 
L 166.895507 276.824874 
L 192.518934 278.291245 
L 218.14236 279.400278 
L 243.765787 279.801705 
L 269.389213 280.56108 
L 295.01264 281.129104 
L 320.636066 281.406024 
L 346.259493 281.634398 
L 371.88292 281.983596 
L 397.506346 282.283437 
L 423.129773 282.528194 
" style="fill:none;stroke:#8c564b;stroke-linecap:square;stroke-width:1.5;"/>
   </g>
   <g id="line2d_72">
    <path clip-path="url(#p35f0b5897e)" d="M 192.518934 261.182474 
L 218.14236 263.066848 
L 243.765787 264.685353 
L 269.389213 268.19012 
L 295.01264 294.495069 
L 320.636066 274.046069 
L 346.259493 294.113698 
L 371.88292 294.548457 
L 397.506346 279.919922 
L 423.129773 298.817413 
" style="fill:none;stroke:#e377c2;stroke-linecap:square;stroke-width:1.5;"/>
   </g>
   <g id="line2d_73">
    <path clip-path="url(#p35f0b5897e)" d="M 90.025227 268.624131 
L 115.648654 269.487653 
L 141.27208 270.889436 
L 166.895507 272.929862 
L 192.518934 274.587275 
L 218.14236 275.967189 
L 243.765787 276.664993 
L 269.389213 277.625541 
L 295.01264 278.469043 
L 320.636066 279.435189 
L 346.259493 297.767026 
L 371.88292 297.987051 
L 397.506346 296.289305 
L 423.129773 296.47669 
" style="fill:none;stroke:#7f7f7f;stroke-linecap:square;stroke-width:1.5;"/>
   </g>
   <g id="line2d_74">
    <path clip-path="url(#p35f0b5897e)" d="M 90.025227 274.704872 
L 115.648654 274.705051 
L 141.27208 274.7737 
L 166.895507 275.452089 
L 192.518934 276.243864 
L 218.14236 277.264583 
L 243.765787 277.989017 
L 269.389213 279.359597 
L 295.01264 281.122017 
L 320.636066 282.649012 
L 346.259493 283.690522 
L 371.88292 284.843721 
L 397.506346 297.774757 
L 423.129773 297.968065 
" style="fill:none;stroke:#bcbd22;stroke-linecap:square;stroke-width:1.5;"/>
   </g>
   <g id="line2d_75">
    <path clip-path="url(#p35f0b5897e)" d="M 90.025227 280.510324 
L 115.648654 280.741158 
L 141.27208 281.088159 
L 166.895507 281.147372 
L 192.518934 281.504185 
L 218.14236 281.586909 
L 243.765787 281.396862 
L 269.389213 281.48053 
L 295.01264 281.509697 
L 320.636066 281.97502 
L 346.259493 281.746856 
L 371.88292 281.769732 
L 397.506346 282.100066 
L 423.129773 282.106348 
" style="fill:none;stroke:#17becf;stroke-linecap:square;stroke-width:1.5;"/>
   </g>
   <g id="line2d_76">
    <path clip-path="url(#p35f0b5897e)" d="M 90.025227 276.340952 
L 115.648654 276.341138 
L 141.27208 276.396064 
L 166.895507 277.030874 
L 192.518934 277.825469 
L 218.14236 279.036803 
L 243.765787 280.092271 
L 269.389213 281.695817 
L 295.01264 283.354905 
L 320.636066 285.253665 
L 346.259493 286.265922 
L 371.88292 287.309708 
L 397.506346 288.445565 
L 423.129773 294.759862 
" style="fill:none;stroke:#1f77b4;stroke-linecap:square;stroke-width:1.5;"/>
   </g>
   <g id="line2d_77">
    <path clip-path="url(#p35f0b5897e)" d="M 90.025227 281.513568 
L 115.648654 281.513568 
L 141.27208 281.513546 
L 166.895507 281.666659 
L 192.518934 281.681243 
L 218.14236 281.695606 
L 243.765787 281.480002 
L 269.389213 281.651856 
L 295.01264 282.231866 
L 320.636066 282.909097 
L 346.259493 283.356669 
L 371.88292 283.914287 
L 397.506346 284.342987 
L 423.129773 284.804615 
" style="fill:none;stroke:#ff7f0e;stroke-linecap:square;stroke-width:1.5;"/>
   </g>
   <g id="line2d_78">
    <path clip-path="url(#p35f0b5897e)" d="M 90.025227 282.305644 
L 115.648654 282.305618 
L 141.27208 282.305662 
L 166.895507 282.450021 
L 192.518934 282.449999 
L 218.14236 282.450571 
L 243.765787 282.176788 
L 269.389213 282.167924 
L 295.01264 282.180571 
L 320.636066 282.452836 
L 346.259493 282.571988 
L 371.88292 282.925748 
L 397.506346 283.482178 
L 423.129773 283.917543 
" style="fill:none;stroke:#2ca02c;stroke-linecap:square;stroke-width:1.5;"/>
   </g>
   <g id="line2d_79">
    <path clip-path="url(#p35f0b5897e)" d="M 320.636066 270.885963 
L 346.259493 274.52296 
L 371.88292 292.502661 
L 397.506346 293.0055 
" style="fill:none;stroke:#d62728;stroke-linecap:square;stroke-width:1.5;"/>
   </g>
   <g id="line2d_80">
    <path clip-path="url(#p35f0b5897e)" d="M 90.025227 283.057767 
L 115.648654 283.057765 
L 141.27208 283.057789 
L 166.895507 283.196011 
L 192.518934 283.196011 
L 218.14236 283.199949 
L 243.765787 283.011884 
L 269.389213 283.023652 
L 295.01264 283.097162 
L 320.636066 283.511323 
L 346.259493 283.795043 
L 371.88292 284.239956 
L 397.506346 284.616512 
L 423.129773 285.067855 
" style="fill:none;stroke:#9467bd;stroke-linecap:square;stroke-width:1.5;"/>
   </g>
   <g id="line2d_81">
    <path clip-path="url(#p35f0b5897e)" d="M 90.025227 280.916354 
L 115.648654 280.917669 
L 141.27208 280.93477 
L 166.895507 281.358297 
L 192.518934 281.76113 
L 218.14236 282.438123 
L 243.765787 282.935629 
L 269.389213 283.704768 
L 295.01264 284.396958 
L 320.636066 285.35753 
L 346.259493 285.81684 
L 371.88292 286.346403 
L 397.506346 287.197384 
L 423.129773 287.847283 
" style="fill:none;stroke:#8c564b;stroke-linecap:square;stroke-width:1.5;"/>
   </g>
   <g id="line2d_82">
    <path clip-path="url(#p35f0b5897e)" d="M 90.025227 284.146498 
L 115.648654 284.146476 
L 141.27208 284.146498 
L 166.895507 284.275856 
L 192.518934 284.275856 
L 218.14236 284.275878 
L 243.765787 284.067467 
L 269.389213 284.067489 
L 295.01264 284.067467 
L 320.636066 284.330053 
L 346.259493 284.279617 
L 371.88292 284.263296 
L 397.506346 284.098085 
L 423.129773 284.117639 
" style="fill:none;stroke:#e377c2;stroke-linecap:square;stroke-width:1.5;"/>
   </g>
   <g id="line2d_83">
    <path clip-path="url(#p35f0b5897e)" d="M 90.025227 280.535413 
L 115.648654 280.535631 
L 141.27208 280.534927 
L 166.895507 280.834313 
L 192.518934 281.507827 
L 218.14236 282.500084 
L 243.765787 283.046 
L 269.389213 283.85734 
L 295.01264 284.54564 
L 320.636066 285.050161 
L 346.259493 285.438191 
L 371.88292 285.879628 
L 397.506346 286.218141 
L 423.129773 298.361421 
" style="fill:none;stroke:#7f7f7f;stroke-linecap:square;stroke-width:1.5;"/>
   </g>
   <g id="line2d_84">
    <path clip-path="url(#p35f0b5897e)" d="M 90.025227 280.502419 
L 115.648654 280.503565 
L 141.27208 280.499096 
L 166.895507 281.061377 
L 192.518934 281.692637 
L 218.14236 282.593269 
L 243.765787 283.10228 
L 269.389213 283.9552 
L 295.01264 284.60476 
L 320.636066 285.131962 
L 346.259493 285.499702 
L 371.88292 285.920484 
L 397.506346 286.248203 
L 423.129773 297.918877 
" style="fill:none;stroke:#bcbd22;stroke-linecap:square;stroke-width:1.5;"/>
   </g>
   <g id="line2d_85">
    <path clip-path="url(#p35f0b5897e)" d="M 141.27208 282.757323 
L 166.895507 263.510218 
L 192.518934 264.715434 
L 218.14236 267.682256 
L 243.765787 269.219051 
L 269.389213 271.440817 
L 295.01264 299.097985 
L 320.636066 298.821659 
L 346.259493 297.55338 
L 371.88292 298.922389 
L 397.506346 299.010236 
L 423.129773 298.112324 
" style="fill:none;stroke:#17becf;stroke-linecap:square;stroke-width:1.5;"/>
   </g>
   <g id="patch_3">
    <path d="M 73.37 300.04 
L 73.37 26.88 
" style="fill:none;stroke:#000000;stroke-linecap:square;stroke-linejoin:miter;stroke-width:0.8;"/>
   </g>
   <g id="patch_4">
    <path d="M 439.785 300.04 
L 439.785 26.88 
" style="fill:none;stroke:#000000;stroke-linecap:square;stroke-linejoin:miter;stroke-width:0.8;"/>
   </g>
   <g id="patch_5">
    <path d="M 73.37 300.04 
L 439.785 300.04 
" style="fill:none;stroke:#000000;stroke-linecap:square;stroke-linejoin:miter;stroke-width:0.8;"/>
   </g>
   <g id="patch_6">
    <path d="M 73.37 26.88 
L 439.785 26.88 
" style="fill:none;stroke:#000000;stroke-linecap:square;stroke-linejoin:miter;stroke-width:0.8;"/>
   </g>
   <g id="text_17">
    <!-- Highest peaks with increasing mosaicity at theta=343 degrees -->
    <defs>
     <path d="M 9.8125 72.90625 
L 19.671875 72.90625 
L 19.671875 43.015625 
L 55.515625 43.015625 
L 55.515625 72.90625 
L 65.375 72.90625 
L 65.375 0 
L 55.515625 0 
L 55.515625 34.71875 
L 19.671875 34.71875 
L 19.671875 0 
L 9.8125 0 
z
" id="DejaVuSans-72"/>
     <path d="M 45.40625 27.984375 
Q 45.40625 37.75 41.375 43.109375 
Q 37.359375 48.484375 30.078125 48.484375 
Q 22.859375 48.484375 18.828125 43.109375 
Q 14.796875 37.75 14.796875 27.984375 
Q 14.796875 18.265625 18.828125 12.890625 
Q 22.859375 7.515625 30.078125 7.515625 
Q 37.359375 7.515625 41.375 12.890625 
Q 45.40625 18.265625 45.40625 27.984375 
z
M 54.390625 6.78125 
Q 54.390625 -7.171875 48.1875 -13.984375 
Q 42 -20.796875 29.203125 -20.796875 
Q 24.46875 -20.796875 20.265625 -20.09375 
Q 16.0625 -19.390625 12.109375 -17.921875 
L 12.109375 -9.1875 
Q 16.0625 -11.328125 19.921875 -12.34375 
Q 23.78125 -13.375 27.78125 -13.375 
Q 36.625 -13.375 41.015625 -8.765625 
Q 45.40625 -4.15625 45.40625 5.171875 
L 45.40625 9.625 
Q 42.625 4.78125 38.28125 2.390625 
Q 33.9375 0 27.875 0 
Q 17.828125 0 11.671875 7.65625 
Q 5.515625 15.328125 5.515625 27.984375 
Q 5.515625 40.671875 11.671875 48.328125 
Q 17.828125 56 27.875 56 
Q 33.9375 56 38.28125 53.609375 
Q 42.625 51.21875 45.40625 46.390625 
L 45.40625 54.6875 
L 54.390625 54.6875 
z
" id="DejaVuSans-103"/>
     <path d="M 54.890625 33.015625 
L 54.890625 0 
L 45.90625 0 
L 45.90625 32.71875 
Q 45.90625 40.484375 42.875 44.328125 
Q 39.84375 48.1875 33.796875 48.1875 
Q 26.515625 48.1875 22.3125 43.546875 
Q 18.109375 38.921875 18.109375 30.90625 
L 18.109375 0 
L 9.078125 0 
L 9.078125 75.984375 
L 18.109375 75.984375 
L 18.109375 46.1875 
Q 21.34375 51.125 25.703125 53.5625 
Q 30.078125 56 35.796875 56 
Q 45.21875 56 50.046875 50.171875 
Q 54.890625 44.34375 54.890625 33.015625 
z
" id="DejaVuSans-104"/>
     <path d="M 18.109375 8.203125 
L 18.109375 -20.796875 
L 9.078125 -20.796875 
L 9.078125 54.6875 
L 18.109375 54.6875 
L 18.109375 46.390625 
Q 20.953125 51.265625 25.265625 53.625 
Q 29.59375 56 35.59375 56 
Q 45.5625 56 51.78125 48.09375 
Q 58.015625 40.1875 58.015625 27.296875 
Q 58.015625 14.40625 51.78125 6.484375 
Q 45.5625 -1.421875 35.59375 -1.421875 
Q 29.59375 -1.421875 25.265625 0.953125 
Q 20.953125 3.328125 18.109375 8.203125 
z
M 48.6875 27.296875 
Q 48.6875 37.203125 44.609375 42.84375 
Q 40.53125 48.484375 33.40625 48.484375 
Q 26.265625 48.484375 22.1875 42.84375 
Q 18.109375 37.203125 18.109375 27.296875 
Q 18.109375 17.390625 22.1875 11.75 
Q 26.265625 6.109375 33.40625 6.109375 
Q 40.53125 6.109375 44.609375 11.75 
Q 48.6875 17.390625 48.6875 27.296875 
z
" id="DejaVuSans-112"/>
     <path d="M 4.203125 54.6875 
L 13.1875 54.6875 
L 24.421875 12.015625 
L 35.59375 54.6875 
L 46.1875 54.6875 
L 57.421875 12.015625 
L 68.609375 54.6875 
L 77.59375 54.6875 
L 63.28125 0 
L 52.6875 0 
L 40.921875 44.828125 
L 29.109375 0 
L 18.5 0 
z
" id="DejaVuSans-119"/>
     <path d="M 48.78125 52.59375 
L 48.78125 44.1875 
Q 44.96875 46.296875 41.140625 47.34375 
Q 37.3125 48.390625 33.40625 48.390625 
Q 24.65625 48.390625 19.8125 42.84375 
Q 14.984375 37.3125 14.984375 27.296875 
Q 14.984375 17.28125 19.8125 11.734375 
Q 24.65625 6.203125 33.40625 6.203125 
Q 37.3125 6.203125 41.140625 7.25 
Q 44.96875 8.296875 48.78125 10.40625 
L 48.78125 2.09375 
Q 45.015625 0.34375 40.984375 -0.53125 
Q 36.96875 -1.421875 32.421875 -1.421875 
Q 20.0625 -1.421875 12.78125 6.34375 
Q 5.515625 14.109375 5.515625 27.296875 
Q 5.515625 40.671875 12.859375 48.328125 
Q 20.21875 56 33.015625 56 
Q 37.15625 56 41.109375 55.140625 
Q 45.0625 54.296875 48.78125 52.59375 
z
" id="DejaVuSans-99"/>
     <path d="M 30.609375 48.390625 
Q 23.390625 48.390625 19.1875 42.75 
Q 14.984375 37.109375 14.984375 27.296875 
Q 14.984375 17.484375 19.15625 11.84375 
Q 23.34375 6.203125 30.609375 6.203125 
Q 37.796875 6.203125 41.984375 11.859375 
Q 46.1875 17.53125 46.1875 27.296875 
Q 46.1875 37.015625 41.984375 42.703125 
Q 37.796875 48.390625 30.609375 48.390625 
z
M 30.609375 56 
Q 42.328125 56 49.015625 48.375 
Q 55.71875 40.765625 55.71875 27.296875 
Q 55.71875 13.875 49.015625 6.21875 
Q 42.328125 -1.421875 30.609375 -1.421875 
Q 18.84375 -1.421875 12.171875 6.21875 
Q 5.515625 13.875 5.515625 27.296875 
Q 5.515625 40.765625 12.171875 48.375 
Q 18.84375 56 30.609375 56 
z
" id="DejaVuSans-111"/>
     <path d="M 10.59375 45.40625 
L 73.1875 45.40625 
L 73.1875 37.203125 
L 10.59375 37.203125 
z
M 10.59375 25.484375 
L 73.1875 25.484375 
L 73.1875 17.1875 
L 10.59375 17.1875 
z
" id="DejaVuSans-61"/>
     <path d="M 40.578125 39.3125 
Q 47.65625 37.796875 51.625 33 
Q 55.609375 28.21875 55.609375 21.1875 
Q 55.609375 10.40625 48.1875 4.484375 
Q 40.765625 -1.421875 27.09375 -1.421875 
Q 22.515625 -1.421875 17.65625 -0.515625 
Q 12.796875 0.390625 7.625 2.203125 
L 7.625 11.71875 
Q 11.71875 9.328125 16.59375 8.109375 
Q 21.484375 6.890625 26.8125 6.890625 
Q 36.078125 6.890625 40.9375 10.546875 
Q 45.796875 14.203125 45.796875 21.1875 
Q 45.796875 27.640625 41.28125 31.265625 
Q 36.765625 34.90625 28.71875 34.90625 
L 20.21875 34.90625 
L 20.21875 43.015625 
L 29.109375 43.015625 
Q 36.375 43.015625 40.234375 45.921875 
Q 44.09375 48.828125 44.09375 54.296875 
Q 44.09375 59.90625 40.109375 62.90625 
Q 36.140625 65.921875 28.71875 65.921875 
Q 24.65625 65.921875 20.015625 65.03125 
Q 15.375 64.15625 9.8125 62.3125 
L 9.8125 71.09375 
Q 15.4375 72.65625 20.34375 73.4375 
Q 25.25 74.21875 29.59375 74.21875 
Q 40.828125 74.21875 47.359375 69.109375 
Q 53.90625 64.015625 53.90625 55.328125 
Q 53.90625 49.265625 50.4375 45.09375 
Q 46.96875 40.921875 40.578125 39.3125 
z
" id="DejaVuSans-51"/>
     <path d="M 45.40625 46.390625 
L 45.40625 75.984375 
L 54.390625 75.984375 
L 54.390625 0 
L 45.40625 0 
L 45.40625 8.203125 
Q 42.578125 3.328125 38.25 0.953125 
Q 33.9375 -1.421875 27.875 -1.421875 
Q 17.96875 -1.421875 11.734375 6.484375 
Q 5.515625 14.40625 5.515625 27.296875 
Q 5.515625 40.1875 11.734375 48.09375 
Q 17.96875 56 27.875 56 
Q 33.9375 56 38.25 53.625 
Q 42.578125 51.265625 45.40625 46.390625 
z
M 14.796875 27.296875 
Q 14.796875 17.390625 18.875 11.75 
Q 22.953125 6.109375 30.078125 6.109375 
Q 37.203125 6.109375 41.296875 11.75 
Q 45.40625 17.390625 45.40625 27.296875 
Q 45.40625 37.203125 41.296875 42.84375 
Q 37.203125 48.484375 30.078125 48.484375 
Q 22.953125 48.484375 18.875 42.84375 
Q 14.796875 37.203125 14.796875 27.296875 
z
" id="DejaVuSans-100"/>
    </defs>
    <g transform="translate(67.233437 20.88)scale(0.12 -0.12)">
     <use xlink:href="#DejaVuSans-72"/>
     <use x="75.195312" xlink:href="#DejaVuSans-105"/>
     <use x="102.978516" xlink:href="#DejaVuSans-103"/>
     <use x="166.455078" xlink:href="#DejaVuSans-104"/>
     <use x="229.833984" xlink:href="#DejaVuSans-101"/>
     <use x="291.357422" xlink:href="#DejaVuSans-115"/>
     <use x="343.457031" xlink:href="#DejaVuSans-116"/>
     <use x="382.666016" xlink:href="#DejaVuSans-32"/>
     <use x="414.453125" xlink:href="#DejaVuSans-112"/>
     <use x="477.929688" xlink:href="#DejaVuSans-101"/>
     <use x="539.453125" xlink:href="#DejaVuSans-97"/>
     <use x="600.732422" xlink:href="#DejaVuSans-107"/>
     <use x="658.642578" xlink:href="#DejaVuSans-115"/>
     <use x="710.742188" xlink:href="#DejaVuSans-32"/>
     <use x="742.529297" xlink:href="#DejaVuSans-119"/>
     <use x="824.316406" xlink:href="#DejaVuSans-105"/>
     <use x="852.099609" xlink:href="#DejaVuSans-116"/>
     <use x="891.308594" xlink:href="#DejaVuSans-104"/>
     <use x="954.6875" xlink:href="#DejaVuSans-32"/>
     <use x="986.474609" xlink:href="#DejaVuSans-105"/>
     <use x="1014.257812" xlink:href="#DejaVuSans-110"/>
     <use x="1077.636719" xlink:href="#DejaVuSans-99"/>
     <use x="1132.617188" xlink:href="#DejaVuSans-114"/>
     <use x="1173.699219" xlink:href="#DejaVuSans-101"/>
     <use x="1235.222656" xlink:href="#DejaVuSans-97"/>
     <use x="1296.501953" xlink:href="#DejaVuSans-115"/>
     <use x="1348.601562" xlink:href="#DejaVuSans-105"/>
     <use x="1376.384766" xlink:href="#DejaVuSans-110"/>
     <use x="1439.763672" xlink:href="#DejaVuSans-103"/>
     <use x="1503.240234" xlink:href="#DejaVuSans-32"/>
     <use x="1535.027344" xlink:href="#DejaVuSans-109"/>
     <use x="1632.439453" xlink:href="#DejaVuSans-111"/>
     <use x="1693.621094" xlink:href="#DejaVuSans-115"/>
     <use x="1745.720703" xlink:href="#DejaVuSans-97"/>
     <use x="1807" xlink:href="#DejaVuSans-105"/>
     <use x="1834.783203" xlink:href="#DejaVuSans-99"/>
     <use x="1889.763672" xlink:href="#DejaVuSans-105"/>
     <use x="1917.546875" xlink:href="#DejaVuSans-116"/>
     <use x="1956.755859" xlink:href="#DejaVuSans-121"/>
     <use x="2015.935547" xlink:href="#DejaVuSans-32"/>
     <use x="2047.722656" xlink:href="#DejaVuSans-97"/>
     <use x="2109.001953" xlink:href="#DejaVuSans-116"/>
     <use x="2148.210938" xlink:href="#DejaVuSans-32"/>
     <use x="2179.998047" xlink:href="#DejaVuSans-116"/>
     <use x="2219.207031" xlink:href="#DejaVuSans-104"/>
     <use x="2282.585938" xlink:href="#DejaVuSans-101"/>
     <use x="2344.109375" xlink:href="#DejaVuSans-116"/>
     <use x="2383.318359" xlink:href="#DejaVuSans-97"/>
     <use x="2444.597656" xlink:href="#DejaVuSans-61"/>
     <use x="2528.386719" xlink:href="#DejaVuSans-51"/>
     <use x="2592.009766" xlink:href="#DejaVuSans-52"/>
     <use x="2655.632812" xlink:href="#DejaVuSans-51"/>
     <use x="2719.255859" xlink:href="#DejaVuSans-32"/>
     <use x="2751.042969" xlink:href="#DejaVuSans-100"/>
     <use x="2814.519531" xlink:href="#DejaVuSans-101"/>
     <use x="2876.042969" xlink:href="#DejaVuSans-103"/>
     <use x="2939.519531" xlink:href="#DejaVuSans-114"/>
     <use x="2980.601562" xlink:href="#DejaVuSans-101"/>
     <use x="3042.125" xlink:href="#DejaVuSans-101"/>
     <use x="3103.648438" xlink:href="#DejaVuSans-115"/>
    </g>
   </g>
  </g>
 </g>
 <defs>
  <clipPath id="p35f0b5897e">
   <rect height="273.16" width="366.415" x="73.37" y="26.88"/>
  </clipPath>
 </defs>
</svg>
